<?xml version="1.0" standalone="no"?>
<!DOCTYPE svg PUBLIC "-//W3C//DTD SVG 1.1//EN" "http://www.w3.org/Graphics/SVG/1.1/DTD/svg11.dtd" >
<svg xmlns="http://www.w3.org/2000/svg" xmlns:xlink="http://www.w3.org/1999/xlink" version="1.1">
<metadata>
Created by FontForge 20170731 at Fri Jul 22 02:26:59 2016
 By Aleksey,,,
Copyright (c) 2015 by Radomir Tinkov. All rights reserved.
</metadata>
<defs>
<font id="Gilroy-BlackItalic" horiz-adv-x="578" >
  <font-face 
    font-family="Gilroy"
    font-weight="900"
    font-style="italic"
    font-stretch="normal"
    units-per-em="1000"
    panose-1="0 0 10 0 0 0 0 0 0 0"
    ascent="800"
    descent="-200"
    x-height="500"
    cap-height="700"
    bbox="-414 -277 1171.75 985"
    underline-thickness="50"
    underline-position="-250"
    slope="-10"
    unicode-range="U+0020-FB02"
  />
<missing-glyph horiz-adv-x="500" 
d="M93 800h317v-1000h-317v1000zM333 700v33h-165v-33h65v-37h-66v-33h166v33h-66v37h66zM267 534v70h-100v-104h166v34h-66zM200 570h33v-36h-33v36zM333 440v33h-166v-33h66v-37h-66v-33h100v70h66zM333 313v100h-33v-66h-133v-34h166zM333 178v113h-100v-56h34v23h33v-47
h-100v80h-33v-113h166zM333 5v113h-166v-113h166zM200 85h100v-47h-100v47zM333 -51v33h-166v-33h70l-70 -47v-33h166v33h-102l70 47h32z" />
    <glyph glyph-name="fi" unicode="fi" horiz-adv-x="572" 
d="M288 500h280l-88 -500h-166l60 341h-114l-60 -341h-166l60 341h-62l27 159h63q19 111 89.5 163t200.5 52q66 0 127 -15l-25 -145q-54 9 -109 9q-105 0 -117 -64z" />
    <glyph glyph-name="fl" unicode="fl" horiz-adv-x="572" 
d="M412 715q86 0 191 -20l-123 -695h-166l101 573q-7 1 -30 1q-82 0 -97 -74h66l-28 -159h-66l-60 -341h-166l60 341h-62l27 159h63q19 111 89.5 163t200.5 52z" />
    <glyph glyph-name="f_f" unicode="ff" horiz-adv-x="612" 
d="M696 725l-27 -154q-84 6 -96 -61l-2 -10h85l-27 -159h-86l-60 -341h-167l60 341h-116l-60 -341h-166l60 341h-62l27 159h63q41 230 290 215l-27 -154q-84 6 -97 -61h116l2 10q41 230 290 215z" />
    <glyph glyph-name="f_f_i" unicode="ffi" horiz-adv-x="855" 
d="M571 500h280l-88 -500h-167l60 341h-113l-60 -341h-167l60 341h-116l-60 -341h-166l60 341h-62l27 159h63q20 112 93.5 167t196.5 48l-27 -154q-84 6 -97 -61h116l2 10q38 215 285 215q71 0 132 -15l-25 -145q-54 9 -109 9q-106 0 -116 -64z" />
    <glyph glyph-name="f_f_l" unicode="ffl" horiz-adv-x="855" 
d="M696 725q86 0 191 -20l-124 -705h-167l103 583q-7 1 -30 1q-82 0 -96 -74l-2 -10h65l-27 -159h-66l-60 -341h-167l60 341h-116l-60 -341h-166l60 341h-62l27 159h63q41 230 290 215l-27 -154q-84 6 -97 -61h116l2 10q19 111 89.5 163t200.5 52z" />
    <glyph glyph-name=".notdef" horiz-adv-x="500" 
d="M93 800h317v-1000h-317v1000zM333 700v33h-165v-33h65v-37h-66v-33h166v33h-66v37h66zM267 534v70h-100v-104h166v34h-66zM200 570h33v-36h-33v36zM333 440v33h-166v-33h66v-37h-66v-33h100v70h66zM333 313v100h-33v-66h-133v-34h166zM333 178v113h-100v-56h34v23h33v-47
h-100v80h-33v-113h166zM333 5v113h-166v-113h166zM200 85h100v-47h-100v47zM333 -51v33h-166v-33h70l-70 -47v-33h166v33h-102l70 47h32z" />
    <glyph glyph-name=".null" horiz-adv-x="0" 
 />
    <glyph glyph-name="nonmarkingreturn" horiz-adv-x="333" 
 />
    <glyph glyph-name="space" unicode=" " horiz-adv-x="227" 
 />
    <glyph glyph-name="exclam" unicode="!" horiz-adv-x="294" 
d="M217 255h-138l10 245l35 200h204l-35 -200zM100 -14q-43 0 -68 31t-17 75q8 43 42.5 72.5t79.5 29.5q43 0 68.5 -31.5t17.5 -74.5q-8 -45 -42 -73.5t-81 -28.5z" />
    <glyph glyph-name="quotedbl" unicode="&#x22;" horiz-adv-x="442" 
d="M212 441h-114l26 259h154zM411 441h-114l25 259h154z" />
    <glyph glyph-name="numbersign" unicode="#" horiz-adv-x="631" 
d="M656 505l-40 -120h-101l-24 -70h101l-40 -120h-102l-50 -145h-128l50 145h-82l-50 -145h-128l50 145h-102l40 120h103l24 70h-102l40 120h103l50 145h128l-50 -145h82l50 145h128l-50 -145h100zM281 315h82l24 70h-82z" />
    <glyph glyph-name="dollar" unicode="$" horiz-adv-x="567" 
d="M363 421q50 -22 56 -25q17 -6 28 -14q39 -24 49 -36q62 -62 42 -161q-17 -92 -84.5 -143.5t-173.5 -56.5l-15 -85h-70l16 88q-82 10 -136.5 53.5t-73.5 112.5l158 82q26 -67 81 -80l22 121l-14 6q-80 34 -127 83q-54 57 -37 153q17 92 88 143t167 53l15 85h70l-16 -92
q123 -29 171 -148l-154 -82q-19 42 -48 58l-20 -113q1 -1 3 -1t3 -1zM260 503q-6 -30 33 -51l16 94q-41 -7 -49 -43zM360 202q4 28 -33 48l-17 -94q43 10 50 46z" />
    <glyph glyph-name="percent" unicode="%" horiz-adv-x="823" 
d="M242 356q-80 0 -123 54q-43 55 -33 127q12 75 69 126q58 52 142 52q81 0 124 -58q43 -57 30 -132q-15 -71 -72 -121q-55 -48 -137 -48zM178 69l-63 42l546 500l63 -41zM259 483q35 0 53.5 33t-0.5 57q-18 25 -54 11t-39 -48q-5 -23 6.5 -38t33.5 -15zM564 -14
q-81 0 -124 55q-44 56 -32 129t69 124q59 51 141 51q80 0 123 -57q45 -57 31 -131q-14 -72 -71 -122q-55 -49 -137 -49zM580 113q23 0 40 15t21 37q4 24 -7.5 38.5t-34.5 14.5q-22 0 -38.5 -15t-20.5 -38q-5 -22 6.5 -37t33.5 -15z" />
    <glyph glyph-name="ampersand" unicode="&#x26;" horiz-adv-x="696" 
d="M523 373l135 -86q-44 -88 -90 -146l76 -104l-148 -75l-53 71q-83 -48 -188 -48q-121 0 -182 64q-62 65 -45 160q23 126 152 190q-27 63 -17 124q13 87 83 140q70 52 169 52q175 0 233 -159l-162 -85q-26 74 -81 74q-25 0 -43 -14t-22 -38q-2 -17 4 -34q7 -21 38 -64
l92 -125q29 50 49 103zM289 140q32 0 65 14l-94 127q-2 2 -2 3q-41 -25 -49 -69q-6 -33 15.5 -54t64.5 -21z" />
    <glyph glyph-name="quotesingle" unicode="'" horiz-adv-x="243" 
d="M212 441h-114l26 259h154z" />
    <glyph glyph-name="parenleft" unicode="(" horiz-adv-x="327" 
d="M260 -100h-164q-72 219 -31 465q41 230 187 435h167q-149 -218 -189 -450t30 -450z" />
    <glyph glyph-name="parenright" unicode=")" horiz-adv-x="326" 
d="M102 800h164q72 -219 31 -465q-41 -230 -187 -435h-167q149 218 189 450t-30 450z" />
    <glyph glyph-name="asterisk" unicode="*" horiz-adv-x="405" 
d="M329 595l93 10l-17 -96l-89 10l44 -70l-85 -50l-28 82l-57 -82l-75 50l68 70l-92 -10l17 96l89 -10l-44 70l85 50l28 -82l57 82l75 -50z" />
    <glyph glyph-name="plus" unicode="+" horiz-adv-x="560" 
d="M391 429h160l-28 -158h-160l-28 -160h-159l28 160h-160l29 158h160l28 160h158z" />
    <glyph glyph-name="comma" unicode="," horiz-adv-x="302" 
d="M64 174h184l-140 -314h-134z" />
    <glyph glyph-name="hyphen" unicode="-" horiz-adv-x="500" 
d="M440 222h-390l28 158h390z" />
    <glyph glyph-name="period" unicode="." horiz-adv-x="289" 
d="M98 -14q-43 0 -68 31t-17 75q8 43 42.5 72.5t79.5 29.5q43 0 68 -31.5t17 -74.5q-8 -45 -41.5 -73.5t-80.5 -28.5z" />
    <glyph glyph-name="slash" unicode="/" horiz-adv-x="520" 
d="M592 800l-554 -900h-75l554 900h75z" />
    <glyph glyph-name="zero" unicode="0" horiz-adv-x="630" 
d="M621 340q-30 -166 -119 -261q-88 -94 -226 -94q-137 0 -199 104q-61 105 -33 271q28 164 118 260q90 95 227 95t199 -105q62 -104 33 -270zM299 159q109 0 144 191q33 191 -77 191t-143 -191q-35 -191 76 -191z" />
    <glyph glyph-name="one" unicode="1" horiz-adv-x="415" 
d="M73 632l202 68h154l-123 -700h-179l89 504l-127 -31z" />
    <glyph glyph-name="two" unicode="2" horiz-adv-x="540" 
d="M468 0h-490l22 130l278 245q77 68 84 109q5 25 -8 41t-39 16q-60 0 -106 -76l-145 89q47 79 119 120t155 41q98 0 159 -67q63 -66 45 -169q-11 -60 -42 -106t-94 -101l-116 -99h208z" />
    <glyph glyph-name="three" unicode="3" horiz-adv-x="548" 
d="M114 700h455l-25 -141l-141 -149q62 -25 93 -78.5t19 -123.5q-20 -112 -99 -167q-79 -56 -187 -56q-89 0 -150 40t-85 118l164 85q21 -69 90 -69q78 0 90 66q5 30 -12.5 47.5t-54.5 17.5h-37l-51 102l130 137h-229z" />
    <glyph glyph-name="four" unicode="4" 
d="M504 270h70l-29 -163h-70l-19 -107h-178l19 107h-307l29 163l278 430h204l-280 -430h105l22 126h178z" />
    <glyph glyph-name="five" unicode="5" horiz-adv-x="549" 
d="M571 700l-30 -171h-245l-19 -75h43q101 0 161 -65q61 -64 41 -179q-20 -110 -99 -168q-79 -57 -186 -57q-190 0 -243 158l165 86q22 -70 97 -70q36 0 60 17t29 47t-11.5 48t-51.5 18h-225l101 411h413z" />
    <glyph glyph-name="six" unicode="6" horiz-adv-x="560" 
d="M552 700l-187 -226q91 -16 141 -88q50 -71 34 -164q-19 -108 -99 -173q-79 -64 -197 -64q-122 0 -186 73t-44 184q15 87 70 146l259 312h209zM362 232q7 39 -12.5 61.5t-57.5 22.5q-39 0 -66 -22.5t-34 -61.5t12 -61t58 -22q38 0 65.5 22.5t34.5 60.5z" />
    <glyph glyph-name="seven" unicode="7" horiz-adv-x="490" 
d="M49 527l31 173h473l-25 -148l-309 -552h-200l296 527h-266z" />
    <glyph glyph-name="eight" unicode="8" horiz-adv-x="569" 
d="M567 501q-17 -91 -97 -140q40 -30 57 -75.5t8 -97.5q-17 -97 -91 -149.5t-196 -52.5q-127 0 -189 61q-62 62 -44 159q19 109 125 165q-62 56 -47 143q17 94 90 147q74 53 176 53t163 -58t45 -155zM259 492q-5 -28 10.5 -44t47.5 -16q30 0 52.5 16.5t26.5 43.5
q5 27 -11 43.5t-47 16.5q-32 0 -53 -16.5t-26 -43.5zM363 222q5 34 -14 53.5t-56 19.5q-38 0 -64 -19.5t-32 -53.5q-7 -33 12.5 -52.5t57.5 -19.5q37 0 63 19.5t33 52.5z" />
    <glyph glyph-name="nine" unicode="9" horiz-adv-x="560" 
d="M351 715q121 0 186 -74q64 -73 44 -183q-15 -87 -70 -146l-259 -312h-209l187 226q-93 17 -142 87q-50 71 -33 165q19 108 99 173q79 64 197 64zM233 468q-7 -39 12.5 -61.5t57.5 -22.5q39 0 66 22.5t34 61.5t-12 61t-58 22q-38 0 -65.5 -22.5t-34.5 -60.5z" />
    <glyph glyph-name="colon" unicode=":" horiz-adv-x="289" 
d="M155 307q-43 0 -68 31t-17 75q8 43 42.5 72.5t79.5 29.5q43 0 68 -31.5t17 -74.5q-8 -45 -41.5 -73.5t-80.5 -28.5zM98 -14q-43 0 -68 31t-17 75q8 43 42.5 72.5t79.5 29.5q43 0 68 -31.5t17 -74.5q-8 -45 -41.5 -73.5t-80.5 -28.5z" />
    <glyph glyph-name="semicolon" unicode=";" horiz-adv-x="302" 
d="M167 307q-43 0 -68 31t-17 75q8 43 42.5 72.5t79.5 29.5q43 0 68 -31.5t17 -74.5q-8 -45 -41.5 -73.5t-80.5 -28.5zM62 174h184l-140 -314h-134z" />
    <glyph glyph-name="less" unicode="&#x3c;" horiz-adv-x="521" 
d="M66 424l485 195l-33 -181l-287 -97l254 -97l-30 -163l-415 195z" />
    <glyph glyph-name="equal" unicode="=" horiz-adv-x="511" 
d="M497 380h-439l29 159h439zM459 161h-439l28 159h439z" />
    <glyph glyph-name="greater" unicode="&#x3e;" horiz-adv-x="521" 
d="M72 456l29 163l415 -195l-26 -148l-485 -195l33 181l288 97z" />
    <glyph glyph-name="question" unicode="?" horiz-adv-x="548" 
d="M348 255h-169q7 47 37 85.5t61.5 58.5t59.5 45t33 50q4 22 -8.5 35t-36.5 13q-66 0 -108 -83l-144 91q41 80 114.5 122.5t164.5 42.5q98 0 157 -59q60 -58 43 -152q-7 -42 -29.5 -76.5t-50 -56.5t-54.5 -41t-47 -37.5t-23 -37.5zM216 -14q-43 0 -68 31t-17 75
q8 43 42.5 72.5t79.5 29.5q43 0 68.5 -31.5t17.5 -74.5q-8 -45 -42 -73.5t-81 -28.5z" />
    <glyph glyph-name="at" unicode="@" horiz-adv-x="769" 
d="M449 612q63 0 117 -20.5t89.5 -55.5t60 -80.5t30 -95t-1.5 -99.5q-19 -105 -71 -160t-133 -55q-47 0 -80 21t-44 57q-42 -39 -101 -39q-66 0 -100 51q-35 51 -21 123q13 70 58.5 113t105.5 43q56 0 89 -43l6 31h136l-42 -236q-11 -63 40 -63q84 0 113 161q23 129 -52 217
q-74 89 -204 89q-134 0 -241 -90q-106 -90 -130 -226q-24 -138 56 -233q81 -93 224 -93q87 0 156 22l-8 -43q-69 -20 -154 -20q-161 0 -254 107q-92 107 -64 264q27 152 145 252q119 101 275 101zM330 250q-9 -38 23 -49q31 -10 56 14q14 14 16 35q5 23 -5.5 37.5
t-32.5 14.5q-45 0 -57 -52z" />
    <glyph glyph-name="A" unicode="A" horiz-adv-x="671" 
d="M631 0h-191l-11 101h-233l-48 -101h-197l354 700h218zM386 497l-116 -242h142z" />
    <glyph glyph-name="B" unicode="B" horiz-adv-x="602" 
d="M605 494q-17 -91 -90 -137q73 -55 60 -159q-12 -91 -84.5 -144.5t-189.5 -53.5h-290l123 700h266q104 0 162 -58t43 -148zM374 540h-89l-19 -110h88q28 0 47 14.5t23 40.5q4 25 -9.5 40t-40.5 15zM400 219q5 27 -8.5 43t-43.5 16h-109l-21 -118h108q29 0 49 16t25 43z
" />
    <glyph glyph-name="C" unicode="C" horiz-adv-x="722" 
d="M359 -15q-161 0 -250 108q-88 107 -62 267q25 154 141 255q116 100 272 100q101 0 174 -43.5t112 -123.5l-164 -87q-40 79 -139 79q-81 0 -143 -53q-60 -53 -75 -137q-14 -84 26 -137q41 -53 120 -53q101 0 164 84l147 -95q-56 -78 -140.5 -121t-182.5 -43z" />
    <glyph glyph-name="D" unicode="D" horiz-adv-x="709" 
d="M134 700h285q139 0 221 -106t57 -254q-27 -150 -137 -245t-264 -95h-285zM523 353q13 79 -24 126.5t-110 47.5h-101l-63 -354h96q76 0 131 49q56 50 71 131z" />
    <glyph glyph-name="E" unicode="E" horiz-adv-x="535" 
d="M579 700l-30 -167h-265l-18 -98h242l-30 -164h-240l-18 -103h270l-29 -168h-450l123 700h445z" />
    <glyph glyph-name="F" unicode="F" horiz-adv-x="518" 
d="M564 700l-30 -173h-251l-20 -114h245l-30 -173h-246l-42 -240h-179l123 700h430z" />
    <glyph glyph-name="G" unicode="G" horiz-adv-x="779" 
d="M424 401h353l-12 -71q-25 -159 -135 -252q-109 -93 -268 -93q-164 0 -252 108q-88 109 -63 267q25 153 142 255q115 100 272 100q101 0 177 -43.5t116 -121.5l-164 -88q-44 78 -147 78q-81 0 -143 -53q-60 -53 -75 -137t27 -140q42 -55 126 -55q128 0 181 92h-162z" />
    <glyph glyph-name="H" unicode="H" horiz-adv-x="665" 
d="M464 441l46 259h178l-123 -700h-178l47 269h-197l-47 -269h-179l123 700h179l-46 -259h197z" />
    <glyph glyph-name="I" unicode="I" horiz-adv-x="289" 
d="M11 0l123 700h179l-123 -700h-179z" />
    <glyph glyph-name="J" unicode="J" horiz-adv-x="569" 
d="M234 -15q-175 0 -230 145l162 87q18 -58 81 -58q82 0 94 71l83 470h179l-84 -473q-42 -242 -285 -242z" />
    <glyph glyph-name="K" unicode="K" horiz-adv-x="631" 
d="M502 700h209l-298 -348l178 -352h-185l-160 319l-56 -319h-179l123 700h179l-50 -284z" />
    <glyph glyph-name="L" unicode="L" horiz-adv-x="485" 
d="M313 700l-93 -527h241l-30 -173h-420l123 700h179z" />
    <glyph glyph-name="M" unicode="M" horiz-adv-x="825" 
d="M658 700h190l-123 -700h-178l66 378l-219 -282h-18l-119 287l-67 -383h-179l123 700h179l114 -302z" />
    <glyph glyph-name="N" unicode="N" horiz-adv-x="675" 
d="M190 0h-179l123 700h139l182 -366l65 366h178l-123 -700h-138l-182 366z" />
    <glyph glyph-name="O" unicode="O" horiz-adv-x="790" 
d="M360 -15q-104 -2 -184 51.5t-114.5 141t-14.5 183.5q25 150 141 252t279 102q159 0 247 -112q89 -112 64 -262q-26 -152 -140 -254q-112 -102 -278 -102zM600 350q15 83 -29 136q-43 54 -125 54q-81 0 -144 -54q-62 -53 -77 -136q-15 -84 27 -137q44 -53 124 -53t145 53
q66 55 79 137z" />
    <glyph glyph-name="P" unicode="P" horiz-adv-x="592" 
d="M134 700h264q105 0 167 -72q62 -71 46 -183q-15 -107 -93 -171q-76 -64 -199 -64h-92l-37 -210h-179zM433 455q7 34 -11 54t-54 20h-85l-26 -149h87q35 0 59 20.5t30 54.5z" />
    <glyph glyph-name="Q" unicode="Q" horiz-adv-x="795" 
d="M467 715q159 0 247 -112q89 -112 64 -262q-21 -129 -112 -226l51 -67l-132 -100l-55 72q-79 -35 -170 -35q-102 -2 -181.5 52t-115 142t-16.5 182q26 151 142 252q117 102 278 102zM338 268l133 100l88 -115q32 46 41 97q15 83 -29 136q-43 54 -125 54q-81 0 -144 -54
q-62 -53 -77 -136q-15 -84 27 -137q44 -53 124 -53q25 0 42 4z" />
    <glyph glyph-name="R" unicode="R" horiz-adv-x="620" 
d="M624 448q-25 -137 -152 -194l96 -254h-180l-82 226h-76l-40 -226h-179l124 700h274q104 0 169 -74q65 -75 46 -178zM380 535h-96l-28 -157h103q33 -1 56.5 21t29.5 57t-11.5 57t-53.5 22z" />
    <glyph glyph-name="S" unicode="S" horiz-adv-x="588" 
d="M269 -15q-110 0 -180 46t-92 128l159 82q28 -87 128 -87q82 0 91 48q6 33 -46 55q-2 1 -73 26q-93 32 -139 84q-47 54 -31 145q16 96 91 149q75 54 177 54q88 0 151.5 -41.5t93.5 -118.5l-153 -82q-33 73 -106 73q-63 0 -72 -45q-6 -24 17 -40.5t91 -40.5
q50 -17 78 -31.5t57 -39.5q63 -51 45 -162q-18 -98 -93.5 -150t-193.5 -52z" />
    <glyph glyph-name="T" unicode="T" horiz-adv-x="545" 
d="M89 700h525l-31 -173h-172l-93 -527h-179l93 527h-173z" />
    <glyph glyph-name="U" unicode="U" horiz-adv-x="645" 
d="M290 -15q-128 0 -198 69q-70 70 -50 176l83 470h179l-80 -453q-16 -88 83 -88q98 0 114 88l79 453h179l-83 -470q-21 -117 -104 -182q-82 -63 -202 -63z" />
    <glyph glyph-name="V" unicode="V" horiz-adv-x="640" 
d="M383 0h-214l-95 700h186l45 -492l217 492h202z" />
    <glyph glyph-name="W" unicode="W" horiz-adv-x="1004" 
d="M346 0h-189l-73 700h181l35 -441l202 441h143l48 -441l188 441h196l-318 -700h-189l-43 395z" />
    <glyph glyph-name="X" unicode="X" horiz-adv-x="632" 
d="M490 700h208l-264 -350l148 -350h-193l-79 186l-141 -186h-208l274 363l-143 337h194l73 -173z" />
    <glyph glyph-name="Y" unicode="Y" horiz-adv-x="631" 
d="M498 700h212l-295 -395l-54 -305h-179l54 305l-157 395h190l75 -225z" />
    <glyph glyph-name="Z" unicode="Z" horiz-adv-x="542" 
d="M117 700h474l-23 -138l-312 -389h250l-30 -173h-487l24 138l313 389h-240z" />
    <glyph glyph-name="bracketleft" unicode="[" horiz-adv-x="329" 
d="M406 800l-27 -159h-98l-103 -582h98l-29 -159h-264l159 900h264z" />
    <glyph glyph-name="backslash" unicode="\" horiz-adv-x="520" 
d="M433 -100h-68l-243 900h68z" />
    <glyph glyph-name="bracketright" unicode="]" horiz-adv-x="329" 
d="M117 800h264l-159 -900h-264l28 159h98l103 582h-98z" />
    <glyph glyph-name="asciicircum" unicode="^" horiz-adv-x="580" 
d="M310 700h118l138 -354h-174l-51 158l-110 -158h-184z" />
    <glyph glyph-name="underscore" unicode="_" horiz-adv-x="515" 
d="M413 -186h-465l28 158h465z" />
    <glyph glyph-name="grave" unicode="`" horiz-adv-x="314" 
d="M348 555h-154l-95 145h188z" />
    <glyph glyph-name="a" unicode="a" horiz-adv-x="615" 
d="M435 445l10 55h166l-88 -500h-166l7 39q-59 -53 -146 -53q-106 0 -159 81q-51 81 -33 190q16 106 90 181q73 76 181 76q96 0 138 -69zM401 247v3q8 49 -15 79t-71 30q-47 0 -81 -30q-35 -30 -42 -79t15 -79q23 -30 70 -30t81 29t43 77z" />
    <glyph glyph-name="b" unicode="b" horiz-adv-x="615" 
d="M392 514q104 0 159 -81q56 -81 38 -193q-19 -109 -91 -182q-71 -72 -175 -72q-99 0 -143 71l-10 -57h-166l123 700h166l-42 -241q56 55 141 55zM423 250q9 50 -15 79.5t-70 29.5t-80.5 -29.5t-43.5 -79.5q-8 -50 15.5 -79.5t71.5 -29.5q46 0 80 29.5t42 79.5z" />
    <glyph glyph-name="c" unicode="c" horiz-adv-x="532" 
d="M260 -14q-120 0 -186 79t-48 195q18 112 102 182q84 72 196 72q77 0 132 -34.5t83 -96.5l-151 -79q-22 48 -78 48q-45 0 -78 -28t-40 -73q-8 -45 15.5 -74t65.5 -29q58 0 93 50l132 -84q-38 -62 -100.5 -95t-137.5 -33z" />
    <glyph glyph-name="d" unicode="d" horiz-adv-x="616" 
d="M436 444l45 256h166l-123 -700h-166l7 40q-59 -54 -147 -54q-106 0 -159 81q-51 81 -33 190q16 106 90 181q73 76 181 76q96 0 139 -70zM278 141q46 0 79.5 28t43.5 75l2 10q7 47 -17 76q-23 29 -70 29q-48 0 -82 -30q-35 -30 -42 -79q-8 -49 15.5 -79t70.5 -30z" />
    <glyph glyph-name="e" unicode="e" horiz-adv-x="568" 
d="M324 514q112 0 177 -77q64 -76 44 -186q-5 -34 -17 -62h-343q13 -61 96 -61q60 0 99 36l106 -97q-87 -81 -218 -81q-130 0 -196 79q-65 81 -46 195q18 110 102 182t196 72zM205 305h189q-4 69 -79 69q-74 0 -110 -69z" />
    <glyph glyph-name="f" unicode="f" horiz-adv-x="331" 
d="M412 715l-27 -154q-84 6 -97 -61h86l-28 -159h-86l-60 -341h-166l60 341h-62l27 159h63q20 112 93.5 167t196.5 48z" />
    <glyph glyph-name="g" unicode="g" horiz-adv-x="619" 
d="M441 441l10 59h164l-85 -480q-21 -121 -102 -178q-80 -57 -193 -57q-85 0 -146.5 31.5t-87.5 90.5l147 77q28 -54 102 -54q47 0 77.5 23t38.5 67l7 38q-58 -52 -142 -52q-110 0 -164 78.5t-36 182.5q15 99 87 173q74 74 182 74q98 0 141 -73zM284 157q44 0 78 26t45 67
l3 20q4 41 -20.5 67t-68.5 26q-47 0 -81.5 -29t-42.5 -74t16 -74t71 -29z" />
    <glyph glyph-name="h" unicode="h" 
d="M395 514q83 0 125.5 -57.5t25.5 -157.5l-53 -299h-166l49 278q6 39 -10.5 59t-51.5 20q-80 0 -97 -91v1l-47 -267h-166l123 700h166l-44 -251q57 65 146 65z" />
    <glyph glyph-name="i" unicode="i" horiz-adv-x="262" 
d="M184 541q-39 0 -63 28.5t-17 67.5q6 39 38 67t73 28q40 0 63.5 -28t16.5 -67q-6 -40 -38 -68t-73 -28zM170 0h-166l88 500h166z" />
    <glyph glyph-name="j" unicode="j" horiz-adv-x="277" 
d="M230 732q40 0 63.5 -28t16.5 -67q-6 -40 -38 -68t-73 -28q-39 0 -63 28.5t-17 67.5q6 39 38 67t73 28zM19 0l88 500h166l-88 -500q-21 -122 -86.5 -172t-190.5 -43l27 154q73 -4 84 61z" />
    <glyph glyph-name="k" unicode="k" horiz-adv-x="537" 
d="M382 500h191l-210 -251l130 -249h-178l-106 220l-39 -220h-166l123 700h166l-70 -398z" />
    <glyph glyph-name="l" unicode="l" horiz-adv-x="263" 
d="M171 0h-166l56 321l72 409h166l-72 -414z" />
    <glyph glyph-name="m" unicode="m" horiz-adv-x="850" 
d="M662 514q86 0 130 -56.5t27 -151.5l-53 -306h-167l50 287q13 70 -49 70q-63 0 -81 -68l-51 -289h-166l50 287q10 70 -50 70q-65 0 -83 -77l-49 -280h-166l88 500h166l-8 -46q56 60 139 60q87 0 120 -67q64 67 153 67z" />
    <glyph glyph-name="n" unicode="n" 
d="M395 514q83 0 125.5 -57.5t25.5 -157.5l-53 -299h-166l49 278q6 39 -10.5 59t-51.5 20q-80 0 -97 -91v1l-47 -267h-166l88 500h166l-9 -51q57 65 146 65z" />
    <glyph glyph-name="o" unicode="o" horiz-adv-x="583" 
d="M258 -14q-83 0 -142.5 42.5t-81.5 106.5t-7 131q19 103 100 176q81 72 202 72q120 0 183 -86t44 -192q-18 -103 -100 -176q-83 -74 -198 -74zM271 146q44 0 77 29t41 75t-14.5 75t-66.5 29q-43 0 -76 -29t-41 -75t14.5 -75t65.5 -29z" />
    <glyph glyph-name="p" unicode="p" horiz-adv-x="615" 
d="M393 514q103 0 158 -82q56 -82 38 -192q-18 -107 -90 -181q-70 -73 -176 -73q-98 0 -143 71l-45 -257h-166l123 700h166l-7 -41q56 55 142 55zM423 250q9 50 -14 79.5t-70 29.5q-46 0 -80 -28.5t-44 -76.5l-2 -7q-7 -48 17 -77t70 -29q48 0 81.5 29.5t41.5 79.5z" />
    <glyph glyph-name="q" unicode="q" horiz-adv-x="615" 
d="M435 445l10 55h166l-123 -700h-166l42 239q-59 -53 -146 -53q-106 0 -159 81q-51 81 -33 190q16 106 90 181q73 76 181 76q96 0 138 -69zM315 359q-47 0 -81 -30t-42 -79t15 -79t70 -30t81.5 30t42.5 79t-15 79t-71 30z" />
    <glyph glyph-name="r" unicode="r" horiz-adv-x="380" 
d="M258 500l-17 -94q23 50 67.5 77t101.5 27l-31 -184q-58 8 -109 -20t-63 -99l2 16l-39 -223h-166l88 500h166z" />
    <glyph glyph-name="s" unicode="s" horiz-adv-x="473" 
d="M210 -14q-166 0 -220 123l146 71q22 -57 83 -57q43 0 48 24q3 14 -18.5 24.5t-63.5 21.5q-156 39 -133 170q14 76 76 113q64 38 139 38q70 0 122 -29t76 -82l-141 -68q-18 44 -62 46q-38 2 -44 -27q-3 -17 11 -25.5t50.5 -17.5t54.5 -16q120 -35 99 -160
q-13 -76 -76 -113q-61 -36 -147 -36z" />
    <glyph glyph-name="t" unicode="t" horiz-adv-x="394" 
d="M374 341h-104l-25 -145q-6 -32 14.5 -41t81.5 -5l-26 -150q-141 -19 -199 28.5t-38 163.5l26 149h-75l28 159h75l16 90l175 50l-25 -140h105z" />
    <glyph glyph-name="u" unicode="u" 
d="M361 233l47 267h166l-88 -500h-166l9 51q-57 -65 -146 -65q-83 0 -125.5 57.5t-25.5 157.5l53 299h166l-49 -278q-6 -39 10.5 -59t51.5 -20q80 0 97 91v-1z" />
    <glyph glyph-name="v" unicode="v" horiz-adv-x="533" 
d="M254 216l140 284h183l-270 -500h-169l-94 500h169z" />
    <glyph glyph-name="w" unicode="w" horiz-adv-x="790" 
d="M535 233l112 267h181l-241 -500h-162l-27 251l-109 -251h-170l-65 500h166l23 -272l118 272h145z" />
    <glyph glyph-name="x" unicode="x" horiz-adv-x="549" 
d="M394 500h192l-220 -250l139 -250h-176l-71 127l-111 -127h-191l228 260l-133 240h176l65 -117z" />
    <glyph glyph-name="y" unicode="y" horiz-adv-x="549" 
d="M272 211l130 289h191l-254 -485q-64 -123 -146.5 -173.5t-195.5 -41.5l28 156q53 0 80 13.5t51 50.5l-112 480h176z" />
    <glyph glyph-name="z" unicode="z" horiz-adv-x="455" 
d="M79 500h390l-20 -114l-212 -232h181l-27 -154h-410l21 114l211 232h-161z" />
    <glyph glyph-name="braceleft" unicode="{" horiz-adv-x="363" 
d="M307 47l-28 -154q-109 -7 -160.5 45.5t-34.5 149.5l24 134q6 30 -10 42t-53 8l28 159q38 -4 56.5 6.5t24.5 43.5l24 134q19 108 82.5 155.5t180.5 39.5l-27 -154q-62 9 -70 -41l-24 -134q-9 -51 -30 -80.5t-60 -48.5q61 -37 44 -130l-23 -134q-4 -26 9.5 -35.5t46.5 -5.5
z" />
    <glyph glyph-name="bar" unicode="|" horiz-adv-x="277" 
d="M143 -200h-167l162 920h167z" />
    <glyph glyph-name="braceright" unicode="}" horiz-adv-x="363" 
d="M91 655l28 154q109 7 160.5 -45.5t34.5 -149.5l-24 -134q-6 -30 10 -42t53 -8l-28 -159q-38 4 -56.5 -6.5t-24.5 -43.5l-24 -134q-19 -108 -82.5 -155.5t-180.5 -39.5l27 154q62 -9 70 41l24 134q9 51 30 80.5t60 48.5q-61 37 -44 130l23 134q4 26 -9.5 35.5t-46.5 5.5z
" />
    <glyph glyph-name="asciitilde" unicode="~" horiz-adv-x="606" 
d="M164 235l-121 61q25 74 71 116.5t98 48t109 -19.5q66 -33 98 -30q31 3 57 50l121 -61q-38 -110 -118 -149t-159 4q-68 33 -99 30t-57 -50z" />
    <glyph glyph-name="exclamdown" unicode="&#xa1;" horiz-adv-x="294" 
d="M194 514q43 0 68 -31t17 -75q-8 -43 -42.5 -72.5t-79.5 -29.5q-43 0 -68.5 31.5t-17.5 74.5q8 45 42 73.5t81 28.5zM77 245h138l-10 -245l-35 -200h-204l35 200z" />
    <glyph glyph-name="cent" unicode="&#xa2;" horiz-adv-x="532" 
d="M288 248h2q58 0 93 50l132 -84q-38 -62 -100.5 -95t-137.5 -33q-31 0 -66 7l-46 -93h-65l56 113q-65 33 -95.5 99t-17.5 148q18 112 102 182q84 72 196 72q33 0 60 -6l46 92h65l-55 -112q66 -33 99 -105l-151 -79q-11 21 -24 31zM209 351q-9 -54 24 -83l91 184
q-43 -1 -75.5 -29t-39.5 -72z" />
    <glyph glyph-name="sterling" unicode="&#xa3;" horiz-adv-x="575" 
d="M459 272h-189l-18 -99h304l-30 -173h-545l31 173h62l17 99h-51l25 140h51l14 79q20 111 87.5 167.5t168.5 56.5q164 0 223 -156l-162 -82q-22 67 -75 67q-55 0 -65 -58l-13 -74h190z" />
    <glyph glyph-name="currency" unicode="&#xa4;" horiz-adv-x="533" 
d="M518 591l40 -45l-81 -68q36 -58 23 -131q-14 -74 -65 -128l56 -68l-48 -39l-56 68q-61 -40 -136 -40q-72 0 -120 39l-82 -70l-39 44l82 69q-36 58 -23 131q14 74 65 128l-56 68l46 40l58 -70q64 41 137 41q68 0 118 -38zM275 294q25 0 43 15t23 41q4 26 -8.5 41t-38.5 15
q-25 0 -42.5 -15t-22.5 -41t7.5 -41t38.5 -15z" />
    <glyph glyph-name="yen" unicode="&#xa5;" horiz-adv-x="631" 
d="M498 700h212l-245 -328h114l-17 -94h-152l-7 -41h152l-16 -93h-153l-25 -144h-179l25 144h-152l16 93h153l7 41h-153l17 94h114l-130 328h190l75 -225z" />
    <glyph glyph-name="brokenbar" unicode="&#xa6;" horiz-adv-x="277" 
d="M240 350h-167l65 370h167zM143 -200h-167l65 370h167z" />
    <glyph glyph-name="section" unicode="&#xa7;" horiz-adv-x="549" 
d="M410 463q63 -26 95 -73t21 -111q-14 -74 -79 -119q26 -44 15 -107q-15 -82 -79 -123.5t-160 -41.5q-165 0 -216 125l142 74q28 -61 89 -61q52 0 57 33q4 21 -23 36q-15 10 -26 14q-9 4 -37 15.5t-36 15.5q-142 63 -120 192q13 76 80 117q-21 43 -10 103q15 83 76 123
t145 40q149 0 204 -130l-139 -64q-26 59 -73 59q-43 0 -47 -33q-2 -21 23 -40q5 -4 22.5 -12t20.5 -10q45 -17 55 -22zM275 268q3 -1 27.5 -10.5t34.5 -14.5q19 13 23 35q-1 24 -11.5 33t-46.5 24l-64 26q-15 -10 -20 -33q-4 -20 9.5 -33.5t47.5 -26.5z" />
    <glyph glyph-name="dieresis" unicode="&#xa8;" horiz-adv-x="369" 
d="M178 695q32 0 51.5 -23.5t13.5 -56.5q-2 -25 -20 -45t-41 -29t-47 -5t-37 22q-18 17 -16 41t13.5 46t34.5 36.5t48 13.5zM344 535q-32 0 -51.5 23.5t-13.5 56.5q2 24 20 44.5t41 29.5t47 5t37 -23q19 -25 14 -56t-33 -56.5t-61 -23.5z" />
    <glyph glyph-name="copyright" unicode="&#xa9;" horiz-adv-x="779" 
d="M358 -12q-95 -2 -174.5 49t-118 138.5t-18.5 182.5q25 151 143 252q117 102 268 102q149 0 242 -111q94 -109 68 -259q-27 -151 -144 -253q-116 -101 -266 -101zM358 29q134 0 238 91q106 92 128 225q23 134 -58 229q-79 97 -210 97t-237 -92t-128 -224q-24 -132 56 -230
q79 -96 211 -96zM380 153q-89 0 -136 62q-46 62 -32 145q13 78 74 133q60 54 145 54q50 0 92.5 -27t67.5 -73l-125 -65q-12 29 -48 29q-27 0 -47 -18t-24 -43q-5 -25 8 -43t39 -18q35 0 59 30l111 -70q-32 -45 -81 -70.5t-103 -25.5z" />
    <glyph glyph-name="guillemotleft" unicode="&#xab;" horiz-adv-x="569" 
d="M206 504h145l-144 -200l74 -190h-139l-77 195zM413 504h146l-149 -206l73 -184h-139l-75 190z" />
    <glyph glyph-name="logicalnot" unicode="&#xac;" horiz-adv-x="569" 
d="M67 429h499l-49 -278h-169l21 120h-330z" />
    <glyph glyph-name="registered" unicode="&#xae;" horiz-adv-x="779" 
d="M458 712q149 0 242 -111q94 -109 68 -259q-27 -151 -144 -253q-116 -101 -266 -101q-95 -2 -174.5 49t-118 138.5t-18.5 182.5q25 151 143 252q117 102 268 102zM456 671q-131 0 -237 -92t-128 -224q-24 -132 56 -230q79 -96 211 -96q134 0 238 91q106 92 128 225
q23 134 -58 229q-79 97 -210 97zM291 535h176q56 0 92 -42q37 -42 27 -99q-14 -72 -67 -106l48 -123h-136l-31 97h-26l-17 -97h-131zM426 420h-24l-10 -53h24q31 0 37 27q2 14 -4.5 20t-22.5 6z" />
    <glyph glyph-name="overscore" unicode="&#xaf;" horiz-adv-x="350" 
d="M383 554h-309l22 130h310z" />
    <glyph glyph-name="degree" unicode="&#xb0;" horiz-adv-x="415" 
d="M248 461q-75 0 -119 53q-43 54 -30 126q12 74 69 122t135 48q75 0 119 -54q44 -53 31 -126t-70 -121q-55 -48 -135 -48zM320 635q10 34 -22 43q-30 9 -52 -12q-13 -13 -15 -31q-3 -20 7 -32.5t30 -12.5t34.5 12.5t17.5 32.5z" />
    <glyph glyph-name="plusminus" unicode="&#xb1;" horiz-adv-x="560" 
d="M432 665l-24 -136h161l-29 -158h-159l-24 -136h-159l24 136h-160l28 158h160l24 136h158zM479 21h-479l29 159h478z" />
    <glyph glyph-name="acute" unicode="&#xb4;" horiz-adv-x="314" 
d="M74 555l101 145h198l-136 -145h-163z" />
    <glyph glyph-name="uni00B5" unicode="&#xb5;" horiz-adv-x="608" 
d="M581 500l-56 -321q-5 -30 25 -30h25l-26 -149h-72q-71 0 -106 47q-58 -61 -143 -61q-35 0 -59 10l-34 -196h-166l123 700h166l-49 -276h1q-13 -81 61 -81q77 0 95 82l49 275h166z" />
    <glyph glyph-name="paragraph" unicode="&#xb6;" horiz-adv-x="727" 
d="M324 700h446l-27 -160h-67l-130 -740h-158l130 740h-64l-130 -740h-158l79 451q-94 2 -147 71q-52 70 -36 163t91 154q76 61 171 61z" />
    <glyph glyph-name="middot" unicode="&#xb7;" horiz-adv-x="289" 
d="M144 246q-43 0 -68 31t-17 75q8 43 42.5 72.5t79.5 29.5q43 0 68 -31.5t17 -74.5q-8 -45 -41.5 -73.5t-80.5 -28.5z" />
    <glyph glyph-name="cedilla" unicode="&#xb8;" horiz-adv-x="274" 
d="M152 0l-8 -46q53 -25 43 -86q-20 -105 -250 -89l19 109q93 -8 98 14q3 17 -50 20l14 78h134z" />
    <glyph glyph-name="guillemotright" unicode="&#xbb;" horiz-adv-x="570" 
d="M107 504h139l75 -190l-144 -200h-146l149 206zM309 504h139l77 -195l-141 -195h-145l144 200z" />
    <glyph glyph-name="onequarter" unicode="&#xbc;" horiz-adv-x="817" 
d="M63 0l522 700h119l-522 -700h-119zM117 300l46 256l-81 -20l-11 118l135 46h114l-71 -400h-132zM756 171h35l-20 -115h-35l-10 -56h-122l10 56h-184l20 115l152 229h141l-147 -229h39l11 63h121z" />
    <glyph glyph-name="onehalf" unicode="&#xbd;" horiz-adv-x="812" 
d="M63 0l522 700h119l-522 -700h-119zM117 300l46 256l-81 -20l-11 118l135 46h114l-71 -400h-132zM788 275q-10 -56 -87 -118l-49 -40h111l-20 -117h-306l15 89l168 141q37 32 38 46q4 22 -20 22q-28 0 -56 -45l-100 63q63 98 177 98q61 0 101 -38q40 -37 28 -101z" />
    <glyph glyph-name="threequarters" unicode="&#xbe;" horiz-adv-x="876" 
d="M356 417q-23 -131 -178 -131q-122 0 -152 94l111 59q13 -40 54 -40q33 0 36 26q2 13 -4.5 19t-22.5 6h-29l-33 68l66 66h-123l21 116h286l-16 -87l-78 -79q35 -15 52 -46t10 -71zM122 0l522 700h119l-522 -700h-119zM815 171h35l-20 -115h-35l-10 -56h-122l10 56h-184
l20 115l152 229h141l-147 -229h39l11 63h121z" />
    <glyph glyph-name="questiondown" unicode="&#xbf;" horiz-adv-x="548" 
d="M332 514q43 0 68 -31t17 -75q-8 -43 -42.5 -72.5t-79.5 -29.5q-43 0 -68.5 31.5t-17.5 74.5q8 45 42 73.5t81 28.5zM200 245h169q-7 -47 -37 -85.5t-61.5 -58.5t-59.5 -45t-33 -50q-4 -22 8.5 -35t36.5 -13q66 0 108 83l144 -91q-41 -80 -114.5 -122.5t-164.5 -42.5
q-97 0 -158 59q-59 59 -42 152q7 42 29.5 76.5t50 56.5t54.5 41t47 37.5t23 37.5z" />
    <glyph glyph-name="Agrave" unicode="&#xc0;" horiz-adv-x="671" 
d="M453 900l61 -145h-154l-95 145h188zM631 0h-191l-11 101h-233l-48 -101h-197l354 700h218zM386 497l-116 -242h142z" />
    <glyph glyph-name="Aacute" unicode="&#xc1;" horiz-adv-x="671" 
d="M435 900h198l-136 -145h-163zM-49 0l354 700h218l108 -700h-191l-11 101h-233l-48 -101h-197zM386 497l-116 -242h142z" />
    <glyph glyph-name="Acircumflex" unicode="&#xc2;" horiz-adv-x="671" 
d="M458 745l-29 56l-50 -56h-151l133 155h167l79 -155h-149zM631 0h-191l-11 101h-233l-48 -101h-197l354 700h218zM386 497l-116 -242h142z" />
    <glyph glyph-name="Atilde" unicode="&#xc3;" horiz-adv-x="671" 
d="M422 768q-48 36 -57 -20h-121q6 59 28.5 98.5t53 53.5t63.5 11.5t63 -20.5q22 -16 36.5 -14t20.5 33h122q-6 -60 -28.5 -99t-53.5 -52.5t-64 -11t-63 20.5zM-49 0l354 700h218l108 -700h-191l-11 101h-233l-48 -101h-197zM386 497l-116 -242h142z" />
    <glyph glyph-name="Adieresis" unicode="&#xc4;" horiz-adv-x="671" 
d="M351 895q32 0 51.5 -23.5t13.5 -56.5q-2 -25 -20 -45t-41 -29t-47 -5t-37 22q-18 17 -16 41t13.5 46t34.5 36.5t48 13.5zM517 735q-32 0 -51.5 23.5t-13.5 56.5q2 24 20 44.5t41 29.5t47 5t37 -23q19 -25 14 -56t-33 -56.5t-61 -23.5zM631 0h-191l-11 101h-233l-48 -101
h-197l354 700h218zM386 497l-116 -242h142z" />
    <glyph glyph-name="Aring" unicode="&#xc5;" horiz-adv-x="671" 
d="M631 0h-191l-11 101h-233l-48 -101h-197l350 691q-22 33 -14 82q10 57 54.5 93t106.5 36q61 0 95 -40q35 -39 24 -96q-9 -49 -42 -82zM394 770q-5 -32 27 -32q36 0 40 31q3 15 -4.5 24t-24.5 9q-15 0 -25.5 -9t-12.5 -23zM386 497l-116 -242h142z" />
    <glyph glyph-name="AE" unicode="&#xc6;" horiz-adv-x="885" 
d="M929 700l-30 -168h-231l-17 -97h207l-30 -164h-205l-18 -103h235l-29 -168h-410l18 101h-192l-75 -101h-201l523 700h455zM478 437l-136 -182h104z" />
    <glyph glyph-name="Ccedilla" unicode="&#xc7;" horiz-adv-x="722" 
d="M371 160q101 0 164 84l147 -95q-97 -134 -263 -160l-6 -35q53 -25 43 -86q-20 -105 -250 -89l19 109q93 -8 98 14q3 17 -50 20l13 70q-129 25 -196 127q-66 101 -43 241q25 154 141 255q116 100 272 100q101 0 174 -43.5t112 -123.5l-164 -87q-40 79 -139 79
q-81 0 -143 -53q-60 -53 -75 -137q-14 -84 26 -137q41 -53 120 -53z" />
    <glyph glyph-name="Egrave" unicode="&#xc8;" horiz-adv-x="535" 
d="M396 900l61 -145h-154l-95 145h188zM579 700l-30 -167h-265l-18 -98h242l-30 -164h-240l-18 -103h270l-29 -168h-450l123 700h445z" />
    <glyph glyph-name="Eacute" unicode="&#xc9;" horiz-adv-x="535" 
d="M378 900h198l-136 -145h-163zM579 700l-30 -167h-265l-18 -98h242l-30 -164h-240l-18 -103h270l-29 -168h-450l123 700h445z" />
    <glyph glyph-name="Ecircumflex" unicode="&#xca;" horiz-adv-x="535" 
d="M401 745l-29 56l-50 -56h-151l133 155h167l79 -155h-149zM579 700l-30 -167h-265l-18 -98h242l-30 -164h-240l-18 -103h270l-29 -168h-450l123 700h445z" />
    <glyph glyph-name="Edieresis" unicode="&#xcb;" horiz-adv-x="535" 
d="M294 895q32 0 51.5 -23.5t13.5 -56.5q-2 -25 -20 -45t-41 -29t-47 -5t-37 22q-18 17 -16 41t13.5 46t34.5 36.5t48 13.5zM460 735q-32 0 -51.5 23.5t-13.5 56.5q2 24 20 44.5t41 29.5t47 5t37 -23q19 -25 14 -56t-33 -56.5t-61 -23.5zM579 700l-30 -167h-265l-18 -98h242
l-30 -164h-240l-18 -103h270l-29 -168h-450l123 700h445z" />
    <glyph glyph-name="Igrave" unicode="&#xcc;" horiz-adv-x="289" 
d="M324 755h-154l-95 145h188zM134 700l-123 -700h179l123 700h-179z" />
    <glyph glyph-name="Iacute" unicode="&#xcd;" horiz-adv-x="289" 
d="M144 755l101 145h198l-136 -145h-163zM134 700l-123 -700h179l123 700h-179z" />
    <glyph glyph-name="Icircumflex" unicode="&#xce;" horiz-adv-x="289" 
d="M268 745l-29 56l-50 -56h-151l133 155h167l79 -155h-149zM190 0h-179l123 700h179z" />
    <glyph glyph-name="Idieresis" unicode="&#xcf;" horiz-adv-x="289" 
d="M161 895q32 0 51.5 -23.5t13.5 -56.5q-2 -25 -20 -45t-41 -29t-47 -5t-37 22q-18 17 -16 41t13.5 46t34.5 36.5t48 13.5zM327 735q-32 0 -51.5 23.5t-13.5 56.5q2 24 20 44.5t41 29.5t47 5t37 -23q19 -25 14 -56t-33 -56.5t-61 -23.5zM11 0l123 700h179l-123 -700h-179z
" />
    <glyph glyph-name="Eth" unicode="&#xd0;" horiz-adv-x="739" 
d="M164 700h285q139 0 221 -106t57 -254q-27 -150 -137 -245t-264 -95h-285l46 263h-74l28 158h74zM553 353q13 79 -24 126.5t-110 47.5h-101l-19 -106h132l-28 -158h-132l-16 -90h96q76 0 131 49q56 50 71 131z" />
    <glyph glyph-name="Ntilde" unicode="&#xd1;" horiz-adv-x="675" 
d="M367 748h-121q6 59 28.5 98.5t53 53.5t63.5 11.5t63 -20.5q22 -16 36.5 -14t20.5 33h122q-6 -60 -28.5 -99t-53.5 -52.5t-64 -11t-63 20.5q-48 36 -57 -20zM190 0h-179l123 700h139l182 -366l65 366h178l-123 -700h-138l-182 366z" />
    <glyph glyph-name="Ograve" unicode="&#xd2;" horiz-adv-x="790" 
d="M576 765h-154l-95 145h188zM360 -15q166 0 278 102q114 102 140 254q25 150 -64 262q-88 112 -247 112q-163 0 -279 -102t-141 -252q-20 -96 14.5 -183.5t114.5 -141t184 -51.5zM600 350q-13 -82 -79 -137q-65 -53 -145 -53t-124 53q-42 53 -27 137q15 83 77 136
q63 54 144 54q82 0 125 -54q44 -53 29 -136z" />
    <glyph glyph-name="Oacute" unicode="&#xd3;" horiz-adv-x="790" 
d="M396 765l101 145h198l-136 -145h-163zM360 -15q166 0 278 102q114 102 140 254q25 150 -64 262q-88 112 -247 112q-163 0 -279 -102t-141 -252q-20 -96 14.5 -183.5t114.5 -141t184 -51.5zM600 350q-13 -82 -79 -137q-65 -53 -145 -53t-124 53q-42 53 -27 137
q15 83 77 136q63 54 144 54q82 0 125 -54q44 -53 29 -136z" />
    <glyph glyph-name="Ocircumflex" unicode="&#xd4;" horiz-adv-x="790" 
d="M520 755l-29 56l-50 -56h-151l133 155h167l79 -155h-149zM467 715q159 0 247 -112q89 -112 64 -262q-26 -152 -140 -254q-112 -102 -278 -102q-104 -2 -184 51.5t-114.5 141t-14.5 183.5q25 150 141 252t279 102zM600 350q15 83 -29 136q-43 54 -125 54q-81 0 -144 -54
q-62 -53 -77 -136q-15 -84 27 -137q44 -53 124 -53t145 53q66 55 79 137z" />
    <glyph glyph-name="Otilde" unicode="&#xd5;" horiz-adv-x="790" 
d="M427 758h-121q6 59 28.5 98.5t53 53.5t63.5 11.5t63 -20.5q22 -16 36.5 -14t20.5 33h122q-6 -60 -28.5 -99t-53.5 -52.5t-64 -11t-63 20.5q-48 36 -57 -20zM360 -15q-104 -2 -184 51.5t-114.5 141t-14.5 183.5q25 150 141 252t279 102q159 0 247 -112q89 -112 64 -262
q-26 -152 -140 -254q-112 -102 -278 -102zM600 350q15 83 -29 136q-43 54 -125 54q-81 0 -144 -54q-62 -53 -77 -136q-15 -84 27 -137q44 -53 124 -53t145 53q66 55 79 137z" />
    <glyph glyph-name="Odieresis" unicode="&#xd6;" horiz-adv-x="790" 
d="M413 905q32 0 51.5 -23.5t13.5 -56.5q-2 -25 -20 -45t-41 -29t-47 -5t-37 22q-18 17 -16 41t13.5 46t34.5 36.5t48 13.5zM579 745q-32 0 -51.5 23.5t-13.5 56.5q2 24 20 44.5t41 29.5t47 5t37 -23q19 -25 14 -56t-33 -56.5t-61 -23.5zM360 -15q-104 -2 -184 51.5
t-114.5 141t-14.5 183.5q25 150 141 252t279 102q159 0 247 -112q89 -112 64 -262q-26 -152 -140 -254q-112 -102 -278 -102zM600 350q15 83 -29 136q-43 54 -125 54q-81 0 -144 -54q-62 -53 -77 -136q-15 -84 27 -137q44 -53 124 -53t145 53q66 55 79 137z" />
    <glyph glyph-name="multiply" unicode="&#xd7;" horiz-adv-x="538" 
d="M435 578l101 -112l-137 -119l96 -113l-124 -112l-99 116l-134 -116l-100 112l137 119l-96 113l124 112l98 -116z" />
    <glyph glyph-name="Oslash" unicode="&#xd8;" horiz-adv-x="795" 
d="M782 669l-63 -64q90 -110 64 -264q-26 -152 -140 -254q-113 -102 -278 -102q-115 0 -198 63l-62 -63l-73 46l76 77q-81 108 -56 253q26 150 141 252t279 102q104 0 184 -53l53 53zM230 350q-10 -60 10 -108l282 284q-34 14 -71 14q-81 0 -144 -54q-62 -53 -77 -136z
M605 350q13 70 -18 122l-289 -292q35 -20 83 -20q80 0 145 53q66 55 79 137z" />
    <glyph glyph-name="Ugrave" unicode="&#xd9;" horiz-adv-x="645" 
d="M502 755h-154l-95 145h188zM290 -15q120 0 202 63q83 65 104 182l83 470h-179l-79 -453q-16 -88 -114 -88q-99 0 -83 88l80 453h-179l-83 -470q-20 -106 50 -176q70 -69 198 -69z" />
    <glyph glyph-name="Uacute" unicode="&#xda;" horiz-adv-x="645" 
d="M322 755l101 145h198l-136 -145h-163zM290 -15q120 0 202 63q83 65 104 182l83 470h-179l-79 -453q-16 -88 -114 -88q-99 0 -83 88l80 453h-179l-83 -470q-20 -106 50 -176q70 -69 198 -69z" />
    <glyph glyph-name="Ucircumflex" unicode="&#xdb;" horiz-adv-x="645" 
d="M446 745l-29 56l-50 -56h-151l133 155h167l79 -155h-149zM421 247l79 453h179l-83 -470q-21 -117 -104 -182q-82 -63 -202 -63q-128 0 -198 69q-70 70 -50 176l83 470h179l-80 -453q-16 -88 83 -88q98 0 114 88z" />
    <glyph glyph-name="Udieresis" unicode="&#xdc;" horiz-adv-x="645" 
d="M339 895q32 0 51.5 -23.5t13.5 -56.5q-2 -25 -20 -45t-41 -29t-47 -5t-37 22q-18 17 -16 41t13.5 46t34.5 36.5t48 13.5zM505 735q-32 0 -51.5 23.5t-13.5 56.5q2 24 20 44.5t41 29.5t47 5t37 -23q19 -25 14 -56t-33 -56.5t-61 -23.5zM290 -15q-128 0 -198 69
q-70 70 -50 176l83 470h179l-80 -453q-16 -88 83 -88q98 0 114 88l79 453h179l-83 -470q-21 -117 -104 -182q-82 -63 -202 -63z" />
    <glyph glyph-name="Yacute" unicode="&#xdd;" horiz-adv-x="631" 
d="M415 900h198l-136 -145h-163zM498 700h212l-295 -395l-54 -305h-179l54 305l-157 395h190l75 -225z" />
    <glyph glyph-name="Thorn" unicode="&#xde;" horiz-adv-x="592" 
d="M295 596h85q106 0 167 -72q62 -73 46 -184q-15 -106 -93 -171q-76 -64 -199 -64h-93l-18 -105h-179l124 700h178zM415 350q7 35 -11 55t-54 20h-85l-27 -149h88q35 0 59 20t30 54z" />
    <glyph glyph-name="germandbls" unicode="&#xdf;" horiz-adv-x="552" 
d="M229 -5l25 148q100 -13 109 44q6 29 -31 102q-36 72 -31 101q5 26 33 66q29 39 34 61q5 24 -7 37.5t-36 13.5q-54 0 -65 -59l-90 -509h-166l90 508q34 207 256 207q92 0 148 -54q56 -53 44 -123q-8 -42 -38 -83t-35 -62q-6 -18 11.5 -59.5t34.5 -94.5t8 -96
q-34 -187 -294 -148z" />
    <glyph glyph-name="agrave" unicode="&#xe0;" horiz-adv-x="615" 
d="M381 700l61 -145h-154l-95 145h188zM435 445l10 55h166l-88 -500h-166l7 39q-59 -53 -146 -53q-106 0 -159 81q-51 81 -33 190q16 106 90 181q73 76 181 76q96 0 138 -69zM401 247v3q8 49 -15 79t-71 30q-47 0 -81 -30q-35 -30 -42 -79t15 -79q23 -30 70 -30t81 29t43 77
z" />
    <glyph glyph-name="aacute" unicode="&#xe1;" horiz-adv-x="615" 
d="M363 700h198l-136 -145h-163zM435 445l10 55h166l-88 -500h-166l7 39q-59 -53 -146 -53q-106 0 -159 81q-51 81 -33 190q16 106 90 181q73 76 181 76q96 0 138 -69zM401 247v3q8 49 -15 79t-71 30q-47 0 -81 -30q-35 -30 -42 -79t15 -79q23 -30 70 -30t81 29t43 77z" />
    <glyph glyph-name="acircumflex" unicode="&#xe2;" horiz-adv-x="615" 
d="M386 545l-29 56l-50 -56h-151l133 155h167l79 -155h-149zM435 445l10 55h166l-88 -500h-166l7 39q-59 -53 -146 -53q-106 0 -159 81q-51 81 -33 190q16 106 90 181q73 76 181 76q96 0 138 -69zM401 247v3q8 49 -15 79t-71 30q-47 0 -81 -30q-35 -30 -42 -79t15 -79
q23 -30 70 -30t81 29t43 77z" />
    <glyph glyph-name="atilde" unicode="&#xe3;" horiz-adv-x="615" 
d="M350 568q-48 36 -57 -20h-121q6 59 28.5 98.5t53 53.5t63.5 11.5t63 -20.5q22 -16 36.5 -14t20.5 33h122q-6 -60 -28.5 -99t-53.5 -52.5t-64 -11t-63 20.5zM435 445l10 55h166l-88 -500h-166l7 39q-59 -53 -146 -53q-106 0 -159 81q-51 81 -33 190q16 106 90 181
q73 76 181 76q96 0 138 -69zM401 247v3q8 49 -15 79t-71 30q-47 0 -81 -30q-35 -30 -42 -79t15 -79q23 -30 70 -30t81 29t43 77z" />
    <glyph glyph-name="adieresis" unicode="&#xe4;" horiz-adv-x="615" 
d="M279 695q32 0 51.5 -23.5t13.5 -56.5q-2 -25 -20 -45t-41 -29t-47 -5t-37 22q-18 17 -16 41t13.5 46t34.5 36.5t48 13.5zM445 535q-32 0 -51.5 23.5t-13.5 56.5q2 24 20 44.5t41 29.5t47 5t37 -23q19 -25 14 -56t-33 -56.5t-61 -23.5zM435 445l10 55h166l-88 -500h-166
l7 39q-59 -53 -146 -53q-106 0 -159 81q-51 81 -33 190q16 106 90 181q73 76 181 76q96 0 138 -69zM401 247v3q8 49 -15 79t-71 30q-47 0 -81 -30q-35 -30 -42 -79t15 -79q23 -30 70 -30t81 29t43 77z" />
    <glyph glyph-name="aring" unicode="&#xe5;" horiz-adv-x="615" 
d="M350 533q-60 0 -95 39t-24 96q10 57 54.5 93t106.5 36q61 0 95 -40q35 -39 24 -96q-10 -57 -54 -92.5t-107 -35.5zM338 665q-5 -32 27 -32q36 0 40 31q3 15 -4.5 24t-24.5 9q-15 0 -25.5 -9t-12.5 -23zM435 445l10 55h166l-88 -500h-166l7 39q-59 -53 -146 -53
q-106 0 -159 81q-51 81 -33 190q16 106 90 181q73 76 181 76q96 0 138 -69zM401 247v3q8 49 -15 79t-71 30q-47 0 -81 -30q-35 -30 -42 -79t15 -79q23 -30 70 -30t81 29t43 77z" />
    <glyph glyph-name="ae" unicode="&#xe6;" horiz-adv-x="945" 
d="M735 514q102 0 153 -76q52 -74 34 -187q-8 -36 -18 -62h-343q13 -61 97 -61q60 0 99 36l106 -97q-87 -81 -189 -81q-108 0 -157 63l-9 -49h-151l7 42q-62 -56 -143 -56q-73 0 -123.5 40.5t-68 102t-3.5 129.5q16 103 92 180q75 76 186 76q90 0 133 -58l8 44h151l-6 -34
q62 48 145 48zM581 305h190q-5 69 -79 69q-75 0 -111 -69zM277 143q46 0 80.5 28.5t43.5 76.5v2q8 49 -15.5 78t-70.5 29t-81.5 -29.5t-42.5 -77.5q-8 -49 15.5 -78t70.5 -29z" />
    <glyph glyph-name="ccedilla" unicode="&#xe7;" horiz-adv-x="532" 
d="M273 148q58 0 93 50l132 -84q-58 -100 -179 -123l-7 -37q53 -25 43 -86q-20 -105 -250 -89l19 109q93 -8 98 14q3 17 -50 20l13 74q-87 23 -131 95q-43 73 -28 169q18 112 102 182q84 72 196 72q77 0 132 -34.5t83 -96.5l-151 -79q-22 48 -78 48q-45 0 -78 -28t-40 -73
q-8 -45 15.5 -74t65.5 -29z" />
    <glyph glyph-name="egrave" unicode="&#xe8;" horiz-adv-x="568" 
d="M378 707l61 -145h-154l-95 145h188zM324 514q112 0 177 -77q64 -76 44 -186q-5 -34 -17 -62h-343q13 -61 96 -61q60 0 99 36l106 -97q-87 -81 -218 -81q-130 0 -196 79q-65 81 -46 195q18 110 102 182t196 72zM205 305h189q-4 69 -79 69q-74 0 -110 -69z" />
    <glyph glyph-name="eacute" unicode="&#xe9;" horiz-adv-x="568" 
d="M360 707h198l-136 -145h-163zM324 514q112 0 177 -77q64 -76 44 -186q-5 -34 -17 -62h-343q13 -61 96 -61q60 0 99 36l106 -97q-87 -81 -218 -81q-130 0 -196 79q-65 81 -46 195q18 110 102 182t196 72zM205 305h189q-4 69 -79 69q-74 0 -110 -69z" />
    <glyph glyph-name="ecircumflex" unicode="&#xea;" horiz-adv-x="568" 
d="M383 552l-29 56l-50 -56h-151l133 155h167l79 -155h-149zM324 514q112 0 177 -77q64 -76 44 -186q-5 -34 -17 -62h-343q13 -61 96 -61q60 0 99 36l106 -97q-87 -81 -218 -81q-130 0 -196 79q-65 81 -46 195q18 110 102 182t196 72zM205 305h189q-4 69 -79 69
q-74 0 -110 -69z" />
    <glyph glyph-name="edieresis" unicode="&#xeb;" horiz-adv-x="568" 
d="M276 702q32 0 51.5 -23.5t13.5 -56.5q-2 -25 -20 -45t-41 -29t-47 -5t-37 22q-18 17 -16 41t13.5 46t34.5 36.5t48 13.5zM442 542q-32 0 -51.5 23.5t-13.5 56.5q2 24 20 44.5t41 29.5t47 5t37 -23q19 -25 14 -56t-33 -56.5t-61 -23.5zM324 514q112 0 177 -77
q64 -76 44 -186q-5 -34 -17 -62h-343q13 -61 96 -61q60 0 99 36l106 -97q-87 -81 -218 -81q-130 0 -196 79q-65 81 -46 195q18 110 102 182t196 72zM205 305h189q-4 69 -79 69q-74 0 -110 -69z" />
    <glyph glyph-name="igrave" unicode="&#xec;" horiz-adv-x="262" 
d="M262 550h-155l-47 150h181zM170 0l88 500h-166l-88 -500h166z" />
    <glyph glyph-name="iacute" unicode="&#xed;" horiz-adv-x="262" 
d="M101 550l66 150h189l-97 -150h-158zM4 0h166l88 500h-166z" />
    <glyph glyph-name="icircumflex" unicode="&#xee;" horiz-adv-x="262" 
d="M217 545l-22 48l-37 -48h-150l119 155h166l65 -155h-141zM170 0h-166l88 500h166z" />
    <glyph glyph-name="idieresis" unicode="&#xef;" horiz-adv-x="262" 
d="M30 620q5 31 31.5 54t58.5 23t51 -22.5t13 -54.5q-5 -32 -32 -54.5t-59 -22.5t-50.5 23t-12.5 54zM208 620q6 32 33 54.5t58 22.5t50 -22.5t14 -54.5q-6 -32 -33 -54.5t-58 -22.5t-50 22.5t-14 54.5zM170 0h-166l88 500h166z" />
    <glyph glyph-name="eth" unicode="&#xf0;" horiz-adv-x="566" 
d="M394 565l115 -200q41 -68 27 -145q-18 -109 -99 -172q-80 -62 -189 -62q-112 0 -179 70t-47 184q17 91 85 150q71 61 161 65l-29 55l-141 -50l21 121l68 24l-51 95h180l23 -40l145 52l-21 -122zM370 228q5 30 -7 52q-22 34 -69 34q-42 0 -71 -23.5t-36 -62.5
q-7 -42 13.5 -66t62.5 -24t71 24t36 66z" />
    <glyph glyph-name="ntilde" unicode="&#xf1;" 
d="M339 578q-48 36 -57 -20h-121q6 59 28.5 98.5t53 53.5t63.5 11.5t63 -20.5q22 -16 36.5 -14t20.5 33h122q-6 -60 -28.5 -99t-53.5 -52.5t-64 -11t-63 20.5zM395 514q83 0 125.5 -57.5t25.5 -157.5l-53 -299h-166l49 278q6 39 -10.5 59t-51.5 20q-80 0 -97 -91v1l-47 -267
h-166l88 500h166l-9 -51q57 65 146 65z" />
    <glyph glyph-name="ograve" unicode="&#xf2;" horiz-adv-x="583" 
d="M437 565h-154l-95 145h188zM258 -14q115 0 198 74q82 73 100 176q19 106 -44 192t-183 86q-121 0 -202 -72q-81 -73 -100 -176q-15 -67 7 -131t81.5 -106.5t142.5 -42.5zM271 146q-43 0 -65.5 29t-14.5 75t41 75t76 29q44 0 66.5 -29t14.5 -75t-41 -75t-77 -29z" />
    <glyph glyph-name="oacute" unicode="&#xf3;" horiz-adv-x="583" 
d="M257 565l101 145h198l-136 -145h-163zM258 -14q115 0 198 74q82 73 100 176q19 106 -44 192t-183 86q-121 0 -202 -72q-81 -73 -100 -176q-15 -67 7 -131t81.5 -106.5t142.5 -42.5zM271 146q-43 0 -65.5 29t-14.5 75t41 75t76 29q44 0 66.5 -29t14.5 -75t-41 -75t-77 -29
z" />
    <glyph glyph-name="ocircumflex" unicode="&#xf4;" horiz-adv-x="583" 
d="M381 555l-29 56l-50 -56h-151l133 155h167l79 -155h-149zM329 514q120 0 183 -86t44 -192q-18 -103 -100 -176q-83 -74 -198 -74q-83 0 -142.5 42.5t-81.5 106.5t-7 131q19 103 100 176q81 72 202 72zM308 354q-43 0 -76 -29t-41 -75t14.5 -75t65.5 -29q44 0 77 29t41 75
t-14.5 75t-66.5 29z" />
    <glyph glyph-name="otilde" unicode="&#xf5;" horiz-adv-x="583" 
d="M288 558h-121q6 59 28.5 98.5t53 53.5t63.5 11.5t63 -20.5q22 -16 36.5 -14t20.5 33h122q-6 -60 -28.5 -99t-53.5 -52.5t-64 -11t-63 20.5q-48 36 -57 -20zM258 -14q-83 0 -142.5 42.5t-81.5 106.5t-7 131q19 103 100 176q81 72 202 72q120 0 183 -86t44 -192
q-18 -103 -100 -176q-83 -74 -198 -74zM271 146q44 0 77 29t41 75t-14.5 75t-66.5 29q-43 0 -76 -29t-41 -75t14.5 -75t65.5 -29z" />
    <glyph glyph-name="odieresis" unicode="&#xf6;" horiz-adv-x="583" 
d="M274 705q32 0 51.5 -23.5t13.5 -56.5q-2 -25 -20 -45t-41 -29t-47 -5t-37 22q-18 17 -16 41t13.5 46t34.5 36.5t48 13.5zM440 545q-32 0 -51.5 23.5t-13.5 56.5q2 24 20 44.5t41 29.5t47 5t37 -23q19 -25 14 -56t-33 -56.5t-61 -23.5zM258 -14q-83 0 -142.5 42.5
t-81.5 106.5t-7 131q19 103 100 176q81 72 202 72q120 0 183 -86t44 -192q-18 -103 -100 -176q-83 -74 -198 -74zM271 146q44 0 77 29t41 75t-14.5 75t-66.5 29q-43 0 -76 -29t-41 -75t14.5 -75t65.5 -29z" />
    <glyph glyph-name="divide" unicode="&#xf7;" horiz-adv-x="551" 
d="M314 459q-40 0 -63.5 28.5t-16.5 68.5q8 41 39 67t71 26t63.5 -28.5t15.5 -68.5q-7 -40 -37.5 -66.5t-71.5 -26.5zM519 271h-480l28 158h480zM352 144q-8 -41 -39 -67t-71 -26t-63.5 28.5t-16.5 68.5t38.5 66.5t71.5 26.5t63.5 -28.5t16.5 -68.5z" />
    <glyph glyph-name="oslash" unicode="&#xf8;" horiz-adv-x="583" 
d="M499 512l63 -35l-49 -50q62 -83 43 -191q-18 -104 -99 -177q-79 -73 -199 -73q-80 0 -139 39l-36 -37l-63 34l49 50q-63 83 -42 194q19 103 100 176q81 72 202 72q75 0 134 -39zM193 250q-5 -32 2 -49l145 149q-16 4 -30 4q-44 0 -76.5 -29t-40.5 -75zM391 250
q4 27 -2 50l-147 -149q18 -5 31 -5q44 0 77 29t41 75z" />
    <glyph glyph-name="ugrave" unicode="&#xf9;" 
d="M364 700l61 -145h-154l-95 145h188zM361 233l47 267h166l-88 -500h-166l9 51q-57 -65 -146 -65q-83 0 -125.5 57.5t-25.5 157.5l53 299h166l-49 -278q-6 -39 10.5 -59t51.5 -20q80 0 97 91v-1z" />
    <glyph glyph-name="uacute" unicode="&#xfa;" 
d="M346 700h198l-136 -145h-163zM361 233l47 267h166l-88 -500h-166l9 51q-57 -65 -146 -65q-83 0 -125.5 57.5t-25.5 157.5l53 299h166l-49 -278q-6 -39 10.5 -59t51.5 -20q80 0 97 91v-1z" />
    <glyph glyph-name="ucircumflex" unicode="&#xfb;" 
d="M369 545l-29 56l-50 -56h-151l133 155h167l79 -155h-149zM361 233l47 267h166l-88 -500h-166l9 51q-57 -65 -146 -65q-83 0 -125.5 57.5t-25.5 157.5l53 299h166l-49 -278q-6 -39 10.5 -59t51.5 -20q80 0 97 91v-1z" />
    <glyph glyph-name="udieresis" unicode="&#xfc;" 
d="M262 695q32 0 51.5 -23.5t13.5 -56.5q-2 -25 -20 -45t-41 -29t-47 -5t-37 22q-18 17 -16 41t13.5 46t34.5 36.5t48 13.5zM428 535q-32 0 -51.5 23.5t-13.5 56.5q2 24 20 44.5t41 29.5t47 5t37 -23q19 -25 14 -56t-33 -56.5t-61 -23.5zM361 233l47 267h166l-88 -500h-166
l9 51q-57 -65 -146 -65q-83 0 -125.5 57.5t-25.5 157.5l53 299h166l-49 -278q-6 -39 10.5 -59t51.5 -20q80 0 97 91v-1z" />
    <glyph glyph-name="yacute" unicode="&#xfd;" horiz-adv-x="549" 
d="M328 700h198l-136 -145h-163zM272 211l130 289h191l-254 -485q-64 -123 -146.5 -173.5t-195.5 -41.5l28 156q53 0 80 13.5t51 50.5l-112 480h176z" />
    <glyph glyph-name="thorn" unicode="&#xfe;" horiz-adv-x="615" 
d="M393 514q103 0 158 -82q56 -82 38 -192q-18 -107 -90 -181q-70 -73 -176 -73q-98 0 -143 71l-45 -257h-166l158 900h166l-42 -241q56 55 142 55zM423 250q9 50 -14 79.5t-70 29.5q-48 0 -82 -29.5t-43 -79.5q-8 -50 15.5 -79.5t70.5 -29.5q48 0 81.5 29.5t41.5 79.5z" />
    <glyph glyph-name="ydieresis" unicode="&#xff;" horiz-adv-x="549" 
d="M244 695q32 0 51.5 -23.5t13.5 -56.5q-2 -25 -20 -45t-41 -29t-47 -5t-37 22q-18 17 -16 41t13.5 46t34.5 36.5t48 13.5zM410 535q-32 0 -51.5 23.5t-13.5 56.5q2 24 20 44.5t41 29.5t47 5t37 -23q19 -25 14 -56t-33 -56.5t-61 -23.5zM272 211l130 289h191l-254 -485
q-64 -123 -146.5 -173.5t-195.5 -41.5l28 156q53 0 80 13.5t51 50.5l-112 480h176z" />
    <glyph glyph-name="Amacron" unicode="&#x100;" horiz-adv-x="671" 
d="M291 884h310l-23 -130h-309zM631 0h-191l-11 101h-233l-48 -101h-197l354 700h218zM386 497l-116 -242h142z" />
    <glyph glyph-name="amacron" unicode="&#x101;" horiz-adv-x="615" 
d="M219 684h310l-23 -130h-309zM435 445l10 55h166l-88 -500h-166l7 39q-59 -53 -146 -53q-106 0 -159 81q-51 81 -33 190q16 106 90 181q73 76 181 76q96 0 138 -69zM401 247v3q8 49 -15 79t-71 30q-47 0 -81 -30q-35 -30 -42 -79t15 -79q23 -30 70 -30t81 29t43 77z" />
    <glyph glyph-name="Abreve" unicode="&#x102;" horiz-adv-x="671" 
d="M430 737q-85 0 -129.5 44t-30.5 116h140q-8 -44 32 -44q39 0 47 44h140q-25 -160 -199 -160zM631 0h-191l-11 101h-233l-48 -101h-197l354 700h218zM386 497l-116 -242h142z" />
    <glyph glyph-name="abreve" unicode="&#x103;" horiz-adv-x="615" 
d="M358 537q-85 0 -129.5 44t-30.5 116h140q-8 -44 32 -44q39 0 47 44h140q-25 -160 -199 -160zM435 445l10 55h166l-88 -500h-166l7 39q-59 -53 -146 -53q-106 0 -159 81q-51 81 -33 190q16 106 90 181q73 76 181 76q96 0 138 -69zM401 247v3q8 49 -15 79t-71 30
q-47 0 -81 -30q-35 -30 -42 -79t15 -79q23 -30 70 -30t81 29t43 77z" />
    <glyph glyph-name="Aogonek" unicode="&#x104;" horiz-adv-x="671" 
d="M575 -75q-5 -24 18 -24q10 0 22 3l-19 -101q-46 -17 -91 -17q-46 0 -71.5 27t-16.5 71q10 60 80 116h-57l-11 101h-233l-48 -101h-197l354 700h218l108 -700q-48 -42 -56 -75zM386 497l-116 -242h142z" />
    <glyph glyph-name="aogonek" unicode="&#x105;" horiz-adv-x="615" 
d="M435 445l10 55h166l-88 -500q-54 -50 -57 -82q-3 -19 18 -19q10 0 22 3l-18 -99q-39 -17 -85 -17t-72.5 23t-22.5 62q3 65 84 129h-35l7 39q-59 -53 -146 -53q-106 0 -159 81q-51 81 -33 190q16 106 90 181q73 76 181 76q96 0 138 -69zM401 247v3q8 49 -15 79t-71 30
q-47 0 -81 -30q-35 -30 -42 -79t15 -79q23 -30 70 -30t81 29t43 77z" />
    <glyph glyph-name="Cacute" unicode="&#x106;" horiz-adv-x="722" 
d="M394 765l101 145h198l-136 -145h-163zM359 -15q98 0 182.5 43t140.5 121l-147 95q-63 -84 -164 -84q-79 0 -120 53q-40 53 -26 137q15 84 75 137q62 53 143 53q99 0 139 -79l164 87q-39 80 -112 123.5t-174 43.5q-156 0 -272 -100q-116 -101 -141 -255q-26 -160 62 -267
q89 -108 250 -108z" />
    <glyph glyph-name="cacute" unicode="&#x107;" horiz-adv-x="532" 
d="M244 560l101 145h198l-136 -145h-163zM260 -14q75 0 137.5 33t100.5 95l-132 84q-35 -50 -93 -50q-42 0 -65.5 29t-15.5 74q7 45 40 73t78 28q56 0 78 -48l151 79q-28 62 -83 96.5t-132 34.5q-112 0 -196 -72q-84 -70 -102 -182q-18 -116 48 -195t186 -79z" />
    <glyph glyph-name="Cdotaccent" unicode="&#x10a;" horiz-adv-x="722" 
d="M482 753q-37 0 -59 26.5t-15 62.5q7 37 37.5 63.5t67.5 26.5t59 -26.5t16 -63.5q-8 -36 -39 -62.5t-67 -26.5zM359 -15q-161 0 -250 108q-88 107 -62 267q25 154 141 255q116 100 272 100q101 0 174 -43.5t112 -123.5l-164 -87q-40 79 -139 79q-81 0 -143 -53
q-60 -53 -75 -137q-14 -84 26 -137q41 -53 120 -53q101 0 164 84l147 -95q-56 -78 -140.5 -121t-182.5 -43z" />
    <glyph glyph-name="cdotaccent" unicode="&#x10b;" horiz-adv-x="532" 
d="M332 548q-37 0 -59 26.5t-15 62.5q7 37 37.5 63.5t67.5 26.5t59 -26.5t16 -63.5q-8 -36 -39 -62.5t-67 -26.5zM260 -14q-120 0 -186 79t-48 195q18 112 102 182q84 72 196 72q77 0 132 -34.5t83 -96.5l-151 -79q-22 48 -78 48q-45 0 -78 -28t-40 -73q-8 -45 15.5 -74
t65.5 -29q58 0 93 50l132 -84q-38 -62 -100.5 -95t-137.5 -33z" />
    <glyph glyph-name="Ccaron" unicode="&#x10c;" horiz-adv-x="722" 
d="M561 755h-167l-79 155h145l30 -56l49 56h155zM371 160q101 0 164 84l147 -95q-56 -78 -140.5 -121t-182.5 -43q-161 0 -250 108q-88 107 -62 267q25 154 141 255q116 100 272 100q101 0 174 -43.5t112 -123.5l-164 -87q-40 79 -139 79q-81 0 -143 -53q-60 -53 -75 -137
q-14 -84 26 -137q41 -53 120 -53z" />
    <glyph glyph-name="ccaron" unicode="&#x10d;" horiz-adv-x="532" 
d="M411 550h-167l-79 155h145l30 -56l49 56h155zM310 352q-45 0 -78 -28t-40 -73q-8 -45 15.5 -74t65.5 -29q58 0 93 50l132 -84q-38 -62 -100.5 -95t-137.5 -33q-120 0 -186 79t-48 195q18 112 102 182q84 72 196 72q77 0 132 -34.5t83 -96.5l-151 -79q-22 48 -78 48z" />
    <glyph glyph-name="Dcaron" unicode="&#x10e;" horiz-adv-x="709" 
d="M486 745h-167l-79 155h145l30 -56l49 56h155zM134 700h285q139 0 221 -106t57 -254q-27 -150 -137 -245t-264 -95h-285zM523 353q13 79 -24 126.5t-110 47.5h-101l-63 -354h96q76 0 131 49q56 50 71 131z" />
    <glyph glyph-name="dcaron" unicode="&#x10f;" horiz-adv-x="758" 
d="M436 444l45 256h166l-123 -700h-166l7 40q-59 -54 -147 -54q-106 0 -159 81q-51 81 -33 190q16 106 90 181q73 76 181 76q96 0 139 -70zM649 481l49 219h154l-73 -219h-130zM278 141q46 0 79.5 28t43.5 75l2 10q7 47 -17 76q-23 29 -70 29q-48 0 -82 -30q-35 -30 -42 -79
q-8 -49 15.5 -79t70.5 -30z" />
    <glyph glyph-name="Dcroat" unicode="&#x110;" horiz-adv-x="739" 
d="M164 700h285q139 0 221 -106t57 -254q-27 -150 -137 -245t-264 -95h-285l46 263h-74l28 158h74zM553 353q13 79 -24 126.5t-110 47.5h-101l-19 -106h132l-28 -158h-132l-16 -90h96q76 0 131 49q56 50 71 131z" />
    <glyph glyph-name="dslash" unicode="&#x111;" horiz-adv-x="625" 
d="M637 645h58l-19 -106h-57l-95 -539h-166l7 37q-57 -51 -146 -51q-109 0 -162 80q-52 79 -32 190q18 104 92 176q73 73 179 73q96 0 139 -69l18 103h-137l19 106h136l10 55h166zM191 245q-9 -48 15 -77t71 -29t81 29t43 77q8 49 -15.5 78t-70.5 29t-81.5 -29.5
t-42.5 -77.5z" />
    <glyph glyph-name="Emacron" unicode="&#x112;" horiz-adv-x="535" 
d="M234 884h310l-23 -130h-309zM579 700l-30 -167h-265l-18 -98h242l-30 -164h-240l-18 -103h270l-29 -168h-450l123 700h445z" />
    <glyph glyph-name="emacron" unicode="&#x113;" horiz-adv-x="568" 
d="M216 691h310l-23 -130h-309zM324 514q112 0 177 -77q64 -76 44 -186q-5 -34 -17 -62h-343q13 -61 96 -61q60 0 99 36l106 -97q-87 -81 -218 -81q-130 0 -196 79q-65 81 -46 195q18 110 102 182t196 72zM205 305h189q-4 69 -79 69q-74 0 -110 -69z" />
    <glyph glyph-name="Edotaccent" unicode="&#x116;" horiz-adv-x="535" 
d="M365 743q-37 0 -59 26.5t-15 62.5q7 37 37.5 63.5t67.5 26.5t59 -26.5t16 -63.5q-8 -36 -39 -62.5t-67 -26.5zM579 700l-30 -167h-265l-18 -98h242l-30 -164h-240l-18 -103h270l-29 -168h-450l123 700h445z" />
    <glyph glyph-name="edotaccent" unicode="&#x117;" horiz-adv-x="568" 
d="M347 550q-37 0 -59 26.5t-15 62.5q7 37 37.5 63.5t67.5 26.5t59 -26.5t16 -63.5q-8 -36 -39 -62.5t-67 -26.5zM324 514q112 0 177 -77q64 -76 44 -186q-5 -34 -17 -62h-343q13 -61 96 -61q60 0 99 36l106 -97q-87 -81 -218 -81q-130 0 -196 79q-65 81 -46 195
q18 110 102 182t196 72zM205 305h189q-4 69 -79 69q-74 0 -110 -69z" />
    <glyph glyph-name="Eogonek" unicode="&#x118;" horiz-adv-x="535" 
d="M579 700l-30 -167h-265l-18 -98h242l-30 -164h-240l-18 -103h270l-29 -168q-53 -48 -57 -78q-5 -23 17 -23q6 -2 23 3l-18 -99q-34 -13 -69 -16t-62.5 5t-42 30t-6.5 55q10 59 84 123h-319l123 700h445z" />
    <glyph glyph-name="eogonek" unicode="&#x119;" horiz-adv-x="568" 
d="M324 514q112 0 177 -77q64 -76 44 -186q-5 -34 -17 -62h-343q13 -61 96 -61q60 0 99 36l106 -97q-18 -17 -31 -26q-89 -67 -103 -114q-9 -28 19 -28q9 0 20 3l-18 -99q-42 -17 -84 -17q-53 0 -78.5 26t-17.5 68q9 51 76 106h-1q-130 0 -196 79q-65 81 -46 195
q18 110 102 182t196 72zM205 305h189q-4 69 -79 69q-74 0 -110 -69z" />
    <glyph glyph-name="Ecaron" unicode="&#x11a;" horiz-adv-x="535" 
d="M444 745h-167l-79 155h145l30 -56l49 56h155zM579 700l-30 -167h-265l-18 -98h242l-30 -164h-240l-18 -103h270l-29 -168h-450l123 700h445z" />
    <glyph glyph-name="ecaron" unicode="&#x11b;" horiz-adv-x="568" 
d="M426 552h-167l-79 155h145l30 -56l49 56h155zM324 514q112 0 177 -77q64 -76 44 -186q-5 -34 -17 -62h-343q13 -61 96 -61q60 0 99 36l106 -97q-87 -81 -218 -81q-130 0 -196 79q-65 81 -46 195q18 110 102 182t196 72zM205 305h189q-4 69 -79 69q-74 0 -110 -69z" />
    <glyph glyph-name="Gbreve" unicode="&#x11e;" horiz-adv-x="779" 
d="M490 747q-85 0 -129.5 44t-30.5 116h140q-8 -44 32 -44q39 0 47 44h140q-25 -160 -199 -160zM424 401h353l-12 -71q-25 -159 -135 -252q-109 -93 -268 -93q-164 0 -252 108q-88 109 -63 267q25 153 142 255q115 100 272 100q101 0 177 -43.5t116 -121.5l-164 -88
q-44 78 -147 78q-81 0 -143 -53q-60 -53 -75 -137t27 -140q42 -55 126 -55q128 0 181 92h-162z" />
    <glyph glyph-name="gbreve" unicode="&#x11f;" horiz-adv-x="619" 
d="M361 547q-85 0 -129.5 44t-30.5 116h140q-8 -44 32 -44q39 0 47 44h140q-25 -160 -199 -160zM441 441l10 59h164l-85 -480q-21 -121 -102 -178q-80 -57 -193 -57q-85 0 -146.5 31.5t-87.5 90.5l147 77q28 -54 102 -54q47 0 77.5 23t38.5 67l7 38q-58 -52 -142 -52
q-110 0 -164 78.5t-36 182.5q15 99 87 173q74 74 182 74q98 0 141 -73zM284 157q44 0 78 26t45 67l3 20q4 41 -20.5 67t-68.5 26q-47 0 -81.5 -29t-42.5 -74t16 -74t71 -29z" />
    <glyph glyph-name="Gdotaccent" unicode="&#x120;" horiz-adv-x="779" 
d="M482 753q-37 0 -59 26.5t-15 62.5q7 37 37.5 63.5t67.5 26.5t59 -26.5t16 -63.5q-8 -36 -39 -62.5t-67 -26.5zM424 401h353l-12 -71q-25 -159 -135 -252q-109 -93 -268 -93q-164 0 -252 108q-88 109 -63 267q25 153 142 255q115 100 272 100q101 0 177 -43.5t116 -121.5
l-164 -88q-44 78 -147 78q-81 0 -143 -53q-60 -53 -75 -137t27 -140q42 -55 126 -55q128 0 181 92h-162z" />
    <glyph glyph-name="gdotaccent" unicode="&#x121;" horiz-adv-x="619" 
d="M353 553q-37 0 -59 26.5t-15 62.5q7 37 37.5 63.5t67.5 26.5t59 -26.5t16 -63.5q-8 -36 -39 -62.5t-67 -26.5zM441 441l10 59h164l-85 -480q-21 -121 -102 -178q-80 -57 -193 -57q-85 0 -146.5 31.5t-87.5 90.5l147 77q28 -54 102 -54q47 0 77.5 23t38.5 67l7 38
q-58 -52 -142 -52q-110 0 -164 78.5t-36 182.5q15 99 87 173q74 74 182 74q98 0 141 -73zM284 157q44 0 78 26t45 67l3 20q4 41 -20.5 67t-68.5 26q-47 0 -81.5 -29t-42.5 -74t16 -74t71 -29z" />
    <glyph glyph-name="Gcommaaccent" unicode="&#x122;" horiz-adv-x="779" 
d="M424 401h353l-12 -71q-25 -159 -135 -252q-109 -93 -268 -93q-164 0 -252 108q-88 109 -63 267q25 153 142 255q115 100 272 100q101 0 177 -43.5t116 -121.5l-164 -88q-44 78 -147 78q-81 0 -143 -53q-60 -53 -75 -137t27 -140q42 -55 126 -55q128 0 181 92h-162z
M353 -277h-129l48 220h154z" />
    <glyph glyph-name="gcommaaccent" unicode="&#x123;" horiz-adv-x="619" 
d="M342 795h129l-49 -220h-154zM441 441l10 59h164l-85 -480q-21 -121 -102 -178q-80 -57 -193 -57q-85 0 -146.5 31.5t-87.5 90.5l147 77q28 -54 102 -54q47 0 77.5 23t38.5 67l7 38q-58 -52 -142 -52q-110 0 -164 78.5t-36 182.5q15 99 87 173q74 74 182 74q98 0 141 -73z
M284 157q44 0 78 26t45 67l3 20q4 41 -20.5 67t-68.5 26q-47 0 -81.5 -29t-42.5 -74t16 -74t71 -29z" />
    <glyph glyph-name="Hbar" unicode="&#x126;" horiz-adv-x="705" 
d="M692 608h60l-22 -130h-61l-84 -478h-178l39 220h-197l-39 -220h-179l84 478h-59l22 130h60l16 92h179l-16 -92h197l16 92h178zM279 393h197l15 85h-197z" />
    <glyph glyph-name="hbar" unicode="&#x127;" horiz-adv-x="587" 
d="M402 502q83 0 126 -57.5t25 -157.5l-50 -287h-166l46 266q7 39 -9.5 59.5t-52.5 20.5q-73 0 -94 -78l-47 -268h-166l95 539h-58l19 106h57l10 55h166l-10 -55h136l-19 -106h-135l-18 -101q58 64 145 64z" />
    <glyph glyph-name="Imacron" unicode="&#x12a;" horiz-adv-x="289" 
d="M388 754h-309l22 130h310zM11 0l123 700h179l-123 -700h-179z" />
    <glyph glyph-name="imacron" unicode="&#x12b;" horiz-adv-x="262" 
d="M315 554h-259l23 135h259zM170 0h-166l88 500h166z" />
    <glyph glyph-name="Iogonek" unicode="&#x12e;" horiz-adv-x="289" 
d="M313 700l-123 -700q-47 -50 -50 -79q-3 -22 19 -22q6 -1 22 3l-18 -99q-46 -17 -91 -17q-46 0 -70.5 26.5t-18.5 68.5q9 59 75 119h-47l123 700h179z" />
    <glyph glyph-name="iogonek" unicode="&#x12f;" horiz-adv-x="262" 
d="M215 732q40 0 63.5 -28t16.5 -67q-6 -40 -38 -68t-73 -28q-39 0 -63 28.5t-17 67.5q6 39 38 67t73 28zM32 0h-28l88 500h166l-88 -500q-41 -47 -46 -79q-3 -22 18 -22q6 -1 22 3l-18 -99q-45 -17 -91 -17q-45 0 -69.5 26t-19.5 66q4 51 66 122z" />
    <glyph glyph-name="Idot" unicode="&#x130;" horiz-adv-x="289" 
d="M232 743q-37 0 -59 26.5t-15 62.5q7 37 37.5 63.5t67.5 26.5t59 -26.5t16 -63.5q-8 -36 -39 -62.5t-67 -26.5zM11 0l123 700h179l-123 -700h-179z" />
    <glyph glyph-name="dotlessi" unicode="&#x131;" horiz-adv-x="262" 
d="M170 0h-166l88 500h166z" />
    <glyph glyph-name="Kcommaaccent" unicode="&#x136;" horiz-adv-x="631" 
d="M502 700h209l-298 -348l178 -352h-185l-160 319l-56 -319h-179l123 700h179l-50 -284zM267 -277h-129l48 220h154z" />
    <glyph glyph-name="kcommaaccent" unicode="&#x137;" horiz-adv-x="537" 
d="M382 500h191l-210 -251l130 -249h-178l-106 220l-39 -220h-166l123 700h166l-70 -398zM240 -277h-129l48 220h154z" />
    <glyph glyph-name="Lacute" unicode="&#x139;" horiz-adv-x="485" 
d="M252 900h198l-136 -145h-163zM313 700l-93 -527h241l-30 -173h-420l123 700h179z" />
    <glyph glyph-name="lacute" unicode="&#x13a;" horiz-adv-x="263" 
d="M138 760l101 145h198l-136 -145h-163zM5 0h166l56 316l72 414h-166l-72 -409z" />
    <glyph glyph-name="Lcommaaccent" unicode="&#x13b;" horiz-adv-x="485" 
d="M313 700l-93 -527h241l-30 -173h-420l123 700h179zM218 -277h-129l48 220h154z" />
    <glyph glyph-name="lcommaaccent" unicode="&#x13c;" horiz-adv-x="263" 
d="M171 0h-166l56 321l72 409h166l-72 -414zM81 -277h-129l48 220h154z" />
    <glyph glyph-name="Lcaron" unicode="&#x13d;" horiz-adv-x="485" 
d="M134 700h179l-93 -527h241l-30 -173h-420zM327 501l44 199h164l-69 -199h-139z" />
    <glyph glyph-name="lcaron" unicode="&#x13e;" horiz-adv-x="397" 
d="M171 0h-166l56 321l72 409h166l-72 -414zM423 511h-129l49 219h154z" />
    <glyph glyph-name="Lslash" unicode="&#x141;" horiz-adv-x="515" 
d="M274 308l-24 -135h241l-30 -173h-420l35 199l-66 -36l31 177l66 36l57 324h179l-38 -215l133 73l-31 -177z" />
    <glyph glyph-name="lslash" unicode="&#x142;" horiz-adv-x="279" 
d="M263 475l56 32l-27 -157l-57 -32v-2l-56 -316h-166l37 212l-57 -33l28 157l56 32l64 362h166z" />
    <glyph glyph-name="Nacute" unicode="&#x143;" horiz-adv-x="675" 
d="M336 755l101 145h198l-136 -145h-163zM11 0h179l65 366l182 -366h138l123 700h-178l-65 -366l-182 366h-139z" />
    <glyph glyph-name="nacute" unicode="&#x144;" 
d="M352 710h198l-136 -145h-163zM395 514q83 0 125.5 -57.5t25.5 -157.5l-53 -299h-166l49 278q6 39 -10.5 59t-51.5 20q-80 0 -97 -91v1l-47 -267h-166l88 500h166l-9 -51q57 65 146 65z" />
    <glyph glyph-name="Ncommaaccent" unicode="&#x145;" horiz-adv-x="675" 
d="M190 0h-179l123 700h139l182 -366l65 366h178l-123 -700h-138l-182 366zM297 -277h-129l48 220h154z" />
    <glyph glyph-name="ncommaaccent" unicode="&#x146;" 
d="M395 514q83 0 125.5 -57.5t25.5 -157.5l-53 -299h-166l49 278q6 39 -10.5 59t-51.5 20q-80 0 -97 -91v1l-47 -267h-166l88 500h166l-9 -51q57 65 146 65zM253 -277h-129l48 220h154z" />
    <glyph glyph-name="Ncaron" unicode="&#x147;" horiz-adv-x="675" 
d="M503 745h-167l-79 155h145l30 -56l49 56h155zM455 334l65 366h178l-123 -700h-138l-182 366l-65 -366h-179l123 700h139z" />
    <glyph glyph-name="ncaron" unicode="&#x148;" 
d="M418 555h-167l-79 155h145l30 -56l49 56h155zM395 514q83 0 125.5 -57.5t25.5 -157.5l-53 -299h-166l49 278q6 39 -10.5 59t-51.5 20q-80 0 -97 -91v1l-47 -267h-166l88 500h166l-9 -51q57 65 146 65z" />
    <glyph glyph-name="Eng" unicode="&#x14a;" horiz-adv-x="675" 
d="M455 334l65 366h178l-123 -700q-20 -114 -88.5 -165.5t-192.5 -41.5l28 154q72 -3 83 60l8 42l-158 317l-65 -366h-179l123 700h139z" />
    <glyph glyph-name="eng" unicode="&#x14b;" 
d="M395 514q83 0 125.5 -57.5t25.5 -157.5l-53 -299q-20 -117 -83 -167t-178 -42l27 150q58 -5 68 59l49 278q6 39 -10.5 59t-51.5 20q-80 0 -97 -91v1l-47 -267h-166l88 500h166l-9 -51q57 65 146 65z" />
    <glyph glyph-name="Omacron" unicode="&#x14c;" horiz-adv-x="790" 
d="M640 764h-309l22 130h310zM360 -15q-104 -2 -184 51.5t-114.5 141t-14.5 183.5q25 150 141 252t279 102q159 0 247 -112q89 -112 64 -262q-26 -152 -140 -254q-112 -102 -278 -102zM600 350q15 83 -29 136q-43 54 -125 54q-81 0 -144 -54q-62 -53 -77 -136
q-15 -84 27 -137q44 -53 124 -53t145 53q66 55 79 137z" />
    <glyph glyph-name="omacron" unicode="&#x14d;" horiz-adv-x="583" 
d="M501 564h-309l22 130h310zM258 -14q-83 0 -142.5 42.5t-81.5 106.5t-7 131q19 103 100 176q81 72 202 72q120 0 183 -86t44 -192q-18 -103 -100 -176q-83 -74 -198 -74zM271 146q44 0 77 29t41 75t-14.5 75t-66.5 29q-43 0 -76 -29t-41 -75t14.5 -75t65.5 -29z" />
    <glyph glyph-name="Ohungarumlaut" unicode="&#x150;" horiz-adv-x="790" 
d="M285 755l106 150h164l-113 -150h-157zM477 755l117 150h163l-122 -150h-158zM360 -15q166 0 278 102q114 102 140 254q25 150 -64 262q-88 112 -247 112q-163 0 -279 -102t-141 -252q-20 -96 14.5 -183.5t114.5 -141t184 -51.5zM600 350q-13 -82 -79 -137
q-65 -53 -145 -53t-124 53q-42 53 -27 137q15 83 77 136q63 54 144 54q82 0 125 -54q44 -53 29 -136z" />
    <glyph glyph-name="ohungarumlaut" unicode="&#x151;" horiz-adv-x="583" 
d="M146 555l106 150h164l-113 -150h-157zM338 555l117 150h163l-122 -150h-158zM258 -14q115 0 198 74q82 73 100 176q19 106 -44 192t-183 86q-121 0 -202 -72q-81 -73 -100 -176q-15 -67 7 -131t81.5 -106.5t142.5 -42.5zM271 146q-43 0 -65.5 29t-14.5 75t41 75t76 29
q44 0 66.5 -29t14.5 -75t-41 -75t-77 -29z" />
    <glyph glyph-name="OE" unicode="&#x152;" horiz-adv-x="934" 
d="M978 700l-29 -168h-226l-17 -97h201l-29 -164h-200l-18 -103h230l-30 -168h-409q-54 -15 -108 -15q-157 0 -239 109q-83 110 -58 262q24 149 141 254t275 105q64 0 112 -15l-31 -176q-38 16 -102 16q-79 0 -141 -53q-60 -52 -75 -137t25 -137q41 -53 121 -53q66 0 111 16
l92 524h404z" />
    <glyph glyph-name="oe" unicode="&#x153;" horiz-adv-x="933" 
d="M699 514q106 0 168 -77q62 -78 43 -186q-5 -34 -17 -62h-343q13 -61 96 -61q60 0 99 36l106 -97q-87 -81 -210 -81q-133 0 -192 86q-80 -86 -201 -86q-84 0 -140 41q-107 80 -82 233q18 106 96 179q80 75 199 75q116 0 175 -86q81 86 203 86zM570 305h189q-5 69 -79 69
t-110 -69zM310 354q-44 0 -77 -29t-41 -75q-8 -45 15 -74.5t66 -29.5q44 0 77.5 29t41.5 75q8 45 -15.5 74.5t-66.5 29.5z" />
    <glyph glyph-name="Racute" unicode="&#x154;" horiz-adv-x="620" 
d="M380 900h198l-136 -145h-163zM624 448q-25 -137 -152 -194l96 -254h-180l-82 226h-76l-40 -226h-179l124 700h274q104 0 169 -74q65 -75 46 -178zM380 535h-96l-28 -157h103q33 -1 56.5 21t29.5 57t-11.5 57t-53.5 22z" />
    <glyph glyph-name="racute" unicode="&#x155;" horiz-adv-x="380" 
d="M260 700h198l-136 -145h-163zM258 500l-17 -94q23 50 67.5 77t101.5 27l-31 -184q-58 8 -109 -20t-63 -99l2 16l-39 -223h-166l88 500h166z" />
    <glyph glyph-name="Rcommaaccent" unicode="&#x156;" horiz-adv-x="620" 
d="M624 448q-25 -137 -152 -194l96 -254h-180l-82 226h-76l-40 -226h-179l124 700h274q104 0 169 -74q65 -75 46 -178zM380 535h-96l-28 -157h103q33 -1 56.5 21t29.5 57t-11.5 57t-53.5 22zM295 -277h-129l48 220h154z" />
    <glyph glyph-name="rcommaaccent" unicode="&#x157;" horiz-adv-x="380" 
d="M258 500l-17 -94q23 50 67.5 77t101.5 27l-31 -184q-58 8 -109 -20t-63 -99l2 16l-39 -223h-166l88 500h166zM80 -277h-129l48 220h154z" />
    <glyph glyph-name="Rcaron" unicode="&#x158;" horiz-adv-x="620" 
d="M446 745h-167l-79 155h145l30 -56l49 56h155zM624 448q-25 -137 -152 -194l96 -254h-180l-82 226h-76l-40 -226h-179l124 700h274q104 0 169 -74q65 -75 46 -178zM380 535h-96l-28 -157h103q33 -1 56.5 21t29.5 57t-11.5 57t-53.5 22z" />
    <glyph glyph-name="rcaron" unicode="&#x159;" horiz-adv-x="380" 
d="M326 545h-167l-79 155h145l30 -56l49 56h155zM258 500l-17 -94q23 50 67.5 77t101.5 27l-31 -184q-58 8 -109 -20t-63 -99l2 16l-39 -223h-166l88 500h166z" />
    <glyph glyph-name="Sacute" unicode="&#x15a;" horiz-adv-x="588" 
d="M287 765l101 145h198l-136 -145h-163zM269 -15q118 0 193.5 52t93.5 150q18 111 -45 162q-29 25 -57 39.5t-78 31.5q-68 24 -91 40.5t-17 40.5q9 45 72 45q73 0 106 -73l153 82q-30 77 -93.5 118.5t-151.5 41.5q-102 0 -177 -54q-75 -53 -91 -149q-16 -91 31 -145
q46 -52 139 -84q71 -25 73 -26q52 -22 46 -55q-9 -48 -91 -48q-100 0 -128 87l-159 -82q22 -82 92 -128t180 -46z" />
    <glyph glyph-name="sacute" unicode="&#x15b;" horiz-adv-x="473" 
d="M201 565l101 145h198l-136 -145h-163zM210 -14q86 0 147 36q63 37 76 113q21 125 -99 160q-18 7 -54.5 16t-50.5 17.5t-11 25.5q6 29 44 27q44 -2 62 -46l141 68q-24 53 -76 82t-122 29q-75 0 -139 -38q-62 -37 -76 -113q-23 -131 133 -170q42 -11 63.5 -21.5t18.5 -24.5
q-5 -24 -48 -24q-61 0 -83 57l-146 -71q54 -123 220 -123z" />
    <glyph glyph-name="Scedilla" unicode="&#x15e;" horiz-adv-x="588" 
d="M376 420q50 -17 78 -31.5t57 -39.5q63 -51 45 -162q-15 -84 -73.5 -134.5t-151.5 -63.5l-6 -35q53 -25 43 -86q-20 -105 -250 -89l19 109q93 -8 98 14q3 17 -50 20l12 69q-80 13 -131 56.5t-69 111.5l159 82q28 -87 128 -87q82 0 91 48q6 33 -46 55q-2 1 -73 26
q-93 32 -139 84q-47 54 -31 145q16 96 91 149q75 54 177 54q88 0 151.5 -41.5t93.5 -118.5l-153 -82q-33 73 -106 73q-63 0 -72 -45q-6 -24 17 -40.5t91 -40.5z" />
    <glyph glyph-name="scedilla" unicode="&#x15f;" horiz-adv-x="473" 
d="M218 354q-3 -17 11 -25.5t50.5 -17.5t54.5 -16q120 -35 99 -160q-23 -119 -159 -144l-7 -37q53 -25 43 -86q-20 -105 -250 -89l19 109q93 -8 98 14q3 17 -50 20l13 70q-110 21 -150 117l146 71q22 -57 83 -57q43 0 48 24q3 14 -18.5 24.5t-63.5 21.5q-156 39 -133 170
q14 76 76 113q64 38 139 38q70 0 122 -29t76 -82l-141 -68q-18 44 -62 46q-38 2 -44 -27z" />
    <glyph glyph-name="Scaron" unicode="&#x160;" horiz-adv-x="588" 
d="M454 755h-167l-79 155h145l30 -56l49 56h155zM376 420q50 -17 78 -31.5t57 -39.5q63 -51 45 -162q-18 -98 -93.5 -150t-193.5 -52q-110 0 -180 46t-92 128l159 82q28 -87 128 -87q82 0 91 48q6 33 -46 55q-2 1 -73 26q-93 32 -139 84q-47 54 -31 145q16 96 91 149
q75 54 177 54q88 0 151.5 -41.5t93.5 -118.5l-153 -82q-33 73 -106 73q-63 0 -72 -45q-6 -24 17 -40.5t91 -40.5z" />
    <glyph glyph-name="scaron" unicode="&#x161;" horiz-adv-x="473" 
d="M368 555h-167l-79 155h145l30 -56l49 56h155zM262 381q-38 2 -44 -27q-3 -17 11 -25.5t50.5 -17.5t54.5 -16q120 -35 99 -160q-13 -76 -76 -113q-61 -36 -147 -36q-166 0 -220 123l146 71q22 -57 83 -57q43 0 48 24q3 14 -18.5 24.5t-63.5 21.5q-156 39 -133 170
q14 76 76 113q64 38 139 38q70 0 122 -29t76 -82l-141 -68q-18 44 -62 46z" />
    <glyph glyph-name="uni0162" unicode="&#x162;" horiz-adv-x="545" 
d="M89 700h525l-31 -173h-172l-93 -527h-179l93 527h-173zM224 -277h-129l48 220h154z" />
    <glyph glyph-name="uni0163" unicode="&#x163;" horiz-adv-x="394" 
d="M374 341h-104l-25 -145q-6 -32 14.5 -41t81.5 -5l-26 -150q-141 -19 -199 28.5t-38 163.5l26 149h-75l28 159h75l16 90l175 50l-25 -140h105zM183 -272h-129l48 220h154z" />
    <glyph glyph-name="Tcaron" unicode="&#x164;" horiz-adv-x="545" 
d="M438 745h-167l-79 155h145l30 -56l49 56h155zM89 700h525l-31 -173h-172l-93 -527h-179l93 527h-173z" />
    <glyph glyph-name="tcaron" unicode="&#x165;" horiz-adv-x="430" 
d="M342 536l43 190h150l-69 -190h-124zM148 590l175 50l-25 -140h105l-29 -159h-104l-25 -145q-6 -32 14.5 -41t81.5 -5l-26 -150q-141 -19 -199 28.5t-38 163.5l26 149h-75l28 159h75z" />
    <glyph glyph-name="Tbar" unicode="&#x166;" horiz-adv-x="545" 
d="M614 700l-31 -173h-172l-21 -115h105l-28 -158h-104l-45 -254h-179l45 254h-107l28 158h106l21 115h-173l30 173h525z" />
    <glyph glyph-name="tbar" unicode="&#x167;" horiz-adv-x="394" 
d="M403 500l-26 -145h-104l-7 -41h72l-21 -120h-72q-5 -31 15.5 -39.5t80.5 -4.5l-26 -150q-141 -19 -199 28.5t-38 163.5v2h-50l21 120h50l8 41h-76l26 145h75l16 90l175 50l-25 -140h105z" />
    <glyph glyph-name="Umacron" unicode="&#x16a;" horiz-adv-x="645" 
d="M566 754h-309l22 130h310zM290 -15q-128 0 -198 69q-70 70 -50 176l83 470h179l-80 -453q-16 -88 83 -88q98 0 114 88l79 453h179l-83 -470q-21 -117 -104 -182q-82 -63 -202 -63z" />
    <glyph glyph-name="umacron" unicode="&#x16b;" 
d="M202 684h310l-23 -130h-309zM361 233l47 267h166l-88 -500h-166l9 51q-57 -65 -146 -65q-83 0 -125.5 57.5t-25.5 157.5l53 299h166l-49 -278q-6 -39 10.5 -59t51.5 -20q80 0 97 91v-1z" />
    <glyph glyph-name="Uring" unicode="&#x16e;" horiz-adv-x="645" 
d="M405 708q-61 0 -95 39t-24 96t54.5 93t106.5 36q61 0 95 -40q34 -39 24 -96t-54 -92.5t-107 -35.5zM420 808q36 0 40 31q3 15 -4.5 24t-24.5 9q-15 0 -25.5 -9t-12.5 -23q-5 -32 27 -32zM290 -15q-128 0 -198 69q-70 70 -50 176l83 470h179l-80 -453q-16 -88 83 -88
q98 0 114 88l79 453h179l-83 -470q-21 -117 -104 -182q-82 -63 -202 -63z" />
    <glyph glyph-name="uring" unicode="&#x16f;" 
d="M333 533q-61 0 -95 39t-24 96t54.5 93t106.5 36q61 0 95 -40q34 -39 24 -96t-54 -92.5t-107 -35.5zM321 665q-5 -32 27 -32q36 0 40 31q3 15 -4.5 24t-24.5 9q-15 0 -25.5 -9t-12.5 -23zM361 233l47 267h166l-88 -500h-166l9 51q-57 -65 -146 -65q-83 0 -125.5 57.5
t-25.5 157.5l53 299h166l-49 -278q-6 -39 10.5 -59t51.5 -20q80 0 97 91v-1z" />
    <glyph glyph-name="Uhungarumlaut" unicode="&#x170;" horiz-adv-x="645" 
d="M211 745l106 150h164l-113 -150h-157zM403 745l117 150h163l-122 -150h-158zM290 -15q120 0 202 63q83 65 104 182l83 470h-179l-79 -453q-16 -88 -114 -88q-99 0 -83 88l80 453h-179l-83 -470q-20 -106 50 -176q70 -69 198 -69z" />
    <glyph glyph-name="uhungarumlaut" unicode="&#x171;" 
d="M240 695h164l-113 -150h-157zM606 695l-122 -150h-158l117 150h163zM361 234v-1l47 267h166l-88 -500h-166l9 51q-57 -65 -146 -65q-83 0 -125.5 57.5t-25.5 157.5l53 299h166l-49 -278q-6 -39 10.5 -59t51.5 -20q80 0 97 91z" />
    <glyph glyph-name="Uogonek" unicode="&#x172;" horiz-adv-x="645" 
d="M421 247l79 453h179l-83 -470q-22 -127 -118 -192q-99 -75 -110 -116q-6 -21 17 -23q6 -2 23 3l-18 -99q-46 -17 -85 -17q-51 0 -77 28t-18 73q10 55 64 98q-121 4 -186 73q-64 68 -46 172l83 470h179l-80 -453q-16 -88 83 -88q98 0 114 88z" />
    <glyph glyph-name="uogonek" unicode="&#x173;" 
d="M361 233l47 267h166l-88 -500h-2q-54 -50 -57 -82q-3 -19 18 -19q10 0 22 3l-18 -99q-39 -17 -81 -17q-51 0 -79 25.5t-20 69.5q10 56 82 119h-31l9 51q-57 -65 -146 -65q-83 0 -125.5 57.5t-25.5 157.5l53 299h166l-49 -278q-6 -39 10.5 -59t51.5 -20q80 0 97 91v-1z
" />
    <glyph glyph-name="Wcircumflex" unicode="&#x174;" horiz-adv-x="1004" 
d="M624 745l-29 56l-50 -56h-151l133 155h167l79 -155h-149zM693 259l188 441h196l-318 -700h-189l-43 395l-181 -395h-189l-73 700h181l35 -441l202 441h143z" />
    <glyph glyph-name="wcircumflex" unicode="&#x175;" horiz-adv-x="790" 
d="M485 545l-29 56l-50 -56h-151l133 155h167l79 -155h-149zM535 233l112 267h181l-241 -500h-162l-27 251l-109 -251h-170l-65 500h166l23 -272l118 272h145z" />
    <glyph glyph-name="Ycircumflex" unicode="&#x176;" horiz-adv-x="631" 
d="M438 745l-29 56l-50 -56h-151l133 155h167l79 -155h-149zM498 700h212l-295 -395l-54 -305h-179l54 305l-157 395h190l75 -225z" />
    <glyph glyph-name="ycircumflex" unicode="&#x177;" horiz-adv-x="549" 
d="M351 545l-29 56l-50 -56h-151l133 155h167l79 -155h-149zM272 211l130 289h191l-254 -485q-64 -123 -146.5 -173.5t-195.5 -41.5l28 156q53 0 80 13.5t51 50.5l-112 480h176z" />
    <glyph glyph-name="Ydieresis" unicode="&#x178;" horiz-adv-x="631" 
d="M331 895q32 0 51.5 -23.5t13.5 -56.5q-2 -25 -20 -45t-41 -29t-47 -5t-37 22q-18 17 -16 41t13.5 46t34.5 36.5t48 13.5zM497 735q-32 0 -51.5 23.5t-13.5 56.5q2 24 20 44.5t41 29.5t47 5t37 -23q19 -25 14 -56t-33 -56.5t-61 -23.5zM498 700h212l-295 -395l-54 -305
h-179l54 305l-157 395h190l75 -225z" />
    <glyph glyph-name="Zacute" unicode="&#x179;" horiz-adv-x="542" 
d="M378 900h198l-136 -145h-163zM117 700h474l-23 -138l-312 -389h250l-30 -173h-487l24 138l313 389h-240z" />
    <glyph glyph-name="zacute" unicode="&#x17a;" horiz-adv-x="455" 
d="M295 700h198l-136 -145h-163zM213 346h-161l27 154h390l-20 -114l-212 -232h181l-27 -154h-410l21 114z" />
    <glyph glyph-name="Zdotaccent" unicode="&#x17b;" horiz-adv-x="542" 
d="M365 743q-37 0 -59 26.5t-15 62.5q7 37 37.5 63.5t67.5 26.5t59 -26.5t16 -63.5q-8 -36 -39 -62.5t-67 -26.5zM117 700h474l-23 -138l-312 -389h250l-30 -173h-487l24 138l313 389h-240z" />
    <glyph glyph-name="zdotaccent" unicode="&#x17c;" horiz-adv-x="455" 
d="M282 543q-37 0 -59 26.5t-15 62.5q7 37 37.5 63.5t67.5 26.5t59 -26.5t16 -63.5q-8 -36 -39 -62.5t-67 -26.5zM79 500h390l-20 -114l-212 -232h181l-27 -154h-410l21 114l211 232h-161z" />
    <glyph glyph-name="Zcaron" unicode="&#x17d;" horiz-adv-x="542" 
d="M444 745h-167l-79 155h145l30 -56l49 56h155zM117 700h474l-23 -138l-312 -389h250l-30 -173h-487l24 138l313 389h-240z" />
    <glyph glyph-name="zcaron" unicode="&#x17e;" horiz-adv-x="455" 
d="M361 545h-167l-79 155h145l30 -56l49 56h155zM213 346h-161l27 154h390l-20 -114l-212 -232h181l-27 -154h-410l21 114z" />
    <glyph glyph-name="florin" unicode="&#x192;" horiz-adv-x="461" 
d="M203 431l37 106q27 81 75 124q46 42 105.5 51.5t120.5 -6.5l-29 -164q-25 16 -60 2q-36 -14 -49 -54l-20 -59h74l-28 -159h-102l-105 -303q-28 -82 -76 -124q-45 -42 -104.5 -51.5t-120.5 6.5l29 164q25 -16 60 -2q36 14 49 54l89 256h-69l29 159h95z" />
    <glyph glyph-name="Scommaaccent" unicode="&#x218;" horiz-adv-x="588" 
d="M269 -15q-110 0 -180 46t-92 128l159 82q28 -87 128 -87q82 0 91 48q6 33 -46 55q-2 1 -73 26q-93 32 -139 84q-47 54 -31 145q16 96 91 149q75 54 177 54q88 0 151.5 -41.5t93.5 -118.5l-153 -82q-33 73 -106 73q-63 0 -72 -45q-6 -24 17 -40.5t91 -40.5
q50 -17 78 -31.5t57 -39.5q63 -51 45 -162q-18 -98 -93.5 -150t-193.5 -52zM265 -277h-129l48 220h154z" />
    <glyph glyph-name="scommaaccent" unicode="&#x219;" horiz-adv-x="473" 
d="M210 -14q-166 0 -220 123l146 71q22 -57 83 -57q43 0 48 24q3 14 -18.5 24.5t-63.5 21.5q-156 39 -133 170q14 76 76 113q64 38 139 38q70 0 122 -29t76 -82l-141 -68q-18 44 -62 46q-38 2 -44 -27q-3 -17 11 -25.5t50.5 -17.5t54.5 -16q120 -35 99 -160
q-13 -76 -76 -113q-61 -36 -147 -36zM207 -277h-129l48 220h154z" />
    <glyph glyph-name="uni021A" unicode="&#x21a;" horiz-adv-x="545" 
d="M89 700h525l-31 -173h-172l-93 -527h-179l93 527h-173zM224 -277h-129l48 220h154z" />
    <glyph glyph-name="uni021B" unicode="&#x21b;" horiz-adv-x="394" 
d="M374 341h-104l-25 -145q-6 -32 14.5 -41t81.5 -5l-26 -150q-141 -19 -199 28.5t-38 163.5l26 149h-75l28 159h75l16 90l175 50l-25 -140h105zM183 -272h-129l48 220h154z" />
    <glyph glyph-name="circumflex" unicode="&#x2c6;" horiz-adv-x="419" 
d="M372 700l79 -155h-149l-29 56l-50 -56h-151l133 155h167z" />
    <glyph glyph-name="caron" unicode="&#x2c7;" horiz-adv-x="419" 
d="M274 644l49 56h155l-133 -155h-167l-79 155h145z" />
    <glyph glyph-name="breve" unicode="&#x2d8;" horiz-adv-x="399" 
d="M259 537q-85 0 -129.5 44t-30.5 116h140q-8 -44 32 -44q39 0 47 44h140q-25 -160 -199 -160z" />
    <glyph glyph-name="dotaccent" unicode="&#x2d9;" horiz-adv-x="199" 
d="M161 543q-37 0 -59 26.5t-15 62.5q7 37 37.5 63.5t67.5 26.5t59 -26.5t16 -63.5q-8 -36 -39 -62.5t-67 -26.5z" />
    <glyph glyph-name="ring" unicode="&#x2da;" horiz-adv-x="321" 
d="M210 533q-60 0 -95 39t-24 96q10 57 54.5 93t106.5 36q61 0 95 -40q35 -39 24 -96q-10 -57 -54 -92.5t-107 -35.5zM225 633q36 0 40 31q3 15 -4.5 24t-24.5 9q-15 0 -25.5 -9t-12.5 -23q-5 -32 27 -32z" />
    <glyph glyph-name="ogonek" unicode="&#x2db;" horiz-adv-x="233" 
d="M-46 -123q10 59 84 123h131q-53 -48 -57 -78q-5 -23 17 -23q6 -2 23 3l-18 -99q-34 -13 -69 -16t-62.5 5t-42 30t-6.5 55z" />
    <glyph glyph-name="tilde" unicode="&#x2dc;" horiz-adv-x="398" 
d="M200 548h-121q6 59 28.5 98.5t53 53.5t63.5 11.5t63 -20.5q22 -16 36.5 -14t20.5 33h122q-6 -60 -28.5 -99t-53.5 -52.5t-64 -11t-63 20.5q-48 36 -57 -20z" />
    <glyph glyph-name="hungarumlaut" unicode="&#x2dd;" horiz-adv-x="486" 
d="M72 545l106 150h164l-113 -150h-157zM264 545l117 150h163l-122 -150h-158z" />
    <glyph glyph-name="gravecomb" unicode="&#x300;" horiz-adv-x="0" 
d="M34 555h-154l-95 145h188z" />
    <glyph glyph-name="acutecomb" unicode="&#x301;" horiz-adv-x="0" 
d="M-226 555l101 145h198l-136 -145h-163z" />
    <glyph glyph-name="uni0302" unicode="&#x302;" horiz-adv-x="0" 
d="M-47 700l79 -155h-149l-29 56l-50 -56h-151l133 155h167z" />
    <glyph glyph-name="tildecomb" unicode="&#x303;" horiz-adv-x="0" 
d="M-205 548h-121q6 59 28.5 98.5t53 53.5t63.5 11.5t63 -20.5q22 -16 36.5 -14t20.5 33h122q-6 -60 -28.5 -99t-53.5 -52.5t-64 -11t-63 20.5q-48 36 -57 -20z" />
    <glyph glyph-name="uni0304" unicode="&#x304;" horiz-adv-x="0" 
d="M34 554h-309l22 130h310z" />
    <glyph glyph-name="uni0306" unicode="&#x306;" horiz-adv-x="0" 
d="M-145 537q-85 0 -129.5 44t-30.5 116h140q-8 -44 32 -44q39 0 47 44h140q-25 -160 -199 -160z" />
    <glyph glyph-name="uni0307" unicode="&#x307;" horiz-adv-x="0" 
d="M-58 543q-37 0 -59 26.5t-15 62.5q7 37 37.5 63.5t67.5 26.5t59 -26.5t16 -63.5q-8 -36 -39 -62.5t-67 -26.5z" />
    <glyph glyph-name="uni0308" unicode="&#x308;" horiz-adv-x="0" 
d="M-216 695q32 0 51.5 -23.5t13.5 -56.5q-2 -25 -20 -45t-41 -29t-47 -5t-37 22q-18 17 -16 41t13.5 46t34.5 36.5t48 13.5zM-50 535q-32 0 -51.5 23.5t-13.5 56.5q2 24 20 44.5t41 29.5t47 5t37 -23q19 -25 14 -56t-33 -56.5t-61 -23.5z" />
    <glyph glyph-name="uni030A" unicode="&#x30a;" horiz-adv-x="0" 
d="M-108 533q-60 0 -95 39t-24 96q10 57 54.5 93t106.5 36q61 0 95 -40q35 -39 24 -96q-10 -57 -54 -92.5t-107 -35.5zM-93 633q36 0 40 31q3 15 -4.5 24t-24.5 9q-15 0 -25.5 -9t-12.5 -23q-5 -32 27 -32z" />
    <glyph glyph-name="uni030B" unicode="&#x30b;" horiz-adv-x="0" 
d="M-414 545l106 150h164l-113 -150h-157zM-222 545l117 150h163l-122 -150h-158z" />
    <glyph glyph-name="uni030C" unicode="&#x30c;" horiz-adv-x="0" 
d="M-145 644l49 56h155l-133 -155h-167l-79 155h145z" />
    <glyph glyph-name="uni0312" unicode="&#x312;" horiz-adv-x="0" 
d="M-19 985h129l-49 -220h-154z" />
    <glyph glyph-name="uni0326" unicode="&#x326;" horiz-adv-x="0" 
d="M-148 -277h-129l48 220h154z" />
    <glyph glyph-name="uni0327" unicode="&#x327;" horiz-adv-x="0" 
d="M-123 0l-8 -46q53 -25 43 -86q-20 -105 -250 -89l19 109q93 -8 98 14q3 17 -50 20l14 78h134z" />
    <glyph glyph-name="uni0328" unicode="&#x328;" horiz-adv-x="0" 
d="M-284 -123q10 59 84 123h131q-53 -48 -57 -78q-5 -23 17 -23q6 -2 23 3l-18 -99q-34 -13 -69 -16t-62.5 5t-42 30t-6.5 55z" />
    <glyph glyph-name="uni0394" unicode="&#x394;" horiz-adv-x="660" 
d="M302 700h214l105 -700h-670zM382 497l-158 -342h194z" />
    <glyph glyph-name="uni03A9" unicode="&#x3a9;" horiz-adv-x="775" 
d="M774 365q-21 -118 -112 -197h63l-29 -168h-281l12 71l12 66l5 31l1 5q57 20 97 67t51 110q14 83 -30 136q-43 54 -125 54q-81 0 -144 -54q-62 -53 -76 -136q-11 -62 12 -109t72 -68l-6 -36l-24 -137h-281l29 168h73q-72 86 -51 207q27 150 146 245q121 95 276 95
q150 4 244.5 -100.5t65.5 -249.5z" />
    <glyph glyph-name="pi" unicode="&#x3c0;" horiz-adv-x="661" 
d="M59 500h630l-27 -157h-75l-60 -343h-166l60 343h-147l-60 -343h-166l60 343h-76z" />
    <glyph glyph-name="uni0401" unicode="&#x401;" horiz-adv-x="535" 
d="M294 895q32 0 51.5 -23.5t13.5 -56.5q-2 -25 -20 -45t-41 -29t-47 -5t-37 22q-18 17 -16 41t13.5 46t34.5 36.5t48 13.5zM460 735q-32 0 -51.5 23.5t-13.5 56.5q2 24 20 44.5t41 29.5t47 5t37 -23q19 -25 14 -56t-33 -56.5t-61 -23.5zM579 700l-30 -167h-265l-18 -98h242
l-30 -164h-240l-18 -103h270l-29 -168h-450l123 700h445z" />
    <glyph glyph-name="uni0402" unicode="&#x402;" horiz-adv-x="695" 
d="M502 450q93 0 136.5 -52.5t26.5 -143.5l-9 -52q-22 -124 -84 -174q-62 -48 -188 -41l28 159q33 -2 48 10.5t20 45.5l5 31q10 57 -52 57q-35 0 -77 -15l-48 -275h-179l93 527h-163l30 173h525l-31 -173h-182l-17 -93q57 16 118 16z" />
    <glyph glyph-name="uni0403" unicode="&#x403;" horiz-adv-x="475" 
d="M357 899h198l-136 -145h-163zM11 0l123 700h414l-30 -173h-235l-93 -527h-179z" />
    <glyph glyph-name="uni0404" unicode="&#x404;" horiz-adv-x="722" 
d="M371 157q103 0 164 87l147 -95q-56 -78 -140.5 -121t-182.5 -43q-161 0 -250 108q-88 107 -62 267q25 154 141 255q116 100 272 100q101 0 175 -44t111 -123l-164 -87q-36 82 -139 82q-61 0 -111.5 -29.5t-79.5 -81.5h251l-30 -164h-249q11 -52 49.5 -81.5t97.5 -29.5z
" />
    <glyph glyph-name="uni0405" unicode="&#x405;" horiz-adv-x="588" 
d="M269 -15q-110 0 -180 46t-92 128l159 82q28 -87 128 -87q82 0 91 48q6 33 -46 55q-2 1 -73 26q-93 32 -139 84q-47 54 -31 145q16 96 91 149q75 54 177 54q88 0 151.5 -41.5t93.5 -118.5l-153 -82q-33 73 -106 73q-63 0 -72 -45q-6 -24 17 -40.5t91 -40.5
q50 -17 78 -31.5t57 -39.5q63 -51 45 -162q-18 -98 -93.5 -150t-193.5 -52z" />
    <glyph glyph-name="uni0406" unicode="&#x406;" horiz-adv-x="289" 
d="M11 0l123 700h179l-123 -700h-179z" />
    <glyph glyph-name="uni0407" unicode="&#x407;" horiz-adv-x="289" 
d="M161 895q32 0 51.5 -23.5t13.5 -56.5q-2 -25 -20 -45t-41 -29t-47 -5t-37 22q-18 17 -16 41t13.5 46t34.5 36.5t48 13.5zM327 735q-32 0 -51.5 23.5t-13.5 56.5q2 24 20 44.5t41 29.5t47 5t37 -23q19 -25 14 -56t-33 -56.5t-61 -23.5zM11 0l123 700h179l-123 -700h-179z
" />
    <glyph glyph-name="uni0408" unicode="&#x408;" horiz-adv-x="569" 
d="M234 -15q-175 0 -230 145l162 87q18 -58 81 -58q82 0 94 71l83 470h179l-84 -473q-42 -242 -285 -242z" />
    <glyph glyph-name="uni0409" unicode="&#x409;" horiz-adv-x="938" 
d="M638 464h73q98 0 161 -69q64 -69 46 -173q-18 -105 -98 -164q-79 -58 -191 -58h-252l93 527h-131l-44 -254q-13 -75 -39 -129.5t-59 -83t-73 -46t-80.5 -18t-82.5 1.5l29 167q57 -6 86 19t41 97l74 419h488zM681 294h-73l-22 -124h73q70 0 81 62t-59 62z" />
    <glyph glyph-name="uni040A" unicode="&#x40a;" horiz-adv-x="943" 
d="M643 465h73q98 0 161 -70q64 -69 46 -173q-18 -105 -98 -164q-79 -58 -191 -58h-252l52 294h-192l-52 -294h-179l123 700h179l-41 -235h192l41 235h179zM745 232q11 62 -58 62h-74l-22 -123h73q71 0 81 61z" />
    <glyph glyph-name="uni040B" unicode="&#x40b;" horiz-adv-x="700" 
d="M500 455q91 0 134.5 -51.5t30.5 -144.5l-44 -259h-177l41 237q6 32 -8 45t-48 13q-38 0 -71 -13l-50 -282h-179l93 527h-163l30 173h525l-31 -173h-182l-16 -89q60 17 115 17z" />
    <glyph glyph-name="uni040C" unicode="&#x40c;" horiz-adv-x="631" 
d="M416 899h198l-136 -145h-163zM502 700h209l-298 -348l178 -352h-185l-160 319l-56 -319h-179l123 700h179l-50 -284z" />
    <glyph glyph-name="uni040E" unicode="&#x40e;" horiz-adv-x="629" 
d="M268 893h323l-24 -140h-323zM356 413l155 287h191l-280 -489q-67 -118 -151 -166q-84 -47 -201 -45l29 167q88 -4 146 58l-151 475h176z" />
    <glyph glyph-name="uni040F" unicode="&#x40f;" horiz-adv-x="650" 
d="M402 173l93 527h179l-123 -700h-181l-24 -134h-178l24 134h-181l123 700h179l-93 -527h182z" />
    <glyph glyph-name="uni0410" unicode="&#x410;" horiz-adv-x="671" 
d="M631 0h-191l-11 101h-233l-48 -101h-197l354 700h218zM386 497l-116 -242h142z" />
    <glyph glyph-name="uni0411" unicode="&#x411;" horiz-adv-x="592" 
d="M268 442h110q100 0 156 -66q56 -65 39 -164q-18 -102 -88.5 -157t-184.5 -55h-289l123 700h464l-30 -173h-285zM343 281h-104l-20 -117h103q64 0 74 58q5 29 -9 44t-44 15z" />
    <glyph glyph-name="uni0412" unicode="&#x412;" horiz-adv-x="602" 
d="M605 494q-17 -91 -90 -137q73 -55 60 -159q-12 -91 -84.5 -144.5t-189.5 -53.5h-290l123 700h266q104 0 162 -58t43 -148zM374 540h-89l-19 -110h88q28 0 47 14.5t23 40.5q4 25 -9.5 40t-40.5 15zM400 219q5 27 -8.5 43t-43.5 16h-109l-21 -118h108q29 0 49 16t25 43z
" />
    <glyph glyph-name="uni0413" unicode="&#x413;" horiz-adv-x="475" 
d="M134 700h414l-30 -173h-235l-93 -527h-179z" />
    <glyph glyph-name="uni0414" unicode="&#x414;" horiz-adv-x="712" 
d="M211 700h487l-93 -527h76l-55 -307h-178l23 134h-326l-24 -134h-178l54 307h73q61 74 88 222zM262 173h165l64 361h-130l-25 -141q-25 -141 -74 -220z" />
    <glyph glyph-name="uni0415" unicode="&#x415;" horiz-adv-x="535" 
d="M579 700l-30 -167h-265l-18 -98h242l-30 -164h-240l-18 -103h270l-29 -168h-450l123 700h445z" />
    <glyph glyph-name="uni0416" unicode="&#x416;" horiz-adv-x="927" 
d="M794 700h204l-269 -358l144 -342h-187l-121 312l-55 -312h-179l53 304l-222 -304h-201l277 364l-145 336h187l120 -305l54 305h179l-54 -305z" />
    <glyph glyph-name="uni0417" unicode="&#x417;" horiz-adv-x="560" 
d="M563 495q-17 -96 -97 -142q85 -58 66 -166q-17 -96 -93.5 -149t-199.5 -53q-195 0 -248 164l159 84q24 -79 111 -79q84 0 96 62q9 54 -57 60l-106 1l27 155h70q81 0 91 58q4 28 -12.5 43t-51.5 15q-66 0 -107 -74l-144 93q43 70 115 109t163 39q105 0 170 -63
q64 -63 48 -157z" />
    <glyph glyph-name="uni0418" unicode="&#x418;" horiz-adv-x="675" 
d="M150 0h-139l123 700h179l-60 -341l307 341h138l-123 -700h-178l60 341z" />
    <glyph glyph-name="uni0419" unicode="&#x419;" horiz-adv-x="675" 
d="M575 754h-323l24 140h323zM150 0h-139l123 700h179l-60 -341l307 341h138l-123 -700h-178l60 341z" />
    <glyph glyph-name="uni041A" unicode="&#x41a;" horiz-adv-x="631" 
d="M502 700h209l-298 -348l178 -352h-185l-160 319l-56 -319h-179l123 700h179l-50 -284z" />
    <glyph glyph-name="uni041B" unicode="&#x41b;" horiz-adv-x="665" 
d="M-39 -2l29 167q57 -6 86 19t41 97l74 419h498l-123 -700h-179l93 527h-141l-44 -254q-13 -74 -38.5 -128t-58 -83t-72 -46.5t-81 -18.5t-84.5 1z" />
    <glyph glyph-name="uni041C" unicode="&#x41c;" horiz-adv-x="825" 
d="M658 700h190l-123 -700h-178l66 378l-219 -282h-18l-119 287l-67 -383h-179l123 700h179l114 -302z" />
    <glyph glyph-name="uni041D" unicode="&#x41d;" horiz-adv-x="665" 
d="M464 441l46 259h178l-123 -700h-178l47 269h-197l-47 -269h-179l123 700h179l-46 -259h197z" />
    <glyph glyph-name="uni041E" unicode="&#x41e;" horiz-adv-x="790" 
d="M360 -15q-104 -2 -184 51.5t-114.5 141t-14.5 183.5q25 150 141 252t279 102q159 0 247 -112q89 -112 64 -262q-26 -152 -140 -254q-112 -102 -278 -102zM600 350q15 83 -29 136q-43 54 -125 54q-81 0 -144 -54q-62 -53 -77 -136q-15 -84 27 -137q44 -53 124 -53t145 53
q66 55 79 137z" />
    <glyph glyph-name="uni041F" unicode="&#x41f;" horiz-adv-x="650" 
d="M134 700h540l-123 -700h-179l93 527h-182l-93 -527h-179z" />
    <glyph glyph-name="uni0420" unicode="&#x420;" horiz-adv-x="592" 
d="M134 700h264q105 0 167 -72q62 -71 46 -183q-15 -107 -93 -171q-76 -64 -199 -64h-92l-37 -210h-179zM433 455q7 34 -11 54t-54 20h-85l-26 -149h87q35 0 59 20.5t30 54.5z" />
    <glyph glyph-name="uni0421" unicode="&#x421;" horiz-adv-x="722" 
d="M359 -15q-161 0 -250 108q-88 107 -62 267q25 154 141 255q116 100 272 100q101 0 174 -43.5t112 -123.5l-164 -87q-40 79 -139 79q-81 0 -143 -53q-60 -53 -75 -137q-14 -84 26 -137q41 -53 120 -53q101 0 164 84l147 -95q-56 -78 -140.5 -121t-182.5 -43z" />
    <glyph glyph-name="uni0422" unicode="&#x422;" horiz-adv-x="545" 
d="M89 700h525l-31 -173h-172l-93 -527h-179l93 527h-173z" />
    <glyph glyph-name="uni0423" unicode="&#x423;" horiz-adv-x="629" 
d="M356 413l155 287h191l-280 -489q-67 -118 -151 -166q-84 -47 -201 -45l29 167q88 -4 146 58l-151 475h176z" />
    <glyph glyph-name="uni0424" unicode="&#x424;" horiz-adv-x="833" 
d="M586 720l-15 -84q137 -21 208 -101q70 -79 50 -195q-21 -119 -114.5 -191t-244.5 -87l-15 -82h-172l15 84q-138 19 -210 100q-70 79 -49 196q21 120 114.5 191.5t246.5 86.5l14 82h172zM217 350q-20 -104 110 -123l44 249q-134 -19 -154 -126zM652 350q9 54 -17.5 85
t-91.5 41l-44 -249q133 19 153 123z" />
    <glyph glyph-name="uni0425" unicode="&#x425;" horiz-adv-x="632" 
d="M490 700h208l-264 -350l148 -350h-193l-79 186l-141 -186h-208l274 363l-143 337h194l73 -173z" />
    <glyph glyph-name="uni0426" unicode="&#x426;" horiz-adv-x="702" 
d="M683 700l-93 -527h80l-54 -307h-179l24 134h-450l123 700h184l-93 -527h182l93 527h183z" />
    <glyph glyph-name="uni0427" unicode="&#x427;" horiz-adv-x="647" 
d="M439 398l53 302h178l-123 -700h-178l39 223q-44 -10 -95 -10q-131 0 -192.5 64t-41.5 178l43 245h178l-40 -231q-8 -45 12.5 -64t73.5 -20q45 0 93 13z" />
    <glyph glyph-name="uni0428" unicode="&#x428;" horiz-adv-x="949" 
d="M702 173l92 527h179l-123 -700h-839l123 700h179l-93 -527h152l92 527h179l-93 -527h152z" />
    <glyph glyph-name="uni0429" unicode="&#x429;" horiz-adv-x="992" 
d="M973 700l-93 -527h80l-54 -307h-179l24 134h-740l123 700h179l-93 -527h152l92 527h179l-93 -527h152l92 527h179z" />
    <glyph glyph-name="uni042A" unicode="&#x42a;" horiz-adv-x="697" 
d="M387 0h-271l93 527h-160l30 173h339l-37 -210h92q99 0 161 -75q63 -73 45 -180q-20 -110 -97 -172.5t-195 -62.5zM351 320l-27 -149h93q31 0 54.5 20.5t29.5 53.5t-11 54t-47 21h-92z" />
    <glyph glyph-name="uni042B" unicode="&#x42b;" horiz-adv-x="869" 
d="M282 0h-271l123 700h179l-37 -210h93q100 0 161 -75q62 -74 44 -180q-20 -110 -97 -172.5t-195 -62.5zM769 0h-178l123 700h178zM246 320l-26 -149h92q32 0 55.5 20.5t28.5 53.5q6 33 -10.5 54t-47.5 21h-92z" />
    <glyph glyph-name="uni042C" unicode="&#x42c;" horiz-adv-x="592" 
d="M276 490h93q100 0 161 -75q62 -74 44 -180q-20 -110 -97 -172.5t-195 -62.5h-271l123 700h179zM396 245q6 33 -10.5 54t-47.5 21h-92l-26 -149h92q32 0 55.5 20.5t28.5 53.5z" />
    <glyph glyph-name="uni042D" unicode="&#x42d;" horiz-adv-x="720" 
d="M398 715q158 0 247 -108q89 -109 64 -267q-26 -155 -137 -254q-113 -101 -272 -101q-101 0 -177 44.5t-113 122.5l162 86q40 -81 144 -81q60 0 109 29.5t79 81.5h-251l30 164h251q-11 52 -50 81.5t-98 29.5q-106 0 -167 -85l-143 92q54 78 139 121.5t183 43.5z" />
    <glyph glyph-name="uni042E" unicode="&#x42e;" horiz-adv-x="1068" 
d="M748 715q105 1 183.5 -52.5t111 -140t13.5 -182.5q-25 -148 -142 -253q-116 -102 -281 -102q-130 0 -215 82t-91 207h-89l-48 -274h-179l123 700h179l-45 -254h89q48 122 153 195q107 74 238 74zM879 350q14 83 -30 136q-43 54 -125 54q-81 0 -144 -54q-62 -53 -77 -136
q-15 -84 27 -137q44 -53 124 -53t145 53q65 54 80 137z" />
    <glyph glyph-name="uni042F" unicode="&#x42f;" horiz-adv-x="627" 
d="M374 700h277l-123 -700h-179l40 226h-29l-176 -226h-210l204 252q-60 32 -85.5 92.5t-12.5 130.5q20 95 96 159q78 66 198 66zM255 456q-6 -34 13.5 -56.5t53.5 -22.5h94l28 158h-95q-35 0 -61 -22t-33 -57z" />
    <glyph glyph-name="uni0430" unicode="&#x430;" horiz-adv-x="615" 
d="M435 445l10 55h166l-88 -500h-166l7 39q-59 -53 -146 -53q-106 0 -159 81q-51 81 -33 190q16 106 90 181q73 76 181 76q96 0 138 -69zM401 247v3q8 49 -15 79t-71 30q-47 0 -81 -30q-35 -30 -42 -79t15 -79q23 -30 70 -30t81 29t43 77z" />
    <glyph glyph-name="uni0431" unicode="&#x431;" horiz-adv-x="570" 
d="M263 -15q-124 0 -190 79q-65 80 -44 202q22 126 73 200t163 123q11 6 43 19l38 17q3 2 28 13.5t30 15.5q33 21 41 30q29 35 31 39l125 -78q-25 -55 -73 -91q-46 -34 -135 -66q-69 -25 -103 -45q-32 -20 -50 -48q58 43 134 43q80 0 137 -65q57 -64 40 -164
q-16 -101 -95 -163q-76 -61 -193 -61zM276 129q41 0 72 25.5t37 63.5q7 39 -16 64.5t-64 25.5q-40 0 -72 -24t-38 -63q-7 -40 16 -66t65 -26z" />
    <glyph glyph-name="uni0432" unicode="&#x432;" horiz-adv-x="519" 
d="M501 348q-12 -69 -69 -97q62 -41 50 -115q-24 -136 -199 -136h-279l88 500h262q76 0 117 -44t30 -108zM307 376h-78l-11 -66h77q40 0 45 32q7 34 -33 34zM321 161q6 33 -33 33h-91l-12 -68h90q40 0 46 35z" />
    <glyph glyph-name="uni0433" unicode="&#x433;" horiz-adv-x="407" 
d="M92 500h359l-27 -159h-194l-60 -341h-166l60 341z" />
    <glyph glyph-name="uni0434" unicode="&#x434;" horiz-adv-x="600" 
d="M564 500l-60 -343h64l-51 -291h-160l24 134h-260l-24 -134h-160l52 291h59q50 64 68 170l31 173h417zM223 157h119l34 195h-94l-4 -25q-19 -106 -55 -170z" />
    <glyph glyph-name="uni0435" unicode="&#x435;" horiz-adv-x="568" 
d="M324 514q112 0 177 -77q64 -76 44 -186q-5 -34 -17 -62h-343q13 -61 96 -61q60 0 99 36l106 -97q-87 -81 -218 -81q-130 0 -196 79q-65 81 -46 195q18 110 102 182t196 72zM205 305h189q-4 69 -79 69q-74 0 -110 -69z" />
    <glyph glyph-name="uni0436" unicode="&#x436;" horiz-adv-x="779" 
d="M631 500h184l-199 -258l110 -242h-170l-91 214l-38 -214h-164l36 206l-159 -206h-179l203 261l-101 239h168l84 -205l36 205h164l-37 -210z" />
    <glyph glyph-name="uni0437" unicode="&#x437;" horiz-adv-x="456" 
d="M439 356q-13 -74 -75 -105q67 -41 53 -124q-12 -67 -71 -104.5t-156 -37.5q-163 0 -206 120l138 71q18 -53 81 -53q49 0 55 34q2 15 -7.5 23t-29.5 8h-60l22 126h50q41 0 45 30q2 15 -8.5 24t-29.5 9q-50 0 -82 -53l-119 76q85 114 225 114q86 0 135 -48q51 -48 40 -110z
" />
    <glyph glyph-name="uni0438" unicode="&#x438;" horiz-adv-x="580" 
d="M214 273l234 227h128l-88 -500h-162l40 227l-234 -227h-128l88 500h162z" />
    <glyph glyph-name="uni0439" unicode="&#x439;" horiz-adv-x="580" 
d="M505 554h-323l24 140h323zM214 273l234 227h128l-88 -500h-162l40 227l-234 -227h-128l88 500h162z" />
    <glyph glyph-name="uni043A" unicode="&#x43a;" horiz-adv-x="537" 
d="M385 500h188l-209 -250l129 -250h-181l-104 216l-38 -216h-166l88 500h166l-36 -204z" />
    <glyph glyph-name="uni043B" unicode="&#x43b;" horiz-adv-x="562" 
d="M126 500h432l-88 -500h-166l60 341h-100l-24 -134q-22 -124 -86.5 -172.5t-186.5 -34.5l26 154q69 -15 86 77z" />
    <glyph glyph-name="uni043C" unicode="&#x43c;" horiz-adv-x="648" 
d="M471 500h173l-88 -500h-160l42 241l-136 -166h-18l-77 166l-42 -241h-161l88 500h161l73 -183z" />
    <glyph glyph-name="uni043D" unicode="&#x43d;" horiz-adv-x="575" 
d="M375 328l30 172h166l-88 -500h-166l30 172h-147l-30 -172h-166l88 500h166l-30 -172h147z" />
    <glyph glyph-name="uni043E" unicode="&#x43e;" horiz-adv-x="583" 
d="M258 -14q-83 0 -142.5 42.5t-81.5 106.5t-7 131q19 103 100 176q81 72 202 72q120 0 183 -86t44 -192q-18 -103 -100 -176q-83 -74 -198 -74zM271 146q44 0 77 29t41 75t-14.5 75t-66.5 29q-43 0 -76 -29t-41 -75t14.5 -75t65.5 -29z" />
    <glyph glyph-name="uni043F" unicode="&#x43f;" horiz-adv-x="575" 
d="M92 500h479l-88 -500h-166l60 343h-147l-60 -343h-166z" />
    <glyph glyph-name="uni0440" unicode="&#x440;" horiz-adv-x="615" 
d="M393 514q103 0 158 -82q56 -82 38 -192q-18 -107 -90 -181q-70 -73 -176 -73q-98 0 -143 71l-45 -257h-166l123 700h166l-7 -41q56 55 142 55zM423 250q9 50 -14 79.5t-70 29.5q-46 0 -80 -28.5t-44 -76.5l-2 -7q-7 -48 17 -77t70 -29q48 0 81.5 29.5t41.5 79.5z" />
    <glyph glyph-name="uni0441" unicode="&#x441;" horiz-adv-x="532" 
d="M260 -14q-120 0 -186 79t-48 195q18 112 102 182q84 72 196 72q77 0 132 -34.5t83 -96.5l-151 -79q-22 48 -78 48q-45 0 -78 -28t-40 -73q-8 -45 15.5 -74t65.5 -29q58 0 93 50l132 -84q-38 -62 -100.5 -95t-137.5 -33z" />
    <glyph glyph-name="uni0442" unicode="&#x442;" horiz-adv-x="470" 
d="M52 500h454l-27 -159h-144l-60 -341h-166l60 341h-145z" />
    <glyph glyph-name="uni0443" unicode="&#x443;" horiz-adv-x="549" 
d="M272 211l130 289h191l-254 -485q-64 -123 -146.5 -173.5t-195.5 -41.5l28 156q53 0 80 13.5t51 50.5l-112 480h176z" />
    <glyph glyph-name="uni0444" unicode="&#x444;" horiz-adv-x="709" 
d="M514 700l-34 -195q114 -21 166 -94q53 -73 37 -170q-18 -103 -94 -168.5t-200 -81.5l-33 -191h-162l34 194q-112 21 -166 94q-52 74 -36 171q18 102 93.5 168t198.5 81l34 192h162zM519 250q14 78 -66 101l-36 -202q88 24 102 101zM189 250q-13 -76 66 -100l36 200
q-88 -22 -102 -100z" />
    <glyph glyph-name="uni0445" unicode="&#x445;" horiz-adv-x="549" 
d="M394 500h192l-220 -250l139 -250h-176l-71 127l-111 -127h-191l228 260l-133 240h176l65 -117z" />
    <glyph glyph-name="uni0446" unicode="&#x446;" horiz-adv-x="612" 
d="M556 500l-60 -343h85l-52 -291h-160l24 134h-389l88 500h166l-60 -343h131l61 343h166z" />
    <glyph glyph-name="uni0447" unicode="&#x447;" horiz-adv-x="543" 
d="M335 292l37 208h167l-88 -500h-167l24 138q-55 -11 -94 -11q-99 0 -145 54q-47 54 -32 135l32 184h167l-28 -158q-10 -61 61 -61q27 0 66 11z" />
    <glyph glyph-name="uni0448" unicode="&#x448;" horiz-adv-x="835" 
d="M605 157l60 343h166l-88 -500h-739l88 500h166l-60 -343h122l60 343h164l-60 -343h121z" />
    <glyph glyph-name="uni0449" unicode="&#x449;" horiz-adv-x="862" 
d="M816 500l-60 -343h74l-52 -291h-159l24 134h-639l88 500h166l-60 -343h114l60 343h164l-60 -343h114l60 343h166z" />
    <glyph glyph-name="uni044A" unicode="&#x44a;" horiz-adv-x="583" 
d="M309 359h82q83 0 129 -54t33 -135q-32 -170 -226 -170h-248l60 341h-122l27 159h290zM393 180q3 18 -7 29t-30 11h-71l-15 -81h72q43 0 51 41z" />
    <glyph glyph-name="uni044B" unicode="&#x44b;" horiz-adv-x="747" 
d="M233 359h82q84 0 130 -54q47 -54 33 -135q-32 -170 -226 -170h-248l88 500h166zM489 0l88 500h166l-88 -500h-166zM318 180q3 18 -7 29t-30 11h-72l-15 -81h72q20 0 34.5 11t17.5 30z" />
    <glyph glyph-name="uni044C" unicode="&#x44c;" horiz-adv-x="507" 
d="M233 359h82q84 0 130 -54q47 -54 33 -135q-32 -170 -226 -170h-248l88 500h166zM318 180q3 18 -7 29t-30 11h-72l-15 -81h72q20 0 34.5 11t17.5 30z" />
    <glyph glyph-name="uni044D" unicode="&#x44d;" horiz-adv-x="532" 
d="M278 514q118 0 183 -81q65 -80 45 -193q-21 -113 -101 -184q-79 -70 -200 -70q-72 0 -130 36t-83 94l142 75q21 -55 91 -55q60 0 100 46h-135l24 136h135q-22 46 -84 46q-69 0 -106 -57l-125 79q40 59 105 93.5t139 34.5z" />
    <glyph glyph-name="uni044E" unicode="&#x44e;" horiz-adv-x="807" 
d="M555 514q81 0 138.5 -41.5t79 -104t8.5 -130.5q-16 -103 -99 -178q-83 -74 -198 -74q-96 0 -155.5 51t-71.5 135h-57l-30 -172h-166l88 500h166l-30 -172h50q35 84 108 135t169 51zM616 250q8 46 -15 75t-67 29q-43 0 -76.5 -29t-41.5 -75q-7 -46 15.5 -75t66.5 -29
q43 0 77 29.5t41 74.5z" />
    <glyph glyph-name="uni044F" unicode="&#x44f;" horiz-adv-x="532" 
d="M275 500h253l-88 -500h-164l25 142h-21l-120 -142h-191l150 172q-38 26 -55.5 68t-10.5 88q11 73 69 122q59 50 153 50zM214 316q-2 -18 8 -30t31 -12h71l15 86h-71q-21 0 -36 -12.5t-18 -31.5z" />
    <glyph glyph-name="uni0451" unicode="&#x451;" horiz-adv-x="568" 
d="M276 702q32 0 51.5 -23.5t13.5 -56.5q-2 -25 -20 -45t-41 -29t-47 -5t-37 22q-18 17 -16 41t13.5 46t34.5 36.5t48 13.5zM442 542q-32 0 -51.5 23.5t-13.5 56.5q2 24 20 44.5t41 29.5t47 5t37 -23q19 -25 14 -56t-33 -56.5t-61 -23.5zM324 514q112 0 177 -77
q64 -76 44 -186q-5 -34 -17 -62h-343q13 -61 96 -61q60 0 99 36l106 -97q-87 -81 -218 -81q-130 0 -196 79q-65 81 -46 195q18 110 102 182t196 72zM205 305h189q-4 69 -79 69q-74 0 -110 -69z" />
    <glyph glyph-name="uni0452" unicode="&#x452;" horiz-adv-x="587" 
d="M402 502q83 0 126 -57.5t25 -157.5l-50 -287q-22 -123 -87 -173t-190 -42l27 154q73 -4 84 61l46 266q7 39 -9.5 59.5t-52.5 20.5q-73 0 -94 -78l-47 -268h-166l95 539h-58l19 106h57l10 55h166l-10 -55h136l-19 -106h-135l-18 -101q58 64 145 64z" />
    <glyph glyph-name="uni0453" unicode="&#x453;" horiz-adv-x="407" 
d="M272 700h198l-136 -145h-163zM64 341l28 159h359l-27 -159h-194l-60 -341h-166z" />
    <glyph glyph-name="uni0454" unicode="&#x454;" horiz-adv-x="532" 
d="M264 136q71 0 110 57l124 -79q-40 -59 -105 -93.5t-139 -34.5q-116 0 -182 80q-66 81 -46 194q19 111 103 183q83 71 198 71q72 0 130 -36t83 -94l-142 -75q-21 55 -89 55q-60 0 -100 -46h133l-24 -136h-135q22 -46 81 -46z" />
    <glyph glyph-name="uni0455" unicode="&#x455;" horiz-adv-x="473" 
d="M210 -14q-166 0 -220 123l146 71q22 -57 83 -57q43 0 48 24q3 14 -18.5 24.5t-63.5 21.5q-156 39 -133 170q14 76 76 113q64 38 139 38q70 0 122 -29t76 -82l-141 -68q-18 44 -62 46q-38 2 -44 -27q-3 -17 11 -25.5t50.5 -17.5t54.5 -16q120 -35 99 -160
q-13 -76 -76 -113q-61 -36 -147 -36z" />
    <glyph glyph-name="uni0456" unicode="&#x456;" horiz-adv-x="262" 
d="M184 541q-39 0 -63 28.5t-17 67.5q6 39 38 67t73 28q40 0 63.5 -28t16.5 -67q-6 -40 -38 -68t-73 -28zM170 0h-166l88 500h166z" />
    <glyph glyph-name="uni0457" unicode="&#x457;" horiz-adv-x="262" 
d="M111 695q32 0 51.5 -23.5t13.5 -56.5q-2 -25 -20 -45t-41 -29t-47 -5t-37 22q-18 17 -16 41t13.5 46t34.5 36.5t48 13.5zM277 535q-32 0 -51.5 23.5t-13.5 56.5q2 24 20 44.5t41 29.5t47 5t37 -23q19 -25 14 -56t-33 -56.5t-61 -23.5zM170 0h-166l88 500h166z" />
    <glyph glyph-name="uni0458" unicode="&#x458;" horiz-adv-x="277" 
d="M230 732q40 0 63.5 -28t16.5 -67q-6 -40 -38 -68t-73 -28q-39 0 -63 28.5t-17 67.5q6 39 38 67t73 28zM19 0l88 500h166l-88 -500q-21 -122 -86.5 -172t-190.5 -43l27 154q73 -4 84 61z" />
    <glyph glyph-name="uni0459" unicode="&#x459;" horiz-adv-x="782" 
d="M524 349h74q75 0 122 -53t32 -131q-15 -80 -71 -122.5t-144 -42.5h-241l60 341h-92l-24 -134q-22 -124 -86.5 -172.5t-186.5 -34.5l26 154q69 -15 86 77l47 269h425zM592 175q3 15 -5 25t-23 10h-64l-13 -71h64q15 0 26.5 9.5t14.5 26.5z" />
    <glyph glyph-name="uni045A" unicode="&#x45a;" horiz-adv-x="793" 
d="M534 349h75q75 0 122 -53t32 -131q-15 -80 -71 -122.5t-144 -42.5h-241l35 197h-137l-35 -197h-166l88 500h166l-27 -151h137l27 151h166zM603 175q3 16 -5.5 25.5t-23.5 9.5h-64l-13 -71h65q15 0 26.5 9.5t14.5 26.5z" />
    <glyph glyph-name="uni045B" unicode="&#x45b;" horiz-adv-x="587" 
d="M402 502q83 0 126 -57.5t25 -157.5l-50 -287h-166l46 266q7 39 -9.5 59.5t-52.5 20.5q-73 0 -94 -78l-47 -268h-166l95 539h-58l19 106h57l10 55h166l-10 -55h136l-19 -106h-135l-18 -101q58 64 145 64z" />
    <glyph glyph-name="uni045C" unicode="&#x45c;" horiz-adv-x="537" 
d="M332 700h198l-136 -145h-163zM385 500h188l-209 -250l129 -250h-181l-104 216l-38 -216h-166l88 500h166l-36 -204z" />
    <glyph glyph-name="uni045E" unicode="&#x45e;" horiz-adv-x="549" 
d="M179 694h323l-24 -140h-323zM272 211l130 289h191l-254 -485q-64 -123 -146.5 -173.5t-195.5 -41.5l28 156q53 0 80 13.5t51 50.5l-112 480h176z" />
    <glyph glyph-name="uni045F" unicode="&#x45f;" horiz-adv-x="575" 
d="M345 157l60 343h166l-88 -500h-159l-24 -134h-160l24 134h-160l88 500h166l-60 -343h147z" />
    <glyph glyph-name="uni0490" unicode="&#x490;" horiz-adv-x="475" 
d="M370 700l22 120h178l-52 -293h-235l-93 -527h-179l123 700h236z" />
    <glyph glyph-name="uni0491" unicode="&#x491;" horiz-adv-x="407" 
d="M292 500l18 102h159l-45 -261h-194l-60 -341h-166l60 341l28 159h200z" />
    <glyph glyph-name="Wgrave" unicode="&#x1e80;" horiz-adv-x="1004" 
d="M680 755h-154l-95 145h188zM157 0h189l181 395l43 -395h189l318 700h-196l-188 -441l-48 441h-143l-202 -441l-35 441h-181z" />
    <glyph glyph-name="wgrave" unicode="&#x1e81;" horiz-adv-x="790" 
d="M480 700l61 -145h-154l-95 145h188zM535 233l112 267h181l-241 -500h-162l-27 251l-109 -251h-170l-65 500h166l23 -272l118 272h145z" />
    <glyph glyph-name="Wacute" unicode="&#x1e82;" horiz-adv-x="1004" 
d="M500 755l101 145h198l-136 -145h-163zM157 0h189l181 395l43 -395h189l318 700h-196l-188 -441l-48 441h-143l-202 -441l-35 441h-181z" />
    <glyph glyph-name="wacute" unicode="&#x1e83;" horiz-adv-x="790" 
d="M462 700h198l-136 -145h-163zM535 233l112 267h181l-241 -500h-162l-27 251l-109 -251h-170l-65 500h166l23 -272l118 272h145z" />
    <glyph glyph-name="Wdieresis" unicode="&#x1e84;" horiz-adv-x="1004" 
d="M517 895q32 0 51.5 -23.5t13.5 -56.5q-2 -25 -20 -45t-41 -29t-47 -5t-37 22q-18 17 -16 41t13.5 46t34.5 36.5t48 13.5zM683 735q-32 0 -51.5 23.5t-13.5 56.5q2 24 20 44.5t41 29.5t47 5t37 -23q19 -25 14 -56t-33 -56.5t-61 -23.5zM346 0h-189l-73 700h181l35 -441
l202 441h143l48 -441l188 441h196l-318 -700h-189l-43 395z" />
    <glyph glyph-name="wdieresis" unicode="&#x1e85;" horiz-adv-x="790" 
d="M378 695q32 0 51.5 -23.5t13.5 -56.5q-2 -25 -20 -45t-41 -29t-47 -5t-37 22q-18 17 -16 41t13.5 46t34.5 36.5t48 13.5zM544 535q-32 0 -51.5 23.5t-13.5 56.5q2 24 20 44.5t41 29.5t47 5t37 -23q19 -25 14 -56t-33 -56.5t-61 -23.5zM535 233l112 267h181l-241 -500
h-162l-27 251l-109 -251h-170l-65 500h166l23 -272l118 272h145z" />
    <glyph glyph-name="Ygrave" unicode="&#x1ef2;" horiz-adv-x="631" 
d="M433 900l61 -145h-154l-95 145h188zM498 700h212l-295 -395l-54 -305h-179l54 305l-157 395h190l75 -225z" />
    <glyph glyph-name="ygrave" unicode="&#x1ef3;" horiz-adv-x="549" 
d="M346 700l61 -145h-154l-95 145h188zM272 211l130 289h191l-254 -485q-64 -123 -146.5 -173.5t-195.5 -41.5l28 156q53 0 80 13.5t51 50.5l-112 480h176z" />
    <glyph glyph-name="endash" unicode="&#x2013;" horiz-adv-x="612" 
d="M552 222h-502l28 158h502z" />
    <glyph glyph-name="emdash" unicode="&#x2014;" horiz-adv-x="712" 
d="M652 222h-602l28 158h602z" />
    <glyph glyph-name="quoteleft" unicode="&#x2018;" horiz-adv-x="302" 
d="M248 386h-184l140 314h134z" />
    <glyph glyph-name="quoteright" unicode="&#x2019;" horiz-adv-x="302" 
d="M157 700h184l-140 -314h-134z" />
    <glyph glyph-name="quotesinglbase" unicode="&#x201a;" horiz-adv-x="302" 
d="M64 174h184l-140 -314h-134z" />
    <glyph glyph-name="quotedblleft" unicode="&#x201c;" horiz-adv-x="525" 
d="M248 386h-184l140 314h134zM471 386h-184l140 314h134z" />
    <glyph glyph-name="quotedblright" unicode="&#x201d;" horiz-adv-x="525" 
d="M157 700h184l-140 -314h-134zM380 700h184l-140 -314h-134z" />
    <glyph glyph-name="quotedblbase" unicode="&#x201e;" horiz-adv-x="525" 
d="M64 174h184l-140 -314h-134zM287 174h184l-140 -314h-134z" />
    <glyph glyph-name="dagger" unicode="&#x2020;" horiz-adv-x="471" 
d="M377 582h117l-28 -158h-116l-75 -424h-167l75 424h-117l28 158h116l21 118h167z" />
    <glyph glyph-name="daggerdbl" unicode="&#x2021;" horiz-adv-x="471" 
d="M494 582l-28 -158h-116l-27 -148h117l-28 -158h-116l-21 -118h-167l21 118h-117l28 158h116l27 148h-117l28 158h116l21 118h167l-21 -118h117z" />
    <glyph glyph-name="bullet" unicode="&#x2022;" horiz-adv-x="399" 
d="M189 186q-66 0 -107 50q-40 50 -28 120q12 67 67 112q55 46 125 46q67 0 106 -50q40 -49 28 -116q-12 -70 -66 -116q-53 -46 -125 -46z" />
    <glyph glyph-name="ellipsis" unicode="&#x2026;" horiz-adv-x="788" 
d="M98 -14q-43 0 -68 31t-17 75q8 43 42.5 72.5t79.5 29.5q43 0 68 -31.5t17 -74.5q-8 -45 -41.5 -73.5t-80.5 -28.5zM347 -14q-43 0 -68 31t-17 75q8 43 42.5 72.5t79.5 29.5q43 0 68 -31.5t17 -74.5q-8 -45 -41.5 -73.5t-80.5 -28.5zM597 -14q-43 0 -68 31t-17 75
q8 43 42.5 72.5t79.5 29.5q43 0 68 -31.5t17 -74.5q-8 -45 -41.5 -73.5t-80.5 -28.5z" />
    <glyph glyph-name="perthousand" unicode="&#x2030;" horiz-adv-x="1220" 
d="M242 356q-80 0 -123 54q-43 55 -33 127q12 75 69 126q58 52 142 52q81 0 124 -58q43 -57 30 -132q-15 -71 -72 -121q-55 -48 -137 -48zM178 69l-63 42l546 500l63 -41zM259 483q35 0 53.5 33t-0.5 57q-18 25 -54 11t-39 -48q-5 -23 6.5 -38t33.5 -15zM564 -14
q-81 0 -124 55q-44 56 -32 129t69 124q59 51 141 51q80 0 123 -57q45 -57 31 -131q-14 -72 -71 -122q-55 -49 -137 -49zM960 -14q-81 0 -124 55q-44 56 -32 129q14 75 70 124q57 51 140 51q80 0 124 -57q45 -57 30 -131q-14 -72 -71 -122q-55 -49 -137 -49zM580 113
q23 0 40 15t21 37q4 24 -7.5 38.5t-34.5 14.5q-22 0 -38.5 -15t-20.5 -38q-5 -22 6.5 -37t33.5 -15zM1037 165q4 23 -7.5 38t-33.5 15t-38.5 -15t-21.5 -38q-4 -22 7.5 -37t33.5 -15q21 0 38.5 15.5t21.5 36.5z" />
    <glyph glyph-name="guilsinglleft" unicode="&#x2039;" horiz-adv-x="364" 
d="M209 504h145l-147 -200l76 -190h-139l-79 195z" />
    <glyph glyph-name="guilsinglright" unicode="&#x203a;" horiz-adv-x="365" 
d="M102 504h139l79 -195l-144 -195h-145l147 200z" />
    <glyph glyph-name="fraction" unicode="&#x2044;" horiz-adv-x="180" 
d="M428 700l-522 -700h-119l522 700h119z" />
    <glyph glyph-name="Euro" unicode="&#x20ac;" horiz-adv-x="632" 
d="M351 159q61 0 109 72l138 -87q-90 -159 -270 -159q-110 0 -175 71.5t-70 193.5h-70l15 84h60q1 13 4 28l1 7h-59l15 84h66q40 124 125 193t201 69q80 0 137.5 -39.5t84.5 -112.5l-157 -83q-27 61 -88 61q-78 0 -118 -88h166l-15 -84h-178q-3 -8 -4 -19l-3 -16h179
l-15 -84h-167q9 -91 88 -91z" />
    <glyph glyph-name="uni20BD" unicode="&#x20bd;" horiz-adv-x="610" 
d="M155 700h272q99 0 161 -72q63 -71 45 -173q-19 -109 -94.5 -166.5t-194.5 -57.5h-93l-7 -40h205l-17 -99h-206l-16 -92h-179l16 92h-65l17 99h66l7 40h-65l28 159h65zM455 460q6 32 -10.5 51t-47.5 19h-94l-24 -140h93q31 0 54.5 19t28.5 51z" />
    <glyph glyph-name="uni2116" unicode="&#x2116;" horiz-adv-x="1055" 
d="M876 366q-75 0 -119 53q-43 54 -30 126q12 74 69 122t135 48q75 0 119 -54q44 -53 31 -126t-70 -121q-55 -48 -135 -48zM190 0h-179l123 700h139l182 -366l65 366h178l-123 -700h-138l-182 366zM948 540q10 34 -22 43q-30 9 -52 -12q-13 -13 -15 -31q-3 -20 7 -32.5
t30 -12.5t34.5 12.5t17.5 32.5zM1003 166h-328l28 159h328z" />
    <glyph glyph-name="trademark" unicode="&#x2122;" horiz-adv-x="481" 
d="M285 700l-13 -69h-50l-23 -131h-73l23 131h-52l12 69h176zM452 700h78l-35 -200h-70l16 94l-51 -61h-7l-29 60l-16 -93h-70l35 200h70l27 -67z" />
    <glyph glyph-name="estimated" unicode="&#x212e;" horiz-adv-x="780" 
d="M471 710q161 0 247 -105q87 -103 60 -255q-3 -15 -18 -15h-560q-15 0 -18 -15l-33 -192q-3 -11 3 -19q69 -89 218 -89q144 0 250 97q9 9 19 9h35q10 0 12 -6t-6 -13q-130 -117 -316 -117q-173 0 -263 108q-89 108 -62 262q27 152 146 251q120 99 286 99zM633 380l35 194
q1 10 -4 19q-68 87 -198 87q-128 0 -229 -89q-9 -9 -10 -19l-34 -192q-3 -15 12 -15h410q15 0 18 15z" />
    <glyph glyph-name="oneeighth" unicode="&#x215b;" horiz-adv-x="804" 
d="M63 0l522 700h119l-522 -700h-119zM117 300l46 256l-81 -20l-11 118l135 46h114l-71 -400h-132zM783 288q-9 -54 -58 -82q48 -37 39 -100q-9 -57 -55 -88.5t-122 -31.5q-72 0 -111 35.5t-29 92.5q11 66 76 98q-39 32 -30 85q10 55 54 86t109 31q61 0 99 -35
q39 -35 28 -91zM602 280q-2 -13 5.5 -20t23.5 -7q33 0 38 27q6 28 -28 28q-33 0 -39 -28zM647 127q5 33 -32 33q-39 0 -44 -33q-7 -34 32 -34q37 0 44 34z" />
    <glyph glyph-name="threeeighths" unicode="&#x215c;" horiz-adv-x="863" 
d="M356 417q-23 -131 -178 -131q-122 0 -152 94l111 59q13 -40 54 -40q33 0 36 26q2 13 -4.5 19t-22.5 6h-29l-33 68l66 66h-123l21 116h286l-16 -87l-78 -79q35 -15 52 -46t10 -71zM122 0l522 700h119l-522 -700h-119zM842 288q-9 -54 -58 -82q48 -37 39 -100
q-9 -57 -55 -88.5t-122 -31.5q-72 0 -111 35.5t-29 92.5q11 66 76 98q-39 32 -30 85q10 55 54 86t109 31q61 0 99 -35q39 -35 28 -91zM661 280q-2 -13 5.5 -20t23.5 -7q34 0 38 27q6 28 -28 28q-33 0 -39 -28zM706 127q4 33 -32 33q-40 0 -44 -33q-7 -34 32 -34q37 0 44 34z
" />
    <glyph glyph-name="fiveeighths" unicode="&#x215d;" horiz-adv-x="860" 
d="M344 412q-11 -62 -55.5 -94t-111.5 -32q-115 0 -149 93l113 54q12 -38 48 -38q33 0 36 26q4 28 -25 28h-136l60 251h252l-20 -116h-142l-8 -33h18q62 0 97 -37t23 -102zM119 0l522 700h119l-522 -700h-119zM839 288q-9 -54 -58 -82q48 -37 39 -100q-9 -57 -55 -88.5
t-122 -31.5q-72 0 -111 35.5t-29 92.5q11 66 76 98q-39 32 -30 85q10 55 54 86t109 31q61 0 99 -35q39 -35 28 -91zM658 280q-2 -13 5.5 -20t23.5 -7q33 0 38 27q6 28 -28 28q-33 0 -39 -28zM703 127q5 33 -32 33q-39 0 -44 -33q-7 -34 32 -34q37 0 44 34z" />
    <glyph glyph-name="seveneighths" unicode="&#x215e;" horiz-adv-x="830" 
d="M351 601l-163 -301h-138l154 284h-145l20 116h289zM89 0l522 700h119l-522 -700h-119zM809 288q-9 -54 -58 -82q48 -37 39 -100q-9 -57 -55 -88.5t-122 -31.5q-72 0 -111 35.5t-29 92.5q11 66 76 98q-39 32 -30 85q10 55 54 86t109 31q61 0 99 -35q39 -35 28 -91z
M628 280q-2 -13 5.5 -20t23.5 -7q33 0 38 27q6 28 -28 28q-33 0 -39 -28zM673 127q5 33 -32 33q-39 0 -44 -33q-7 -34 32 -34q37 0 44 34z" />
    <glyph glyph-name="arrowleft" unicode="&#x2190;" horiz-adv-x="785" 
d="M375 429h406l-27 -158h-427l182 -221h-209l-247 300l353 300h229z" />
    <glyph glyph-name="arrowup" unicode="&#x2191;" horiz-adv-x="671" 
d="M414 700l247 -300l-36 -207l-178 216l-72 -409h-167l69 390l-255 -216l40 226z" />
    <glyph glyph-name="arrowright" unicode="&#x2192;" horiz-adv-x="785" 
d="M312 650h209l247 -300l-353 -300h-229l260 221h-407l28 158h427z" />
    <glyph glyph-name="arrowdown" unicode="&#x2193;" horiz-adv-x="671" 
d="M498 700l-68 -390l254 217l-40 -227l-353 -300l-247 300l37 207l178 -216l72 409h167z" />
    <glyph glyph-name="arrowboth" unicode="&#x2194;" horiz-adv-x="1137" 
d="M885 635l235 -285l-335 -285h-225l240 206h-475l169 -206h-206l-235 285l335 285h226l-242 -206h475l-169 206h207z" />
    <glyph glyph-name="arrowupdn" unicode="&#x2195;" horiz-adv-x="640" 
d="M665 594l-36 -206l-166 202l-81 -462l237 201l-40 -223l-334 -285l-234 285l36 206l166 -202l81 462l-237 -201l40 223l334 285z" />
    <glyph glyph-name="uni2196" unicode="&#x2196;" horiz-adv-x="652" 
d="M526 627l127 -153h-319l264 -320l-126 -106l-263 319l-56 -317l-126 153l75 424h424z" />
    <glyph glyph-name="uni2197" unicode="&#x2197;" horiz-adv-x="652" 
d="M79 474l180 153h424l-74 -424l-181 -153l52 296l-357 -302l-105 125l359 305h-298z" />
    <glyph glyph-name="uni2198" unicode="&#x2198;" horiz-adv-x="652" 
d="M477 326l55 316l127 -153l-75 -424h-424l-126 153h318l-264 320l126 106z" />
    <glyph glyph-name="uni2199" unicode="&#x2199;" horiz-adv-x="652" 
d="M563 647l104 -124l-359 -305h299l-180 -153h-424l75 424l179 153l-52 -299z" />
    <glyph glyph-name="partialdiff" unicode="&#x2202;" horiz-adv-x="584" 
d="M322 715q119 0 193 -107q73 -106 45 -268q-30 -175 -119 -265t-223 -90q-105 0 -157 67t-37 160q17 97 86 159q70 64 172 64q66 0 116 -27q3 148 -125 151q-56 1 -121 -31l27 151q63 36 143 36zM245 139q84 0 128 128q-34 24 -85 24q-37 0 -64.5 -23t-34.5 -61
q-5 -30 11.5 -49t44.5 -19z" />
    <glyph glyph-name="emptyset" unicode="&#x2205;" horiz-adv-x="804" 
d="M699 720h133l-114 -122q88 -108 62 -258q-27 -151 -147 -251q-119 -101 -269 -101q-95 0 -171 49l-53 -57h-133l114 122q-89 110 -62 258q26 150 146 251q122 101 271 101q94 0 170 -49zM172 350q-16 -91 29 -162l364 389q-44 23 -101 23q-103 0 -188 -73
q-84 -72 -104 -177zM667 350q16 91 -29 162l-364 -389q44 -23 101 -23q104 0 189 73t103 177z" />
    <glyph glyph-name="product" unicode="&#x220f;" horiz-adv-x="631" 
d="M143 -200h-167l158 900h520l-158 -900h-166l130 741h-187z" />
    <glyph glyph-name="summation" unicode="&#x2211;" horiz-adv-x="561" 
d="M446 -200h-500l27 152l253 321l-128 301l21 126h470l-28 -163h-267l118 -277l-233 -297h296z" />
    <glyph glyph-name="minus" unicode="&#x2212;" horiz-adv-x="560" 
d="M523 271h-479l29 158h478z" />
    <glyph glyph-name="radical" unicode="&#x221a;" horiz-adv-x="693" 
d="M369 0h-160l-81 179h-110l28 158h194l59 -146l311 609h180z" />
    <glyph glyph-name="infinity" unicode="&#x221e;" horiz-adv-x="819" 
d="M629 542q85 0 133 -57q48 -56 33 -142q-15 -84 -75.5 -134.5t-144.5 -50.5q-88 0 -163 86q-97 -86 -185 -86q-85 0 -134 57t-33 142q15 84 75.5 134.5t145.5 50.5q88 0 163 -86q97 86 185 86zM263 310q36 0 76 40q-28 40 -62 40q-18 0 -32 -11t-17 -29q-4 -18 6.5 -29
t28.5 -11zM627 350q3 18 -6.5 29t-27.5 11q-36 0 -76 -40q27 -40 62 -40q17 0 30.5 11t17.5 29z" />
    <glyph glyph-name="integral" unicode="&#x222b;" horiz-adv-x="461" 
d="M-80 -204l29 164q25 -16 60 -2q35 13 49 54l181 521q38 113 117 154t185 15l-30 -164q-25 16 -60 2q-36 -14 -49 -54l-180 -521q-28 -82 -76 -124q-46 -42 -105.5 -51.5t-120.5 6.5z" />
    <glyph glyph-name="approxequal" unicode="&#x2248;" horiz-adv-x="568" 
d="M312 371q-42 19 -75 24q-30 5 -48.5 0t-52.5 -22l-72 38q35 106 106 142.5t151 -4.5q57 -31 91.5 -27.5t52.5 45.5l113 -58q-39 -104 -113 -142q-74 -36 -153 4zM139 131l-115 58q41 105 114 142t154 -4q44 -19 75 -24q31 -4 51 1t49 22l73 -39q-36 -107 -106.5 -143
t-151.5 5q-57 31 -91 27.5t-52 -45.5z" />
    <glyph glyph-name="notequal" unicode="&#x2260;" horiz-adv-x="511" 
d="M526 539l-29 -159h-162l-37 -60h189l-28 -159h-259l-69 -111h-86l68 111h-93l28 159h164l37 60h-191l29 159h260l68 111h87l-69 -111h93z" />
    <glyph glyph-name="lessequal" unicode="&#x2264;" horiz-adv-x="521" 
d="M84 526l478 158l-32 -179l-292 -70l268 -69l-30 -166l-422 158zM445 21h-450l28 159h450z" />
    <glyph glyph-name="greaterequal" unicode="&#x2265;" horiz-adv-x="521" 
d="M82 517l30 167l422 -158l-30 -168l-478 -158l32 179l292 69zM445 21h-450l28 159h450z" />
    <glyph glyph-name="lozenge" unicode="&#x25ca;" horiz-adv-x="588" 
d="M323 0h-146l-124 350l247 350h146l125 -350zM234 337l46 -130l110 156l-46 130z" />
    <glyph glyph-name="NULL" horiz-adv-x="0" 
 />
    <glyph glyph-name="CR" horiz-adv-x="333" 
 />
    <glyph glyph-name="i.loclTRK" horiz-adv-x="262" 
d="M182 543q-37 0 -59 26.5t-15 62.5q7 37 37.5 63.5t67.5 26.5t59 -26.5t16 -63.5q-8 -36 -39 -62.5t-67 -26.5zM170 0h-166l88 500h166z" />
    <glyph glyph-name="f_f_j" horiz-adv-x="855" 
d="M571 500h280l-88 -500q-21 -122 -86.5 -172t-191.5 -43l28 154q72 -5 83 61l60 341h-113l-60 -341h-167l60 341h-116l-60 -341h-166l60 341h-62l27 159h63q41 230 290 215l-27 -154q-84 6 -97 -61h116l2 10q19 111 89.5 163t200.5 52q66 0 127 -15l-25 -145q-54 9 -109 9
q-106 0 -116 -64z" />
    <glyph glyph-name="f_j" horiz-adv-x="572" 
d="M288 500h280l-88 -500q-21 -122 -86.5 -172t-190.5 -43l27 154q73 -4 84 61l60 341h-114l-60 -341h-166l60 341h-62l27 159h63q19 111 89.5 163t200.5 52q66 0 127 -15l-25 -145q-54 9 -109 9q-105 0 -117 -64z" />
    <glyph glyph-name="uni0414.loclBGR" horiz-adv-x="740" 
d="M556 700l78 -527h82l-55 -307h-178l24 134h-362l-24 -134h-179l55 307h82l263 527h214zM419 500l-151 -327h186z" />
    <glyph glyph-name="uni041B.loclBGR" horiz-adv-x="640" 
d="M151 0h-200l341 700h214l95 -700h-188l-44 492z" />
    <glyph glyph-name="uni0424.loclBGR" horiz-adv-x="869" 
d="M616 800l-17 -96q141 -26 211 -124q72 -100 47 -240q-25 -145 -128 -237q-99 -90 -256 -110l-16 -93h-169l17 96q-139 25 -211 124q-72 100 -47 240q25 144 127 237q99 90 257 110l16 93h169zM679 350q27 155 -109 189l-67 -378q147 31 176 189zM225 350
q-27 -157 109 -188l67 376q-150 -33 -176 -188z" />
    <glyph glyph-name="uni0414.ss01" horiz-adv-x="712" 
d="M211 700h487l-93 -527h76l-31 -173h-683l30 173h73q61 74 88 222zM262 173h165l64 361h-130l-25 -141q-25 -141 -74 -220z" />
    <glyph glyph-name="uni0426.ss01" horiz-adv-x="702" 
d="M683 700l-93 -527h80l-30 -173h-629l123 700h184l-93 -527h182l93 527h183z" />
    <glyph glyph-name="uni0429.ss01" horiz-adv-x="992" 
d="M973 700l-93 -527h80l-30 -173h-919l123 700h179l-93 -527h152l92 527h179l-93 -527h152l92 527h179z" />
    <glyph glyph-name="uni0414.loclBGR.ss01" horiz-adv-x="740" 
d="M556 700l78 -527h82l-31 -173h-719l31 173h82l263 527h214zM419 500l-151 -327h186z" />
    <glyph glyph-name="uni0432.loclBGR" horiz-adv-x="562" 
d="M537 522q-14 -69 -80 -124q95 -60 73 -190q-19 -108 -90 -165t-187 -57q-108 0 -168 70q-59 71 -40 179l42 239q21 117 89.5 178.5t176.5 61.5q89 0 143 -55q54 -54 41 -137zM332 560q-29 0 -50 -23.5t-28 -62.5l-10 -55l21 4q24 5 46 6q54 39 60 79q5 23 -6 37.5
t-33 14.5zM364 218q8 42 -21.5 59t-89.5 5l-35 -7l-8 -47q-6 -38 11.5 -61t52.5 -23q37 0 61 19.5t29 54.5z" />
    <glyph glyph-name="uni0433.loclBGR" horiz-adv-x="472" 
d="M210 -14q-95 0 -154 49q-60 50 -45 136q9 48 39 81t69 45q23 6 71 15t70.5 18t25.5 24q3 24 -33 24q-42 0 -70 -43l-129 67q66 112 213 112q85 0 141 -52q57 -51 43 -131q-21 -121 -181 -141q-86 -14 -91 -37q-3 -15 8 -22.5t32 -7.5q56 0 86 55l131 -75
q-66 -117 -226 -117z" />
    <glyph glyph-name="uni0434.loclBGR" horiz-adv-x="619" 
d="M441 441l10 59h164l-85 -480q-21 -121 -102 -178q-80 -57 -193 -57q-85 0 -146.5 31.5t-87.5 90.5l147 77q28 -54 102 -54q47 0 77.5 23t38.5 67l7 38q-58 -52 -142 -52q-110 0 -164 78.5t-36 182.5q15 99 87 173q74 74 182 74q98 0 141 -73zM284 157q44 0 78 26t45 67
l3 20q4 41 -20.5 67t-68.5 26q-47 0 -81.5 -29t-42.5 -74t16 -74t71 -29z" />
    <glyph glyph-name="uni0436.loclBGR" horiz-adv-x="779" 
d="M140 0h-179l203 261l-101 239h168l84 -203l71 403h165l-73 -408l153 208h184l-199 -258l110 -242h-170l-91 212l-38 -212h-164l36 205z" />
    <glyph glyph-name="uni0438.loclBGR" 
d="M361 233l47 267h166l-88 -500h-166l9 51q-57 -65 -146 -65q-83 0 -125.5 57.5t-25.5 157.5l53 299h166l-49 -278q-6 -39 10.5 -59t51.5 -20q80 0 97 91v-1z" />
    <glyph glyph-name="uni0439.loclBGR" 
d="M197 694h323l-24 -140h-323zM361 233l47 267h166l-88 -500h-166l9 51q-57 -65 -146 -65q-83 0 -125.5 57.5t-25.5 157.5l53 299h166l-49 -278q-6 -39 10.5 -59t51.5 -20q80 0 97 91v-1z" />
    <glyph glyph-name="uni043A.loclBGR" horiz-adv-x="537" 
d="M382 500h191l-210 -251l130 -249h-178l-106 220l-39 -220h-166l123 700h166l-70 -398z" />
    <glyph glyph-name="uni043B.loclBGR" horiz-adv-x="533" 
d="M395 500l94 -500h-169l-41 283l-140 -283h-183l270 500h169z" />
    <glyph glyph-name="uni043F.loclBGR" 
d="M395 514q83 0 125.5 -57.5t25.5 -157.5l-53 -299h-166l49 278q6 39 -10.5 59t-51.5 20q-80 0 -97 -91v1l-47 -267h-166l88 500h166l-9 -51q57 65 146 65z" />
    <glyph glyph-name="uni0442.loclBGR" horiz-adv-x="850" 
d="M662 514q86 0 130 -56.5t27 -151.5l-53 -306h-167l50 287q13 70 -49 70q-63 0 -81 -68l-51 -289h-166l50 287q10 70 -50 70q-65 0 -83 -77l-49 -280h-166l88 500h166l-8 -46q56 60 139 60q87 0 120 -67q64 67 153 67z" />
    <glyph glyph-name="uni0446.loclBGR" horiz-adv-x="620" 
d="M543 152h45l-51 -286h-158l26 149q-32 15 -47 44q-67 -73 -169 -73q-85 0 -130 57t-27 158l52 299h167l-49 -278q-13 -79 62 -79q72 0 93 76l50 281h167l-56 -318q-4 -30 25 -30z" />
    <glyph glyph-name="uni0448.loclBGR" horiz-adv-x="850" 
d="M631 220l49 280h166l-88 -500h-166l8 46q-56 -60 -139 -60q-87 0 -120 67q-64 -67 -153 -67q-86 0 -130 56.5t-27 151.5l53 306h167l-50 -287q-13 -70 49 -70q63 0 81 68l51 289h166l-50 -287q-10 -70 50 -70q65 0 83 77z" />
    <glyph glyph-name="uni0449.loclBGR" horiz-adv-x="892" 
d="M815 152h45l-51 -286h-157l26 149q-30 13 -46 41q-64 -70 -164 -70q-92 0 -126 66q-63 -66 -154 -66q-86 0 -130 56.5t-27 151.5l53 306h167l-50 -287q-13 -70 49 -70q63 0 81 68l51 289h166l-50 -287q-10 -70 50 -70q65 0 83 78l49 279h166l-56 -318q-4 -30 25 -30z" />
    <glyph glyph-name="uni044C.loclBGR" horiz-adv-x="495" 
d="M224 373h68q92 0 140 -57q49 -56 34 -145q-15 -87 -79 -136.5t-163 -49.5q-104 0 -157 59t-36 152l53 304h162zM306 184q5 22 -6.5 35.5t-37.5 13.5h-63l-7 -40q-5 -26 8 -41t40 -15q26 0 44.5 13.5t21.5 33.5z" />
    <glyph glyph-name="uni044A.loclBGR" 
d="M307 373h68q95 0 142 -57q47 -56 32 -145q-15 -87 -79 -136.5t-163 -49.5q-104 0 -157 59t-36 152l26 150h-123l27 154h285zM389 184q5 22 -6.5 35.5t-37.5 13.5h-63l-7 -40q-5 -26 8 -41t40 -15q26 0 44.5 13.5t21.5 33.5z" />
    <glyph glyph-name="uni044E.loclBGR" horiz-adv-x="807" 
d="M555 514q81 0 138.5 -41.5t79 -104t8.5 -130.5q-16 -103 -99 -178q-83 -74 -198 -74q-96 0 -155.5 51t-71.5 135h-57l-30 -172h-166l123 700h166l-65 -372h50q35 84 108 135t169 51zM616 250q8 46 -15 75t-67 29q-43 0 -76.5 -29t-41.5 -75q-7 -46 15.5 -75t66.5 -29
q43 0 77 29.5t41 74.5z" />
    <glyph glyph-name="zero.sinf" horiz-adv-x="409" 
d="M136 -174q-82 0 -127 62q-43 62 -27 159q18 99 75.5 153t141.5 54q81 0 126 -62q46 -61 28 -159q-17 -99 -74.5 -153t-142.5 -54zM218 40q17 83 -36 83q-49 0 -66 -83q-14 -83 37 -83t65 83z" />
    <glyph glyph-name="one.sinf" horiz-adv-x="279" 
d="M-10 194l135 46h114l-71 -400h-132l46 256l-81 -20z" />
    <glyph glyph-name="two.sinf" horiz-adv-x="353" 
d="M259 -160h-306l15 89l168 141q37 32 38 46q4 22 -20 22q-28 0 -56 -45l-100 63q63 98 177 98q61 0 101 -38q40 -37 28 -101q-10 -56 -87 -118l-49 -40h111z" />
    <glyph glyph-name="three.sinf" horiz-adv-x="342" 
d="M21 240h286l-16 -87l-78 -79q35 -15 52 -46t10 -71q-23 -131 -178 -131q-122 0 -152 94l111 59q13 -40 54 -40q33 0 36 26q2 13 -4.5 19t-22.5 6h-29l-33 68l66 66h-123z" />
    <glyph glyph-name="four.sinf" horiz-adv-x="362" 
d="M272 11h35l-20 -115h-35l-10 -56h-122l10 56h-184l20 115l152 229h141l-147 -229h39l11 63h121z" />
    <glyph glyph-name="five.sinf" horiz-adv-x="331" 
d="M295 240l-20 -116h-142l-8 -33h18q62 0 97 -37t23 -102q-11 -62 -55.5 -94t-111.5 -32q-115 0 -149 93l113 54q12 -38 48 -38q33 0 36 26q4 28 -25 28h-136l60 251h252z" />
    <glyph glyph-name="six.sinf" horiz-adv-x="343" 
d="M282 240l-98 -128q52 -13 78.5 -53t17.5 -94q-11 -64 -59 -101.5t-120 -37.5q-70 0 -108 44q-38 43 -28 107q8 44 32 76l145 187h140zM160 -29q8 36 -31 36q-37 0 -44 -36q-4 -18 4.5 -27.5t26.5 -9.5q38 0 44 37z" />
    <glyph glyph-name="seven.sinf" horiz-adv-x="302" 
d="M-22 124l20 116h289l-17 -99l-163 -301h-138l154 284h-145z" />
    <glyph glyph-name="eight.sinf" horiz-adv-x="349" 
d="M299 128q-9 -54 -58 -82q48 -37 39 -100q-9 -57 -55 -88.5t-122 -31.5q-72 0 -111 35.5t-29 92.5q11 66 76 98q-39 32 -30 85q10 55 54 86t109 31q61 0 99 -35q39 -35 28 -91zM118 120q-2 -13 5.5 -20t23.5 -7q33 0 38 27q6 28 -28 28q-33 0 -39 -28zM163 -33
q5 33 -32 33q-39 0 -44 -33q-7 -34 32 -34q37 0 44 34z" />
    <glyph glyph-name="nine.sinf" horiz-adv-x="343" 
d="M168 254q70 0 108 -44q38 -43 28 -107q-8 -49 -38 -83l-139 -180h-140l98 128q-52 13 -78.5 53t-17.5 94q11 64 59 101.5t120 37.5zM109 109q-8 -36 31 -36q36 0 44 36q4 18 -4.5 27.5t-26.5 9.5q-38 0 -44 -37z" />
    <glyph glyph-name="zero.tf" horiz-adv-x="589" 
d="M256 -15q-134 0 -198 105q-63 104 -34 270q28 165 119 260q90 95 226 95q134 0 197 -105q63 -104 34 -270q-28 -165 -119 -260q-89 -95 -225 -95zM278 159q112 0 145 191t-77 191q-111 0 -144 -191q-35 -191 76 -191z" />
    <glyph glyph-name="one.tf" horiz-adv-x="589" 
d="M476 700l-93 -527h178l-31 -173h-549l30 173h194l58 331l-127 -31l-16 159l202 68h154z" />
    <glyph glyph-name="two.tf" horiz-adv-x="589" 
d="M510 0h-524l22 130l303 236q82 61 91 109q5 28 -10.5 47t-49.5 19q-73 0 -122 -88l-143 92q47 83 123.5 126.5t168.5 43.5q102 0 167 -69t47 -172q-11 -62 -45 -108t-104 -101l-118 -92h224z" />
    <glyph glyph-name="three.tf" horiz-adv-x="589" 
d="M123 700h485l-24 -141l-146 -143q67 -27 99.5 -81.5t19.5 -127.5q-20 -110 -99 -166t-200 -56q-103 0 -169 44.5t-87 131.5l164 85q24 -87 109 -87q90 0 104 68q5 34 -14.5 51t-65.5 17h-36l-52 104l133 130h-250z" />
    <glyph glyph-name="four.tf" horiz-adv-x="589" 
d="M508 270h70l-29 -163h-70l-19 -107h-178l19 107h-321l29 163l285 430h206l-286 -430h116l23 131h178z" />
    <glyph glyph-name="five.tf" horiz-adv-x="589" 
d="M606 700l-30 -171h-275l-19 -75h58q111 0 176 -65q64 -63 44 -179q-20 -112 -101 -168q-81 -57 -194 -57q-214 0 -262 170l166 84q23 -80 110 -80q91 0 104 63q5 31 -15.5 48.5t-65.5 17.5h-237l101 412h440z" />
    <glyph glyph-name="six.tf" horiz-adv-x="589" 
d="M562 700l-184 -214q108 -15 157 -88q51 -74 35 -170q-16 -104 -100 -174q-82 -69 -214 -69q-133 0 -197 78q-64 77 -44 186q17 87 73 146l266 305h208zM394 237q7 42 -16.5 65.5t-69.5 23.5q-47 0 -78 -23.5t-38 -65.5q-8 -41 15 -64.5t70 -23.5q46 0 77.5 23t39.5 65z
" />
    <glyph glyph-name="seven.tf" horiz-adv-x="589" 
d="M69 527l30 173h539l-25 -148l-339 -552h-201l322 527h-326z" />
    <glyph glyph-name="eight.tf" horiz-adv-x="589" 
d="M595 502q-16 -90 -102 -140q90 -65 71 -171q-17 -97 -97.5 -151t-212.5 -54q-130 0 -197 60q-67 59 -50 157q21 112 131 166q-68 53 -53 143q16 96 96 149t192 53q110 0 174 -58q64 -57 48 -154zM327 432q40 0 65.5 16t30.5 44q5 27 -15 43.5t-60 16.5q-41 0 -66.5 -16
t-30.5 -44t15 -44t61 -16zM391 222q5 35 -17 54t-71 19q-101 0 -114 -73q-6 -34 16 -53t72 -19q101 0 114 72z" />
    <glyph glyph-name="nine.tf" horiz-adv-x="589" 
d="M368 715q132 0 197 -78t45 -186q-17 -88 -76 -149l-264 -302h-208l184 214q-107 15 -158 88q-50 74 -34 170q18 105 100 174t214 69zM316 374q48 0 79 23.5t38 65.5t-16.5 65t-69.5 23q-48 0 -78.5 -23t-37.5 -65t16.5 -65.5t68.5 -23.5z" />
    <glyph glyph-name="zero.dnom" horiz-adv-x="409" 
d="M164 -14q-82 0 -127 61q-44 62 -27 160q18 99 75.5 153t141.5 54q81 0 126 -62q46 -61 28 -159q-17 -99 -74.5 -153t-142.5 -54zM246 200q17 83 -36 83q-49 0 -66 -83q-14 -83 37 -83t65 83z" />
    <glyph glyph-name="one.dnom" horiz-adv-x="276" 
d="M18 354l135 46h114l-71 -400h-132l46 256l-81 -20z" />
    <glyph glyph-name="two.dnom" horiz-adv-x="356" 
d="M287 0h-306l15 89l168 141q37 32 38 46q4 22 -20 22q-28 0 -56 -45l-100 63q63 98 177 98q61 0 101 -38q40 -37 28 -101q-10 -56 -87 -118l-49 -40h111z" />
    <glyph glyph-name="three.dnom" horiz-adv-x="335" 
d="M49 400h286l-16 -87l-78 -79q35 -15 52 -46t10 -71q-23 -131 -178 -131q-122 0 -152 94l111 59q13 -40 54 -40q33 0 36 26q2 13 -4.5 19t-22.5 6h-29l-33 68l66 66h-123z" />
    <glyph glyph-name="four.dnom" horiz-adv-x="361" 
d="M300 171h35l-20 -115h-35l-10 -56h-122l10 56h-184l20 115l152 229h141l-147 -229h39l11 63h121z" />
    <glyph glyph-name="five.dnom" horiz-adv-x="332" 
d="M323 400l-20 -116h-142l-8 -33h18q62 0 97 -37t23 -102q-11 -62 -55.5 -94t-111.5 -32q-115 0 -149 93l113 54q12 -38 48 -38q33 0 36 26q4 28 -25 28h-136l60 251h252z" />
    <glyph glyph-name="six.dnom" horiz-adv-x="342" 
d="M310 400l-98 -128q52 -13 78.5 -53t17.5 -94q-11 -64 -59 -101.5t-120 -37.5q-70 0 -109 43q-38 43 -27 108q8 44 32 76l145 187h140zM188 131q8 36 -31 36q-37 0 -44 -36q-4 -18 4.5 -27.5t26.5 -9.5q38 0 44 37z" />
    <glyph glyph-name="seven.dnom" horiz-adv-x="302" 
d="M6 284l20 116h289l-17 -99l-163 -301h-138l154 284h-145z" />
    <glyph glyph-name="eight.dnom" horiz-adv-x="348" 
d="M327 288q-9 -54 -58 -82q48 -37 39 -100q-9 -57 -55 -88.5t-122 -31.5q-72 0 -111 35.5t-29 92.5q11 66 76 98q-39 32 -30 85q10 55 54 86t109 31q61 0 99 -35q39 -35 28 -91zM146 280q-2 -13 5.5 -20t23.5 -7q33 0 38 27q6 28 -28 28q-33 0 -39 -28zM191 127
q5 33 -32 33q-39 0 -44 -33q-7 -34 32 -34q37 0 44 34z" />
    <glyph glyph-name="nine.dnom" horiz-adv-x="342" 
d="M196 414q70 0 108 -44q38 -43 28 -107q-8 -49 -38 -83l-139 -180h-140l98 128q-52 13 -78.5 53t-17.5 94q11 64 59 101.5t120 37.5zM137 269q-7 -36 31 -36q36 0 44 36q4 18 -4.5 27.5t-26.5 9.5q-38 0 -44 -37z" />
    <glyph glyph-name="zero.numr" horiz-adv-x="409" 
d="M217 286q-82 0 -127 61q-44 62 -27 160q18 99 75.5 153t141.5 54q81 0 126 -62q46 -61 28 -159q-17 -99 -74.5 -153t-142.5 -54zM299 500q17 83 -36 83q-49 0 -66 -83q-14 -83 37 -83t65 83z" />
    <glyph glyph-name="one.numr" horiz-adv-x="276" 
d="M71 654l135 46h114l-71 -400h-132l46 256l-81 -20z" />
    <glyph glyph-name="two.numr" horiz-adv-x="356" 
d="M340 300h-306l15 89l168 141q37 32 38 46q4 22 -20 22q-27 0 -56 -45l-100 63q63 98 177 98q61 0 101 -38q40 -37 28 -101q-10 -56 -87 -118l-49 -40h111z" />
    <glyph glyph-name="three.numr" horiz-adv-x="335" 
d="M102 700h286l-16 -87l-78 -79q35 -15 52 -46t10 -71q-23 -131 -178 -131q-122 0 -152 94l111 59q13 -40 54 -40q33 0 36 26q2 13 -4.5 19t-22.5 6h-29l-33 68l66 66h-123z" />
    <glyph glyph-name="four.numr" horiz-adv-x="361" 
d="M353 471h35l-20 -115h-35l-10 -56h-122l10 56h-184l20 115l152 229h141l-147 -229h39l11 63h121z" />
    <glyph glyph-name="five.numr" horiz-adv-x="332" 
d="M376 700l-20 -116h-142l-8 -33h18q62 0 97 -37t23 -102q-11 -62 -55.5 -94t-111.5 -32q-115 0 -149 93l113 54q12 -38 48 -38q33 0 36 26q4 28 -25 28h-136l60 251h252z" />
    <glyph glyph-name="six.numr" horiz-adv-x="342" 
d="M363 700l-98 -128q52 -13 78.5 -53t17.5 -94q-11 -64 -59 -101.5t-120 -37.5q-70 0 -109 43q-37 43 -27 108q8 44 32 76l145 187h140zM241 431q7 36 -31 36q-36 0 -44 -36q-4 -18 4.5 -27.5t26.5 -9.5q38 0 44 37z" />
    <glyph glyph-name="seven.numr" horiz-adv-x="302" 
d="M59 584l20 116h289l-17 -99l-163 -301h-138l154 284h-145z" />
    <glyph glyph-name="eight.numr" horiz-adv-x="349" 
d="M380 588q-9 -54 -58 -82q48 -37 39 -100q-9 -57 -55 -88.5t-122 -31.5q-72 0 -111 35.5t-29 92.5q11 66 76 98q-39 32 -30 85q10 55 54 86t109 31q61 0 99 -35q39 -35 28 -91zM199 580q-2 -13 5.5 -20t23.5 -7q34 0 38 27q6 28 -28 28q-33 0 -39 -28zM244 427
q4 33 -32 33q-40 0 -44 -33q-7 -34 32 -34q37 0 44 34z" />
    <glyph glyph-name="nine.numr" horiz-adv-x="342" 
d="M249 714q70 0 108 -44q38 -43 28 -107q-8 -49 -38 -83l-139 -180h-140l98 128q-52 13 -78.5 53t-17.5 94q11 64 59 101.5t120 37.5zM190 569q-8 -36 31 -36q37 0 44 36q4 18 -4.5 27.5t-26.5 9.5q-38 0 -44 -37z" />
    <glyph glyph-name="zero.sups" horiz-adv-x="409" 
d="M245 446q-82 0 -127 61q-44 62 -27 160q18 99 75.5 153t141.5 54q81 0 126 -62q46 -61 28 -159q-17 -99 -74.5 -153t-142.5 -54zM327 660q17 83 -36 83q-49 0 -66 -83q-14 -83 37 -83t65 83z" />
    <glyph glyph-name="one.sups" horiz-adv-x="276" 
d="M99 814l135 46h114l-71 -400h-132l46 256l-81 -20z" />
    <glyph glyph-name="two.sups" horiz-adv-x="356" 
d="M368 460h-306l15 89l168 141q37 32 38 46q4 22 -20 22q-27 0 -56 -45l-100 63q63 98 177 98q61 0 101 -38q40 -37 28 -101q-10 -56 -87 -118l-49 -40h111z" />
    <glyph glyph-name="three.sups" horiz-adv-x="336" 
d="M131 860h286l-16 -87l-78 -79q35 -15 52 -46t10 -71q-23 -131 -178 -131q-122 0 -152 94l111 59q13 -40 54 -40q33 0 36 26q2 13 -4.5 19t-22.5 6h-29l-33 68l66 66h-123z" />
    <glyph glyph-name="four.sups" horiz-adv-x="361" 
d="M381 631h35l-20 -115h-35l-10 -56h-122l10 56h-184l20 115l152 229h141l-147 -229h39l11 63h121z" />
    <glyph glyph-name="five.sups" horiz-adv-x="331" 
d="M404 860l-20 -116h-142l-8 -33h18q62 0 97 -37t23 -102q-11 -62 -55.5 -94t-111.5 -32q-115 0 -149 93l113 54q12 -38 48 -38q33 0 36 26q4 28 -25 28h-136l60 251h252z" />
    <glyph glyph-name="six.sups" horiz-adv-x="343" 
d="M391 860l-98 -128q52 -13 78.5 -53t17.5 -94q-11 -64 -59 -101.5t-120 -37.5q-70 0 -109 43q-37 43 -27 108q8 44 32 76l145 187h140zM269 591q7 36 -31 36q-36 0 -44 -36q-4 -18 4.5 -27.5t26.5 -9.5q38 0 44 37z" />
    <glyph glyph-name="seven.sups" horiz-adv-x="303" 
d="M88 744l20 116h289l-17 -99l-163 -301h-138l154 284h-145z" />
    <glyph glyph-name="eight.sups" horiz-adv-x="348" 
d="M408 748q-9 -54 -58 -82q48 -37 39 -100q-9 -57 -55 -88.5t-122 -31.5q-72 0 -111 35.5t-29 92.5q11 66 76 98q-39 32 -30 85q10 55 54 86t109 31q61 0 99 -35q39 -35 28 -91zM227 740q-2 -13 5.5 -20t23.5 -7q34 0 38 27q6 28 -28 28q-33 0 -39 -28zM272 587
q4 33 -32 33q-40 0 -44 -33q-7 -34 32 -34q37 0 44 34z" />
    <glyph glyph-name="nine.sups" horiz-adv-x="342" 
d="M277 874q70 0 108 -44q38 -43 28 -107q-8 -49 -38 -83l-139 -180h-140l98 128q-52 13 -78.5 53t-17.5 94q11 64 59 101.5t120 37.5zM218 729q-8 -36 31 -36q37 0 44 36q4 18 -4.5 27.5t-26.5 9.5q-38 0 -44 -37z" />
    <glyph glyph-name="cent.tf" horiz-adv-x="589" 
d="M318 248h2q58 0 93 50l132 -84q-38 -62 -100.5 -95t-137.5 -33q-31 0 -66 7l-46 -93h-65l56 113q-65 33 -95.5 99t-17.5 148q18 112 102 182q84 72 196 72q33 0 60 -6l46 92h65l-55 -112q66 -33 99 -105l-151 -79q-11 21 -24 31zM239 351q-9 -54 24 -83l91 184
q-43 -1 -75.5 -29t-39.5 -72z" />
    <glyph glyph-name="dollar.tf" horiz-adv-x="589" 
d="M377 421q87 -30 135 -72q65 -54 45 -164q-17 -92 -86 -143.5t-178 -56.5l-15 -85h-70l15 87q-179 20 -222 167l159 82q26 -72 93 -82l22 124l-14 5q-99 38 -143 93t-29 143q17 96 89 145q74 50 174 51l15 85h70l-16 -91q133 -25 183 -149l-154 -82q-19 48 -59 63
l-21 -118q5 0 7 -2zM265 503q-6 -32 40 -54l17 99q-51 -8 -57 -45zM380 202q5 29 -40 51l-17 -99q49 10 57 48z" />
    <glyph glyph-name="Euro.tf" horiz-adv-x="589" 
d="M321 159q59 0 102 66l136 -87q-89 -153 -258 -153q-101 0 -158 71.5t-59 193.5h-71l15 84h61q1 7 2.5 16t1.5 10t0.5 3t0.5 4l1 2h-61l15 84h66q40 126 117.5 194t184.5 68q154 0 211 -154l-158 -83q-20 63 -75 63q-62 0 -98 -88h137l-15 -84h-145q-3 -8 -4 -19l-3 -16
h146l-15 -84h-137q1 -91 60 -91z" />
    <glyph glyph-name="florin.tf" horiz-adv-x="589" 
d="M282 431l47 106q37 81 90 124q51 42 113 51.5t122 -6.5l-28 -164q-103 30 -137 -52l-26 -59h108l-28 -159h-149l-133 -303q-51 -118 -137 -156q-87 -38 -188 -13l29 164q99 -29 133 52l114 256h-108l29 159h149z" />
    <glyph glyph-name="uni20BD.tf" horiz-adv-x="589" 
d="M152 700h252q99 0 161 -72q63 -71 45 -173q-19 -108 -95 -166t-194 -58h-72l-7 -40h184l-17 -99h-185l-16 -92h-179l16 92h-63l17 99h64l7 40h-63l28 159h63zM432 460q6 32 -10.5 51t-47.5 19h-73l-24 -140h72q31 0 54.5 19t28.5 51z" />
    <glyph glyph-name="sterling.tf" horiz-adv-x="589" 
d="M474 272h-204l-18 -99h314l-31 -173h-554l31 173h62l17 99h-51l25 140h51l14 79q20 110 89.5 167t171.5 57q169 0 227 -156l-161 -82q-25 67 -80 67q-27 0 -46 -16.5t-24 -44.5l-12 -71h204z" />
    <glyph glyph-name="yen.tf" horiz-adv-x="589" 
d="M459 700h209l-230 -328h120l-16 -94h-153l-7 -41h152l-16 -93h-153l-25 -144h-179l25 144h-152l16 93h153l7 41h-152l16 94h120l-115 328h192l57 -211z" />
    <glyph glyph-name="brevecy" horiz-adv-x="403" 
d="M417 554h-323l24 140h323z" />
    </font>
</defs>
</svg>
