<?xml version="1.0" standalone="no"?>
<!DOCTYPE svg PUBLIC "-//W3C//DTD SVG 1.1//EN" "http://www.w3.org/Graphics/SVG/1.1/DTD/svg11.dtd" >
<svg xmlns="http://www.w3.org/2000/svg" xmlns:xlink="http://www.w3.org/1999/xlink" version="1.1">
<metadata>
Created by FontForge 20170731 at Fri Jul 22 02:27:48 2016
 By Aleksey,,,
Copyright (c) 2016 by Radomir Tinkov. All rights reserved.
</metadata>
<defs>
<font id="Gilroy-Black" horiz-adv-x="589" >
  <font-face 
    font-family="Gilroy"
    font-weight="900"
    font-stretch="normal"
    units-per-em="1000"
    panose-1="0 0 10 0 0 0 0 0 0 0"
    ascent="800"
    descent="-200"
    x-height="500"
    cap-height="700"
    bbox="-466 -277 1184 985"
    underline-thickness="50"
    underline-position="-250"
    unicode-range="U+0020-FB02"
  />
<missing-glyph horiz-adv-x="500" 
d="M93 800h317v-1000h-317v1000zM333 700v33h-165v-33h65v-37h-66v-33h166v33h-66v37h66zM267 534v70h-100v-104h166v34h-66zM200 570h33v-36h-33v36zM333 440v33h-166v-33h66v-37h-66v-33h100v70h66zM333 313v100h-33v-66h-133v-34h166zM333 178v113h-100v-56h34v23h33v-47
h-100v80h-33v-113h166zM333 5v113h-166v-113h166zM200 85h100v-47h-100v47zM333 -51v33h-166v-33h70l-70 -47v-33h166v33h-102l70 47h32z" />
    <glyph glyph-name="fi" unicode="fi" horiz-adv-x="572" 
d="M244 500h280v-500h-166v341h-114v-341h-166v341h-63v159h63q0 215 252 215q66 0 130 -15v-145q-64 9 -123 9q-47 0 -70 -14.5t-23 -49.5z" />
    <glyph glyph-name="fl" unicode="fl" horiz-adv-x="572" 
d="M330 715q88 0 194 -20v-695h-166v573q-7 1 -30 1q-39 0 -61.5 -19t-22.5 -55h66v-159h-66v-341h-166v341h-63v159h63q0 215 252 215z" />
    <glyph glyph-name="f_f" unicode="ff" horiz-adv-x="612" 
d="M612 725v-154q-85 6 -85 -61v-10h85v-159h-85v-341h-167v341h-116v-341h-166v341h-63v159h63q0 109 64 165.5t188 49.5v-154q-86 6 -86 -61h116v10q0 109 64 165.5t188 49.5z" />
    <glyph glyph-name="f_f_i" unicode="ffi" horiz-adv-x="855" 
d="M527 500h280v-500h-167v341h-113v-341h-167v341h-116v-341h-166v341h-63v159h63q0 109 64 165.5t188 49.5v-154q-86 6 -86 -61h116v10q0 215 252 215q66 0 130 -15v-145q-64 9 -123 9q-47 0 -69.5 -14.5t-22.5 -49.5v-10z" />
    <glyph glyph-name="f_f_l" unicode="ffl" horiz-adv-x="855" 
d="M612 725q87 0 195 -20v-705h-167v583q-7 1 -30 1q-39 0 -61 -19t-22 -55v-10h65v-159h-65v-341h-167v341h-116v-341h-166v341h-63v159h63q0 109 64 165.5t188 49.5v-154q-86 6 -86 -61h116v10q0 215 252 215z" />
    <glyph glyph-name=".notdef" horiz-adv-x="500" 
d="M93 800h317v-1000h-317v1000zM333 700v33h-165v-33h65v-37h-66v-33h166v33h-66v37h66zM267 534v70h-100v-104h166v34h-66zM200 570h33v-36h-33v36zM333 440v33h-166v-33h66v-37h-66v-33h100v70h66zM333 313v100h-33v-66h-133v-34h166zM333 178v113h-100v-56h34v23h33v-47
h-100v80h-33v-113h166zM333 5v113h-166v-113h166zM200 85h100v-47h-100v47zM333 -51v33h-166v-33h70l-70 -47v-33h166v33h-102l70 47h32z" />
    <glyph glyph-name=".null" horiz-adv-x="0" 
 />
    <glyph glyph-name="nonmarkingreturn" horiz-adv-x="333" 
 />
    <glyph glyph-name="space" unicode=" " horiz-adv-x="227" 
 />
    <glyph glyph-name="exclam" unicode="!" horiz-adv-x="294" 
d="M216 255h-138l-33 245v200h204v-200zM43 90q0 43 30.5 73.5t73.5 30.5t73.5 -30.5t30.5 -73.5q0 -44 -30.5 -74t-73.5 -30t-73.5 30t-30.5 74z" />
    <glyph glyph-name="quotedbl" unicode="&#x22;" horiz-adv-x="442" 
d="M179 441h-114l-20 259h154zM377 441h-114l-20 259h154z" />
    <glyph glyph-name="numbersign" unicode="#" horiz-adv-x="631" 
d="M611 505l-19 -120h-101l-12 -70h102l-19 -120h-103l-24 -145h-128l24 145h-82l-24 -145h-128l24 145h-101l19 120h102l12 70h-102l19 120h103l24 145h128l-24 -145h82l24 145h128l-24 -145h100zM269 315h82l12 70h-82z" />
    <glyph glyph-name="dollar" unicode="$" horiz-adv-x="556" 
d="M538 205q0 -93 -57 -150t-157 -68v-87h-70v86q-88 6 -149.5 48.5t-86.5 114.5l155 87q23 -65 81 -80v119l-9 3q-85 31 -141 74q-63 51 -63 147q0 95 60 150q61 58 153 65v86h70v-88q144 -16 204 -147l-152 -85q-15 47 -52 60v-118h1l28 -11l31 -12q15 -6 29 -13
q21 -9 54 -32q7 -4 11.5 -8t9 -8.5t7 -8t7 -10t7.5 -10.5q29 -35 29 -104zM215 498q0 -26 39 -45v91q-39 -10 -39 -46zM324 247v-90q40 10 40 45q0 27 -40 45z" />
    <glyph glyph-name="percent" unicode="%" horiz-adv-x="823" 
d="M219 356q-79 0 -131 52q-53 53 -53 128q0 74 53 127q52 52 131 52q78 0 130 -52t52 -127t-53 -128q-52 -52 -129 -52zM208 71l-69 39l460 500l70 -40zM218 483q32 -2 45.5 25.5t0 54.5t-45.5 25q-22 0 -36.5 -15t-14.5 -37q0 -23 14.5 -38t36.5 -15zM606 -14
q-80 0 -132 52t-52 127q0 76 52 128t132 52q77 0 130 -53q52 -52 52 -127q0 -74 -53 -127q-52 -52 -129 -52zM656 165q0 23 -14.5 38t-36.5 15t-36.5 -15t-14.5 -38q0 -22 14.5 -37t36.5 -15q21 0 36 15.5t15 36.5z" />
    <glyph glyph-name="ampersand" unicode="&#x26;" horiz-adv-x="680" 
d="M580 147l85 -95l-137 -79l-59 64q-80 -52 -182 -52q-113 0 -183 59q-69 60 -69 155q0 124 113 195q-32 55 -32 114q0 90 64 148q65 59 166 59q171 0 241 -157l-151 -88q-28 75 -84 75q-26 0 -40.5 -14.5t-14.5 -36.5q0 -14 8 -32q5 -9 17 -26l30 -34l118 -131
q20 47 31 102l144 -83q-19 -73 -65 -143zM305 140q32 0 59 12l-118 128q-30 -27 -30 -67q0 -33 23 -53t66 -20z" />
    <glyph glyph-name="quotesingle" unicode="'" horiz-adv-x="243" 
d="M179 441h-114l-20 259h154z" />
    <glyph glyph-name="parenleft" unicode="(" horiz-adv-x="327" 
d="M322 -100h-167q-110 220 -110 450t110 450h167q-110 -220 -110 -450t110 -450z" />
    <glyph glyph-name="parenright" unicode=")" horiz-adv-x="327" 
d="M172 -100h-167q110 220 110 450t-110 450h167q110 -220 110 -450t-110 -450z" />
    <glyph glyph-name="asterisk" unicode="*" horiz-adv-x="405" 
d="M268 595l91 10v-96l-91 10l57 -70l-80 -50l-43 82l-42 -82l-80 50l56 70l-91 -10v96l91 -10l-56 70l80 50l42 -82l43 82l80 -50z" />
    <glyph glyph-name="plus" unicode="+" horiz-adv-x="560" 
d="M359 429h160v-158h-160v-160h-158v160h-160v158h160v160h158v-160z" />
    <glyph glyph-name="comma" unicode="," horiz-adv-x="302" 
d="M78 174h183l-84 -314h-134z" />
    <glyph glyph-name="hyphen" unicode="-" horiz-adv-x="500" 
d="M445 222h-390v158h390v-158z" />
    <glyph glyph-name="period" unicode="." horiz-adv-x="289" 
d="M145 -14q-44 0 -74.5 30.5t-30.5 73.5t31 73.5t74 30.5t73.5 -30.5t30.5 -73.5t-30.5 -73.5t-73.5 -30.5z" />
    <glyph glyph-name="slash" unicode="/" horiz-adv-x="520" 
d="M495 800l-400 -900h-70l400 900h70z" />
    <glyph glyph-name="zero" unicode="0" horiz-adv-x="630" 
d="M528 84q-76 -99 -213 -99t-214 99q-76 100 -76 266q0 167 76 265q76 100 214 100q137 0 213 -100q77 -100 77 -265t-77 -266zM204 350q0 -191 111 -191t111 191t-111 191t-111 -191z" />
    <glyph glyph-name="one" unicode="1" horiz-adv-x="414" 
d="M5 632l190 68h154v-700h-179v512l-122 -31z" />
    <glyph glyph-name="two" unicode="2" horiz-adv-x="539" 
d="M511 0h-490v130l232 245q38 41 52.5 63.5t14.5 44.5q0 27 -16.5 42.5t-45.5 15.5q-63 0 -94 -73l-154 86q33 77 98.5 119t147.5 42q100 0 171 -60q72 -59 72 -162q0 -58 -27 -109.5t-85 -111.5l-95 -99h219v-173z" />
    <glyph glyph-name="three" unicode="3" horiz-adv-x="548" 
d="M490 559l-117 -144q68 -21 108.5 -72.5t40.5 -122.5q0 -112 -74 -174q-73 -61 -183 -61q-89 0 -156 40.5t-96 117.5l156 89q22 -73 96 -73q38 0 58.5 18t20.5 48t-20.5 47.5t-58.5 17.5h-38l-69 102l112 137h-235v171h455v-141z" />
    <glyph glyph-name="four" unicode="4" horiz-adv-x="578" 
d="M500 270h70v-163h-70v-107h-178v107h-307v163l209 430h198l-211 -430h111v126h178v-126z" />
    <glyph glyph-name="five" unicode="5" horiz-adv-x="550" 
d="M240 454h50q104 0 171 -60q69 -60 69 -170q0 -114 -74 -177q-74 -62 -184 -62q-94 0 -161.5 40t-97.5 118l156 89q22 -73 103 -73q38 0 58.5 17.5t20.5 47.5q0 31 -20.5 48t-55.5 17h-224l29 411h412v-171h-247z" />
    <glyph glyph-name="six" unicode="6" horiz-adv-x="560" 
d="M469 700l-148 -223q102 -14 163 -80q61 -65 61 -165q0 -109 -73 -178q-74 -69 -192 -69t-192 69q-73 69 -73 178q0 81 44 145l207 323h203zM280 149q38 0 62 22.5t24 60.5q0 40 -24 62q-23 22 -62 22t-62 -22q-24 -22 -24 -62q0 -39 23.5 -61t62.5 -22z" />
    <glyph glyph-name="seven" unicode="7" horiz-adv-x="490" 
d="M1 527v173h474v-148l-219 -552h-193l208 527h-270z" />
    <glyph glyph-name="eight" unicode="8" horiz-adv-x="569" 
d="M453 366q93 -58 93 -169q0 -99 -68.5 -155t-192.5 -56q-125 0 -193.5 56t-68.5 155q0 111 93 169q-69 51 -69 140q0 98 67 153t171 55q102 0 170 -56q67 -55 67 -152q0 -89 -69 -140zM285 552q-32 0 -50.5 -16.5t-18.5 -43.5q0 -28 18.5 -44t50.5 -16q30 0 49 16.5
t19 43.5t-19 43.5t-49 16.5zM285 150q37 0 60 19.5t23 52.5t-23 53t-60 20q-38 0 -60.5 -19.5t-22.5 -53.5q0 -33 22.5 -52.5t60.5 -19.5z" />
    <glyph glyph-name="nine" unicode="9" horiz-adv-x="560" 
d="M545 468q0 -81 -44 -145l-207 -323h-203l148 223q-102 13 -163 79q-61 67 -61 166q0 109 73 178q74 69 192 69t192 -69q73 -69 73 -178zM194 468q0 -40 24 -62q23 -22 62 -22t62 22q24 22 24 62q0 39 -23.5 61t-62.5 22q-38 0 -62 -22.5t-24 -60.5z" />
    <glyph glyph-name="colon" unicode=":" horiz-adv-x="289" 
d="M145 307q-44 0 -74.5 30.5t-30.5 73.5t31 73.5t74 30.5t73.5 -30.5t30.5 -73.5t-30.5 -73.5t-73.5 -30.5zM145 -14q-44 0 -74.5 30.5t-30.5 73.5t31 73.5t74 30.5t73.5 -30.5t30.5 -73.5t-30.5 -73.5t-73.5 -30.5z" />
    <glyph glyph-name="semicolon" unicode=";" horiz-adv-x="304" 
d="M160 307q-44 0 -74.5 30.5t-30.5 73.5t31 73.5t74 30.5t73.5 -30.5t30.5 -73.5t-30.5 -73.5t-73.5 -30.5zM78 174h183l-84 -314h-134z" />
    <glyph glyph-name="less" unicode="&#x3c;" horiz-adv-x="521" 
d="M36 424l450 195v-172l-271 -97l271 -97v-172l-450 195v148z" />
    <glyph glyph-name="equal" unicode="=" horiz-adv-x="511" 
d="M475 380h-440v159h440v-159zM475 161h-440v159h440v-159z" />
    <glyph glyph-name="greater" unicode="&#x3e;" horiz-adv-x="521" 
d="M35 447v172l450 -195v-148l-450 -195v172l271 97z" />
    <glyph glyph-name="question" unicode="?" horiz-adv-x="547" 
d="M348 255h-170q0 38 22 75t53 61q75 63 75 103q0 48 -59 48q-62 0 -96 -79l-152 87q32 79 100 122t155 43q96 0 163 -54q67 -52 67 -145q0 -41 -16.5 -77t-39.5 -60t-46 -44.5t-39.5 -40.5t-16.5 -39zM159 90q0 43 30.5 73.5t73.5 30.5t73.5 -30.5t30.5 -73.5
q0 -44 -30.5 -74t-73.5 -30t-73.5 30t-30.5 74z" />
    <glyph glyph-name="at" unicode="@" horiz-adv-x="769" 
d="M392 612q106 0 188 -52q80 -50 121 -126.5t41 -163.5q0 -107 -43.5 -165.5t-122.5 -58.5q-107 0 -141 82q-37 -43 -95 -43q-66 0 -106.5 46.5t-40.5 118.5t40.5 118.5t106.5 46.5q52 0 86 -33v21h136v-236q0 -63 50 -63q40 0 62.5 42t22.5 124q0 127 -88 214
q-89 87 -217 87q-135 0 -228 -93q-92 -92 -92 -228q0 -139 95 -231q96 -90 243 -90q88 0 151 22v-43q-66 -20 -151 -20q-164 0 -273 103q-109 102 -109 259q0 150 104 256q105 106 260 106zM378 198q29 -3 41.5 24.5t0.5 55t-42 24.5q-30 3 -42 -24.5t0 -55t42 -24.5z" />
    <glyph glyph-name="A" unicode="A" horiz-adv-x="671" 
d="M675 0h-193l-30 101h-233l-30 -101h-194l231 700h218zM335 493l-70 -238h141z" />
    <glyph glyph-name="B" unicode="B" horiz-adv-x="602" 
d="M497 362q88 -52 88 -157q0 -94 -64 -149q-65 -56 -171 -56h-295v700h276q106 0 168.5 -53.5t62.5 -145.5q0 -88 -65 -139zM326 540h-92v-110h92q25 0 41 14.5t16 40.5q0 25 -16 40t-41 15zM234 160h111q27 0 44 16.5t17 42.5q0 27 -17 43t-44 16h-111v-118z" />
    <glyph glyph-name="C" unicode="C" horiz-adv-x="719" 
d="M393 -15q-158 0 -262 104q-103 104 -103 261t103 260q103 105 262 105q95 0 176 -45t127 -121l-155 -89q-20 37 -59.5 58.5t-88.5 21.5q-83 0 -136 -53q-51 -53 -51 -137q0 -86 51 -138q52 -52 136 -52q49 0 88.5 21.5t59.5 59.5l155 -90q-46 -77 -126.5 -121.5
t-176.5 -44.5z" />
    <glyph glyph-name="D" unicode="D" horiz-adv-x="708" 
d="M55 700h285q144 0 242 -101t98 -249q0 -149 -98 -250q-97 -100 -242 -100h-285v700zM239 173h101q72 0 119 48q46 49 46 129q0 81 -46 128q-46 49 -119 49h-101v-354z" />
    <glyph glyph-name="E" unicode="E" horiz-adv-x="535" 
d="M234 271v-103h271v-168h-450v700h445v-167h-266v-97h241v-165h-241z" />
    <glyph glyph-name="F" unicode="F" horiz-adv-x="518" 
d="M485 700v-173h-251v-114h246v-173h-246v-240h-179v700h430z" />
    <glyph glyph-name="G" unicode="G" horiz-adv-x="778" 
d="M397 401h353v-71q0 -154 -97 -250q-97 -95 -250 -95q-163 0 -270 105q-105 105 -105 259q0 153 105 260q105 106 260 106q97 0 179 -44q81 -43 128 -117l-152 -87q-21 33 -62 53t-91 20q-83 0 -136 -54q-53 -55 -53 -138q0 -82 52 -137q53 -56 148 -56q122 0 161 92h-170
v154z" />
    <glyph glyph-name="H" unicode="H" horiz-adv-x="665" 
d="M431 441v259h178v-700h-178v269h-197v-269h-179v700h179v-259h197z" />
    <glyph glyph-name="I" unicode="I" horiz-adv-x="289" 
d="M55 0v700h179v-700h-179z" />
    <glyph glyph-name="J" unicode="J" horiz-adv-x="571" 
d="M267 -15q-171 0 -242 140l153 89q15 -30 35.5 -42.5t53.5 -12.5q77 0 77 71v470h179v-473q0 -114 -70 -178q-68 -64 -186 -64z" />
    <glyph glyph-name="K" unicode="K" horiz-adv-x="631" 
d="M403 360l232 -360h-200l-201 313v-313h-179v700h179v-294l191 294h200z" />
    <glyph glyph-name="L" unicode="L" horiz-adv-x="485" 
d="M234 700v-527h241v-173h-420v700h179z" />
    <glyph glyph-name="M" unicode="M" horiz-adv-x="825" 
d="M591 700h178v-700h-178v377l-170 -281h-18l-169 280v-376h-179v700h179l178 -299z" />
    <glyph glyph-name="N" unicode="N" horiz-adv-x="675" 
d="M441 348v352h178v-700h-138l-247 352v-352h-179v700h139z" />
    <glyph glyph-name="O" unicode="O" horiz-adv-x="790" 
d="M655 90q-107 -105 -260 -105q-155 0 -261 105q-106 106 -106 260t106 259q106 106 261 106q154 0 260 -106q107 -105 107 -259q0 -153 -107 -260zM260 213q55 -53 135 -53t135 53q54 54 54 137q0 84 -54 136q-54 54 -135 54t-135 -54q-54 -52 -54 -136q0 -83 54 -137z
" />
    <glyph glyph-name="P" unicode="P" horiz-adv-x="592" 
d="M55 700h272q106 0 178 -69t72 -176t-72 -176t-178 -69h-93v-210h-179v700zM234 380h93q30 0 50.5 21t20.5 54t-20.5 53.5t-50.5 20.5h-93v-149z" />
    <glyph glyph-name="Q" unicode="Q" horiz-adv-x="795" 
d="M762 350q0 -126 -75 -224l63 -68l-125 -111l-69 74q-75 -36 -161 -36q-155 0 -261 105q-106 106 -106 260t106 259q106 106 261 106q154 0 260 -106q107 -105 107 -259zM395 160q5 0 29 2l-94 101l126 110l107 -114q21 42 21 91q0 84 -54 136q-54 54 -135 54t-135 -54
q-54 -52 -54 -136q0 -83 54 -137q55 -53 135 -53z" />
    <glyph glyph-name="R" unicode="R" horiz-adv-x="620" 
d="M612 0h-192l-122 226h-64v-226h-179v700h280q107 0 179 -69q73 -67 73 -173q0 -62 -32 -115t-87 -84zM333 535h-99v-157h99q33 -1 54 21t21 57t-21 57t-54 22z" />
    <glyph glyph-name="S" unicode="S" horiz-adv-x="585" 
d="M304 -15q-109 0 -182.5 46t-103.5 128l153 89q39 -93 138 -93q82 0 82 47q0 30 -47 50q-16 6 -88 27q-102 29 -155 81t-53 138q0 97 69 157q71 60 174 60q88 0 156 -41.5t104 -118.5l-150 -88q-33 78 -109 78q-31 0 -48 -12.5t-17 -33.5q0 -23 24.5 -39t95.5 -37
q53 -16 82 -28q33 -14 68 -38q73 -48 73 -153q0 -103 -73 -161t-193 -58z" />
    <glyph glyph-name="T" unicode="T" horiz-adv-x="545" 
d="M10 700h525v-173h-173v-527h-179v527h-173v173z" />
    <glyph glyph-name="U" unicode="U" horiz-adv-x="650" 
d="M48 230v470h179v-453q0 -88 98 -88t98 88v453h179v-470q0 -110 -78 -178q-76 -67 -199 -67t-200 67q-77 68 -77 178z" />
    <glyph glyph-name="V" unicode="V" horiz-adv-x="665" 
d="M439 0h-213l-226 700h196l136 -482l137 482h196z" />
    <glyph glyph-name="W" unicode="W" horiz-adv-x="1004" 
d="M390 0h-189l-196 700h193l108 -441l125 441h141l125 -441l109 441h192l-195 -700h-189l-112 395z" />
    <glyph glyph-name="X" unicode="X" horiz-adv-x="632" 
d="M416 356l210 -356h-200l-110 186l-110 -186h-201l211 357l-203 343h201l102 -173l102 173h201z" />
    <glyph glyph-name="Y" unicode="Y" horiz-adv-x="651" 
d="M450 700h201l-236 -431v-269h-179v267l-236 433h201l124 -259z" />
    <glyph glyph-name="Z" unicode="Z" horiz-adv-x="542" 
d="M512 562l-247 -389h255v-173h-487v138l247 389h-242v173h474v-138z" />
    <glyph glyph-name="bracketleft" unicode="[" horiz-adv-x="329" 
d="M309 800v-159h-97v-582h97v-159h-264v900h264z" />
    <glyph glyph-name="backslash" unicode="\" horiz-adv-x="520" 
d="M495 -100h-70l-400 900h70z" />
    <glyph glyph-name="bracketright" unicode="]" horiz-adv-x="329" 
d="M20 800h264v-900h-264v159h97v582h-97v159z" />
    <glyph glyph-name="asciicircum" unicode="^" horiz-adv-x="580" 
d="M231 700h118l200 -354h-178l-81 158l-81 -158h-178z" />
    <glyph glyph-name="underscore" unicode="_" horiz-adv-x="515" 
d="M490 -186h-465v158h465v-158z" />
    <glyph glyph-name="grave" unicode="`" horiz-adv-x="314" 
d="M294 555h-158l-116 145h194z" />
    <glyph glyph-name="a" unicode="a" horiz-adv-x="615" 
d="M401 454v46h166v-500h-166v46q-51 -60 -142 -60q-101 0 -168 75q-67 76 -67 189q0 114 67 188q67 76 168 76q91 0 142 -60zM220 171q28 -30 76 -30t76 30q29 31 29 79t-29 79q-28 30 -76 30t-76 -30q-29 -31 -29 -79t29 -79z" />
    <glyph glyph-name="b" unicode="b" horiz-adv-x="615" 
d="M356 514q100 0 167 -76q68 -76 68 -188t-68 -189q-68 -75 -167 -75q-91 0 -142 60v-46h-166v700h166v-246q51 60 142 60zM243 171q29 -30 76 -30t76 30q29 31 29 79t-29 79q-29 30 -76 30t-76 -30q-29 -31 -29 -79t29 -79z" />
    <glyph glyph-name="c" unicode="c" horiz-adv-x="528" 
d="M290 -14q-114 0 -190 76t-76 188t76 188t190 76q74 0 134.5 -34.5t93.5 -94.5l-142 -82q-27 49 -87 49q-42 0 -70 -28.5t-28 -73.5t28 -73.5t70 -28.5q61 0 87 50l142 -82q-33 -60 -93.5 -95t-134.5 -35z" />
    <glyph glyph-name="d" unicode="d" horiz-adv-x="615" 
d="M401 454v246h166v-700h-166v46q-51 -60 -142 -60q-101 0 -168 75q-67 76 -67 189q0 114 67 188q67 76 168 76q91 0 142 -60zM220 171q28 -30 76 -30t76 30q29 31 29 79t-29 79q-28 30 -76 30t-76 -30q-29 -31 -29 -79t29 -79z" />
    <glyph glyph-name="e" unicode="e" horiz-adv-x="571" 
d="M541 189h-345q25 -61 112 -61q53 0 91 35l120 -84q-73 -93 -215 -93q-127 0 -204 74q-76 75 -76 189q0 113 75 189t191 76q112 0 185 -75q73 -74 73 -188q0 -35 -7 -62zM194 304h192q-19 70 -94 70q-77 0 -98 -70z" />
    <glyph glyph-name="f" unicode="f" horiz-adv-x="330" 
d="M330 715v-154q-86 6 -86 -61h86v-159h-86v-341h-166v341h-63v159h63q0 109 64 165.5t188 49.5z" />
    <glyph glyph-name="g" unicode="g" horiz-adv-x="618" 
d="M406 452v48h164v-480q0 -116 -77 -175.5t-186 -59.5q-84 0 -148.5 31.5t-97.5 90.5l138 80q36 -57 106 -57q46 0 73.5 23.5t27.5 66.5v48q-51 -62 -140 -62q-103 0 -171 74q-67 73 -67 180t67 180q68 74 171 74q89 0 140 -62zM223 185q31 -29 77 -29q47 0 76 29
q30 30 30 75q0 46 -30 74q-28 30 -76 30q-47 0 -77 -30q-29 -29 -29 -74q0 -44 29 -75z" />
    <glyph glyph-name="h" unicode="h" horiz-adv-x="579" 
d="M353 514q83 0 133.5 -56.5t50.5 -158.5v-299h-166v278q0 38 -20 58.5t-55 20.5q-39 0 -60.5 -23.5t-21.5 -67.5v-266h-166v700h166v-250q45 64 139 64z" />
    <glyph glyph-name="i" unicode="i" horiz-adv-x="262" 
d="M198 569q-28 -28 -67 -28t-68 28q-28 29 -28 68t28 67q29 28 68 28t67 -28q29 -28 29 -67t-29 -68zM214 0h-166v500h166v-500z" />
    <glyph glyph-name="j" unicode="j" horiz-adv-x="277" 
d="M213 569q-28 -28 -67 -28t-68 28q-28 29 -28 68t28 67q29 28 68 28t67 -28q29 -28 29 -67t-29 -68zM63 0v500h166v-500q0 -118 -58 -170t-181 -45v154q38 -2 55.5 12.5t17.5 48.5z" />
    <glyph glyph-name="k" unicode="k" horiz-adv-x="542" 
d="M367 250l175 -250h-186l-142 213v-213h-166v700h166v-409l129 209h192z" />
    <glyph glyph-name="l" unicode="l" horiz-adv-x="262" 
d="M214 0h-166v730h166v-730z" />
    <glyph glyph-name="m" unicode="m" horiz-adv-x="852" 
d="M622 514q87 0 137.5 -55.5t50.5 -152.5v-306h-167v287q0 70 -62 70q-33 0 -51 -22t-18 -62v-273h-166v287q0 70 -63 70q-33 0 -51 -22t-18 -62v-273h-166v500h166v-47q46 61 135 61q86 0 128 -64q52 64 145 64z" />
    <glyph glyph-name="n" unicode="n" horiz-adv-x="579" 
d="M353 514q83 0 133.5 -56.5t50.5 -158.5v-299h-166v278q0 38 -20 58.5t-55 20.5q-39 0 -60.5 -23.5t-21.5 -67.5v-266h-166v500h166v-50q45 64 139 64z" />
    <glyph glyph-name="o" unicode="o" horiz-adv-x="583" 
d="M291 -14q-112 0 -189 76q-78 76 -78 188q0 110 78 187q79 77 189 77q112 0 189 -77q78 -77 78 -187q0 -112 -78 -188q-76 -76 -189 -76zM291 146q44 0 72.5 29t28.5 75t-28.5 75t-72.5 29q-43 0 -71.5 -29.5t-28.5 -74.5t28.5 -74.5t71.5 -29.5z" />
    <glyph glyph-name="p" unicode="p" horiz-adv-x="615" 
d="M356 514q100 0 167 -76q68 -76 68 -188t-68 -189q-68 -75 -167 -75q-91 0 -142 60v-246h-166v700h166v-46q51 60 142 60zM243 171q29 -30 76 -30t76 30q29 31 29 79t-29 79q-29 30 -76 30t-76 -30q-29 -31 -29 -79t29 -79z" />
    <glyph glyph-name="q" unicode="q" horiz-adv-x="615" 
d="M401 454v46h166v-700h-166v246q-51 -60 -142 -60q-101 0 -168 75q-67 76 -67 189q0 114 67 188q67 76 168 76q91 0 142 -60zM220 171q28 -30 76 -30t76 30q29 31 29 79t-29 79q-28 30 -76 30t-76 -30q-29 -31 -29 -79t29 -79z" />
    <glyph glyph-name="r" unicode="r" horiz-adv-x="379" 
d="M214 500v-93q14 48 55.5 75.5t94.5 27.5v-184q-57 9 -104 -21q-46 -30 -46 -98v-207h-166v500h166z" />
    <glyph glyph-name="s" unicode="s" horiz-adv-x="475" 
d="M207 354q0 -13 21.5 -21.5t65.5 -18.5q30 -6 55.5 -15.5t51 -27t40 -48t14.5 -69.5q0 -87 -64 -127q-65 -41 -152 -41q-168 0 -224 119l145 73q19 -55 78 -55q45 0 45 27q0 13 -20.5 21.5t-65.5 19.5q-30 6 -54.5 16.5t-50 27.5t-39.5 45.5t-14 65.5q0 80 59 124t142 44
q147 0 206 -116l-140 -63q-22 43 -62 43q-37 0 -37 -24z" />
    <glyph glyph-name="t" unicode="t" horiz-adv-x="394" 
d="M358 500v-159h-104v-145q0 -32 22.5 -40.5t81.5 -5.5v-150q-148 -18 -210 27q-60 47 -60 165v149h-75v159h75v90l166 50v-140h104z" />
    <glyph glyph-name="u" unicode="u" horiz-adv-x="579" 
d="M365 234v266h166v-500h-166v50q-45 -64 -139 -64q-83 0 -133.5 56.5t-50.5 158.5v299h166v-278q0 -38 20 -58.5t55 -20.5q39 0 60.5 23.5t21.5 67.5z" />
    <glyph glyph-name="v" unicode="v" horiz-adv-x="554" 
d="M277 213l93 287h184l-187 -500h-180l-187 500h184z" />
    <glyph glyph-name="w" unicode="w" horiz-adv-x="798" 
d="M544 228l66 272h176l-153 -500h-162l-72 254l-72 -254h-162l-153 500h176l66 -272l75 272h140z" />
    <glyph glyph-name="x" unicode="x" horiz-adv-x="549" 
d="M368 255l181 -255h-188l-87 123l-87 -123h-187l181 255l-174 245h187l80 -113l80 113h188z" />
    <glyph glyph-name="y" unicode="y" horiz-adv-x="549" 
d="M287 210l78 290h184l-171 -492q-40 -113 -113 -163t-189 -45v156q53 0 80 13t44 47l-200 484h186z" />
    <glyph glyph-name="z" unicode="z" horiz-adv-x="484" 
d="M439 386l-177 -232h187v-154h-409v114l177 232h-167v154h389v-114z" />
    <glyph glyph-name="braceleft" unicode="{" horiz-adv-x="362" 
d="M342 47v-154q-113 -7 -171 43.5t-58 151.5v134q0 31 -17.5 42.5t-54.5 7.5v159q37 -4 54.5 7.5t17.5 42.5v134q0 101 58 151.5t171 43.5v-154q-63 6 -63 -41v-134q0 -93 -67 -129q67 -37 67 -130v-134q0 -47 63 -41z" />
    <glyph glyph-name="bar" unicode="|" horiz-adv-x="277" 
d="M222 -200h-167v920h167v-920z" />
    <glyph glyph-name="braceright" unicode="}" horiz-adv-x="362" 
d="M20 -107v154q63 -6 63 41v134q0 93 67 130q-67 36 -67 129v134q0 47 -63 41v154q113 7 171 -43.5t58 -151.5v-134q0 -31 17.5 -42.5t54.5 -7.5v-159q-37 4 -54.5 -7.5t-17.5 -42.5v-134q0 -101 -58 -151.5t-171 -43.5z" />
    <glyph glyph-name="asciitilde" unicode="~" horiz-adv-x="606" 
d="M439 461l131 -61q-25 -111 -100 -149q-74 -38 -161 4q-72 33 -100 30q-27 -3 -42 -50l-132 61q25 111 100 149q74 38 162 -4q56 -24 78 -28.5t35.5 5t28.5 43.5z" />
    <glyph glyph-name="exclamdown" unicode="&#xa1;" horiz-adv-x="294" 
d="M251 410q0 -43 -30.5 -73.5t-73.5 -30.5t-73.5 30.5t-30.5 73.5q0 44 30.5 74t73.5 30t73.5 -30t30.5 -74zM45 0l33 245h138l33 -245v-200h-204v200z" />
    <glyph glyph-name="cent" unicode="&#xa2;" horiz-adv-x="528" 
d="M285 248h4q61 0 87 50l142 -82q-33 -60 -93.5 -95t-134.5 -35q-23 0 -56 5l-29 -91h-63l35 109q-70 31 -111.5 95.5t-41.5 145.5q0 112 76 188t190 76q30 0 49 -4l29 90h63l-35 -107q80 -33 122 -108l-142 -82q-9 18 -30 33zM191 350q0 -53 38 -82l59 184
q-42 -1 -69.5 -29t-27.5 -73z" />
    <glyph glyph-name="sterling" unicode="&#xa3;" horiz-adv-x="575" 
d="M266 272v-99h304v-173h-545v173h62v99h-52v140h52v76q0 109 68 168q70 59 162 59q169 0 237 -156l-155 -86q-23 71 -75 71q-27 0 -42.5 -17.5t-15.5 -48.5v-66h189v-140h-189z" />
    <glyph glyph-name="currency" unicode="&#xa4;" horiz-adv-x="533" 
d="M483 350q0 -74 -45 -130l70 -69l-43 -42l-70 70q-55 -39 -128 -39t-128 40l-71 -71l-43 42l70 70q-44 56 -44 129t44 129l-70 70l43 42l71 -71q55 40 128 40t128 -39l70 70l43 -42l-69 -69q44 -58 44 -130zM267 294q25 0 40.5 15t15.5 41t-15.5 41t-40.5 15
q-26 0 -41 -15t-15 -41t15 -41t41 -15z" />
    <glyph glyph-name="yen" unicode="&#xa5;" horiz-adv-x="631" 
d="M450 700h201l-179 -328h85v-94h-137l-5 -9v-32h142v-93h-142v-144h-179v144h-163v93h163v30l-6 11h-157v94h106l-179 328h201l124 -259z" />
    <glyph glyph-name="brokenbar" unicode="&#xa6;" horiz-adv-x="277" 
d="M222 350h-167v370h167v-370zM222 -200h-167v370h167v-370z" />
    <glyph glyph-name="section" unicode="&#xa7;" horiz-adv-x="545" 
d="M517 291q0 -76 -55 -125q31 -41 31 -103q0 -85 -63 -130q-62 -45 -155 -45q-172 0 -228 125l143 78q26 -65 85 -65q52 0 52 37q0 21 -29 34q-20 10 -29 13q-10 5 -41.5 16.5t-36.5 13.5q-75 32 -114 73.5t-39 106.5q0 79 58 124q-26 41 -26 98q0 83 60 128t142 45
q153 0 213 -130l-135 -68q-26 63 -73 63q-20 0 -31 -9.5t-11 -24.5q0 -22 28 -39l29 -14l39 -15q30 -11 40 -15q72 -29 109 -69t37 -103zM270 268q6 -2 32.5 -11.5t35.5 -12.5q15 12 15 34q0 15 -11 26q-11 13 -57 31l-29 10l-40 16q-14 -12 -14 -33q0 -20 15.5 -33.5
t52.5 -26.5z" />
    <glyph glyph-name="dieresis" unicode="&#xa8;" horiz-adv-x="389" 
d="M100 535q-33 0 -56.5 23.5t-23.5 56.5t23.5 56.5t56.5 23.5q32 0 55.5 -23.5t23.5 -56.5t-23.5 -56.5t-55.5 -23.5zM294 535q-32 0 -55.5 23.5t-23.5 56.5t23.5 56.5t55.5 23.5q33 0 56.5 -23.5t23.5 -56.5t-23.5 -56.5t-56.5 -23.5z" />
    <glyph glyph-name="copyright" unicode="&#xa9;" horiz-adv-x="779" 
d="M646 94q-106 -106 -256 -106t-256 106t-106 256t106 256t256 106t256 -106t106 -256t-106 -256zM390 29q131 0 224 94q93 95 93 227t-93 227q-93 94 -224 94q-132 0 -225 -94q-93 -95 -93 -227t93 -227q93 -94 225 -94zM393 153q-83 0 -141 58t-58 139q0 80 58 138
q59 59 141 59q51 0 96 -26t72 -71l-118 -69q-19 30 -54 30q-26 0 -43 -18t-17 -43t17 -43t43 -18q35 0 54 30l118 -69q-26 -45 -71.5 -71t-96.5 -26z" />
    <glyph glyph-name="guillemotleft" unicode="&#xab;" horiz-adv-x="569" 
d="M168 504h141l-112 -195l112 -195h-141l-113 195zM372 504h142l-113 -195l113 -195h-142l-112 195z" />
    <glyph glyph-name="logicalnot" unicode="&#xac;" horiz-adv-x="569" 
d="M35 271v158h499v-278h-169v120h-330z" />
    <glyph glyph-name="registered" unicode="&#xae;" horiz-adv-x="779" 
d="M134 606q106 106 256 106t256 -106t106 -256t-106 -256t-256 -106t-256 106t-106 256t106 256zM390 29q131 0 224 94q93 95 93 227t-93 227q-93 94 -224 94q-132 0 -225 -94q-93 -95 -93 -227t93 -227q93 -94 225 -94zM558 409q0 -71 -51 -114l74 -130h-141l-48 97h-21
v-97h-131v370h176q57 0 100 -35q42 -35 42 -91zM395 420h-24v-53h24q32 0 32 27q0 26 -32 26z" />
    <glyph glyph-name="overscore" unicode="&#xaf;" horiz-adv-x="349" 
d="M329 554h-309v130h309v-130z" />
    <glyph glyph-name="degree" unicode="&#xb0;" horiz-adv-x="415" 
d="M208 461q-76 0 -127 51t-51 123q0 73 51 124t127 51t126 -51q51 -51 51 -124q0 -72 -50 -124q-50 -50 -127 -50zM208 681q-28 2 -39.5 -22t0 -48t39.5 -21q27 -3 38.5 21t0 48t-38.5 22z" />
    <glyph glyph-name="plusminus" unicode="&#xb1;" horiz-adv-x="560" 
d="M359 665v-136h160v-158h-160v-136h-158v136h-160v158h160v136h158zM519 21h-478v159h478v-159z" />
    <glyph glyph-name="acute" unicode="&#xb4;" horiz-adv-x="314" 
d="M20 555l80 145h194l-116 -145h-158z" />
    <glyph glyph-name="uni00B5" unicode="&#xb5;" horiz-adv-x="608" 
d="M567 149h26v-149h-72q-76 0 -117 47q-45 -62 -141 -62q-28 0 -49 7v-192h-166v700h166v-278q0 -39 20 -59.5t56 -20.5q39 0 60 23.5t21 68.5v266h166v-321q0 -30 30 -30z" />
    <glyph glyph-name="paragraph" unicode="&#xb6;" horiz-adv-x="727" 
d="M245 700h447v-160h-67v-740h-158v740h-64v-740h-158v451q-92 0 -159 65q-66 66 -66 159q0 94 65 159q66 66 160 66z" />
    <glyph glyph-name="middot" unicode="&#xb7;" horiz-adv-x="289" 
d="M145 246q-44 0 -74.5 30.5t-30.5 73.5t31 73.5t74 30.5t73.5 -30.5t30.5 -73.5t-30.5 -73.5t-73.5 -30.5z" />
    <glyph glyph-name="cedilla" unicode="&#xb8;" horiz-adv-x="274" 
d="M196 0v-46q24 -8 41 -27.5t17 -49.5q0 -111 -234 -98v109q95 -8 95 14q0 15 -53 20v78h134z" />
    <glyph glyph-name="guillemotright" unicode="&#xbb;" horiz-adv-x="569" 
d="M55 504h142l112 -195l-112 -195h-142l113 195zM260 504h141l113 -195l-113 -195h-141l112 195z" />
    <glyph glyph-name="onequarter" unicode="&#xbc;" horiz-adv-x="818" 
d="M240 300h-131v266l-79 -21l-30 109l127 46h113v-400zM107 0l404 700h114l-404 -700h-114zM770 171h35v-115h-35v-56h-122v56h-184v115l116 229h138l-111 -229h41v63h122v-63z" />
    <glyph glyph-name="onehalf" unicode="&#xbd;" horiz-adv-x="812" 
d="M240 300h-131v266l-79 -21l-30 109l127 46h113v-400zM107 0l404 700h114l-404 -700h-114zM710 157l-42 -40h116v-117h-306v89l143 139q29 29 29 48q0 22 -26 22t-46 -44l-107 60q46 100 158 100q63 0 107 -36t44 -93q0 -64 -70 -128z" />
    <glyph glyph-name="threequarters" unicode="&#xbe;" horiz-adv-x="877" 
d="M326 425q0 -66 -43 -102.5t-118 -36.5q-120 0 -162 94l108 62q15 -43 54 -43q32 0 32 26q0 25 -32 25h-28l-46 68l56 66h-124v116h286v-87l-65 -76q82 -30 82 -112zM166 0l404 700h114l-404 -700h-114zM829 171h35v-115h-35v-56h-122v56h-184v115l116 229h138l-111 -229
h41v63h122v-63z" />
    <glyph glyph-name="questiondown" unicode="&#xbf;" horiz-adv-x="547" 
d="M388 410q0 -43 -30.5 -73.5t-73.5 -30.5t-73.5 30.5t-30.5 73.5q0 44 30 74t74 30t74 -30t30 -74zM199 245h170q0 -74 -75 -137q-75 -59 -75 -102q0 -48 59 -48q62 0 96 79l152 -87q-32 -79 -100 -122t-155 -43q-95 0 -163 54q-67 52 -67 145q0 41 16.5 77t39.5 60
t46 44.5t39.5 40.5t16.5 39z" />
    <glyph glyph-name="Agrave" unicode="&#xc0;" horiz-adv-x="671" 
d="M350 900l80 -145h-158l-116 145h194zM675 0h-193l-30 101h-233l-30 -101h-194l231 700h218zM335 493l-70 -238h141z" />
    <glyph glyph-name="Aacute" unicode="&#xc1;" horiz-adv-x="671" 
d="M316 900h194l-116 -145h-158zM675 0h-193l-30 101h-233l-30 -101h-194l231 700h218zM335 493l-70 -238h141z" />
    <glyph glyph-name="Acircumflex" unicode="&#xc2;" horiz-adv-x="671" 
d="M370 745l-39 56l-40 -56h-150l106 155h167l106 -155h-150zM675 0h-193l-30 101h-233l-30 -101h-194l231 700h218zM335 493l-70 -238h141z" />
    <glyph glyph-name="Atilde" unicode="&#xc3;" horiz-adv-x="671" 
d="M324 768q-24 17 -36 13.5t-12 -33.5h-120q0 49 11.5 84t30.5 52.5t44 24t51 1.5t53 -19q24 -17 36.5 -13.5t12.5 32.5h120q0 -61 -17 -100t-45.5 -52t-61 -10.5t-67.5 20.5zM675 0h-193l-30 101h-233l-30 -101h-194l231 700h218zM335 493l-70 -238h141z" />
    <glyph glyph-name="Adieresis" unicode="&#xc4;" horiz-adv-x="671" 
d="M238 735q-33 0 -56.5 23.5t-23.5 56.5t23.5 56.5t56.5 23.5q32 0 55.5 -23.5t23.5 -56.5t-23.5 -56.5t-55.5 -23.5zM432 735q-32 0 -55.5 23.5t-23.5 56.5t23.5 56.5t55.5 23.5q33 0 56.5 -23.5t23.5 -56.5t-23.5 -56.5t-56.5 -23.5zM675 0h-193l-30 101h-233l-30 -101
h-194l231 700h218zM335 493l-70 -238h141z" />
    <glyph glyph-name="Aring" unicode="&#xc5;" horiz-adv-x="671" 
d="M675 0h-193l-30 101h-233l-30 -101h-194l227 689q-27 35 -27 81q0 57 39.5 94.5t100.5 37.5q63 0 102 -37.5t39 -94.5q0 -48 -28 -83zM335 802q-20 0 -28.5 -16t0 -32t28.5 -16q34 0 34 32t-34 32zM335 493l-70 -238h141z" />
    <glyph glyph-name="AE" unicode="&#xc6;" horiz-adv-x="885" 
d="M619 271v-103h236v-168h-410v101h-194l-57 -101h-199l400 700h455v-167h-231v-97h206v-165h-206zM445 447l-108 -192h108v192z" />
    <glyph glyph-name="Ccedilla" unicode="&#xc7;" horiz-adv-x="719" 
d="M393 160q49 0 88.5 21.5t59.5 59.5l155 -90q-36 -62 -97 -103.5t-134 -55.5v-38q24 -8 41 -27.5t17 -49.5q0 -111 -234 -98v109q95 -8 95 14q0 15 -53 20v68q-133 20 -219 120q-84 100 -84 240q0 157 103 260q103 105 262 105q95 0 176 -45t127 -121l-155 -89
q-20 37 -59.5 58.5t-88.5 21.5q-83 0 -136 -53q-51 -53 -51 -137q0 -86 51 -138q52 -52 136 -52z" />
    <glyph glyph-name="Egrave" unicode="&#xc8;" horiz-adv-x="535" 
d="M293 900l80 -145h-158l-116 145h194zM234 271v-103h271v-168h-450v700h445v-167h-266v-97h241v-165h-241z" />
    <glyph glyph-name="Eacute" unicode="&#xc9;" horiz-adv-x="535" 
d="M259 900h194l-116 -145h-158zM234 271v-103h271v-168h-450v700h445v-167h-266v-97h241v-165h-241z" />
    <glyph glyph-name="Ecircumflex" unicode="&#xca;" horiz-adv-x="535" 
d="M313 745l-39 56l-40 -56h-150l106 155h167l106 -155h-150zM234 271v-103h271v-168h-450v700h445v-167h-266v-97h241v-165h-241z" />
    <glyph glyph-name="Edieresis" unicode="&#xcb;" horiz-adv-x="535" 
d="M181 735q-33 0 -56.5 23.5t-23.5 56.5t23.5 56.5t56.5 23.5q32 0 55.5 -23.5t23.5 -56.5t-23.5 -56.5t-55.5 -23.5zM375 735q-32 0 -55.5 23.5t-23.5 56.5t23.5 56.5t55.5 23.5q33 0 56.5 -23.5t23.5 -56.5t-23.5 -56.5t-56.5 -23.5zM234 271v-103h271v-168h-450v700h445
v-167h-266v-97h241v-165h-241z" />
    <glyph glyph-name="Igrave" unicode="&#xcc;" horiz-adv-x="289" 
d="M240 755h-158l-116 145h194zM55 700v-700h179v700h-179z" />
    <glyph glyph-name="Iacute" unicode="&#xcd;" horiz-adv-x="289" 
d="M46 755l80 145h194l-116 -145h-158zM55 700v-700h179v700h-179z" />
    <glyph glyph-name="Icircumflex" unicode="&#xce;" horiz-adv-x="289" 
d="M180 745l-39 56l-40 -56h-150l106 155h167l106 -155h-150zM234 0h-179v700h179v-700z" />
    <glyph glyph-name="Idieresis" unicode="&#xcf;" horiz-adv-x="289" 
d="M48 735q-33 0 -56.5 23.5t-23.5 56.5t23.5 56.5t56.5 23.5q32 0 55.5 -23.5t23.5 -56.5t-23.5 -56.5t-55.5 -23.5zM242 735q-32 0 -55.5 23.5t-23.5 56.5t23.5 56.5t55.5 23.5q33 0 56.5 -23.5t23.5 -56.5t-23.5 -56.5t-56.5 -23.5zM55 0v700h179v-700h-179z" />
    <glyph glyph-name="Eth" unicode="&#xd0;" horiz-adv-x="738" 
d="M86 700h285q144 0 242 -101t98 -249q0 -149 -98 -250q-97 -100 -242 -100h-285v263h-76v158h76v279zM270 173h101q73 0 119 48q46 49 46 129q0 81 -46 128q-46 49 -119 49h-101v-106h130v-158h-130v-90z" />
    <glyph glyph-name="Ntilde" unicode="&#xd1;" horiz-adv-x="675" 
d="M266 748h-120q0 49 11.5 84t30.5 52.5t44 24t51 1.5t53 -19q24 -17 36.5 -13.5t12.5 32.5h120q0 -61 -17 -100t-45.5 -52t-61 -10.5t-67.5 20.5q-24 17 -36 13.5t-12 -33.5zM441 348v352h178v-700h-138l-247 352v-352h-179v700h139z" />
    <glyph glyph-name="Ograve" unicode="&#xd2;" horiz-adv-x="790" 
d="M490 765h-158l-116 145h194zM655 90q107 107 107 260q0 154 -107 259q-106 106 -260 106q-155 0 -261 -106q-106 -105 -106 -259t106 -260q106 -105 261 -105q153 0 260 105zM260 213q-54 54 -54 137q0 84 54 136q54 54 135 54t135 -54q54 -53 54 -136t-54 -137
q-55 -53 -135 -53t-135 53z" />
    <glyph glyph-name="Oacute" unicode="&#xd3;" horiz-adv-x="790" 
d="M296 765l80 145h194l-116 -145h-158zM655 90q107 107 107 260q0 154 -107 259q-106 106 -260 106q-155 0 -261 -106q-106 -105 -106 -259t106 -260q106 -105 261 -105q153 0 260 105zM260 213q-54 54 -54 137q0 84 54 136q54 54 135 54t135 -54q54 -53 54 -136t-54 -137
q-55 -53 -135 -53t-135 53z" />
    <glyph glyph-name="Ocircumflex" unicode="&#xd4;" horiz-adv-x="790" 
d="M430 755l-39 56l-40 -56h-150l106 155h167l106 -155h-150zM134 609q106 106 261 106q154 0 260 -106q107 -105 107 -259q0 -153 -107 -260q-107 -105 -260 -105q-155 0 -261 105q-106 106 -106 260t106 259zM260 213q55 -53 135 -53t135 53q54 54 54 137q0 84 -54 136
q-54 54 -135 54t-135 -54q-54 -52 -54 -136q0 -83 54 -137z" />
    <glyph glyph-name="Otilde" unicode="&#xd5;" horiz-adv-x="790" 
d="M336 758h-120q0 49 11.5 84t30.5 52.5t44 24t51 1.5t53 -19q24 -17 36.5 -13.5t12.5 32.5h120q0 -61 -17 -100t-45.5 -52t-61 -10.5t-67.5 20.5q-24 17 -36 13.5t-12 -33.5zM655 90q-107 -105 -260 -105q-155 0 -261 105q-106 106 -106 260t106 259q106 106 261 106
q154 0 260 -106q107 -105 107 -259q0 -153 -107 -260zM260 213q55 -53 135 -53t135 53q54 54 54 137q0 84 -54 136q-54 54 -135 54t-135 -54q-54 -52 -54 -136q0 -83 54 -137z" />
    <glyph glyph-name="Odieresis" unicode="&#xd6;" horiz-adv-x="790" 
d="M298 745q-33 0 -56.5 23.5t-23.5 56.5t23.5 56.5t56.5 23.5q32 0 55.5 -23.5t23.5 -56.5t-23.5 -56.5t-55.5 -23.5zM492 745q-32 0 -55.5 23.5t-23.5 56.5t23.5 56.5t55.5 23.5q33 0 56.5 -23.5t23.5 -56.5t-23.5 -56.5t-56.5 -23.5zM655 90q-107 -105 -260 -105
q-155 0 -261 105q-106 106 -106 260t106 259q106 106 261 106q154 0 260 -106q107 -105 107 -259q0 -153 -107 -260zM260 213q55 -53 135 -53t135 53q54 54 54 137q0 84 -54 136q-54 54 -135 54t-135 -54q-54 -52 -54 -136q0 -83 54 -137z" />
    <glyph glyph-name="multiply" unicode="&#xd7;" horiz-adv-x="538" 
d="M385 578l112 -112l-116 -116l116 -116l-112 -112l-116 116l-116 -116l-112 112l116 116l-116 116l112 112l116 -116z" />
    <glyph glyph-name="Oslash" unicode="&#xd8;" horiz-adv-x="795" 
d="M718 671l-54 -66q103 -104 103 -255q0 -153 -107 -260q-106 -105 -260 -105q-106 0 -198 56l-46 -55l-75 43l54 66q-102 105 -102 255q0 154 106 259q106 106 261 106q109 0 198 -56l45 55zM211 350q0 -68 37 -117l237 289q-41 18 -85 18q-81 0 -135 -54
q-54 -52 -54 -136zM400 160q80 0 135 53q54 54 54 137q0 66 -38 118l-237 -289q39 -19 86 -19z" />
    <glyph glyph-name="Ugrave" unicode="&#xd9;" horiz-adv-x="650" 
d="M420 755h-158l-116 145h194zM48 230q0 -110 77 -178q77 -67 200 -67t199 67q78 68 78 178v470h-179v-453q0 -88 -98 -88t-98 88v453h-179v-470z" />
    <glyph glyph-name="Uacute" unicode="&#xda;" horiz-adv-x="650" 
d="M226 755l80 145h194l-116 -145h-158zM48 230q0 -110 77 -178q77 -67 200 -67t199 67q78 68 78 178v470h-179v-453q0 -88 -98 -88t-98 88v453h-179v-470z" />
    <glyph glyph-name="Ucircumflex" unicode="&#xdb;" horiz-adv-x="650" 
d="M360 745l-39 56l-40 -56h-150l106 155h167l106 -155h-150zM423 247v453h179v-470q0 -110 -78 -178q-76 -67 -199 -67t-200 67q-77 68 -77 178v470h179v-453q0 -88 98 -88t98 88z" />
    <glyph glyph-name="Udieresis" unicode="&#xdc;" horiz-adv-x="650" 
d="M228 735q-33 0 -56.5 23.5t-23.5 56.5t23.5 56.5t56.5 23.5q32 0 55.5 -23.5t23.5 -56.5t-23.5 -56.5t-55.5 -23.5zM422 735q-32 0 -55.5 23.5t-23.5 56.5t23.5 56.5t55.5 23.5q33 0 56.5 -23.5t23.5 -56.5t-23.5 -56.5t-56.5 -23.5zM48 230v470h179v-453q0 -88 98 -88
t98 88v453h179v-470q0 -110 -78 -178q-76 -67 -199 -67t-200 67q-77 68 -77 178z" />
    <glyph glyph-name="Yacute" unicode="&#xdd;" horiz-adv-x="651" 
d="M306 900h194l-116 -145h-158zM450 700h201l-236 -431v-269h-179v267l-236 433h201l124 -259z" />
    <glyph glyph-name="Thorn" unicode="&#xde;" horiz-adv-x="592" 
d="M234 596h96q105 0 175 -70q72 -69 72 -176q0 -106 -72 -176q-71 -69 -175 -69h-96v-105h-179v700h179v-104zM234 276h96q28 0 48 21t20 53t-20 53.5t-48 21.5h-96v-149z" />
    <glyph glyph-name="germandbls" unicode="&#xdf;" horiz-adv-x="551" 
d="M274 -5v148q100 -13 100 45q0 31 -49 102t-49 100q0 24 22 61q23 38 23 65q0 23 -13.5 37.5t-36.5 14.5q-26 0 -41.5 -17.5t-15.5 -48.5v-502h-166v497q0 101 62.5 159.5t167.5 58.5q99 0 156 -51q58 -51 58 -121q0 -39 -24 -86t-24 -59q-2 -16 23 -56t50.5 -94
t23.5 -100q0 -84 -62 -128q-61 -43 -205 -25z" />
    <glyph glyph-name="agrave" unicode="&#xe0;" horiz-adv-x="615" 
d="M322 700l80 -145h-158l-116 145h194zM401 454v46h166v-500h-166v46q-51 -60 -142 -60q-101 0 -168 75q-67 76 -67 189q0 114 67 188q67 76 168 76q91 0 142 -60zM220 171q28 -30 76 -30t76 30q29 31 29 79t-29 79q-28 30 -76 30t-76 -30q-29 -31 -29 -79t29 -79z" />
    <glyph glyph-name="aacute" unicode="&#xe1;" horiz-adv-x="615" 
d="M288 700h194l-116 -145h-158zM401 454v46h166v-500h-166v46q-51 -60 -142 -60q-101 0 -168 75q-67 76 -67 189q0 114 67 188q67 76 168 76q91 0 142 -60zM220 171q28 -30 76 -30t76 30q29 31 29 79t-29 79q-28 30 -76 30t-76 -30q-29 -31 -29 -79t29 -79z" />
    <glyph glyph-name="acircumflex" unicode="&#xe2;" horiz-adv-x="615" 
d="M342 545l-39 56l-40 -56h-150l106 155h167l106 -155h-150zM401 454v46h166v-500h-166v46q-51 -60 -142 -60q-101 0 -168 75q-67 76 -67 189q0 114 67 188q67 76 168 76q91 0 142 -60zM220 171q28 -30 76 -30t76 30q29 31 29 79t-29 79q-28 30 -76 30t-76 -30
q-29 -31 -29 -79t29 -79z" />
    <glyph glyph-name="atilde" unicode="&#xe3;" horiz-adv-x="615" 
d="M296 568q-24 17 -36 13.5t-12 -33.5h-120q0 49 11.5 84t30.5 52.5t44 24t51 1.5t53 -19q24 -17 36.5 -13.5t12.5 32.5h120q0 -61 -17 -100t-45.5 -52t-61 -10.5t-67.5 20.5zM401 454v46h166v-500h-166v46q-51 -60 -142 -60q-101 0 -168 75q-67 76 -67 189q0 114 67 188
q67 76 168 76q91 0 142 -60zM220 171q28 -30 76 -30t76 30q29 31 29 79t-29 79q-28 30 -76 30t-76 -30q-29 -31 -29 -79t29 -79z" />
    <glyph glyph-name="adieresis" unicode="&#xe4;" horiz-adv-x="615" 
d="M210 535q-33 0 -56.5 23.5t-23.5 56.5t23.5 56.5t56.5 23.5q32 0 55.5 -23.5t23.5 -56.5t-23.5 -56.5t-55.5 -23.5zM404 535q-32 0 -55.5 23.5t-23.5 56.5t23.5 56.5t55.5 23.5q33 0 56.5 -23.5t23.5 -56.5t-23.5 -56.5t-56.5 -23.5zM401 454v46h166v-500h-166v46
q-51 -60 -142 -60q-101 0 -168 75q-67 76 -67 189q0 114 67 188q67 76 168 76q91 0 142 -60zM220 171q28 -30 76 -30t76 30q29 31 29 79t-29 79q-28 30 -76 30t-76 -30q-29 -31 -29 -79t29 -79z" />
    <glyph glyph-name="aring" unicode="&#xe5;" horiz-adv-x="615" 
d="M307 533q-61 0 -100.5 37.5t-39.5 94.5t39.5 94.5t100.5 37.5q63 0 102 -37.5t39 -94.5q0 -58 -39 -95t-102 -37zM307 697q-20 0 -28.5 -16t0 -32t28.5 -16q34 0 34 32t-34 32zM401 454v46h166v-500h-166v46q-51 -60 -142 -60q-101 0 -168 75q-67 76 -67 189
q0 114 67 188q67 76 168 76q91 0 142 -60zM220 171q28 -30 76 -30t76 30q29 31 29 79t-29 79q-28 30 -76 30t-76 -30q-29 -31 -29 -79t29 -79z" />
    <glyph glyph-name="ae" unicode="&#xe6;" horiz-adv-x="948" 
d="M918 189h-344q28 -66 113 -66q59 0 94 38l118 -80q-74 -95 -192 -95q-95 0 -155 63v-49h-151v41q-49 -55 -138 -55q-100 0 -170 76q-69 76 -69 188t69 188q70 76 170 76q89 0 138 -55v41h151v-46q57 60 146 60q101 0 164 -75q63 -74 63 -188q0 -35 -7 -62zM571 305h193
q-20 69 -94 69q-76 0 -99 -69zM220 172q29 -29 76 -29t76 29q29 31 29 78q0 48 -29 77q-28 30 -76 30t-76 -30q-29 -29 -29 -77q0 -47 29 -78z" />
    <glyph glyph-name="ccedilla" unicode="&#xe7;" horiz-adv-x="528" 
d="M289 148q61 0 87 50l142 -82q-49 -91 -155 -120v-42q24 -8 41 -27.5t17 -49.5q0 -111 -234 -98v109q95 -8 95 14q0 15 -53 20v70q-90 19 -148 91q-57 72 -57 167q0 112 76 188t190 76q74 0 134.5 -34.5t93.5 -94.5l-142 -82q-27 49 -87 49q-42 0 -70 -28.5t-28 -73.5
t28 -73.5t70 -28.5z" />
    <glyph glyph-name="egrave" unicode="&#xe8;" horiz-adv-x="571" 
d="M305 707l80 -145h-158l-116 145h194zM541 189h-345q25 -61 112 -61q53 0 91 35l120 -84q-73 -93 -215 -93q-127 0 -204 74q-76 75 -76 189q0 113 75 189t191 76q112 0 185 -75q73 -74 73 -188q0 -35 -7 -62zM194 304h192q-19 70 -94 70q-77 0 -98 -70z" />
    <glyph glyph-name="eacute" unicode="&#xe9;" horiz-adv-x="571" 
d="M271 707h194l-116 -145h-158zM541 189h-345q25 -61 112 -61q53 0 91 35l120 -84q-73 -93 -215 -93q-127 0 -204 74q-76 75 -76 189q0 113 75 189t191 76q112 0 185 -75q73 -74 73 -188q0 -35 -7 -62zM194 304h192q-19 70 -94 70q-77 0 -98 -70z" />
    <glyph glyph-name="ecircumflex" unicode="&#xea;" horiz-adv-x="571" 
d="M325 552l-39 56l-40 -56h-150l106 155h167l106 -155h-150zM541 189h-345q25 -61 112 -61q53 0 91 35l120 -84q-73 -93 -215 -93q-127 0 -204 74q-76 75 -76 189q0 113 75 189t191 76q112 0 185 -75q73 -74 73 -188q0 -35 -7 -62zM194 304h192q-19 70 -94 70
q-77 0 -98 -70z" />
    <glyph glyph-name="edieresis" unicode="&#xeb;" horiz-adv-x="571" 
d="M193 542q-33 0 -56.5 23.5t-23.5 56.5t23.5 56.5t56.5 23.5q32 0 55.5 -23.5t23.5 -56.5t-23.5 -56.5t-55.5 -23.5zM387 542q-32 0 -55.5 23.5t-23.5 56.5t23.5 56.5t55.5 23.5q33 0 56.5 -23.5t23.5 -56.5t-23.5 -56.5t-56.5 -23.5zM541 189h-345q25 -61 112 -61
q53 0 91 35l120 -84q-73 -93 -215 -93q-127 0 -204 74q-76 75 -76 189q0 113 75 189t191 76q112 0 185 -75q73 -74 73 -188q0 -35 -7 -62zM194 304h192q-19 70 -94 70q-77 0 -98 -70z" />
    <glyph glyph-name="igrave" unicode="&#xec;" horiz-adv-x="262" 
d="M209 550h-158l-70 150h188zM214 0v500h-166v-500h166z" />
    <glyph glyph-name="iacute" unicode="&#xed;" horiz-adv-x="262" 
d="M48 550l40 150h189l-71 -150h-158zM48 0h166v500h-166v-500z" />
    <glyph glyph-name="icircumflex" unicode="&#xee;" horiz-adv-x="262" 
d="M161 545l-30 49l-30 -49h-145l92 155h166l92 -155h-145zM214 0h-166v500h166v-500z" />
    <glyph glyph-name="idieresis" unicode="&#xef;" horiz-adv-x="262" 
d="M95 565q-23 -22 -54 -22t-54 22q-23 23 -23 55t23 54q23 23 54 23t54 -23q23 -22 23 -54t-23 -55zM275 565q-23 -22 -54 -22t-54 22q-23 23 -23 55t23 54q23 23 54 23t54 -23q23 -22 23 -54t-23 -55zM214 0h-166v500h166v-500z" />
    <glyph glyph-name="eth" unicode="&#xf0;" horiz-adv-x="564" 
d="M346 569l148 -199q46 -62 46 -140q0 -110 -76 -177t-182 -67q-108 0 -183 66q-75 67 -75 178q0 87 59 152q60 66 148 75l-38 53l-127 -50v118l61 24l-70 98h191l29 -39l130 51v-119zM373 228q0 30 -16 52q-25 34 -75 34q-41 0 -66 -23t-25 -63q0 -42 24.5 -66t66.5 -24
t66.5 24t24.5 66z" />
    <glyph glyph-name="ntilde" unicode="&#xf1;" horiz-adv-x="579" 
d="M287 578q-24 17 -36 13.5t-12 -33.5h-120q0 49 11.5 84t30.5 52.5t44 24t51 1.5t53 -19q24 -17 36.5 -13.5t12.5 32.5h120q0 -61 -17 -100t-45.5 -52t-61 -10.5t-67.5 20.5zM353 514q83 0 133.5 -56.5t50.5 -158.5v-299h-166v278q0 38 -20 58.5t-55 20.5
q-39 0 -60.5 -23.5t-21.5 -67.5v-266h-166v500h166v-50q45 64 139 64z" />
    <glyph glyph-name="ograve" unicode="&#xf2;" horiz-adv-x="583" 
d="M386 565h-158l-116 145h194zM291 -14q113 0 189 76q78 76 78 188q0 110 -78 187q-77 77 -189 77q-110 0 -189 -77q-78 -77 -78 -187q0 -112 78 -188q77 -76 189 -76zM291 146q-43 0 -71.5 29.5t-28.5 74.5t28.5 74.5t71.5 29.5q44 0 72.5 -29t28.5 -75t-28.5 -75
t-72.5 -29z" />
    <glyph glyph-name="oacute" unicode="&#xf3;" horiz-adv-x="583" 
d="M192 565l80 145h194l-116 -145h-158zM291 -14q113 0 189 76q78 76 78 188q0 110 -78 187q-77 77 -189 77q-110 0 -189 -77q-78 -77 -78 -187q0 -112 78 -188q77 -76 189 -76zM291 146q-43 0 -71.5 29.5t-28.5 74.5t28.5 74.5t71.5 29.5q44 0 72.5 -29t28.5 -75t-28.5 -75
t-72.5 -29z" />
    <glyph glyph-name="ocircumflex" unicode="&#xf4;" horiz-adv-x="583" 
d="M326 555l-39 56l-40 -56h-150l106 155h167l106 -155h-150zM291 514q112 0 189 -77q78 -77 78 -187q0 -112 -78 -188q-76 -76 -189 -76q-112 0 -189 76q-78 76 -78 188q0 110 78 187q79 77 189 77zM291 146q44 0 72.5 29t28.5 75t-28.5 75t-72.5 29q-43 0 -71.5 -29.5
t-28.5 -74.5t28.5 -74.5t71.5 -29.5z" />
    <glyph glyph-name="otilde" unicode="&#xf5;" horiz-adv-x="583" 
d="M232 558h-120q0 49 11.5 84t30.5 52.5t44 24t51 1.5t53 -19q24 -17 36.5 -13.5t12.5 32.5h120q0 -61 -17 -100t-45.5 -52t-61 -10.5t-67.5 20.5q-24 17 -36 13.5t-12 -33.5zM291 -14q-112 0 -189 76q-78 76 -78 188q0 110 78 187q79 77 189 77q112 0 189 -77
q78 -77 78 -187q0 -112 -78 -188q-76 -76 -189 -76zM291 146q44 0 72.5 29t28.5 75t-28.5 75t-72.5 29q-43 0 -71.5 -29.5t-28.5 -74.5t28.5 -74.5t71.5 -29.5z" />
    <glyph glyph-name="odieresis" unicode="&#xf6;" horiz-adv-x="583" 
d="M194 545q-33 0 -56.5 23.5t-23.5 56.5t23.5 56.5t56.5 23.5q32 0 55.5 -23.5t23.5 -56.5t-23.5 -56.5t-55.5 -23.5zM388 545q-32 0 -55.5 23.5t-23.5 56.5t23.5 56.5t55.5 23.5q33 0 56.5 -23.5t23.5 -56.5t-23.5 -56.5t-56.5 -23.5zM291 -14q-112 0 -189 76
q-78 76 -78 188q0 110 78 187q79 77 189 77q112 0 189 -77q78 -77 78 -187q0 -112 -78 -188q-76 -76 -189 -76zM291 146q44 0 72.5 29t28.5 75t-28.5 75t-72.5 29q-43 0 -71.5 -29.5t-28.5 -74.5t28.5 -74.5t71.5 -29.5z" />
    <glyph glyph-name="divide" unicode="&#xf7;" horiz-adv-x="551" 
d="M275 459q-40 0 -67 27.5t-27 67.5t27 67.5t67 27.5q41 0 68 -27.5t27 -67.5t-27 -67.5t-68 -27.5zM515 271h-480v158h480v-158zM275 51q-40 0 -67 27.5t-27 67.5t27 67.5t67 27.5q41 0 68 -27.5t27 -67.5t-27 -67.5t-68 -27.5z" />
    <glyph glyph-name="oslash" unicode="&#xf8;" horiz-adv-x="583" 
d="M523 477l-37 -45q72 -75 72 -182q0 -112 -78 -188q-76 -76 -189 -76q-75 0 -140 39l-30 -37l-61 34l37 45q-73 76 -73 183q0 110 78 187q79 77 189 77q77 0 141 -39l30 37zM191 250q0 -30 12 -53l124 151q-17 6 -36 6q-43 0 -71.5 -29.5t-28.5 -74.5zM291 146
q44 0 72.5 29t28.5 75q0 30 -12 53l-124 -151q16 -6 35 -6z" />
    <glyph glyph-name="ugrave" unicode="&#xf9;" horiz-adv-x="579" 
d="M302 700l80 -145h-158l-116 145h194zM365 234v266h166v-500h-166v50q-45 -64 -139 -64q-83 0 -133.5 56.5t-50.5 158.5v299h166v-278q0 -38 20 -58.5t55 -20.5q39 0 60.5 23.5t21.5 67.5z" />
    <glyph glyph-name="uacute" unicode="&#xfa;" horiz-adv-x="579" 
d="M268 700h194l-116 -145h-158zM365 234v266h166v-500h-166v50q-45 -64 -139 -64q-83 0 -133.5 56.5t-50.5 158.5v299h166v-278q0 -38 20 -58.5t55 -20.5q39 0 60.5 23.5t21.5 67.5z" />
    <glyph glyph-name="ucircumflex" unicode="&#xfb;" horiz-adv-x="579" 
d="M322 545l-39 56l-40 -56h-150l106 155h167l106 -155h-150zM365 234v266h166v-500h-166v50q-45 -64 -139 -64q-83 0 -133.5 56.5t-50.5 158.5v299h166v-278q0 -38 20 -58.5t55 -20.5q39 0 60.5 23.5t21.5 67.5z" />
    <glyph glyph-name="udieresis" unicode="&#xfc;" horiz-adv-x="579" 
d="M190 535q-33 0 -56.5 23.5t-23.5 56.5t23.5 56.5t56.5 23.5q32 0 55.5 -23.5t23.5 -56.5t-23.5 -56.5t-55.5 -23.5zM384 535q-32 0 -55.5 23.5t-23.5 56.5t23.5 56.5t55.5 23.5q33 0 56.5 -23.5t23.5 -56.5t-23.5 -56.5t-56.5 -23.5zM365 234v266h166v-500h-166v50
q-45 -64 -139 -64q-83 0 -133.5 56.5t-50.5 158.5v299h166v-278q0 -38 20 -58.5t55 -20.5q39 0 60.5 23.5t21.5 67.5z" />
    <glyph glyph-name="yacute" unicode="&#xfd;" horiz-adv-x="549" 
d="M259 700h194l-116 -145h-158zM287 210l78 290h184l-171 -492q-40 -113 -113 -163t-189 -45v156q53 0 80 13t44 47l-200 484h186z" />
    <glyph glyph-name="thorn" unicode="&#xfe;" horiz-adv-x="615" 
d="M356 514q100 0 167 -76q68 -76 68 -188t-68 -189q-68 -75 -167 -75q-91 0 -142 60v-246h-166v900h166v-246q51 60 142 60zM243 171q29 -30 76 -30t76 30q29 31 29 79t-29 79q-29 30 -76 30t-76 -30q-29 -31 -29 -79t29 -79z" />
    <glyph glyph-name="ydieresis" unicode="&#xff;" horiz-adv-x="549" 
d="M181 535q-33 0 -56.5 23.5t-23.5 56.5t23.5 56.5t56.5 23.5q32 0 55.5 -23.5t23.5 -56.5t-23.5 -56.5t-55.5 -23.5zM375 535q-32 0 -55.5 23.5t-23.5 56.5t23.5 56.5t55.5 23.5q33 0 56.5 -23.5t23.5 -56.5t-23.5 -56.5t-56.5 -23.5zM287 210l78 290h184l-171 -492
q-40 -113 -113 -163t-189 -45v156q53 0 80 13t44 47l-200 484h186z" />
    <glyph glyph-name="Amacron" unicode="&#x100;" horiz-adv-x="671" 
d="M180 884h309v-130h-309v130zM675 0h-193l-30 101h-233l-30 -101h-194l231 700h218zM335 493l-70 -238h141z" />
    <glyph glyph-name="amacron" unicode="&#x101;" horiz-adv-x="615" 
d="M152 684h309v-130h-309v130zM401 454v46h166v-500h-166v46q-51 -60 -142 -60q-101 0 -168 75q-67 76 -67 189q0 114 67 188q67 76 168 76q91 0 142 -60zM220 171q28 -30 76 -30t76 30q29 31 29 79t-29 79q-28 30 -76 30t-76 -30q-29 -31 -29 -79t29 -79z" />
    <glyph glyph-name="Abreve" unicode="&#x102;" horiz-adv-x="671" 
d="M156 897h140q0 -44 39 -44q40 0 40 44h140q0 -78 -46.5 -119t-133.5 -41t-133 41t-46 119zM675 0h-193l-30 101h-233l-30 -101h-194l231 700h218zM335 493l-70 -238h141z" />
    <glyph glyph-name="abreve" unicode="&#x103;" horiz-adv-x="615" 
d="M128 697h140q0 -44 39 -44q40 0 40 44h140q0 -78 -46.5 -119t-133.5 -41t-133 41t-46 119zM401 454v46h166v-500h-166v46q-51 -60 -142 -60q-101 0 -168 75q-67 76 -67 189q0 114 67 188q67 76 168 76q91 0 142 -60zM220 171q28 -30 76 -30t76 30q29 31 29 79t-29 79
q-28 30 -76 30t-76 -30q-29 -31 -29 -79t29 -79z" />
    <glyph glyph-name="Aogonek" unicode="&#x104;" horiz-adv-x="671" 
d="M654 -101q8 -1 21 3v-99q-32 -13 -66.5 -16t-63 5t-46.5 30t-16 55q0 59 61 123h-62l-30 101h-233l-30 -101h-194l231 700h218l231 -700q-42 -46 -42 -78q-2 -23 21 -23zM335 493l-70 -238h141z" />
    <glyph glyph-name="aogonek" unicode="&#x105;" horiz-adv-x="615" 
d="M401 500h166v-500q-43 -47 -43 -78q0 -23 22 -23q4 -1 21 3v-99q-31 -13 -65.5 -16t-64 5t-47.5 30t-16 55q0 58 62 123h-35v46q-51 -60 -142 -60q-101 0 -168 75q-67 76 -67 189q0 114 67 188q67 76 168 76q91 0 142 -60v46zM220 171q28 -30 76 -30t76 30q29 31 29 79
t-29 79q-28 30 -76 30t-76 -30q-29 -31 -29 -79t29 -79z" />
    <glyph glyph-name="Cacute" unicode="&#x106;" horiz-adv-x="719" 
d="M294 765l80 145h194l-116 -145h-158zM393 -15q96 0 176.5 44.5t126.5 121.5l-155 90q-20 -38 -59.5 -59.5t-88.5 -21.5q-84 0 -136 52q-51 52 -51 138q0 84 51 137q53 53 136 53q49 0 88.5 -21.5t59.5 -58.5l155 89q-46 76 -127 121t-176 45q-159 0 -262 -105
q-103 -103 -103 -260t103 -261q104 -104 262 -104z" />
    <glyph glyph-name="cacute" unicode="&#x107;" horiz-adv-x="528" 
d="M192 560l80 145h194l-116 -145h-158zM290 -14q74 0 134.5 35t93.5 95l-142 82q-26 -50 -87 -50q-42 0 -70 28.5t-28 73.5t28 73.5t70 28.5q60 0 87 -49l142 82q-33 60 -93.5 94.5t-134.5 34.5q-114 0 -190 -76t-76 -188t76 -188t190 -76z" />
    <glyph glyph-name="Cdotaccent" unicode="&#x10a;" horiz-adv-x="719" 
d="M393 753q-37 0 -63.5 26.5t-26.5 62.5q0 37 26.5 63.5t63.5 26.5q36 0 62.5 -26.5t26.5 -63.5q0 -36 -26.5 -62.5t-62.5 -26.5zM393 -15q-158 0 -262 104q-103 104 -103 261t103 260q103 105 262 105q95 0 176 -45t127 -121l-155 -89q-20 37 -59.5 58.5t-88.5 21.5
q-83 0 -136 -53q-51 -53 -51 -137q0 -86 51 -138q52 -52 136 -52q49 0 88.5 21.5t59.5 59.5l155 -90q-46 -77 -126.5 -121.5t-176.5 -44.5z" />
    <glyph glyph-name="cdotaccent" unicode="&#x10b;" horiz-adv-x="528" 
d="M291 548q-37 0 -63.5 26.5t-26.5 62.5q0 37 26.5 63.5t63.5 26.5q36 0 62.5 -26.5t26.5 -63.5q0 -36 -26.5 -62.5t-62.5 -26.5zM290 -14q-114 0 -190 76t-76 188t76 188t190 76q74 0 134.5 -34.5t93.5 -94.5l-142 -82q-27 49 -87 49q-42 0 -70 -28.5t-28 -73.5t28 -73.5
t70 -28.5q61 0 87 50l142 -82q-33 -60 -93.5 -95t-134.5 -35z" />
    <glyph glyph-name="Ccaron" unicode="&#x10c;" horiz-adv-x="719" 
d="M472 755h-167l-106 155h150l40 -56l39 56h150zM393 160q49 0 88.5 21.5t59.5 59.5l155 -90q-46 -77 -126.5 -121.5t-176.5 -44.5q-158 0 -262 104q-103 104 -103 261t103 260q103 105 262 105q95 0 176 -45t127 -121l-155 -89q-20 37 -59.5 58.5t-88.5 21.5
q-83 0 -136 -53q-51 -53 -51 -137q0 -86 51 -138q52 -52 136 -52z" />
    <glyph glyph-name="ccaron" unicode="&#x10d;" horiz-adv-x="528" 
d="M370 550h-167l-106 155h150l40 -56l39 56h150zM289 148q61 0 87 50l142 -82q-33 -60 -93.5 -95t-134.5 -35q-114 0 -190 76t-76 188t76 188t190 76q74 0 134.5 -34.5t93.5 -94.5l-142 -82q-27 49 -87 49q-42 0 -70 -28.5t-28 -73.5t28 -73.5t70 -28.5z" />
    <glyph glyph-name="Dcaron" unicode="&#x10e;" horiz-adv-x="708" 
d="M409 745h-167l-106 155h150l40 -56l39 56h150zM55 700h285q144 0 242 -101t98 -249q0 -149 -98 -250q-97 -100 -242 -100h-285v700zM239 173h101q72 0 119 48q46 49 46 129q0 81 -46 128q-46 49 -119 49h-101v-354z" />
    <glyph glyph-name="dcaron" unicode="&#x10f;" horiz-adv-x="755" 
d="M401 454v246h166v-700h-166v46q-51 -60 -142 -60q-101 0 -168 75q-67 76 -67 189q0 114 67 188q67 76 168 76q91 0 142 -60zM606 481l10 219h154l-35 -219h-129zM220 171q28 -30 76 -30t76 30q29 31 29 79t-29 79q-28 30 -76 30t-76 -30q-29 -31 -29 -79t29 -79z" />
    <glyph glyph-name="Dcroat" unicode="&#x110;" horiz-adv-x="738" 
d="M86 700h285q144 0 242 -101t98 -249q0 -149 -98 -250q-97 -100 -242 -100h-285v263h-76v158h76v279zM270 173h101q73 0 119 48q46 49 46 129q0 81 -46 128q-46 49 -119 49h-101v-106h130v-158h-130v-90z" />
    <glyph glyph-name="dslash" unicode="&#x111;" horiz-adv-x="625" 
d="M567 642h58v-105h-58v-537h-166v41q-49 -55 -138 -55q-99 0 -170 75q-69 75 -69 184t69 184q70 76 170 76q89 0 138 -55v87h-136v105h136v58h166v-58zM220 168q31 -29 76 -29q46 0 75 29q30 30 30 77t-30 77q-29 30 -75 30t-76 -30q-29 -31 -29 -77t29 -77z" />
    <glyph glyph-name="Emacron" unicode="&#x112;" horiz-adv-x="535" 
d="M123 884h309v-130h-309v130zM234 271v-103h271v-168h-450v700h445v-167h-266v-97h241v-165h-241z" />
    <glyph glyph-name="emacron" unicode="&#x113;" horiz-adv-x="571" 
d="M135 691h309v-130h-309v130zM541 189h-345q25 -61 112 -61q53 0 91 35l120 -84q-73 -93 -215 -93q-127 0 -204 74q-76 75 -76 189q0 113 75 189t191 76q112 0 185 -75q73 -74 73 -188q0 -35 -7 -62zM194 304h192q-19 70 -94 70q-77 0 -98 -70z" />
    <glyph glyph-name="Edotaccent" unicode="&#x116;" horiz-adv-x="535" 
d="M278 743q-37 0 -63.5 26.5t-26.5 62.5q0 37 26.5 63.5t63.5 26.5q36 0 62.5 -26.5t26.5 -63.5q0 -36 -26.5 -62.5t-62.5 -26.5zM234 271v-103h271v-168h-450v700h445v-167h-266v-97h241v-165h-241z" />
    <glyph glyph-name="edotaccent" unicode="&#x117;" horiz-adv-x="571" 
d="M290 550q-37 0 -63.5 26.5t-26.5 62.5q0 37 26.5 63.5t63.5 26.5q36 0 62.5 -26.5t26.5 -63.5q0 -36 -26.5 -62.5t-62.5 -26.5zM541 189h-345q25 -61 112 -61q53 0 91 35l120 -84q-73 -93 -215 -93q-127 0 -204 74q-76 75 -76 189q0 113 75 189t191 76q112 0 185 -75
q73 -74 73 -188q0 -35 -7 -62zM194 304h192q-19 70 -94 70q-77 0 -98 -70z" />
    <glyph glyph-name="Eogonek" unicode="&#x118;" horiz-adv-x="535" 
d="M505 168v-168q-43 -46 -43 -78q-2 -23 22 -23q4 -1 21 3v-99q-31 -13 -65.5 -16t-64 5t-47.5 30t-16 55q0 58 62 123h-319v700h445v-167h-266v-97h241v-165h-241v-103h271z" />
    <glyph glyph-name="eogonek" unicode="&#x119;" horiz-adv-x="571" 
d="M541 189h-345q25 -61 112 -61q53 0 91 35l120 -84q-16 -20 -32 -33q-70 -86 -70 -124q0 -23 22 -23q5 -1 21 3v-99q-31 -13 -65.5 -16t-64 5t-47.5 30t-16 55q0 56 70 110q-7 -1 -33 -1q-127 0 -204 74q-76 75 -76 189q0 113 75 189t191 76q112 0 185 -75q73 -74 73 -188
q0 -35 -7 -62zM194 304h192q-19 70 -94 70q-77 0 -98 -70z" />
    <glyph glyph-name="Ecaron" unicode="&#x11a;" horiz-adv-x="535" 
d="M357 745h-167l-106 155h150l40 -56l39 56h150zM234 271v-103h271v-168h-450v700h445v-167h-266v-97h241v-165h-241z" />
    <glyph glyph-name="ecaron" unicode="&#x11b;" horiz-adv-x="571" 
d="M369 552h-167l-106 155h150l40 -56l39 56h150zM541 189h-345q25 -61 112 -61q53 0 91 35l120 -84q-73 -93 -215 -93q-127 0 -204 74q-76 75 -76 189q0 113 75 189t191 76q112 0 185 -75q73 -74 73 -188q0 -35 -7 -62zM194 304h192q-19 70 -94 70q-77 0 -98 -70z" />
    <glyph glyph-name="Gbreve" unicode="&#x11e;" horiz-adv-x="778" 
d="M216 907h140q0 -44 39 -44q40 0 40 44h140q0 -78 -46.5 -119t-133.5 -41t-133 41t-46 119zM397 401h353v-71q0 -154 -97 -250q-97 -95 -250 -95q-163 0 -270 105q-105 105 -105 259q0 153 105 260q105 106 260 106q97 0 179 -44q81 -43 128 -117l-152 -87q-21 33 -62 53
t-91 20q-83 0 -136 -54q-53 -55 -53 -138q0 -82 52 -137q53 -56 148 -56q122 0 161 92h-170v154z" />
    <glyph glyph-name="gbreve" unicode="&#x11f;" horiz-adv-x="618" 
d="M300 547q-86 0 -132.5 41t-46.5 119h140q0 -44 39 -44q40 0 40 44h140q0 -78 -46.5 -119t-133.5 -41zM406 452v48h164v-480q0 -116 -77 -175.5t-186 -59.5q-84 0 -148.5 31.5t-97.5 90.5l138 80q36 -57 106 -57q46 0 73.5 23.5t27.5 66.5v48q-51 -62 -140 -62
q-103 0 -171 74q-67 73 -67 180t67 180q68 74 171 74q89 0 140 -62zM223 185q31 -29 77 -29q47 0 76 29q30 30 30 75q0 46 -30 74q-28 30 -76 30q-47 0 -77 -30q-29 -29 -29 -74q0 -44 29 -75z" />
    <glyph glyph-name="Gdotaccent" unicode="&#x120;" horiz-adv-x="778" 
d="M395 753q-37 0 -63.5 26.5t-26.5 62.5q0 37 26.5 63.5t63.5 26.5q36 0 62.5 -26.5t26.5 -63.5q0 -36 -26.5 -62.5t-62.5 -26.5zM397 401h353v-71q0 -154 -97 -250q-97 -95 -250 -95q-163 0 -270 105q-105 105 -105 259q0 153 105 260q105 106 260 106q97 0 179 -44
q81 -43 128 -117l-152 -87q-21 33 -62 53t-91 20q-83 0 -136 -54q-53 -55 -53 -138q0 -82 52 -137q53 -56 148 -56q122 0 161 92h-170v154z" />
    <glyph glyph-name="gdotaccent" unicode="&#x121;" horiz-adv-x="618" 
d="M300 553q-37 0 -63.5 26.5t-26.5 62.5q0 37 26.5 63.5t63.5 26.5q36 0 62.5 -26.5t26.5 -63.5q0 -36 -26.5 -62.5t-62.5 -26.5zM406 452v48h164v-480q0 -116 -77 -175.5t-186 -59.5q-84 0 -148.5 31.5t-97.5 90.5l138 80q36 -57 106 -57q46 0 73.5 23.5t27.5 66.5v48
q-51 -62 -140 -62q-103 0 -171 74q-67 73 -67 180t67 180q68 74 171 74q89 0 140 -62zM223 185q31 -29 77 -29q47 0 76 29q30 30 30 75q0 46 -30 74q-28 30 -76 30q-47 0 -77 -30q-29 -29 -29 -74q0 -44 29 -75z" />
    <glyph glyph-name="Gcommaaccent" unicode="&#x122;" horiz-adv-x="778" 
d="M397 401h353v-71q0 -154 -97 -250q-97 -95 -250 -95q-163 0 -270 105q-105 105 -105 259q0 153 105 260q105 106 260 106q97 0 179 -44q81 -43 128 -117l-152 -87q-21 33 -62 53t-91 20q-83 0 -136 -54q-53 -55 -53 -138q0 -82 52 -137q53 -56 148 -56q122 0 161 92h-170
v154zM448 -277h-129l10 220h154z" />
    <glyph glyph-name="gcommaaccent" unicode="&#x123;" horiz-adv-x="618" 
d="M246 795h129l-10 -220h-154zM406 452v48h164v-480q0 -116 -77 -175.5t-186 -59.5q-84 0 -148.5 31.5t-97.5 90.5l138 80q36 -57 106 -57q46 0 73.5 23.5t27.5 66.5v48q-51 -62 -140 -62q-103 0 -171 74q-67 73 -67 180t67 180q68 74 171 74q89 0 140 -62zM223 185
q31 -29 77 -29q47 0 76 29q30 30 30 75q0 46 -30 74q-28 30 -76 30q-47 0 -77 -30q-29 -29 -29 -74q0 -44 29 -75z" />
    <glyph glyph-name="Hbar" unicode="&#x126;" horiz-adv-x="705" 
d="M629 608h60v-130h-60v-478h-178v220h-197v-220h-179v478h-60v130h60v92h179v-92h197v92h178v-92zM254 393h197v85h-197v-85z" />
    <glyph glyph-name="hbar" unicode="&#x127;" 
d="M363 502q82 0 133 -56.5t51 -158.5v-287h-166v266q0 38 -20.5 59t-55.5 21q-39 0 -60 -23.5t-21 -68.5v-254h-166v537h-58v105h58v58h166v-58h135v-105h-135v-98q44 63 139 63z" />
    <glyph glyph-name="Imacron" unicode="&#x12a;" horiz-adv-x="289" 
d="M299 754h-309v130h309v-130zM55 0v700h179v-700h-179z" />
    <glyph glyph-name="imacron" unicode="&#x12b;" horiz-adv-x="262" 
d="M261 554h-259v135h259v-135zM214 0h-166v500h166v-500z" />
    <glyph glyph-name="Iogonek" unicode="&#x12e;" horiz-adv-x="289" 
d="M221 -101q5 -1 21 3v-99q-31 -13 -65.5 -16t-64 5t-47.5 30t-16 55q0 59 54 123h-48v700h179v-700q-35 -46 -35 -78q0 -23 22 -23z" />
    <glyph glyph-name="iogonek" unicode="&#x12f;" horiz-adv-x="262" 
d="M198 569q-28 -28 -67 -28t-68 28q-28 29 -28 68t28 67q29 28 68 28t67 -28q29 -28 29 -67t-29 -68zM204 -101q4 -1 21 3v-99q-31 -13 -65.5 -16t-64 5t-47.5 30t-16 55q0 59 44 123h-28v500h166v-500q-32 -47 -32 -78q0 -23 22 -23z" />
    <glyph glyph-name="Idot" unicode="&#x130;" horiz-adv-x="289" 
d="M145 743q-37 0 -63.5 26.5t-26.5 62.5q0 37 26.5 63.5t63.5 26.5q36 0 62.5 -26.5t26.5 -63.5q0 -36 -26.5 -62.5t-62.5 -26.5zM55 0v700h179v-700h-179z" />
    <glyph glyph-name="dotlessi" unicode="&#x131;" horiz-adv-x="262" 
d="M214 0h-166v500h166v-500z" />
    <glyph glyph-name="Kcommaaccent" unicode="&#x136;" horiz-adv-x="631" 
d="M625 700l-222 -340l232 -360h-200l-201 313v-313h-179v700h179v-294l191 294h200zM360 -277h-129l10 220h154z" />
    <glyph glyph-name="kcommaaccent" unicode="&#x137;" horiz-adv-x="542" 
d="M356 0l-142 213v-213h-166v700h166v-409l129 209h192l-168 -250l175 -250h-186zM333 -277h-129l10 220h154z" />
    <glyph glyph-name="Lacute" unicode="&#x139;" horiz-adv-x="485" 
d="M133 900h194l-116 -145h-158zM234 700v-527h241v-173h-420v700h179z" />
    <glyph glyph-name="lacute" unicode="&#x13a;" horiz-adv-x="262" 
d="M47 760l80 145h194l-116 -145h-158zM48 0h166v730h-166v-730z" />
    <glyph glyph-name="Lcommaaccent" unicode="&#x13b;" horiz-adv-x="485" 
d="M234 700v-527h241v-173h-420v700h179zM316 -277h-129l10 220h154z" />
    <glyph glyph-name="lcommaaccent" unicode="&#x13c;" horiz-adv-x="262" 
d="M214 0h-166v730h166v-730zM174 -277h-129l10 220h154z" />
    <glyph glyph-name="Lcaron" unicode="&#x13d;" horiz-adv-x="485" 
d="M234 700v-527h241v-173h-420v700h179zM290 700h164l-34 -199h-140z" />
    <glyph glyph-name="lcaron" unicode="&#x13e;" horiz-adv-x="400" 
d="M214 0h-166v730h166v-730zM380 511h-130l10 219h154z" />
    <glyph glyph-name="Lslash" unicode="&#x141;" horiz-adv-x="505" 
d="M254 301v-128h241v-173h-420v198l-60 -35v177l60 35v325h179v-222l120 70v-177z" />
    <glyph glyph-name="lslash" unicode="&#x142;" horiz-adv-x="279" 
d="M223 475l51 32v-157l-51 -32v-318h-166v212l-52 -33v157l52 33v361h166v-255z" />
    <glyph glyph-name="Nacute" unicode="&#x143;" horiz-adv-x="675" 
d="M226 755l80 145h194l-116 -145h-158zM441 700v-352l-247 352h-139v-700h179v352l247 -352h138v700h-178z" />
    <glyph glyph-name="nacute" unicode="&#x144;" horiz-adv-x="579" 
d="M279 710h194l-116 -145h-158zM353 514q83 0 133.5 -56.5t50.5 -158.5v-299h-166v278q0 38 -20 58.5t-55 20.5q-39 0 -60.5 -23.5t-21.5 -67.5v-266h-166v500h166v-50q45 64 139 64z" />
    <glyph glyph-name="Ncommaaccent" unicode="&#x145;" horiz-adv-x="675" 
d="M441 348v352h178v-700h-138l-247 352v-352h-179v700h139zM393 -277h-129l10 220h154z" />
    <glyph glyph-name="ncommaaccent" unicode="&#x146;" horiz-adv-x="579" 
d="M353 514q83 0 133.5 -56.5t50.5 -158.5v-299h-166v278q0 38 -20 58.5t-55 20.5q-39 0 -60.5 -23.5t-21.5 -67.5v-266h-166v500h166v-50q45 64 139 64zM344 -277h-129l10 220h154z" />
    <glyph glyph-name="Ncaron" unicode="&#x147;" horiz-adv-x="675" 
d="M404 745h-167l-106 155h150l40 -56l39 56h150zM441 348v352h178v-700h-138l-247 352v-352h-179v700h139z" />
    <glyph glyph-name="ncaron" unicode="&#x148;" horiz-adv-x="579" 
d="M377 555h-167l-106 155h150l40 -56l39 56h150zM353 514q83 0 133.5 -56.5t50.5 -158.5v-299h-166v278q0 38 -20 58.5t-55 20.5q-39 0 -60.5 -23.5t-21.5 -67.5v-266h-166v500h166v-50q45 64 139 64z" />
    <glyph glyph-name="Eng" unicode="&#x14a;" horiz-adv-x="675" 
d="M441 348v352h178v-700q0 -222 -244 -207v154q73 -4 73 58v42l-214 305v-352h-179v700h139z" />
    <glyph glyph-name="eng" unicode="&#x14b;" horiz-adv-x="579" 
d="M353 514q83 0 133.5 -56.5t50.5 -158.5v-299q0 -226 -224 -209v150q30 -2 44 12t14 47v278q0 38 -20 58.5t-55 20.5q-39 0 -60.5 -23.5t-21.5 -67.5v-266h-166v500h166v-50q45 64 139 64z" />
    <glyph glyph-name="Omacron" unicode="&#x14c;" horiz-adv-x="790" 
d="M549 764h-309v130h309v-130zM655 90q-107 -105 -260 -105q-155 0 -261 105q-106 106 -106 260t106 259q106 106 261 106q154 0 260 -106q107 -105 107 -259q0 -153 -107 -260zM260 213q55 -53 135 -53t135 53q54 54 54 137q0 84 -54 136q-54 54 -135 54t-135 -54
q-54 -52 -54 -136q0 -83 54 -137z" />
    <glyph glyph-name="omacron" unicode="&#x14d;" horiz-adv-x="583" 
d="M445 564h-309v130h309v-130zM291 -14q-112 0 -189 76q-78 76 -78 188q0 110 78 187q79 77 189 77q112 0 189 -77q78 -77 78 -187q0 -112 -78 -188q-76 -76 -189 -76zM291 146q44 0 72.5 29t28.5 75t-28.5 75t-72.5 29q-43 0 -71.5 -29.5t-28.5 -74.5t28.5 -74.5
t71.5 -29.5z" />
    <glyph glyph-name="Ohungarumlaut" unicode="&#x150;" horiz-adv-x="790" 
d="M196 755l80 150h163l-86 -150h-157zM388 755l90 150h164l-96 -150h-158zM655 90q107 107 107 260q0 154 -107 259q-106 106 -260 106q-155 0 -261 -106q-106 -105 -106 -259t106 -260q106 -105 261 -105q153 0 260 105zM260 213q-54 54 -54 137q0 84 54 136q54 54 135 54
t135 -54q54 -53 54 -136t-54 -137q-55 -53 -135 -53t-135 53z" />
    <glyph glyph-name="ohungarumlaut" unicode="&#x151;" horiz-adv-x="583" 
d="M92 555l80 150h163l-86 -150h-157zM284 555l90 150h164l-96 -150h-158zM291 -14q113 0 189 76q78 76 78 188q0 110 -78 187q-77 77 -189 77q-110 0 -189 -77q-78 -77 -78 -187q0 -112 78 -188q77 -76 189 -76zM291 146q-43 0 -71.5 29.5t-28.5 74.5t28.5 74.5t71.5 29.5
q44 0 72.5 -29t28.5 -75t-28.5 -75t-72.5 -29z" />
    <glyph glyph-name="OE" unicode="&#x152;" horiz-adv-x="934" 
d="M674 271v-103h230v-168h-409q-51 -15 -105 -15q-153 0 -258 105q-104 107 -104 260t104 259q105 106 258 106q54 0 105 -15h404v-167h-225v-97h200v-165h-200zM495 178v344q-45 18 -105 18q-80 0 -133 -53q-51 -53 -51 -137t51 -137q53 -53 133 -53q60 0 105 18z" />
    <glyph glyph-name="oe" unicode="&#x153;" horiz-adv-x="937" 
d="M907 189h-345q25 -61 109 -61q56 0 94 35l120 -84q-73 -93 -215 -93q-127 0 -196 90q-66 -90 -190 -90q-112 0 -186 77q-74 79 -74 186q0 110 73 187q73 78 187 78q122 0 190 -89q71 89 195 89q106 0 175 -75q70 -74 70 -188q0 -35 -7 -62zM560 305h192q-20 69 -93 69
q-77 0 -99 -69zM291 146q44 0 72.5 29t28.5 75t-28.5 75t-72.5 29q-43 0 -71.5 -29.5t-28.5 -74.5t28.5 -74.5t71.5 -29.5z" />
    <glyph glyph-name="Racute" unicode="&#x154;" horiz-adv-x="620" 
d="M271 900h194l-116 -145h-158zM612 0h-192l-122 226h-64v-226h-179v700h280q107 0 179 -69q73 -67 73 -173q0 -62 -32 -115t-87 -84zM333 535h-99v-157h99q33 -1 54 21t21 57t-21 57t-54 22z" />
    <glyph glyph-name="racute" unicode="&#x155;" horiz-adv-x="379" 
d="M176 700h194l-116 -145h-158zM214 500v-93q14 48 55.5 75.5t94.5 27.5v-184q-57 9 -104 -21q-46 -30 -46 -98v-207h-166v500h166z" />
    <glyph glyph-name="Rcommaaccent" unicode="&#x156;" horiz-adv-x="620" 
d="M468 259l144 -259h-192l-122 226h-64v-226h-179v700h280q107 0 179 -69q73 -67 73 -173q0 -62 -32 -115t-87 -84zM333 535h-99v-157h99q33 -1 54 21t21 57t-21 57t-54 22zM371 -277h-129l10 220h154z" />
    <glyph glyph-name="rcommaaccent" unicode="&#x157;" horiz-adv-x="379" 
d="M214 500v-93q14 48 55.5 75.5t94.5 27.5v-184q-57 9 -104 -21q-46 -30 -46 -98v-207h-166v500h166zM173 -277h-129l10 220h154z" />
    <glyph glyph-name="Rcaron" unicode="&#x158;" horiz-adv-x="620" 
d="M369 745h-167l-106 155h150l40 -56l39 56h150zM612 0h-192l-122 226h-64v-226h-179v700h280q107 0 179 -69q73 -67 73 -173q0 -62 -32 -115t-87 -84zM333 535h-99v-157h99q33 -1 54 21t21 57t-21 57t-54 22z" />
    <glyph glyph-name="rcaron" unicode="&#x159;" horiz-adv-x="379" 
d="M274 545h-167l-106 155h150l40 -56l39 56h150zM214 500v-93q14 48 55.5 75.5t94.5 27.5v-184q-57 9 -104 -21q-46 -30 -46 -98v-207h-166v500h166z" />
    <glyph glyph-name="Sacute" unicode="&#x15a;" horiz-adv-x="585" 
d="M192 765l80 145h194l-116 -145h-158zM304 -15q120 0 193 58t73 161q0 105 -73 153q-35 24 -68 38q-29 12 -82 28q-71 21 -95.5 37t-24.5 39q0 21 17 33.5t48 12.5q76 0 109 -78l150 88q-36 77 -104 118.5t-156 41.5q-103 0 -174 -60q-69 -60 -69 -157q0 -86 53 -138
t155 -81q72 -21 88 -27q47 -20 47 -50q0 -47 -82 -47q-99 0 -138 93l-153 -89q30 -82 103.5 -128t182.5 -46z" />
    <glyph glyph-name="sacute" unicode="&#x15b;" horiz-adv-x="475" 
d="M216 710h194l-116 -145h-158zM207 354q0 -13 21.5 -21.5t65.5 -18.5q30 -6 55.5 -15.5t51 -27t40 -48t14.5 -69.5q0 -87 -64 -127q-65 -41 -152 -41q-168 0 -224 119l145 73q19 -55 78 -55q45 0 45 27q0 13 -20.5 21.5t-65.5 19.5q-30 6 -54.5 16.5t-50 27.5t-39.5 45.5
t-14 65.5q0 80 59 124t142 44q147 0 206 -116l-140 -63q-22 43 -62 43q-37 0 -37 -24z" />
    <glyph glyph-name="Scedilla" unicode="&#x15e;" horiz-adv-x="585" 
d="M570 204q0 -85 -51.5 -141t-142.5 -72v-37q24 -8 41 -27.5t17 -49.5q0 -111 -234 -98v109q95 -8 95 14q0 15 -53 20v67q-84 12 -141.5 56.5t-82.5 113.5l153 89q39 -93 138 -93q82 0 82 47q0 30 -47 50q-16 6 -88 27q-102 29 -155 81t-53 138q0 97 69 157q71 60 174 60
q88 0 156 -41.5t104 -118.5l-150 -88q-33 78 -109 78q-31 0 -48 -12.5t-17 -33.5q0 -23 24.5 -39t95.5 -37q53 -16 82 -28q33 -14 68 -38q73 -48 73 -153z" />
    <glyph glyph-name="scedilla" unicode="&#x15f;" horiz-adv-x="475" 
d="M455 154q0 -124 -135 -158v-42q24 -8 41 -27.5t17 -49.5q0 -111 -234 -98v109q95 -8 95 14q0 15 -53 20v67q-124 16 -171 116l145 73q19 -55 78 -55q45 0 45 27q0 13 -20.5 21.5t-65.5 19.5q-30 6 -54.5 16.5t-50 27.5t-39.5 45.5t-14 65.5q0 80 59 124t142 44
q147 0 206 -116l-140 -63q-22 43 -62 43q-37 0 -37 -24q0 -13 21.5 -21.5t65.5 -18.5q30 -6 55.5 -15.5t51 -27t40 -48t14.5 -69.5z" />
    <glyph glyph-name="Scaron" unicode="&#x160;" horiz-adv-x="585" 
d="M370 755h-167l-106 155h150l40 -56l39 56h150zM347 423q53 -16 82 -28q33 -14 68 -38q73 -48 73 -153q0 -103 -73 -161t-193 -58q-109 0 -182.5 46t-103.5 128l153 89q39 -93 138 -93q82 0 82 47q0 30 -47 50q-16 6 -88 27q-102 29 -155 81t-53 138q0 97 69 157
q71 60 174 60q88 0 156 -41.5t104 -118.5l-150 -88q-33 78 -109 78q-31 0 -48 -12.5t-17 -33.5q0 -23 24.5 -39t95.5 -37z" />
    <glyph glyph-name="scaron" unicode="&#x161;" horiz-adv-x="475" 
d="M314 555h-167l-106 155h150l40 -56l39 56h150zM207 354q0 -13 21.5 -21.5t65.5 -18.5q30 -6 55.5 -15.5t51 -27t40 -48t14.5 -69.5q0 -87 -64 -127q-65 -41 -152 -41q-168 0 -224 119l145 73q19 -55 78 -55q45 0 45 27q0 13 -20.5 21.5t-65.5 19.5q-30 6 -54.5 16.5
t-50 27.5t-39.5 45.5t-14 65.5q0 80 59 124t142 44q147 0 206 -116l-140 -63q-22 43 -62 43q-37 0 -37 -24z" />
    <glyph glyph-name="uni0162" unicode="&#x162;" horiz-adv-x="545" 
d="M10 700h525v-173h-173v-527h-179v527h-173v173zM317 -277h-129l10 220h154z" />
    <glyph glyph-name="uni0163" unicode="&#x163;" horiz-adv-x="394" 
d="M358 500v-159h-104v-145q0 -32 22.5 -40.5t81.5 -5.5v-150q-148 -18 -210 27q-60 47 -60 165v149h-75v159h75v90l166 50v-140h104zM275 -272h-129l10 220h154z" />
    <glyph glyph-name="Tcaron" unicode="&#x164;" horiz-adv-x="545" 
d="M351 745h-167l-106 155h150l40 -56l39 56h150zM10 700h525v-173h-173v-527h-179v527h-173v173z" />
    <glyph glyph-name="tcaron" unicode="&#x165;" horiz-adv-x="430" 
d="M291 536l10 190h149l-35 -190h-124zM88 590l166 50v-140h104v-159h-104v-145q0 -32 22.5 -40.5t81.5 -5.5v-150q-148 -18 -210 27q-60 47 -60 165v149h-75v159h75v90z" />
    <glyph glyph-name="Tbar" unicode="&#x166;" horiz-adv-x="545" 
d="M535 700v-173h-173v-115h105v-158h-105v-254h-179v254h-105v158h105v115h-173v173h525z" />
    <glyph glyph-name="tbar" unicode="&#x167;" horiz-adv-x="394" 
d="M358 500v-145h-104v-41h73v-120h-73q0 -32 24 -39.5t80 -4.5v-150q-148 -18 -210 27q-60 47 -60 165v2h-50v120h50v41h-75v145h75v90l166 50v-140h104z" />
    <glyph glyph-name="Umacron" unicode="&#x16a;" horiz-adv-x="650" 
d="M479 754h-309v130h309v-130zM48 230v470h179v-453q0 -88 98 -88t98 88v453h179v-470q0 -110 -78 -178q-76 -67 -199 -67t-200 67q-77 68 -77 178z" />
    <glyph glyph-name="umacron" unicode="&#x16b;" horiz-adv-x="579" 
d="M132 684h309v-130h-309v130zM365 234v266h166v-500h-166v50q-45 -64 -139 -64q-83 0 -133.5 56.5t-50.5 158.5v299h166v-278q0 -38 20 -58.5t55 -20.5q39 0 60.5 23.5t21.5 67.5z" />
    <glyph glyph-name="Uring" unicode="&#x16e;" horiz-adv-x="650" 
d="M325 708q-61 0 -100.5 37.5t-39.5 94.5t39.5 94.5t100.5 37.5q63 0 102 -37.5t39 -94.5q0 -58 -39 -95t-102 -37zM325 808q34 0 34 32t-34 32q-20 0 -28.5 -16t0 -32t28.5 -16zM48 230v470h179v-453q0 -88 98 -88t98 88v453h179v-470q0 -110 -78 -178q-76 -67 -199 -67
t-200 67q-77 68 -77 178z" />
    <glyph glyph-name="uring" unicode="&#x16f;" horiz-adv-x="579" 
d="M287 533q-61 0 -100.5 37.5t-39.5 94.5t39.5 94.5t100.5 37.5q63 0 102 -37.5t39 -94.5q0 -58 -39 -95t-102 -37zM287 697q-20 0 -28.5 -16t0 -32t28.5 -16q34 0 34 32t-34 32zM365 234v266h166v-500h-166v50q-45 -64 -139 -64q-83 0 -133.5 56.5t-50.5 158.5v299h166
v-278q0 -38 20 -58.5t55 -20.5q39 0 60.5 23.5t21.5 67.5z" />
    <glyph glyph-name="Uhungarumlaut" unicode="&#x170;" horiz-adv-x="650" 
d="M126 745l80 150h163l-86 -150h-157zM318 745l90 150h164l-96 -150h-158zM48 230q0 -110 77 -178q77 -67 200 -67t199 67q78 68 78 178v470h-179v-453q0 -88 -98 -88t-98 88v453h-179v-470z" />
    <glyph glyph-name="uhungarumlaut" unicode="&#x171;" horiz-adv-x="579" 
d="M168 695h163l-86 -150h-157zM534 695l-96 -150h-158l90 150h164zM365 234v266h166v-500h-166v50q-45 -64 -139 -64q-83 0 -133.5 56.5t-50.5 158.5v299h166v-278q0 -38 20 -58.5t55 -20.5q39 0 60.5 23.5t21.5 67.5z" />
    <glyph glyph-name="Uogonek" unicode="&#x172;" horiz-adv-x="650" 
d="M423 247v453h179v-470q0 -122 -92 -190q-45 -41 -62.5 -67t-18.5 -51q-2 -21 21 -23q8 -1 21 3v-99q-32 -13 -66.5 -16t-63 5t-46.5 30t-16 55q0 49 48 108h-2q-123 0 -200 67q-77 68 -77 178v470h179v-453q0 -88 98 -88t98 88z" />
    <glyph glyph-name="uogonek" unicode="&#x173;" horiz-adv-x="579" 
d="M531 500v-500q-42 -46 -42 -78q-2 -23 21 -23q8 -1 21 3v-99q-32 -13 -66.5 -16t-63 5t-46.5 30t-16 55q0 59 61 123h-35v50q-45 -64 -139 -64q-83 0 -133.5 56.5t-50.5 158.5v299h166v-278q0 -38 20 -58.5t55 -20.5q39 0 60.5 23.5t21.5 67.5v266h166z" />
    <glyph glyph-name="Wcircumflex" unicode="&#x174;" horiz-adv-x="1004" 
d="M569 745l-39 56l-40 -56h-150l106 155h167l106 -155h-150zM697 259l109 441h192l-195 -700h-189l-112 395l-112 -395h-189l-196 700h193l108 -441l125 441h141z" />
    <glyph glyph-name="wcircumflex" unicode="&#x175;" horiz-adv-x="798" 
d="M434 545l-39 56l-40 -56h-150l106 155h167l106 -155h-150zM544 228l66 272h176l-153 -500h-162l-72 254l-72 -254h-162l-153 500h176l66 -272l75 272h140z" />
    <glyph glyph-name="Ycircumflex" unicode="&#x176;" horiz-adv-x="651" 
d="M360 745l-39 56l-40 -56h-150l106 155h167l106 -155h-150zM450 700h201l-236 -431v-269h-179v267l-236 433h201l124 -259z" />
    <glyph glyph-name="ycircumflex" unicode="&#x177;" horiz-adv-x="549" 
d="M313 545l-39 56l-40 -56h-150l106 155h167l106 -155h-150zM287 210l78 290h184l-171 -492q-40 -113 -113 -163t-189 -45v156q53 0 80 13t44 47l-200 484h186z" />
    <glyph glyph-name="Ydieresis" unicode="&#x178;" horiz-adv-x="651" 
d="M228 735q-33 0 -56.5 23.5t-23.5 56.5t23.5 56.5t56.5 23.5q32 0 55.5 -23.5t23.5 -56.5t-23.5 -56.5t-55.5 -23.5zM422 735q-32 0 -55.5 23.5t-23.5 56.5t23.5 56.5t55.5 23.5q33 0 56.5 -23.5t23.5 -56.5t-23.5 -56.5t-56.5 -23.5zM450 700h201l-236 -431v-269h-179
v267l-236 433h201l124 -259z" />
    <glyph glyph-name="Zacute" unicode="&#x179;" horiz-adv-x="542" 
d="M259 900h194l-116 -145h-158zM512 562l-247 -389h255v-173h-487v138l247 389h-242v173h474v-138z" />
    <glyph glyph-name="zacute" unicode="&#x17a;" horiz-adv-x="484" 
d="M226 700h194l-116 -145h-158zM439 386l-177 -232h187v-154h-409v114l177 232h-167v154h389v-114z" />
    <glyph glyph-name="Zdotaccent" unicode="&#x17b;" horiz-adv-x="542" 
d="M278 743q-37 0 -63.5 26.5t-26.5 62.5q0 37 26.5 63.5t63.5 26.5q36 0 62.5 -26.5t26.5 -63.5q0 -36 -26.5 -62.5t-62.5 -26.5zM512 562l-247 -389h255v-173h-487v138l247 389h-242v173h474v-138z" />
    <glyph glyph-name="zdotaccent" unicode="&#x17c;" horiz-adv-x="484" 
d="M245 543q-37 0 -63.5 26.5t-26.5 62.5q0 37 26.5 63.5t63.5 26.5q36 0 62.5 -26.5t26.5 -63.5q0 -36 -26.5 -62.5t-62.5 -26.5zM439 386l-177 -232h187v-154h-409v114l177 232h-167v154h389v-114z" />
    <glyph glyph-name="Zcaron" unicode="&#x17d;" horiz-adv-x="542" 
d="M357 745h-167l-106 155h150l40 -56l39 56h150zM512 562l-247 -389h255v-173h-487v138l247 389h-242v173h474v-138z" />
    <glyph glyph-name="zcaron" unicode="&#x17e;" horiz-adv-x="484" 
d="M324 545h-167l-106 155h150l40 -56l39 56h150zM439 386l-177 -232h187v-154h-409v114l177 232h-167v154h389v-114z" />
    <glyph glyph-name="florin" unicode="&#x192;" horiz-adv-x="461" 
d="M171 431l18 106q19 111 93 152q76 41 179 17v-164q-28 16 -62 2q-32 -14 -38 -54l-10 -59h74v-159h-101l-52 -303q-19 -112 -94 -152q-74 -41 -178 -17v164q28 -16 61 -2q31 14 39 54l44 256h-68v159h95z" />
    <glyph glyph-name="Scommaaccent" unicode="&#x218;" horiz-adv-x="585" 
d="M304 -15q-109 0 -182.5 46t-103.5 128l153 89q39 -93 138 -93q82 0 82 47q0 30 -47 50q-16 6 -88 27q-102 29 -155 81t-53 138q0 97 69 157q71 60 174 60q88 0 156 -41.5t104 -118.5l-150 -88q-33 78 -109 78q-31 0 -48 -12.5t-17 -33.5q0 -23 24.5 -39t95.5 -37
q53 -16 82 -28q33 -14 68 -38q73 -48 73 -153q0 -103 -73 -161t-193 -58zM357 -277h-129l10 220h154z" />
    <glyph glyph-name="scommaaccent" unicode="&#x219;" horiz-adv-x="475" 
d="M207 354q0 -13 21.5 -21.5t65.5 -18.5q30 -6 55.5 -15.5t51 -27t40 -48t14.5 -69.5q0 -87 -64 -127q-65 -41 -152 -41q-168 0 -224 119l145 73q19 -55 78 -55q45 0 45 27q0 13 -20.5 21.5t-65.5 19.5q-30 6 -54.5 16.5t-50 27.5t-39.5 45.5t-14 65.5q0 80 59 124t142 44
q147 0 206 -116l-140 -63q-22 43 -62 43q-37 0 -37 -24zM301 -277h-129l10 220h154z" />
    <glyph glyph-name="uni021A" unicode="&#x21a;" horiz-adv-x="545" 
d="M10 700h525v-173h-173v-527h-179v527h-173v173zM317 -277h-129l10 220h154z" />
    <glyph glyph-name="uni021B" unicode="&#x21b;" horiz-adv-x="394" 
d="M358 500v-159h-104v-145q0 -32 22.5 -40.5t81.5 -5.5v-150q-148 -18 -210 27q-60 47 -60 165v149h-75v159h75v90l166 50v-140h104zM275 -272h-129l10 220h154z" />
    <glyph glyph-name="circumflex" unicode="&#x2c6;" horiz-adv-x="419" 
d="M293 700l106 -155h-150l-39 56l-40 -56h-150l106 155h167z" />
    <glyph glyph-name="caron" unicode="&#x2c7;" horiz-adv-x="419" 
d="M210 644l39 56h150l-106 -155h-167l-106 155h150z" />
    <glyph glyph-name="breve" unicode="&#x2d8;" horiz-adv-x="399" 
d="M20 697h140q0 -44 39 -44q40 0 40 44h140q0 -78 -46.5 -119t-133.5 -41t-133 41t-46 119z" />
    <glyph glyph-name="dotaccent" unicode="&#x2d9;" horiz-adv-x="225" 
d="M110 543q-37 0 -63.5 26.5t-26.5 62.5q0 37 26.5 63.5t63.5 26.5q36 0 62.5 -26.5t26.5 -63.5q0 -36 -26.5 -62.5t-62.5 -26.5z" />
    <glyph glyph-name="ring" unicode="&#x2da;" horiz-adv-x="321" 
d="M160 533q-61 0 -100.5 37.5t-39.5 94.5t39.5 94.5t100.5 37.5q63 0 102 -37.5t39 -94.5q0 -58 -39 -95t-102 -37zM160 633q34 0 34 32t-34 32q-20 0 -28.5 -16t0 -32t28.5 -16z" />
    <glyph glyph-name="ogonek" unicode="&#x2db;" horiz-adv-x="233" 
d="M20 -123q0 58 62 123h131q-43 -46 -43 -78q-2 -23 22 -23q4 -1 21 3v-99q-31 -13 -65.5 -16t-64 5t-47.5 30t-16 55z" />
    <glyph glyph-name="tilde" unicode="&#x2dc;" horiz-adv-x="399" 
d="M140 548h-120q0 49 11.5 84t30.5 52.5t44 24t51 1.5t53 -19q24 -17 36.5 -13.5t12.5 32.5h120q0 -61 -17 -100t-45.5 -52t-61 -10.5t-67.5 20.5q-24 17 -36 13.5t-12 -33.5z" />
    <glyph glyph-name="hungarumlaut" unicode="&#x2dd;" horiz-adv-x="486" 
d="M20 545l80 150h163l-86 -150h-157zM212 545l90 150h164l-96 -150h-158z" />
    <glyph glyph-name="gravecomb" unicode="&#x300;" horiz-adv-x="0" 
d="M-20 555h-158l-116 145h194z" />
    <glyph glyph-name="acutecomb" unicode="&#x301;" horiz-adv-x="0" 
d="M-280 555l80 145h194l-116 -145h-158z" />
    <glyph glyph-name="uni0302" unicode="&#x302;" horiz-adv-x="0" 
d="M-126 700l106 -155h-150l-39 56l-40 -56h-150l106 155h167z" />
    <glyph glyph-name="tildecomb" unicode="&#x303;" horiz-adv-x="0" 
d="M-253 548h-120q0 49 11.5 84t30.5 52.5t44 24t51 1.5t53 -19q24 -17 36.5 -13.5t12.5 32.5h120q0 -61 -17 -100t-45.5 -52t-61 -10.5t-67.5 20.5q-24 17 -36 13.5t-12 -33.5z" />
    <glyph glyph-name="uni0304" unicode="&#x304;" horiz-adv-x="0" 
d="M-20 554h-309v130h309v-130z" />
    <glyph glyph-name="uni0306" unicode="&#x306;" horiz-adv-x="0" 
d="M-384 697h140q0 -44 39 -44q40 0 40 44h140q0 -78 -46.5 -119t-133.5 -41t-133 41t-46 119z" />
    <glyph glyph-name="uni0307" unicode="&#x307;" horiz-adv-x="0" 
d="M-109 543q-37 0 -63.5 26.5t-26.5 62.5q0 37 26.5 63.5t63.5 26.5q36 0 62.5 -26.5t26.5 -63.5q0 -36 -26.5 -62.5t-62.5 -26.5z" />
    <glyph glyph-name="uni0308" unicode="&#x308;" horiz-adv-x="0" 
d="M-294 535q-33 0 -56.5 23.5t-23.5 56.5t23.5 56.5t56.5 23.5q32 0 55.5 -23.5t23.5 -56.5t-23.5 -56.5t-55.5 -23.5zM-100 535q-32 0 -55.5 23.5t-23.5 56.5t23.5 56.5t55.5 23.5q33 0 56.5 -23.5t23.5 -56.5t-23.5 -56.5t-56.5 -23.5z" />
    <glyph glyph-name="uni030A" unicode="&#x30a;" horiz-adv-x="0" 
d="M-163 533q-61 0 -100.5 37.5t-39.5 94.5t39.5 94.5t100.5 37.5q63 0 102 -37.5t39 -94.5q0 -58 -39 -95t-102 -37zM-163 633q34 0 34 32t-34 32q-20 0 -28.5 -16t0 -32t28.5 -16z" />
    <glyph glyph-name="uni030B" unicode="&#x30b;" horiz-adv-x="0" 
d="M-466 545l80 150h163l-86 -150h-157zM-274 545l90 150h164l-96 -150h-158z" />
    <glyph glyph-name="uni030C" unicode="&#x30c;" horiz-adv-x="0" 
d="M-209 644l39 56h150l-106 -155h-167l-106 155h150z" />
    <glyph glyph-name="uni0312" unicode="&#x312;" horiz-adv-x="0" 
d="M-149 985h129l-10 -220h-154z" />
    <glyph glyph-name="uni0326" unicode="&#x326;" horiz-adv-x="0" 
d="M-55 -277h-129l10 220h154z" />
    <glyph glyph-name="uni0327" unicode="&#x327;" horiz-adv-x="0" 
d="M-78 0v-46q24 -8 41 -27.5t17 -49.5q0 -111 -234 -98v109q95 -8 95 14q0 15 -53 20v78h134z" />
    <glyph glyph-name="uni0328" unicode="&#x328;" horiz-adv-x="0" 
d="M-218 -123q0 58 62 123h131q-43 -46 -43 -78q-2 -23 22 -23q4 -1 21 3v-99q-31 -13 -65.5 -16t-64 5t-47.5 30t-16 55z" />
    <glyph glyph-name="uni0394" unicode="&#x394;" horiz-adv-x="660" 
d="M223 700h214l228 -700h-670zM330 497l-97 -342h194z" />
    <glyph glyph-name="uni03A9" unicode="&#x3a9;" horiz-adv-x="775" 
d="M755 370q0 -119 -83 -202h68v-168h-281v173q54 20 85.5 67.5t31.5 109.5q0 84 -54 136q-54 54 -135 54t-135 -54q-53 -53 -53 -136q0 -62 31.5 -109.5t85.5 -67.5v-173h-281v168h67q-82 83 -82 202q0 150 106 247q107 98 261 98t261 -98t107 -247z" />
    <glyph glyph-name="pi" unicode="&#x3c0;" horiz-adv-x="661" 
d="M15 500h630v-157h-74v-343h-166v343h-147v-343h-166v343h-77v157z" />
    <glyph glyph-name="uni0401" unicode="&#x401;" horiz-adv-x="535" 
d="M181 735q-33 0 -56.5 23.5t-23.5 56.5t23.5 56.5t56.5 23.5q32 0 55.5 -23.5t23.5 -56.5t-23.5 -56.5t-55.5 -23.5zM375 735q-32 0 -55.5 23.5t-23.5 56.5t23.5 56.5t55.5 23.5q33 0 56.5 -23.5t23.5 -56.5t-23.5 -56.5t-56.5 -23.5zM234 271v-103h271v-168h-450v700h445
v-167h-266v-97h241v-165h-241z" />
    <glyph glyph-name="uni0402" unicode="&#x402;" horiz-adv-x="705" 
d="M482 450q87 0 135 -50.5t48 -145.5v-52q0 -117 -57.5 -169.5t-177.5 -45.5v159q33 -2 45.5 10.5t12.5 45.5v31q0 57 -57 57q-35 0 -79 -14v-276h-179v527h-163v173h525v-173h-183v-94q71 17 130 17z" />
    <glyph glyph-name="uni0403" unicode="&#x403;" horiz-adv-x="475" 
d="M238 899h194l-116 -145h-158zM55 700h414v-173h-235v-527h-179v700z" />
    <glyph glyph-name="uni0404" unicode="&#x404;" horiz-adv-x="719" 
d="M391 157q50 0 90.5 22.5t60.5 61.5l154 -90q-45 -76 -126.5 -121t-176.5 -45q-158 0 -262 104q-103 104 -103 261t103 260q103 105 262 105q95 0 176 -45q82 -45 127 -121l-154 -89q-21 39 -61 61t-90 22q-62 0 -107 -29.5t-66 -81.5h253v-164h-253q21 -52 66 -81.5
t107 -29.5z" />
    <glyph glyph-name="uni0405" unicode="&#x405;" horiz-adv-x="585" 
d="M304 -15q-109 0 -182.5 46t-103.5 128l153 89q39 -93 138 -93q82 0 82 47q0 30 -47 50q-16 6 -88 27q-102 29 -155 81t-53 138q0 97 69 157q71 60 174 60q88 0 156 -41.5t104 -118.5l-150 -88q-33 78 -109 78q-31 0 -48 -12.5t-17 -33.5q0 -23 24.5 -39t95.5 -37
q53 -16 82 -28q33 -14 68 -38q73 -48 73 -153q0 -103 -73 -161t-193 -58z" />
    <glyph glyph-name="uni0406" unicode="&#x406;" horiz-adv-x="289" 
d="M55 0v700h179v-700h-179z" />
    <glyph glyph-name="uni0407" unicode="&#x407;" horiz-adv-x="289" 
d="M48 735q-33 0 -56.5 23.5t-23.5 56.5t23.5 56.5t56.5 23.5q32 0 55.5 -23.5t23.5 -56.5t-23.5 -56.5t-55.5 -23.5zM242 735q-32 0 -55.5 23.5t-23.5 56.5t23.5 56.5t55.5 23.5q33 0 56.5 -23.5t23.5 -56.5t-23.5 -56.5t-56.5 -23.5zM55 0v700h179v-700h-179z" />
    <glyph glyph-name="uni0408" unicode="&#x408;" horiz-adv-x="571" 
d="M267 -15q-171 0 -242 140l153 89q15 -30 35.5 -42.5t53.5 -12.5q77 0 77 71v470h179v-473q0 -114 -70 -178q-68 -64 -186 -64z" />
    <glyph glyph-name="uni0409" unicode="&#x409;" horiz-adv-x="938" 
d="M600 464h73q106 0 177 -64q73 -63 73 -168t-73 -169q-72 -63 -177 -63h-252v527h-130v-254q0 -173 -92 -233q-80 -53 -194 -42v167q58 -6 82.5 19t24.5 97v419h488v-236zM600 170h73q71 0 71 62t-71 62h-73v-124z" />
    <glyph glyph-name="uni040A" unicode="&#x40a;" horiz-adv-x="943" 
d="M605 465h73q106 0 177 -64q73 -64 73 -169q0 -104 -73 -168q-71 -64 -177 -64h-252v294h-192v-294h-179v700h179v-235h192v235h179v-235zM605 171h73q71 0 71 61q0 62 -71 62h-73v-123z" />
    <glyph glyph-name="uni040B" unicode="&#x40b;" horiz-adv-x="710" 
d="M482 455q87 0 135 -50.5t48 -145.5v-259h-177v237q0 58 -57 58q-35 0 -79 -14v-281h-179v527h-163v173h525v-173h-183v-90q74 18 130 18z" />
    <glyph glyph-name="uni040C" unicode="&#x40c;" horiz-adv-x="631" 
d="M297 899h194l-116 -145h-158zM403 360l232 -360h-200l-201 313v-313h-179v700h179v-294l191 294h200z" />
    <glyph glyph-name="uni040E" unicode="&#x40e;" horiz-adv-x="629" 
d="M158 893h323v-140h-323v140zM328 414l112 286h183l-202 -485q-48 -114 -125.5 -167t-191.5 -48v167q95 -8 140 51l-229 482h184z" />
    <glyph glyph-name="uni040F" unicode="&#x40f;" horiz-adv-x="650" 
d="M416 173v527h179v-700h-181v-134h-178v134h-181v700h179v-527h182z" />
    <glyph glyph-name="uni0410" unicode="&#x410;" horiz-adv-x="671" 
d="M675 0h-193l-30 101h-233l-30 -101h-194l231 700h218zM335 493l-70 -238h141z" />
    <glyph glyph-name="uni0411" unicode="&#x411;" horiz-adv-x="592" 
d="M234 442h110q106 0 171 -60q64 -60 64 -160t-64 -161t-171 -61h-289v700h464v-173h-285v-85zM234 164h103q64 0 64 58q0 29 -17 44t-47 15h-103v-117z" />
    <glyph glyph-name="uni0412" unicode="&#x412;" horiz-adv-x="602" 
d="M497 362q88 -52 88 -157q0 -94 -64 -149q-65 -56 -171 -56h-295v700h276q106 0 168.5 -53.5t62.5 -145.5q0 -88 -65 -139zM326 540h-92v-110h92q25 0 41 14.5t16 40.5q0 25 -16 40t-41 15zM234 160h111q27 0 44 16.5t17 42.5q0 27 -17 43t-44 16h-111v-118z" />
    <glyph glyph-name="uni0413" unicode="&#x413;" horiz-adv-x="475" 
d="M55 700h414v-173h-235v-527h-179v700z" />
    <glyph glyph-name="uni0414" unicode="&#x414;" horiz-adv-x="712" 
d="M619 700v-527h75v-307h-178v134h-327v-134h-179v307h74q48 77 48 222v305h487zM270 173h171v361h-131v-141q0 -141 -40 -220z" />
    <glyph glyph-name="uni0415" unicode="&#x415;" horiz-adv-x="535" 
d="M234 271v-103h271v-168h-450v700h445v-167h-266v-97h241v-165h-241z" />
    <glyph glyph-name="uni0416" unicode="&#x416;" horiz-adv-x="927" 
d="M711 354l210 -354h-198l-170 305v-305h-179v305l-171 -305h-198l211 354l-201 346h198l161 -303v303h179v-303l160 303h198z" />
    <glyph glyph-name="uni0417" unicode="&#x417;" horiz-adv-x="560" 
d="M449 361q94 -52 94 -164q0 -95 -72 -154q-71 -58 -190 -58q-203 0 -271 164l153 88q30 -83 118 -83q83 0 83 62q0 54 -67 60l-106 1v155h69q81 0 81 58t-72 58q-71 0 -100 -71l-150 87q33 72 98.5 111.5t154.5 39.5q111 0 179 -58q69 -57 69 -152q0 -91 -71 -144z" />
    <glyph glyph-name="uni0418" unicode="&#x418;" horiz-adv-x="675" 
d="M619 0h-178v352l-247 -352h-139v700h179v-352l247 352h138v-700z" />
    <glyph glyph-name="uni0419" unicode="&#x419;" horiz-adv-x="675" 
d="M498 754h-323v140h323v-140zM619 0h-178v352l-247 -352h-139v700h179v-352l247 352h138v-700z" />
    <glyph glyph-name="uni041A" unicode="&#x41a;" horiz-adv-x="631" 
d="M403 360l232 -360h-200l-201 313v-313h-179v700h179v-294l191 294h200z" />
    <glyph glyph-name="uni041B" unicode="&#x41b;" horiz-adv-x="665" 
d="M5 0v167q58 -7 82.5 17.5t24.5 96.5v419h498v-700h-179v527h-140v-254q0 -173 -92 -233q-79 -52 -194 -40z" />
    <glyph glyph-name="uni041C" unicode="&#x41c;" horiz-adv-x="825" 
d="M591 700h178v-700h-178v377l-170 -281h-18l-169 280v-376h-179v700h179l178 -299z" />
    <glyph glyph-name="uni041D" unicode="&#x41d;" horiz-adv-x="665" 
d="M431 441v259h178v-700h-178v269h-197v-269h-179v700h179v-259h197z" />
    <glyph glyph-name="uni041E" unicode="&#x41e;" horiz-adv-x="790" 
d="M655 90q-107 -105 -260 -105q-155 0 -261 105q-106 106 -106 260t106 259q106 106 261 106q154 0 260 -106q107 -105 107 -259q0 -153 -107 -260zM260 213q55 -53 135 -53t135 53q54 54 54 137q0 84 -54 136q-54 54 -135 54t-135 -54q-54 -52 -54 -136q0 -83 54 -137z
" />
    <glyph glyph-name="uni041F" unicode="&#x41f;" horiz-adv-x="650" 
d="M55 700h540v-700h-179v527h-182v-527h-179v700z" />
    <glyph glyph-name="uni0420" unicode="&#x420;" horiz-adv-x="592" 
d="M55 700h272q106 0 178 -69t72 -176t-72 -176t-178 -69h-93v-210h-179v700zM234 380h93q30 0 50.5 21t20.5 54t-20.5 53.5t-50.5 20.5h-93v-149z" />
    <glyph glyph-name="uni0421" unicode="&#x421;" horiz-adv-x="719" 
d="M393 -15q-158 0 -262 104q-103 104 -103 261t103 260q103 105 262 105q95 0 176 -45t127 -121l-155 -89q-20 37 -59.5 58.5t-88.5 21.5q-83 0 -136 -53q-51 -53 -51 -137q0 -86 51 -138q52 -52 136 -52q49 0 88.5 21.5t59.5 59.5l155 -90q-46 -77 -126.5 -121.5
t-176.5 -44.5z" />
    <glyph glyph-name="uni0422" unicode="&#x422;" horiz-adv-x="545" 
d="M10 700h525v-173h-173v-527h-179v527h-173v173z" />
    <glyph glyph-name="uni0423" unicode="&#x423;" horiz-adv-x="629" 
d="M328 414l112 286h183l-202 -485q-48 -114 -125.5 -167t-191.5 -48v167q95 -8 140 51l-229 482h184z" />
    <glyph glyph-name="uni0424" unicode="&#x424;" horiz-adv-x="833" 
d="M503 63v-83h-172v83q-146 18 -228.5 93.5t-82.5 193.5t82.5 193.5t228.5 93.5v83h172v-83q146 -18 228 -93.5t82 -193.5t-82 -193.5t-228 -93.5zM199 350q0 -104 132 -123v249q-132 -19 -132 -126zM503 476v-249q132 19 132 123q0 107 -132 126z" />
    <glyph glyph-name="uni0425" unicode="&#x425;" horiz-adv-x="632" 
d="M416 356l210 -356h-200l-110 186l-110 -186h-201l211 357l-203 343h201l102 -173l102 173h201z" />
    <glyph glyph-name="uni0426" unicode="&#x426;" horiz-adv-x="702" 
d="M604 700v-527h80v-307h-179v134h-450v700h184v-527h182v527h183z" />
    <glyph glyph-name="uni0427" unicode="&#x427;" horiz-adv-x="647" 
d="M413 403v297h178v-700h-178v232q-56 -19 -119 -19q-113 0 -182 63t-69 174v250h178v-231q0 -39 23.5 -61.5t62.5 -22.5q55 0 106 18z" />
    <glyph glyph-name="uni0428" unicode="&#x428;" horiz-adv-x="949" 
d="M715 173v527h179v-700h-839v700h179v-527h151v527h179v-527h151z" />
    <glyph glyph-name="uni0429" unicode="&#x429;" horiz-adv-x="992" 
d="M894 700v-527h80v-307h-179v134h-740v700h179v-527h151v527h179v-527h151v527h179z" />
    <glyph glyph-name="uni042A" unicode="&#x42a;" horiz-adv-x="697" 
d="M432 0h-272v527h-160v173h339v-210h93q106 0 177 -70q73 -69 73 -175q0 -107 -72 -176t-178 -69zM339 319v-149h93q30 0 50.5 21t20.5 54t-20.5 53.5t-50.5 20.5h-93z" />
    <glyph glyph-name="uni042B" unicode="&#x42b;" horiz-adv-x="869" 
d="M327 0h-272v700h179v-210h93q107 0 178 -70q72 -69 72 -175q0 -107 -72 -176t-178 -69zM813 0h-178v700h178v-700zM234 319v-149h93q30 0 50.5 21t20.5 54t-20.5 53.5t-50.5 20.5h-93z" />
    <glyph glyph-name="uni042C" unicode="&#x42c;" horiz-adv-x="592" 
d="M234 490h93q106 0 178 -69t72 -176t-72 -176t-178 -69h-272v700h179v-210zM234 171h93q30 0 50.5 20.5t20.5 53.5t-20.5 54t-50.5 21h-93v-149z" />
    <glyph glyph-name="uni042D" unicode="&#x42d;" horiz-adv-x="719" 
d="M326 715q159 0 262 -105q103 -103 103 -260t-103 -261q-104 -104 -262 -104q-95 0 -176.5 45t-126.5 121l154 90q20 -39 60.5 -61.5t90.5 -22.5q62 0 107 29.5t66 81.5h-253v164h253q-21 52 -66 81.5t-107 29.5q-50 0 -90 -22t-61 -61l-154 89q45 76 126 121
q83 45 177 45z" />
    <glyph glyph-name="uni042E" unicode="&#x42e;" horiz-adv-x="1068" 
d="M673 715q154 0 260 -106q107 -105 107 -259q0 -152 -107 -259q-106 -106 -260 -106q-133 0 -230 81q-98 81 -123 208h-86v-274h-179v700h179v-254h91q30 119 125 194q96 75 223 75zM484 350q0 -83 54 -137q55 -53 135 -53t135 53q54 54 54 137q0 84 -54 136
q-54 54 -135 54q-80 0 -135 -53q-54 -53 -54 -137z" />
    <glyph glyph-name="uni042F" unicode="&#x42f;" horiz-adv-x="630" 
d="M294 700h280v-700h-178v226h-38l-141 -226h-199l160 251q-63 29 -99 84t-36 123q0 106 72 173q72 69 179 69zM296 378h100v157h-100q-32 0 -53.5 -22.5t-21.5 -56.5q0 -35 21.5 -57t53.5 -21z" />
    <glyph glyph-name="uni0430" unicode="&#x430;" horiz-adv-x="615" 
d="M401 454v46h166v-500h-166v46q-51 -60 -142 -60q-101 0 -168 75q-67 76 -67 189q0 114 67 188q67 76 168 76q91 0 142 -60zM220 171q28 -30 76 -30t76 30q29 31 29 79t-29 79q-28 30 -76 30t-76 -30q-29 -31 -29 -79t29 -79z" />
    <glyph glyph-name="uni0431" unicode="&#x431;" horiz-adv-x="569" 
d="M298 -15q-124 0 -199 76q-74 77 -74 201q0 126 40 199q41 74 145 125q113 56 139 76q29 24 45 61l136 -78q-15 -55 -55 -88t-126 -67q-65 -26 -94 -46.5t-41 -48.5q49 43 129 43q83 0 148 -60q66 -60 66 -159q0 -102 -71 -168q-70 -66 -188 -66zM390 218q0 39 -27.5 64.5
t-69.5 25.5q-37 0 -66 -24q-28 -22 -28 -63t28 -66q29 -26 69 -26q41 0 67.5 25.5t26.5 63.5z" />
    <glyph glyph-name="uni0432" unicode="&#x432;" horiz-adv-x="520" 
d="M432 255q70 -33 70 -111q0 -67 -45.5 -105.5t-129.5 -38.5h-279v500h262q84 0 129 -39t45 -105q0 -67 -52 -101zM285 376h-78v-66h78q40 0 40 32q0 34 -40 34zM207 126h91q39 0 39 35q0 33 -39 33h-91v-68z" />
    <glyph glyph-name="uni0433" unicode="&#x433;" horiz-adv-x="417" 
d="M48 500h359v-159h-193v-341h-166v500z" />
    <glyph glyph-name="uni0434" unicode="&#x434;" horiz-adv-x="600" 
d="M520 500v-343h65v-291h-160v134h-260v-134h-160v291h60q38 62 38 170v173h417zM237 157h121v195h-93v-25q0 -101 -28 -170z" />
    <glyph glyph-name="uni0435" unicode="&#x435;" horiz-adv-x="571" 
d="M541 189h-345q25 -61 112 -61q53 0 91 35l120 -84q-73 -93 -215 -93q-127 0 -204 74q-76 75 -76 189q0 113 75 189t191 76q112 0 185 -75q73 -74 73 -188q0 -35 -7 -62zM194 304h192q-19 70 -94 70q-77 0 -98 -70z" />
    <glyph glyph-name="uni0436" unicode="&#x436;" horiz-adv-x="779" 
d="M618 250l156 -250h-183l-119 205v-205h-165v205l-119 -205h-183l156 250l-146 250h183l109 -202v202h165v-202l109 202h183z" />
    <glyph glyph-name="uni0437" unicode="&#x437;" horiz-adv-x="456" 
d="M364 255q74 -39 74 -119q0 -67 -57.5 -109t-153.5 -42q-157 0 -217 120l130 76q22 -58 84 -58q21 0 35 9.5t14 24.5q0 31 -41 31h-60v130h52q37 0 37 30q0 32 -44 32q-51 0 -72 -54l-130 71q66 117 210 117q86 0 141 -44q54 -44 54 -106q0 -73 -56 -109z" />
    <glyph glyph-name="uni0438" unicode="&#x438;" horiz-adv-x="580" 
d="M210 266l194 234h128v-500h-162v234l-194 -234h-128v500h162v-234z" />
    <glyph glyph-name="uni0439" unicode="&#x439;" horiz-adv-x="580" 
d="M451 554h-323v140h323v-140zM210 266l194 234h128v-500h-162v234l-194 -234h-128v500h162v-234z" />
    <glyph glyph-name="uni043A" unicode="&#x43a;" horiz-adv-x="542" 
d="M367 250l175 -250h-186l-142 213v-213h-166v500h166v-209l129 209h192z" />
    <glyph glyph-name="uni043B" unicode="&#x43b;" horiz-adv-x="562" 
d="M82 500h432v-500h-166v341h-100v-134q0 -118 -58.5 -169t-179.5 -38v154q36 -10 54 9.5t18 67.5v269z" />
    <glyph glyph-name="uni043C" unicode="&#x43c;" horiz-adv-x="648" 
d="M440 500h160v-500h-160v241l-107 -166h-18l-106 165v-240h-161v500h161l115 -180z" />
    <glyph glyph-name="uni043D" unicode="&#x43d;" horiz-adv-x="575" 
d="M361 328v172h166v-500h-166v172h-147v-172h-166v500h166v-172h147z" />
    <glyph glyph-name="uni043E" unicode="&#x43e;" horiz-adv-x="583" 
d="M291 -14q-112 0 -189 76q-78 76 -78 188q0 110 78 187q79 77 189 77q112 0 189 -77q78 -77 78 -187q0 -112 -78 -188q-76 -76 -189 -76zM291 146q44 0 72.5 29t28.5 75t-28.5 75t-72.5 29q-43 0 -71.5 -29.5t-28.5 -74.5t28.5 -74.5t71.5 -29.5z" />
    <glyph glyph-name="uni043F" unicode="&#x43f;" horiz-adv-x="575" 
d="M48 500h479v-500h-166v343h-147v-343h-166v500z" />
    <glyph glyph-name="uni0440" unicode="&#x440;" horiz-adv-x="615" 
d="M356 514q100 0 167 -76q68 -76 68 -188t-68 -189q-68 -75 -167 -75q-91 0 -142 60v-246h-166v700h166v-46q51 60 142 60zM243 171q29 -30 76 -30t76 30q29 31 29 79t-29 79q-29 30 -76 30t-76 -30q-29 -31 -29 -79t29 -79z" />
    <glyph glyph-name="uni0441" unicode="&#x441;" horiz-adv-x="528" 
d="M290 -14q-114 0 -190 76t-76 188t76 188t190 76q74 0 134.5 -34.5t93.5 -94.5l-142 -82q-27 49 -87 49q-42 0 -70 -28.5t-28 -73.5t28 -73.5t70 -28.5q61 0 87 50l142 -82q-33 -60 -93.5 -95t-134.5 -35z" />
    <glyph glyph-name="uni0442" unicode="&#x442;" horiz-adv-x="470" 
d="M8 500h454v-159h-143v-341h-166v341h-145v159z" />
    <glyph glyph-name="uni0443" unicode="&#x443;" horiz-adv-x="549" 
d="M286 210l79 290h184l-169 -485q-78 -225 -304 -215v156q53 0 79.5 11t42.5 41l-198 492h183z" />
    <glyph glyph-name="uni0444" unicode="&#x444;" horiz-adv-x="709" 
d="M435 -8v-192h-162v192q-118 18 -183.5 87.5t-65.5 170.5t65.5 170t183.5 87v193h162v-193q118 -18 183.5 -87t65.5 -170t-65.5 -170.5t-183.5 -87.5zM435 350v-200q84 22 84 100t-84 100zM273 150v200q-84 -24 -84 -100t84 -100z" />
    <glyph glyph-name="uni0445" unicode="&#x445;" horiz-adv-x="549" 
d="M368 255l181 -255h-188l-87 123l-87 -123h-187l181 255l-174 245h187l80 -113l80 113h188z" />
    <glyph glyph-name="uni0446" unicode="&#x446;" horiz-adv-x="612" 
d="M512 500v-343h85v-291h-160v134h-389v500h166v-343h132v343h166z" />
    <glyph glyph-name="uni0447" unicode="&#x447;" horiz-adv-x="543" 
d="M328 291v209h167v-500h-167v140q-51 -13 -100 -13q-92 0 -147.5 49t-55.5 137v187h167v-158q0 -61 73 -61q34 0 63 10z" />
    <glyph glyph-name="uni0448" unicode="&#x448;" horiz-adv-x="835" 
d="M621 157v343h166v-500h-739v500h166v-343h122v343h164v-343h121z" />
    <glyph glyph-name="uni0449" unicode="&#x449;" horiz-adv-x="862" 
d="M772 500v-343h74v-291h-159v134h-639v500h166v-343h114v343h164v-343h114v343h166z" />
    <glyph glyph-name="uni044A" unicode="&#x44a;" horiz-adv-x="583" 
d="M290 359h81q90 0 143 -48.5t53 -130.5q0 -83 -52.5 -131.5t-143.5 -48.5h-248v341h-123v159h290v-141zM290 139h71q20 0 32 11t12 30q0 18 -12 29t-32 11h-71v-81z" />
    <glyph glyph-name="uni044B" unicode="&#x44b;" horiz-adv-x="747" 
d="M214 359h82q90 0 143 -48.5t53 -130.5q0 -83 -52.5 -131.5t-143.5 -48.5h-248v500h166v-141zM533 0v500h166v-500h-166zM214 139h72q20 0 32 11t12 30q0 18 -12 29t-32 11h-72v-81z" />
    <glyph glyph-name="uni044C" unicode="&#x44c;" horiz-adv-x="507" 
d="M214 359h82q90 0 143 -48.5t53 -130.5q0 -83 -52.5 -131.5t-143.5 -48.5h-248v500h166v-141zM214 139h72q20 0 32 11t12 30q0 18 -12 29t-32 11h-72v-81z" />
    <glyph glyph-name="uni044D" unicode="&#x44d;" horiz-adv-x="529" 
d="M238 514q115 0 191 -74q75 -74 75 -190t-75 -190q-76 -74 -191 -74q-75 0 -136 35t-94 95l136 78q20 -58 98 -58q58 0 89 46h-135v136h135q-31 46 -89 46q-76 0 -98 -57l-136 78q33 60 94.5 94.5t135.5 34.5z" />
    <glyph glyph-name="uni044E" unicode="&#x44e;" horiz-adv-x="807" 
d="M516 514q110 0 189 -77q78 -77 78 -187q0 -112 -78 -188q-77 -76 -189 -76q-90 0 -158 51q-67 52 -91 135h-53v-172h-166v500h166v-172h53q24 84 91 134q67 52 158 52zM516 146q43 0 71.5 29.5t28.5 74.5t-28.5 74.5t-71.5 29.5q-44 0 -72.5 -29t-28.5 -75t28.5 -75
t72.5 -29z" />
    <glyph glyph-name="uni044F" unicode="&#x44f;" horiz-adv-x="532" 
d="M231 500h253v-500h-164v142h-23l-95 -142h-189l117 167q-43 24 -66.5 64.5t-23.5 87.5q0 78 51 129q52 52 140 52zM320 360h-71q-21 0 -34 -11.5t-13 -32.5q0 -20 13 -31t34 -11h71v86z" />
    <glyph glyph-name="uni0451" unicode="&#x451;" horiz-adv-x="571" 
d="M193 542q-33 0 -56.5 23.5t-23.5 56.5t23.5 56.5t56.5 23.5q32 0 55.5 -23.5t23.5 -56.5t-23.5 -56.5t-55.5 -23.5zM387 542q-32 0 -55.5 23.5t-23.5 56.5t23.5 56.5t55.5 23.5q33 0 56.5 -23.5t23.5 -56.5t-23.5 -56.5t-56.5 -23.5zM541 189h-345q25 -61 112 -61
q53 0 91 35l120 -84q-73 -93 -215 -93q-127 0 -204 74q-76 75 -76 189q0 113 75 189t191 76q112 0 185 -75q73 -74 73 -188q0 -35 -7 -62zM194 304h192q-19 70 -94 70q-77 0 -98 -70z" />
    <glyph glyph-name="uni0452" unicode="&#x452;" 
d="M363 502q82 0 133 -56.5t51 -158.5v-287q0 -118 -58 -170t-181 -45v154q38 -2 55.5 12.5t17.5 48.5v266q0 38 -20.5 59t-55.5 21q-39 0 -60 -23.5t-21 -68.5v-254h-166v539h-58v106h58v55h166v-55h135v-106h-135v-100q44 63 139 63z" />
    <glyph glyph-name="uni0453" unicode="&#x453;" horiz-adv-x="417" 
d="M188 700h194l-116 -145h-158zM48 500h359v-159h-193v-341h-166v500z" />
    <glyph glyph-name="uni0454" unicode="&#x454;" horiz-adv-x="529" 
d="M287 136q78 0 98 58l136 -78q-33 -60 -94 -95t-136 -35q-115 0 -191 74q-75 74 -75 190t75 190q76 74 191 74q74 0 135.5 -34.5t94.5 -94.5l-136 -78q-23 57 -98 57q-58 0 -89 -46h135v-136h-135q31 -46 89 -46z" />
    <glyph glyph-name="uni0455" unicode="&#x455;" horiz-adv-x="475" 
d="M207 354q0 -13 21.5 -21.5t65.5 -18.5q30 -6 55.5 -15.5t51 -27t40 -48t14.5 -69.5q0 -87 -64 -127q-65 -41 -152 -41q-168 0 -224 119l145 73q19 -55 78 -55q45 0 45 27q0 13 -20.5 21.5t-65.5 19.5q-30 6 -54.5 16.5t-50 27.5t-39.5 45.5t-14 65.5q0 80 59 124t142 44
q147 0 206 -116l-140 -63q-22 43 -62 43q-37 0 -37 -24z" />
    <glyph glyph-name="uni0456" unicode="&#x456;" horiz-adv-x="262" 
d="M198 569q-28 -28 -67 -28t-68 28q-28 29 -28 68t28 67q29 28 68 28t67 -28q29 -28 29 -67t-29 -68zM214 0h-166v500h166v-500z" />
    <glyph glyph-name="uni0457" unicode="&#x457;" horiz-adv-x="262" 
d="M33 535q-33 0 -56.5 23.5t-23.5 56.5t23.5 56.5t56.5 23.5q32 0 55.5 -23.5t23.5 -56.5t-23.5 -56.5t-55.5 -23.5zM227 535q-32 0 -55.5 23.5t-23.5 56.5t23.5 56.5t55.5 23.5q33 0 56.5 -23.5t23.5 -56.5t-23.5 -56.5t-56.5 -23.5zM214 0h-166v500h166v-500z" />
    <glyph glyph-name="uni0458" unicode="&#x458;" horiz-adv-x="277" 
d="M213 569q-28 -28 -67 -28t-68 28q-28 29 -28 68t28 67q29 28 68 28t67 -28q29 -28 29 -67t-29 -68zM63 0v500h166v-500q0 -118 -58 -170t-181 -45v154q38 -2 55.5 12.5t17.5 48.5z" />
    <glyph glyph-name="uni0459" unicode="&#x459;" horiz-adv-x="777" 
d="M507 349h74q82 0 131.5 -47t49.5 -127t-50 -127.5t-131 -47.5h-241v341h-92v-134q0 -117 -58.5 -169.5t-179.5 -45.5v154q36 -5 54 16t18 69v269h425v-151zM507 139h64q15 0 24.5 9.5t9.5 26.5q0 15 -9.5 25t-24.5 10h-64v-71z" />
    <glyph glyph-name="uni045A" unicode="&#x45a;" horiz-adv-x="783" 
d="M507 349h75q80 0 133 -47t53 -127t-53 -128q-53 -47 -133 -47h-241v197h-137v-197h-166v500h166v-151h137v151h166v-151zM507 139h64q15 0 25 9.5t10 26.5q0 16 -10 25.5t-25 9.5h-64v-71z" />
    <glyph glyph-name="uni045B" unicode="&#x45b;" 
d="M363 502q82 0 133 -56.5t51 -158.5v-287h-166v266q0 38 -20.5 59t-55.5 21q-39 0 -60 -23.5t-21 -68.5v-254h-166v537h-58v105h58v58h166v-58h135v-105h-135v-98q44 63 139 63z" />
    <glyph glyph-name="uni045C" unicode="&#x45c;" horiz-adv-x="542" 
d="M248 700h194l-116 -145h-158zM367 250l175 -250h-186l-142 213v-213h-166v500h166v-209l129 209h192z" />
    <glyph glyph-name="uni045E" unicode="&#x45e;" horiz-adv-x="549" 
d="M116 694h323v-140h-323v140zM286 210l79 290h184l-169 -485q-78 -225 -304 -215v156q53 0 79.5 11t42.5 41l-198 492h183z" />
    <glyph glyph-name="uni045F" unicode="&#x45f;" horiz-adv-x="575" 
d="M361 157v343h166v-500h-159v-134h-160v134h-160v500h166v-343h147z" />
    <glyph glyph-name="uni0490" unicode="&#x490;" horiz-adv-x="475" 
d="M291 700v120h178v-293h-235v-527h-179v700h236z" />
    <glyph glyph-name="uni0491" unicode="&#x491;" horiz-adv-x="417" 
d="M248 500v102h159v-261h-193v-341h-166v500h200z" />
    <glyph glyph-name="Wgrave" unicode="&#x1e80;" horiz-adv-x="1004" 
d="M629 755h-158l-116 145h194zM201 0h189l112 395l112 -395h189l195 700h-192l-109 -441l-125 441h-141l-125 -441l-108 441h-193z" />
    <glyph glyph-name="wgrave" unicode="&#x1e81;" horiz-adv-x="798" 
d="M414 700l80 -145h-158l-116 145h194zM544 228l66 272h176l-153 -500h-162l-72 254l-72 -254h-162l-153 500h176l66 -272l75 272h140z" />
    <glyph glyph-name="Wacute" unicode="&#x1e82;" horiz-adv-x="1004" 
d="M435 755l80 145h194l-116 -145h-158zM201 0h189l112 395l112 -395h189l195 700h-192l-109 -441l-125 441h-141l-125 -441l-108 441h-193z" />
    <glyph glyph-name="wacute" unicode="&#x1e83;" horiz-adv-x="798" 
d="M380 700h194l-116 -145h-158zM544 228l66 272h176l-153 -500h-162l-72 254l-72 -254h-162l-153 500h176l66 -272l75 272h140z" />
    <glyph glyph-name="Wdieresis" unicode="&#x1e84;" horiz-adv-x="1004" 
d="M437 735q-33 0 -56.5 23.5t-23.5 56.5t23.5 56.5t56.5 23.5q32 0 55.5 -23.5t23.5 -56.5t-23.5 -56.5t-55.5 -23.5zM631 735q-32 0 -55.5 23.5t-23.5 56.5t23.5 56.5t55.5 23.5q33 0 56.5 -23.5t23.5 -56.5t-23.5 -56.5t-56.5 -23.5zM390 0h-189l-196 700h193l108 -441
l125 441h141l125 -441l109 441h192l-195 -700h-189l-112 395z" />
    <glyph glyph-name="wdieresis" unicode="&#x1e85;" horiz-adv-x="798" 
d="M302 535q-33 0 -56.5 23.5t-23.5 56.5t23.5 56.5t56.5 23.5q32 0 55.5 -23.5t23.5 -56.5t-23.5 -56.5t-55.5 -23.5zM496 535q-32 0 -55.5 23.5t-23.5 56.5t23.5 56.5t55.5 23.5q33 0 56.5 -23.5t23.5 -56.5t-23.5 -56.5t-56.5 -23.5zM544 228l66 272h176l-153 -500h-162
l-72 254l-72 -254h-162l-153 500h176l66 -272l75 272h140z" />
    <glyph glyph-name="Ygrave" unicode="&#x1ef2;" horiz-adv-x="651" 
d="M340 900l80 -145h-158l-116 145h194zM450 700h201l-236 -431v-269h-179v267l-236 433h201l124 -259z" />
    <glyph glyph-name="ygrave" unicode="&#x1ef3;" horiz-adv-x="549" 
d="M293 700l80 -145h-158l-116 145h194zM287 210l78 290h184l-171 -492q-40 -113 -113 -163t-189 -45v156q53 0 80 13t44 47l-200 484h186z" />
    <glyph glyph-name="endash" unicode="&#x2013;" horiz-adv-x="640" 
d="M585 222h-530v158h530v-158z" />
    <glyph glyph-name="emdash" unicode="&#x2014;" horiz-adv-x="740" 
d="M685 222h-630v158h630v-158z" />
    <glyph glyph-name="quoteleft" unicode="&#x2018;" horiz-adv-x="302" 
d="M224 386h-183l84 314h134z" />
    <glyph glyph-name="quoteright" unicode="&#x2019;" horiz-adv-x="302" 
d="M78 700h183l-84 -314h-134z" />
    <glyph glyph-name="quotesinglbase" unicode="&#x201a;" horiz-adv-x="302" 
d="M78 174h183l-84 -314h-134z" />
    <glyph glyph-name="quotedblleft" unicode="&#x201c;" horiz-adv-x="525" 
d="M224 386h-183l84 314h134zM447 386h-183l84 314h134z" />
    <glyph glyph-name="quotedblright" unicode="&#x201d;" horiz-adv-x="525" 
d="M78 700h183l-84 -314h-134zM301 700h183l-84 -314h-134z" />
    <glyph glyph-name="quotedblbase" unicode="&#x201e;" horiz-adv-x="525" 
d="M78 174h183l-84 -314h-134zM301 174h183l-84 -314h-134z" />
    <glyph glyph-name="dagger" unicode="&#x2020;" horiz-adv-x="471" 
d="M319 582h116v-158h-116v-424h-167v424h-117v158h117v118h167v-118z" />
    <glyph glyph-name="daggerdbl" unicode="&#x2021;" horiz-adv-x="471" 
d="M435 582v-158h-116v-148h116v-158h-116v-118h-167v118h-117v158h117v148h-117v158h117v118h167v-118h116z" />
    <glyph glyph-name="bullet" unicode="&#x2022;" horiz-adv-x="399" 
d="M201 186q-69 0 -118 48q-48 49 -48 118q0 68 48 114q49 48 118 48q67 0 114 -48q48 -46 48 -114q0 -69 -48 -118q-47 -48 -114 -48z" />
    <glyph glyph-name="ellipsis" unicode="&#x2026;" horiz-adv-x="788" 
d="M145 -14q-44 0 -74.5 30.5t-30.5 73.5t31 73.5t74 30.5t73.5 -30.5t30.5 -73.5t-30.5 -73.5t-73.5 -30.5zM394 -14q-44 0 -74.5 30.5t-30.5 73.5t31 73.5t74 30.5t73.5 -30.5t30.5 -73.5t-30.5 -73.5t-73.5 -30.5zM644 -14q-44 0 -74.5 30.5t-30.5 73.5t31 73.5t74 30.5
t73.5 -30.5t30.5 -73.5t-30.5 -73.5t-73.5 -30.5z" />
    <glyph glyph-name="perthousand" unicode="&#x2030;" horiz-adv-x="1220" 
d="M219 356q-79 0 -131 52q-53 53 -53 128q0 74 53 127q52 52 131 52q78 0 130 -52t52 -127t-53 -128q-52 -52 -129 -52zM208 71l-69 39l460 500l70 -40zM218 483q32 -2 45.5 25.5t0 54.5t-45.5 25q-22 0 -36.5 -15t-14.5 -37q0 -23 14.5 -38t36.5 -15zM606 -14
q-80 0 -132 52t-52 127q0 76 52 128t132 52q77 0 130 -53q52 -52 52 -127q0 -74 -53 -127q-52 -52 -129 -52zM1002 -14q-80 0 -132 52t-52 127q0 76 52 128t132 52q77 0 130 -53q52 -52 52 -127q0 -74 -53 -127q-52 -52 -129 -52zM656 165q0 23 -14.5 38t-36.5 15t-36.5 -15
t-14.5 -38q0 -22 14.5 -37t36.5 -15q21 0 36 15.5t15 36.5zM1053 165q0 23 -15 38t-37 15t-36.5 -15t-14.5 -38q0 -22 14.5 -37t36.5 -15t37 15.5t15 36.5z" />
    <glyph glyph-name="guilsinglleft" unicode="&#x2039;" horiz-adv-x="364" 
d="M168 504h141l-112 -195l112 -195h-141l-113 195z" />
    <glyph glyph-name="guilsinglright" unicode="&#x203a;" horiz-adv-x="364" 
d="M55 504h141l113 -195l-113 -195h-141l112 195z" />
    <glyph glyph-name="fraction" unicode="&#x2044;" horiz-adv-x="180" 
d="M349 700l-404 -700h-114l404 700h114z" />
    <glyph glyph-name="Euro" unicode="&#x20ac;" horiz-adv-x="629" 
d="M463 232l150 -86q-77 -161 -246 -161q-114 0 -189 70.5t-97 194.5h-68v84h60v16v19h-60v84h69q22 123 97 192.5t188 69.5q166 0 241 -153l-149 -86q-33 65 -92 65q-78 0 -103 -88h166v-84h-179v-19v-16h179v-84h-167q25 -91 104 -91q60 0 96 73z" />
    <glyph glyph-name="uni20BD" unicode="&#x20bd;" horiz-adv-x="610" 
d="M347 231h-93v-40h205v-99h-205v-92h-179v92h-65v99h65v40h-65v159h65v310h272q106 0 178 -66t72 -169q0 -109 -71 -172q-71 -62 -179 -62zM347 530h-93v-140h93q31 0 51 19t20 51t-20 51t-51 19z" />
    <glyph glyph-name="uni2116" unicode="&#x2116;" horiz-adv-x="1055" 
d="M853 366q-76 0 -127 51t-51 123q0 74 50 124q51 51 128 51t126 -51q51 -51 51 -124q0 -72 -50 -124q-50 -50 -127 -50zM441 348v352h178v-700h-138l-247 352v-352h-179v700h139zM853 586q-28 2 -39.5 -22t0 -48t39.5 -21q27 -3 38.5 21t0 48t-38.5 22zM1017 166h-327v159
h327v-159z" />
    <glyph glyph-name="trademark" unicode="&#x2122;" horiz-adv-x="481" 
d="M30 700h175v-69h-51v-131h-73v131h-51v69zM337 633l44 67h70v-200h-70v95l-41 -62h-7l-40 61v-94h-70v200h70z" />
    <glyph glyph-name="estimated" unicode="&#x212e;" horiz-adv-x="780" 
d="M760 350q0 -15 -15 -15h-560q-15 0 -15 -15v-192q0 -12 7 -19q84 -89 233 -89q146 0 231 97q7 9 18 9h37q10 0 13 -6t-4 -13q-109 -117 -295 -117q-177 0 -283 103q-107 104 -107 257t103 256q104 104 267 104q162 0 266 -104t104 -256zM610 380v192q0 12 -7 19
q-84 89 -213 89t-213 -89q-7 -7 -7 -19v-192q0 -15 15 -15h410q15 0 15 15z" />
    <glyph glyph-name="oneeighth" unicode="&#x215b;" horiz-adv-x="805" 
d="M240 300h-131v266l-79 -21l-30 109l127 46h113v-400zM107 0l404 700h114l-404 -700h-114zM733 209q57 -35 57 -99q0 -57 -42 -90.5t-117 -33.5t-117.5 33.5t-42.5 90.5q0 65 58 99q-44 33 -44 83q0 55 41 88.5t105 33.5t104.5 -33.5t40.5 -88.5q0 -52 -43 -83zM631 308
q-34 0 -34 -28q0 -27 34 -27q33 0 33 27q0 28 -33 28zM631 93q23 -2 33 16t0 35.5t-33 15.5q-38 0 -38 -33q0 -34 38 -34z" />
    <glyph glyph-name="threeeighths" unicode="&#x215c;" horiz-adv-x="864" 
d="M326 425q0 -66 -43 -102.5t-118 -36.5q-120 0 -162 94l108 62q15 -43 54 -43q32 0 32 26q0 25 -32 25h-28l-46 68l56 66h-124v116h286v-87l-65 -76q82 -30 82 -112zM166 0l404 700h114l-404 -700h-114zM792 209q57 -35 57 -99q0 -57 -42 -90.5t-117 -33.5t-117.5 33.5
t-42.5 90.5q0 65 58 99q-44 33 -44 83q0 55 41 88.5t105 33.5t104.5 -33.5t40.5 -88.5q0 -52 -43 -83zM690 308q-34 0 -34 -28q0 -27 34 -27q33 0 33 27q0 28 -33 28zM690 93q23 -2 33 16t0 35.5t-33 15.5q-38 0 -38 -33q0 -34 38 -34z" />
    <glyph glyph-name="fiveeighths" unicode="&#x215d;" horiz-adv-x="860" 
d="M319 420q0 -65 -41 -99.5t-111 -34.5q-120 0 -162 94l107 56q15 -41 52 -41q35 0 35 27t-34 27h-133l17 251h252v-116h-142l-3 -33h16q70 0 108.5 -33t38.5 -98zM162 0l404 700h114l-404 -700h-114zM788 209q57 -35 57 -99q0 -57 -42 -90.5t-117 -33.5t-117.5 33.5
t-42.5 90.5q0 65 58 99q-44 33 -44 83q0 55 41 88.5t105 33.5t104.5 -33.5t40.5 -88.5q0 -52 -43 -83zM686 308q-34 0 -34 -28q0 -27 34 -27q33 0 33 27q0 28 -33 28zM686 93q23 -2 33 16t0 35.5t-33 15.5q-38 0 -38 -33q0 -34 38 -34z" />
    <glyph glyph-name="seveneighths" unicode="&#x215e;" horiz-adv-x="831" 
d="M289 601l-113 -301h-135l107 284h-148v116h289v-99zM133 0l404 700h114l-404 -700h-114zM759 209q57 -35 57 -99q0 -57 -42 -90.5t-117 -33.5t-117.5 33.5t-42.5 90.5q0 65 58 99q-44 33 -44 83q0 55 41 88.5t105 33.5t104.5 -33.5t40.5 -88.5q0 -52 -43 -83zM657 308
q-34 0 -34 -28q0 -27 34 -27q33 0 33 27q0 28 -33 28zM657 93q23 -2 33 16t0 35.5t-33 15.5q-38 0 -38 -33q0 -34 38 -34z" />
    <glyph glyph-name="arrowleft" unicode="&#x2190;" horiz-adv-x="785" 
d="M331 429h419v-158h-419l221 -221h-217l-300 300l300 300h217z" />
    <glyph glyph-name="arrowup" unicode="&#x2191;" horiz-adv-x="671" 
d="M335 700l300 -300v-217l-216 216v-399h-167v400l-217 -217v217z" />
    <glyph glyph-name="arrowright" unicode="&#x2192;" horiz-adv-x="785" 
d="M233 650h217l300 -300l-300 -300h-217l221 221h-419v158h419z" />
    <glyph glyph-name="arrowdown" unicode="&#x2193;" horiz-adv-x="671" 
d="M419 700v-399l216 216v-217l-300 -300l-300 300v217l217 -217v400h167z" />
    <glyph glyph-name="arrowboth" unicode="&#x2194;" horiz-adv-x="1137" 
d="M603 635h214l285 -285l-285 -285h-214l204 206h-478l206 -206h-215l-285 285l285 285h215l-206 -206h479z" />
    <glyph glyph-name="arrowupdn" unicode="&#x2195;" horiz-adv-x="640" 
d="M605 594v-215l-202 202v-462l202 202v-215l-285 -285l-285 285v215l202 -202v462l-202 -202v215l285 285z" />
    <glyph glyph-name="uni2196" unicode="&#x2196;" horiz-adv-x="652" 
d="M303 474l314 -314l-115 -115l-314 313v-308l-153 153v424h424l153 -153h-309z" />
    <glyph glyph-name="uni2197" unicode="&#x2197;" horiz-adv-x="652" 
d="M40 474l153 153h424v-424l-153 -153v308l-314 -313l-115 115l314 314h-309z" />
    <glyph glyph-name="uni2198" unicode="&#x2198;" horiz-adv-x="652" 
d="M464 333v309l153 -153v-424h-424l-153 153h308l-313 313l115 115z" />
    <glyph glyph-name="uni2199" unicode="&#x2199;" horiz-adv-x="652" 
d="M502 646l115 -115l-313 -313h308l-153 -153h-424v424l153 153v-309z" />
    <glyph glyph-name="partialdiff" unicode="&#x2202;" horiz-adv-x="584" 
d="M240 715q126 0 214 -102q90 -101 90 -263q0 -176 -81 -271q-79 -94 -209 -94q-103 0 -163 61q-60 62 -60 154q0 102 62 169q61 66 166 66q57 0 111 -26q-22 147 -151 150q-56 1 -115 -31v151q56 36 136 36zM264 139q85 0 106 128q-40 24 -89 24q-37 0 -60.5 -23
t-23.5 -61q0 -31 18.5 -49.5t48.5 -18.5z" />
    <glyph glyph-name="emptyset" unicode="&#x2205;" horiz-adv-x="804" 
d="M749 720l-89 -116q104 -107 104 -254q0 -150 -106 -256t-256 -106q-95 0 -177 46l-41 -54h-129l89 116q-104 107 -104 254q0 150 106 256t256 106q95 0 177 -46l41 54h129zM154 350q0 -92 59 -163l297 389q-52 24 -108 24q-103 0 -176 -73q-72 -73 -72 -177zM402 100
q103 0 175 73q73 73 73 177q0 92 -59 163l-297 -389q52 -24 108 -24z" />
    <glyph glyph-name="product" unicode="&#x220f;" horiz-adv-x="631" 
d="M222 -200h-167v900h520v-900h-166v741h-187v-741z" />
    <glyph glyph-name="summation" unicode="&#x2211;" horiz-adv-x="561" 
d="M525 -200h-500v139l196 321l-181 300v140h470v-163h-266l166 -277l-180 -297h295v-163z" />
    <glyph glyph-name="minus" unicode="&#x2212;" horiz-adv-x="560" 
d="M519 271h-478v158h478v-158z" />
    <glyph glyph-name="radical" unicode="&#x221a;" horiz-adv-x="693" 
d="M413 0h-160l-113 179h-109v158h204l84 -146l204 609h170z" />
    <glyph glyph-name="infinity" unicode="&#x221e;" horiz-adv-x="819" 
d="M584 542q84 0 139 -54q56 -53 56 -138t-56 -139q-56 -53 -139 -53q-90 0 -174 86q-84 -86 -174 -86q-84 0 -140 53q-55 54 -55 139q0 86 55 138q56 54 140 54q90 0 174 -86q84 86 174 86zM252 310q35 0 69 40q-34 40 -69 40q-18 0 -30.5 -11t-12.5 -29t12.5 -29t30.5 -11
zM568 310q18 0 30 11t12 29t-12 29t-30 11q-35 0 -69 -40q34 -40 69 -40z" />
    <glyph glyph-name="integral" unicode="&#x222b;" horiz-adv-x="461" 
d="M0 -204v164q28 -16 61 -2q31 14 39 54l89 521q19 111 93 152q76 41 179 17v-164q-28 16 -62 2q-32 -14 -38 -54l-89 -521q-19 -112 -94 -152q-74 -41 -178 -17z" />
    <glyph glyph-name="approxequal" unicode="&#x2248;" horiz-adv-x="568" 
d="M290 371q-47 20 -79 24q-30 5 -48 0t-48 -22l-80 38q24 107 90 143t153 -5q64 -31 91 -27.5t39 45.5l125 -58q-21 -104 -88 -141.5t-155 3.5zM160 131l-125 58q21 105 88 142t155 -4q47 -20 79 -24t51.5 1t45.5 22l79 -39q-24 -107 -90 -143t-153 5q-64 31 -91 27.5
t-39 -45.5z" />
    <glyph glyph-name="notequal" unicode="&#x2260;" horiz-adv-x="511" 
d="M475 539v-159h-164l-26 -60h190v-159h-261l-49 -111h-85l49 111h-94v159h164l27 60h-191v159h261l49 111h86l-49 -111h93z" />
    <glyph glyph-name="lessequal" unicode="&#x2264;" horiz-adv-x="521" 
d="M36 526l450 158v-173l-280 -69l280 -69v-173l-450 158v168zM486 21h-450v159h450v-159z" />
    <glyph glyph-name="greaterequal" unicode="&#x2265;" horiz-adv-x="521" 
d="M35 511v173l450 -158v-168l-450 -158v173l280 69zM485 21h-450v159h450v-159z" />
    <glyph glyph-name="lozenge" unicode="&#x25ca;" horiz-adv-x="588" 
d="M367 0h-146l-186 350l186 350h146l186 -350zM218 350l76 -143l76 143l-76 143z" />
    <glyph glyph-name="NULL" horiz-adv-x="0" 
 />
    <glyph glyph-name="CR" horiz-adv-x="333" 
 />
    <glyph glyph-name="i.loclTRK" horiz-adv-x="262" 
d="M130 543q-37 0 -63.5 26.5t-26.5 62.5q0 37 26.5 63.5t63.5 26.5q36 0 62.5 -26.5t26.5 -63.5q0 -36 -26.5 -62.5t-62.5 -26.5zM214 0h-166v500h166v-500z" />
    <glyph glyph-name="f_f_j" horiz-adv-x="855" 
d="M527 500h280v-500q0 -118 -58.5 -170t-181.5 -45v154q38 -2 55.5 12.5t17.5 48.5v341h-113v-341h-167v341h-116v-341h-166v341h-63v159h63q0 109 64 165.5t188 49.5v-154q-86 6 -86 -61h116v10q0 215 252 215q66 0 130 -15v-145q-64 9 -123 9q-47 0 -69.5 -14.5
t-22.5 -49.5v-10z" />
    <glyph glyph-name="f_j" horiz-adv-x="572" 
d="M244 500h280v-500q0 -118 -58 -170t-181 -45v154q38 -2 55.5 12.5t17.5 48.5v341h-114v-341h-166v341h-63v159h63q0 215 252 215q66 0 130 -15v-145q-64 9 -123 9q-47 0 -70 -14.5t-23 -49.5z" />
    <glyph glyph-name="uni0414.loclBGR" horiz-adv-x="740" 
d="M477 700l171 -527h82v-307h-179v134h-362v-134h-179v307h82l171 527h214zM370 500l-93 -327h186z" />
    <glyph glyph-name="uni041B.loclBGR" horiz-adv-x="665" 
d="M0 0l226 700h213l226 -700h-196l-137 482l-136 -482h-196z" />
    <glyph glyph-name="uni0424.loclBGR" horiz-adv-x="869" 
d="M519 -6v-94h-169v94q-148 22 -235 117t-87 239t87 239t235 117v94h169v-94q147 -22 235 -118q87 -95 87 -238q0 -144 -87 -239t-235 -117zM350 161v378q-144 -33 -144 -189t144 -189zM519 538v-376q143 32 143 188t-143 188z" />
    <glyph glyph-name="uni0414.ss01" horiz-adv-x="712" 
d="M619 700v-527h75v-173h-684v173h74q48 77 48 222v305h487zM270 173h171v361h-131v-141q0 -141 -40 -220z" />
    <glyph glyph-name="uni0426.ss01" horiz-adv-x="702" 
d="M604 700v-527h80v-173h-629v700h184v-527h182v527h183z" />
    <glyph glyph-name="uni0429.ss01" horiz-adv-x="992" 
d="M894 700v-527h80v-173h-919v700h179v-527h151v527h179v-527h151v527h179z" />
    <glyph glyph-name="uni0414.loclBGR.ss01" horiz-adv-x="740" 
d="M477 700l171 -527h82v-173h-720v173h82l171 527h214zM370 500l-93 -327h186z" />
    <glyph glyph-name="uni0432.loclBGR" horiz-adv-x="562" 
d="M432 409q105 -51 105 -191q0 -109 -65.5 -170.5t-181.5 -61.5q-108 0 -176 66q-66 66 -66 176v239q0 112 64 179q65 68 171 68q93 0 148.5 -49t55.5 -132q0 -66 -55 -124zM278 560q-29 0 -46.5 -23t-17.5 -63v-55l20 4q25 5 47 7q44 38 44 78q0 52 -47 52zM293 144
q37 0 57.5 19.5t20.5 54.5q0 42 -33 59t-90 5l-34 -7v-47q0 -38 21.5 -61t57.5 -23z" />
    <glyph glyph-name="uni0433.loclBGR" horiz-adv-x="473" 
d="M321 178l139 -73q-56 -119 -223 -119q-88 0 -150 41t-62 127q0 45 18 77t45 47.5t58.5 26t58.5 15.5t45 13.5t18 20.5q0 24 -37 24q-41 0 -62 -43l-139 63q59 116 207 116q81 0 140 -44t59 -124q0 -48 -23.5 -82t-60.5 -49q-24 -9 -67 -20.5t-65 -21t-22 -22.5
q0 -28 44 -28q58 0 79 55z" />
    <glyph glyph-name="uni0434.loclBGR" horiz-adv-x="618" 
d="M406 452v48h164v-480q0 -116 -77 -175.5t-186 -59.5q-84 0 -148.5 31.5t-97.5 90.5l138 80q36 -57 106 -57q46 0 73.5 23.5t27.5 66.5v48q-51 -62 -140 -62q-103 0 -171 74q-67 73 -67 180t67 180q68 74 171 74q89 0 140 -62zM223 185q31 -29 77 -29q47 0 76 29
q30 30 30 75q0 46 -30 74q-28 30 -76 30q-47 0 -77 -30q-29 -29 -29 -74q0 -44 29 -75z" />
    <glyph glyph-name="uni0436.loclBGR" horiz-adv-x="779" 
d="M618 250l156 -250h-183l-119 205v-205h-165v205l-119 -205h-183l156 250l-146 250h183l109 -201v401h165v-401l109 201h183z" />
    <glyph glyph-name="uni0438.loclBGR" horiz-adv-x="579" 
d="M365 234v266h166v-500h-166v50q-45 -64 -139 -64q-83 0 -133.5 56.5t-50.5 158.5v299h166v-278q0 -38 20 -58.5t55 -20.5q39 0 60.5 23.5t21.5 67.5z" />
    <glyph glyph-name="uni0439.loclBGR" horiz-adv-x="579" 
d="M125 694h323v-140h-323v140zM365 234v266h166v-500h-166v50q-45 -64 -139 -64q-83 0 -133.5 56.5t-50.5 158.5v299h166v-278q0 -38 20 -58.5t55 -20.5q39 0 60.5 23.5t21.5 67.5z" />
    <glyph glyph-name="uni043A.loclBGR" horiz-adv-x="542" 
d="M367 250l175 -250h-186l-142 213v-213h-166v700h166v-409l129 209h192z" />
    <glyph glyph-name="uni043B.loclBGR" horiz-adv-x="554" 
d="M367 500l187 -500h-184l-93 287l-93 -287h-184l187 500h180z" />
    <glyph glyph-name="uni043F.loclBGR" horiz-adv-x="579" 
d="M353 514q83 0 133.5 -56.5t50.5 -158.5v-299h-166v278q0 38 -20 58.5t-55 20.5q-39 0 -60.5 -23.5t-21.5 -67.5v-266h-166v500h166v-50q45 64 139 64z" />
    <glyph glyph-name="uni0442.loclBGR" horiz-adv-x="852" 
d="M622 514q87 0 137.5 -55.5t50.5 -152.5v-306h-167v287q0 70 -62 70q-33 0 -51 -22t-18 -62v-273h-166v287q0 70 -63 70q-33 0 -51 -22t-18 -62v-273h-166v500h166v-47q46 61 135 61q86 0 128 -64q52 64 145 64z" />
    <glyph glyph-name="uni0446.loclBGR" horiz-adv-x="622" 
d="M561 152h45v-286h-157v148q-35 14 -58 47q-51 -75 -165 -75q-82 0 -133 56.5t-51 158.5v299h166v-278q0 -38 20 -58.5t56 -20.5q39 0 60 23.5t21 67.5v266h166v-318q0 -30 30 -30z" />
    <glyph glyph-name="uni0448.loclBGR" horiz-adv-x="852" 
d="M638 227v273h166v-500h-166v47q-46 -61 -135 -61q-86 0 -128 64q-52 -64 -145 -64q-87 0 -137.5 55.5t-50.5 152.5v306h167v-287q0 -70 62 -70q33 0 51 22t18 62v273h166v-287q0 -70 63 -70q33 0 51 22t18 62z" />
    <glyph glyph-name="uni0449.loclBGR" horiz-adv-x="894" 
d="M834 152h45v-286h-158v148q-33 13 -55 43q-53 -71 -154 -71q-92 0 -136 66q-52 -66 -146 -66q-87 0 -137.5 55.5t-50.5 152.5v306h166v-287q0 -33 16 -51.5t46 -18.5q33 0 51.5 22.5t18.5 61.5v273h166v-287q0 -70 62 -70q33 0 51 22t18 62v273h167v-318q0 -30 30 -30z
" />
    <glyph glyph-name="uni044C.loclBGR" horiz-adv-x="497" 
d="M204 373h68q101 0 155 -51t54 -141q0 -85 -60 -141q-58 -55 -159 -55q-104 0 -162 54.5t-58 151.5v309h162v-127zM262 137q26 0 41.5 13.5t15.5 34.5q0 48 -52 48h-63v-40q0 -26 15.5 -41t42.5 -15z" />
    <glyph glyph-name="uni044A.loclBGR" horiz-adv-x="578" 
d="M285 373h68q102 0 156 -51t54 -141q0 -85 -60 -141q-59 -55 -160 -55q-104 0 -162 54.5t-58 151.5v155h-123v154h285v-127zM343 137q26 0 42 13.5t16 34.5q0 48 -53 48h-63v-40q0 -26 15.5 -41t42.5 -15z" />
    <glyph glyph-name="uni044E.loclBGR" horiz-adv-x="807" 
d="M516 514q110 0 189 -77q78 -77 78 -187q0 -112 -78 -188q-77 -76 -189 -76q-90 0 -158 51q-67 52 -91 135h-53v-172h-166v700h166v-372h53q24 84 91 134q67 52 158 52zM516 146q43 0 71.5 29.5t28.5 74.5t-28.5 74.5t-71.5 29.5q-44 0 -72.5 -29t-28.5 -75t28.5 -75
t72.5 -29z" />
    <glyph glyph-name="zero.sinf" horiz-adv-x="409" 
d="M339 -116q-51 -58 -135 -58t-135 58q-51 57 -51 156t51 156q51 58 135 58t135 -58q52 -56 52 -156t-52 -156zM153 40q0 -83 51 -83t51 83t-51 83t-51 -83z" />
    <glyph glyph-name="one.sinf" horiz-adv-x="278" 
d="M0 194l127 46h113v-400h-131v266l-79 -21z" />
    <glyph glyph-name="two.sinf" horiz-adv-x="351" 
d="M328 -160h-306v89l143 139q29 29 29 48q0 22 -26 22t-46 -44l-107 60q46 100 158 100q63 0 107 -36t44 -93q0 -64 -70 -128l-42 -40h116v-117z" />
    <glyph glyph-name="three.sinf" horiz-adv-x="341" 
d="M309 153l-65 -76q82 -30 82 -112q0 -66 -43 -102.5t-118 -36.5q-120 0 -162 94l108 62q15 -43 54 -43q32 0 32 26q0 25 -32 25h-28l-46 68l56 66h-124v116h286v-87z" />
    <glyph glyph-name="four.sinf" horiz-adv-x="362" 
d="M314 11h35v-115h-35v-56h-122v56h-184v115l116 229h138l-111 -229h41v63h122v-63z" />
    <glyph glyph-name="five.sinf" horiz-adv-x="335" 
d="M156 91h16q70 0 108.5 -33t38.5 -98t-41 -99.5t-111 -34.5q-120 0 -162 94l107 56q15 -41 52 -41q35 0 35 27t-34 27h-133l17 251h252v-116h-142z" />
    <glyph glyph-name="six.sinf" horiz-adv-x="343" 
d="M284 240l-77 -127q57 -10 90 -48t33 -94q0 -66 -43.5 -105.5t-115.5 -39.5q-71 0 -114.5 40.5t-43.5 104.5q0 42 20 77l117 192h134zM171 -66q38 0 38 37q0 36 -38 36q-37 0 -37 -36q0 -37 37 -37z" />
    <glyph glyph-name="seven.sinf" horiz-adv-x="302" 
d="M0 124v116h289v-99l-113 -301h-135l107 284h-148z" />
    <glyph glyph-name="eight.sinf" horiz-adv-x="349" 
d="M277 49q57 -35 57 -99q0 -57 -42 -90.5t-117 -33.5t-117.5 33.5t-42.5 90.5q0 65 58 99q-44 33 -44 83q0 55 41 88.5t105 33.5t104.5 -33.5t40.5 -88.5q0 -52 -43 -83zM175 148q-34 0 -34 -28q0 -27 34 -27q33 0 33 27q0 28 -33 28zM175 -67q23 -2 33 16t0 35.5t-33 15.5
q-38 0 -38 -33q0 -34 38 -34z" />
    <glyph glyph-name="nine.sinf" horiz-adv-x="343" 
d="M330 109q0 -42 -20 -77l-117 -192h-134l77 127q-57 9 -90 47.5t-33 94.5q0 64 43.5 104.5t114.5 40.5q72 0 115.5 -39.5t43.5 -105.5zM171 146q-37 0 -37 -37q0 -36 37 -36q38 0 38 36q0 37 -38 37z" />
    <glyph glyph-name="zero.tf" 
d="M295 -15q-138 0 -214 99q-76 100 -76 266q0 167 76 265q76 100 214 100q136 0 212 -100q77 -100 77 -265t-77 -266q-77 -99 -212 -99zM184 350q0 -191 111 -191t111 191t-111 191t-111 -191z" />
    <glyph glyph-name="one.tf" 
d="M397 700v-527h177v-173h-549v173h194v339l-123 -31l-42 151l189 68h154z" />
    <glyph glyph-name="two.tf" 
d="M555 0h-524v130l262 236q71 65 71 109q0 28 -20.5 47t-55.5 19q-70 0 -110 -85l-153 89q35 83 105 126.5t159 43.5q108 0 181 -64q73 -63 73 -167q0 -60 -28.5 -110.5t-91.5 -108.5l-102 -92h234v-173z" />
    <glyph glyph-name="three.tf" 
d="M529 559l-121 -138q73 -21 114.5 -72.5t41.5 -125.5q0 -115 -74 -177q-73 -61 -193 -61q-103 0 -176 45t-103 131l155 89q30 -91 119 -91q94 0 94 68t-96 68h-34l-72 105l115 129h-255v171h485v-141z" />
    <glyph glyph-name="four.tf" 
d="M504 270h70v-163h-70v-107h-178v107h-321v163l218 430h198l-219 -430h124v131h178v-131z" />
    <glyph glyph-name="five.tf" 
d="M246 454h59q122 0 192 -59.5t70 -172.5q0 -114 -76 -175q-77 -62 -194 -62q-101 0 -172.5 43t-104.5 127l156 87q29 -83 119 -83q93 0 93 65q0 64 -93 64h-236l29 412h439v-171h-275z" />
    <glyph glyph-name="six.tf" 
d="M483 700l-149 -213q110 -10 176 -79q64 -67 64 -171q0 -112 -76 -182q-74 -70 -203 -70t-205 69q-75 70 -75 183q0 90 50 155l215 308h203zM295 326q-47 0 -74 -23.5t-27 -65.5t27 -65t74 -23t74 23t27 65t-27.5 65.5t-73.5 23.5z" />
    <glyph glyph-name="seven.tf" 
d="M20 527v173h539v-148l-248 -552h-194l236 527h-333z" />
    <glyph glyph-name="eight.tf" 
d="M475 365q99 -59 99 -168q0 -98 -73.5 -154.5t-205.5 -56.5t-206 56.5t-74 154.5q0 109 99 168q-75 53 -75 141q0 98 72 153q71 55 184 55q110 0 183 -56q72 -56 72 -152q0 -88 -75 -141zM295 552q-41 0 -63.5 -16t-22.5 -44t22.5 -44t63.5 -16q40 0 63 16t23 44
q0 27 -23.5 43.5t-62.5 16.5zM295 150q100 0 100 72q0 34 -26 53.5t-74 19.5t-74.5 -19.5t-26.5 -53.5q0 -72 101 -72z" />
    <glyph glyph-name="nine.tf" 
d="M574 463q0 -83 -42 -145l-223 -318h-203l149 213q-110 10 -176 79q-64 67 -64 171q0 113 75 182q76 70 205 70q130 0 204 -70q75 -69 75 -182zM221 528q-27 -22 -27 -65q0 -42 27 -66q29 -23 74 -23t73 23q28 24 28 66q0 43 -27 65q-28 23 -74 23t-74 -23z" />
    <glyph glyph-name="zero.dnom" horiz-adv-x="409" 
d="M339 43q-51 -57 -135 -57t-135 57q-51 59 -51 157q0 99 51 156q51 58 135 58t135 -58q52 -56 52 -156q0 -99 -52 -157zM153 200q0 -83 51 -83t51 83t-51 83t-51 -83z" />
    <glyph glyph-name="one.dnom" horiz-adv-x="276" 
d="M0 354l127 46h113v-400h-131v266l-79 -21z" />
    <glyph glyph-name="two.dnom" horiz-adv-x="356" 
d="M328 0h-306v89l143 139q29 29 29 48q0 22 -26 22t-46 -44l-107 60q46 100 158 100q63 0 107 -36t44 -93q0 -64 -70 -128l-42 -40h116v-117z" />
    <glyph glyph-name="three.dnom" horiz-adv-x="335" 
d="M309 313l-65 -76q82 -30 82 -112q0 -66 -43 -102.5t-118 -36.5q-120 0 -162 94l108 62q15 -43 54 -43q32 0 32 26q0 25 -32 25h-28l-46 68l56 66h-124v116h286v-87z" />
    <glyph glyph-name="four.dnom" horiz-adv-x="362" 
d="M314 171h35v-115h-35v-56h-122v56h-184v115l116 229h138l-111 -229h41v63h122v-63z" />
    <glyph glyph-name="five.dnom" horiz-adv-x="331" 
d="M156 251h16q70 0 108.5 -33t38.5 -98t-41 -99.5t-111 -34.5q-120 0 -162 94l107 56q15 -41 52 -41q35 0 35 27t-34 27h-133l17 251h252v-116h-142z" />
    <glyph glyph-name="six.dnom" horiz-adv-x="343" 
d="M284 400l-77 -127q57 -10 90 -48t33 -94q0 -66 -43.5 -105.5t-115.5 -39.5q-71 0 -114.5 40.5t-43.5 104.5q0 42 20 77l117 192h134zM171 94q38 0 38 37q0 36 -38 36q-37 0 -37 -36q0 -37 37 -37z" />
    <glyph glyph-name="seven.dnom" horiz-adv-x="302" 
d="M0 284v116h289v-99l-113 -301h-135l107 284h-148z" />
    <glyph glyph-name="eight.dnom" horiz-adv-x="349" 
d="M277 209q57 -35 57 -99q0 -57 -42 -90.5t-117 -33.5t-117.5 33.5t-42.5 90.5q0 65 58 99q-44 33 -44 83q0 55 41 88.5t105 33.5t104.5 -33.5t40.5 -88.5q0 -52 -43 -83zM175 308q-34 0 -34 -28q0 -27 34 -27q33 0 33 27q0 28 -33 28zM175 93q23 -2 33 16t0 35.5t-33 15.5
q-38 0 -38 -33q0 -34 38 -34z" />
    <glyph glyph-name="nine.dnom" horiz-adv-x="343" 
d="M328 269q0 -42 -20 -77l-117 -192h-134l77 127q-57 9 -90 47.5t-33 94.5q0 64 43.5 104.5t114.5 40.5q72 0 115.5 -39.5t43.5 -105.5zM169 306q-37 0 -37 -37q0 -36 37 -36q38 0 38 36q0 37 -38 37z" />
    <glyph glyph-name="zero.numr" horiz-adv-x="409" 
d="M339 343q-51 -57 -135 -57t-135 57q-51 59 -51 157q0 99 51 156q51 58 135 58t135 -58q52 -56 52 -156q0 -99 -52 -157zM153 500q0 -83 51 -83t51 83t-51 83t-51 -83z" />
    <glyph glyph-name="one.numr" horiz-adv-x="276" 
d="M0 654l127 46h113v-400h-131v266l-79 -21z" />
    <glyph glyph-name="two.numr" horiz-adv-x="356" 
d="M328 300h-306v89l143 139q29 29 29 48q0 22 -26 22t-46 -44l-107 60q46 100 158 100q63 0 107 -36t44 -93q0 -64 -70 -128l-42 -40h116v-117z" />
    <glyph glyph-name="three.numr" horiz-adv-x="335" 
d="M309 613l-65 -76q82 -30 82 -112q0 -66 -43 -102.5t-118 -36.5q-120 0 -162 94l108 62q15 -43 54 -43q32 0 32 26q0 25 -32 25h-28l-46 68l56 66h-124v116h286v-87z" />
    <glyph glyph-name="four.numr" horiz-adv-x="362" 
d="M314 471h35v-115h-35v-56h-122v56h-184v115l116 229h138l-111 -229h41v63h122v-63z" />
    <glyph glyph-name="five.numr" horiz-adv-x="331" 
d="M156 551h16q70 0 108.5 -33t38.5 -98t-41 -99.5t-111 -34.5q-120 0 -162 94l107 56q15 -41 52 -41q35 0 35 27t-34 27h-133l17 251h252v-116h-142z" />
    <glyph glyph-name="six.numr" horiz-adv-x="343" 
d="M284 700l-77 -127q57 -10 90 -48t33 -94q0 -66 -43.5 -105.5t-115.5 -39.5q-71 0 -114.5 40.5t-43.5 104.5q0 42 20 77l117 192h134zM171 394q38 0 38 37q0 36 -38 36q-37 0 -37 -36q0 -37 37 -37z" />
    <glyph glyph-name="seven.numr" horiz-adv-x="302" 
d="M0 584v116h289v-99l-113 -301h-135l107 284h-148z" />
    <glyph glyph-name="eight.numr" horiz-adv-x="349" 
d="M277 509q57 -35 57 -99q0 -57 -42 -90.5t-117 -33.5t-117.5 33.5t-42.5 90.5q0 65 58 99q-44 33 -44 83q0 55 41 88.5t105 33.5t104.5 -33.5t40.5 -88.5q0 -52 -43 -83zM175 608q-34 0 -34 -28q0 -27 34 -27q33 0 33 27q0 28 -33 28zM175 393q23 -2 33 16t0 35.5
t-33 15.5q-38 0 -38 -33q0 -34 38 -34z" />
    <glyph glyph-name="nine.numr" horiz-adv-x="343" 
d="M328 569q0 -42 -20 -77l-117 -192h-134l77 127q-57 9 -90 47.5t-33 94.5q0 64 43.5 104.5t114.5 40.5q72 0 115.5 -39.5t43.5 -105.5zM169 606q-37 0 -37 -37q0 -36 37 -36q38 0 38 36q0 37 -38 37z" />
    <glyph glyph-name="zero.sups" horiz-adv-x="409" 
d="M339 503q-51 -57 -135 -57t-135 57q-51 59 -51 157q0 99 51 156q51 58 135 58t135 -58q52 -56 52 -156q0 -99 -52 -157zM153 660q0 -83 51 -83t51 83t-51 83t-51 -83z" />
    <glyph glyph-name="one.sups" horiz-adv-x="276" 
d="M0 814l127 46h113v-400h-131v266l-79 -21z" />
    <glyph glyph-name="two.sups" horiz-adv-x="356" 
d="M328 460h-306v89l143 139q29 29 29 48q0 22 -26 22t-46 -44l-107 60q46 100 158 100q63 0 107 -36t44 -93q0 -64 -70 -128l-42 -40h116v-117z" />
    <glyph glyph-name="three.sups" horiz-adv-x="335" 
d="M309 773l-65 -76q82 -30 82 -112q0 -66 -43 -102.5t-118 -36.5q-120 0 -162 94l108 62q15 -43 54 -43q32 0 32 26q0 25 -32 25h-28l-46 68l56 66h-124v116h286v-87z" />
    <glyph glyph-name="four.sups" horiz-adv-x="362" 
d="M314 631h35v-115h-35v-56h-122v56h-184v115l116 229h138l-111 -229h41v63h122v-63z" />
    <glyph glyph-name="five.sups" horiz-adv-x="331" 
d="M156 711h16q70 0 108.5 -33t38.5 -98t-41 -99.5t-111 -34.5q-120 0 -162 94l107 56q15 -41 52 -41q35 0 35 27t-34 27h-133l17 251h252v-116h-142z" />
    <glyph glyph-name="six.sups" horiz-adv-x="343" 
d="M284 860l-77 -127q57 -10 90 -48t33 -94q0 -66 -43.5 -105.5t-115.5 -39.5q-71 0 -114.5 40.5t-43.5 104.5q0 42 20 77l117 192h134zM171 554q38 0 38 37q0 36 -38 36q-37 0 -37 -36q0 -37 37 -37z" />
    <glyph glyph-name="seven.sups" horiz-adv-x="302" 
d="M0 744v116h289v-99l-113 -301h-135l107 284h-148z" />
    <glyph glyph-name="eight.sups" horiz-adv-x="349" 
d="M277 669q57 -35 57 -99q0 -57 -42 -90.5t-117 -33.5t-117.5 33.5t-42.5 90.5q0 65 58 99q-44 33 -44 83q0 55 41 88.5t105 33.5t104.5 -33.5t40.5 -88.5q0 -52 -43 -83zM175 768q-34 0 -34 -28q0 -27 34 -27q33 0 33 27q0 28 -33 28zM175 553q23 -2 33 16t0 35.5
t-33 15.5q-38 0 -38 -33q0 -34 38 -34z" />
    <glyph glyph-name="nine.sups" horiz-adv-x="343" 
d="M328 729q0 -42 -20 -77l-117 -192h-134l77 127q-57 9 -90 47.5t-33 94.5q0 64 43.5 104.5t114.5 40.5q72 0 115.5 -39.5t43.5 -105.5zM169 766q-37 0 -37 -37q0 -36 37 -36q38 0 38 36q0 37 -38 37z" />
    <glyph glyph-name="cent.tf" 
d="M319 248h4q61 0 87 50l142 -82q-33 -60 -93.5 -95t-134.5 -35q-23 0 -56 5l-29 -91h-63l35 109q-70 31 -111.5 95.5t-41.5 145.5q0 112 76 188t190 76q30 0 49 -4l29 90h63l-35 -107q80 -33 122 -108l-142 -82q-9 18 -30 33zM225 350q0 -53 38 -82l59 184
q-42 -1 -69.5 -29t-27.5 -73z" />
    <glyph glyph-name="dollar.tf" 
d="M569 203q0 -93 -61 -150t-167 -66v-87h-70v86q-95 6 -160.5 51t-92.5 120l155 87q30 -75 98 -89v119q-1 1 -2 1q-104 35 -159 78q-67 52 -67 148q0 95 63 151q65 56 165 62v86h70v-88q153 -19 214 -155l-152 -85q-18 52 -62 69v-118q37 -12 60 -23q15 -5 52 -23
q31 -15 48 -30q73 -57 68 -144zM220 502q0 -30 51 -52v97q-51 -7 -51 -45zM341 247v-94q52 7 52 43q0 17 -11.5 28t-40.5 23z" />
    <glyph glyph-name="Euro.tf" 
d="M430 227l149 -86q-31 -73 -90.5 -114.5t-138.5 -41.5q-107 0 -177.5 70.5t-91.5 194.5h-68v84h60v16v19h-60v84h68q21 123 91 192.5t175 69.5q77 0 135.5 -40.5t91.5 -113.5l-150 -86q-26 66 -77 66q-64 0 -85 -88h135v-84h-145v-19v-16h145v-84h-135q21 -91 88 -91
q51 0 80 68z" />
    <glyph glyph-name="florin.tf" 
d="M574 706v-164q-47 15 -82.5 1t-45.5 -53l-15 -59h108v-159h-149l-79 -303q-29 -112 -111 -152q-82 -41 -185 -17v164q103 -28 124 52l68 256h-106v159h149l28 106q29 111 111 151q82 42 185 18z" />
    <glyph glyph-name="uni20BD.tf" 
d="M324 231h-72v-40h184v-99h-184v-92h-179v92h-63v99h63v40h-63v159h63v310h251q106 0 178 -66t72 -169q0 -109 -71 -172q-71 -62 -179 -62zM324 530h-72v-140h72q31 0 51 19t20 51t-20 51t-51 19z" />
    <glyph glyph-name="sterling.tf" 
d="M266 272v-99h313v-173h-554v173h62v99h-52v140h52v74q0 110 69 169q70 60 165 60q172 0 242 -156l-155 -86q-12 38 -30 54.5t-47 16.5q-30 0 -47.5 -18.5t-17.5 -49.5v-64h203v-140h-203z" />
    <glyph glyph-name="yen.tf" 
d="M389 700h200l-172 -328h120v-94h-153v-41h153v-93h-153v-144h-179v144h-152v93h152v41h-152v94h120l-173 328h201l94 -211z" />
    <glyph glyph-name="brevecy" horiz-adv-x="403" 
d="M363 554h-323v140h323v-140z" />
    </font>
</defs>
</svg>
