<svg width="24" height="27" viewBox="0 0 24 27" fill="none" xmlns="http://www.w3.org/2000/svg">
<path d="M0 10.5358C0 8.71809 0.381487 6.99579 1.14446 5.36886C1.90743 3.74194 2.99579 2.35624 4.40954 1.21178L5.78962 2.72651C4.60028 3.69144 3.67461 4.85274 3.01262 6.21038C2.35063 7.56802 2.01964 9.00982 2.01964 10.5358H0ZM21.9804 10.5358C21.9804 9.00982 21.6662 7.56802 21.0379 6.21038C20.4095 4.85274 19.5007 3.69144 18.3114 2.72651L19.6914 1.21178C21.0828 2.37868 22.1487 3.76999 22.8892 5.38569C23.6297 7.0014 24 8.71809 24 10.5358H21.9804ZM1.21178 22.8892V20.8696H4.03927V10.5694C4.03927 8.72931 4.59467 7.06311 5.70547 5.57083C6.81627 4.07854 8.28051 3.14166 10.0982 2.76017V1.78401C10.0982 1.26788 10.2833 0.841515 10.6536 0.504909C11.0238 0.168303 11.467 0 11.9832 0C12.4993 0 12.9425 0.168303 13.3128 0.504909C13.683 0.841515 13.8682 1.26788 13.8682 1.78401V2.76017C15.6858 3.14166 17.1557 4.07854 18.2777 5.57083C19.3997 7.06311 19.9607 8.72931 19.9607 10.5694V20.8696H22.7546V22.8892H1.21178ZM11.9832 26.9285C11.2651 26.9285 10.6367 26.6648 10.0982 26.1374C9.55961 25.6101 9.29032 24.9762 9.29032 24.2356H14.676C14.676 24.9762 14.4123 25.6101 13.885 26.1374C13.3576 26.6648 12.7237 26.9285 11.9832 26.9285Z" fill="#6A726D"/>
</svg>
