<?xml version="1.0" encoding="iso-8859-1"?>
<!-- Generator: Adobe Illustrator 19.0.0, SVG Export Plug-In . SVG Version: 6.00 Build 0)  -->
<svg version="1.1" id="Layer_1" xmlns="http://www.w3.org/2000/svg" xmlns:xlink="http://www.w3.org/1999/xlink" x="0px" y="0px"
	 viewBox="0 0 504 504" style="enable-background:new 0 0 504 504;" xml:space="preserve">
<circle style="fill:#324A5E;" cx="252" cy="252" r="252"/>
<polygon style="fill:#FFD05B;" points="374.9,284.2 374.9,296.5 136.5,296.5 136.5,194.2 103.8,194.2 103.8,371.1 136.5,371.1
	136.5,322.8 374.9,322.8 374.9,371.1 400.2,371.1 400.2,284.2 "/>
<path style="fill:#84DBFF;" d="M373.5,267.1h-237v29.4h238.4v-28C374.9,267.7,374.2,267.1,373.5,267.1z"/>
<path style="fill:#FF7058;" d="M185,250.5h-48.5v16.6h53.4v-12.4C189.9,252.4,187.7,250.5,185,250.5z"/>
<path style="fill:#FFFFFF;" d="M247.5,116.9c0-11.7,3.9-22.5,10.3-31.2c-20.3,8.5-34.5,28.5-34.5,51.9c0,31.1,25.2,56.3,56.3,56.3
	c23.4,0,43.4-14.2,51.9-34.5c-8.8,6.5-19.5,10.3-31.2,10.3C271.1,169.6,247.5,146,247.5,116.9z"/>
</svg>
