<svg width="30" height="24" viewBox="0 0 30 24" fill="none" xmlns="http://www.w3.org/2000/svg">
<path d="M10.95 18H13.2V13.05H18.15V10.8H13.2V5.85H10.95V10.8H6V13.05H10.95V18ZM2.25 24C1.65 24 1.125 23.775 0.675 23.325C0.225 22.875 0 22.35 0 21.75V2.25C0 1.65 0.225 1.125 0.675 0.675C1.125 0.225 1.65 0 2.25 0H21.75C22.35 0 22.875 0.225 23.325 0.675C23.775 1.125 24 1.65 24 2.25V10.3125L30 4.3125V19.6875L24 13.6875V21.75C24 22.35 23.775 22.875 23.325 23.325C22.875 23.775 22.35 24 21.75 24H2.25Z" fill="#06C149"/>
</svg>
