<svg width="24" height="24" viewBox="0 0 24 24" fill="none" xmlns="http://www.w3.org/2000/svg">
    <path
        d="M16.38 10.41C16.84 10.41 17.225 10.255 17.535 9.945C17.845 9.635 18 9.25 18 8.79C18 8.33 17.845 7.945 17.535 7.635C17.225 7.325 16.84 7.17 16.38 7.17C15.92 7.17 15.535 7.325 15.225 7.635C14.915 7.945 14.76 8.33 14.76 8.79C14.76 9.25 14.915 9.635 15.225 9.945C15.535 10.255 15.92 10.41 16.38 10.41ZM7.62 10.41C8.08 10.41 8.465 10.255 8.775 9.945C9.085 9.635 9.24 9.25 9.24 8.79C9.24 8.33 9.085 7.945 8.775 7.635C8.465 7.325 8.08 7.17 7.62 7.17C7.16 7.17 6.775 7.325 6.465 7.635C6.155 7.945 6 8.33 6 8.79C6 9.25 6.155 9.635 6.465 9.945C6.775 10.255 7.16 10.41 7.62 10.41ZM12 18.57C13.32 18.57 14.535 18.215 15.645 17.505C16.755 16.795 17.56 15.83 18.06 14.61H16.5C16.04 15.41 15.41 16.025 14.61 16.455C13.81 16.885 12.95 17.1 12.03 17.1C11.09 17.1 10.215 16.89 9.405 16.47C8.595 16.05 7.97 15.43 7.53 14.61H5.94C6.46 15.83 7.27 16.795 8.37 17.505C9.47 18.215 10.68 18.57 12 18.57ZM12 24C10.36 24 8.81 23.685 7.35 23.055C5.89 22.425 4.615 21.565 3.525 20.475C2.435 19.385 1.575 18.11 0.945 16.65C0.315 15.19 0 13.63 0 11.97C0 10.33 0.315 8.78 0.945 7.32C1.575 5.86 2.435 4.59 3.525 3.51C4.615 2.43 5.89 1.575 7.35 0.945C8.81 0.315 10.37 0 12.03 0C13.67 0 15.22 0.315 16.68 0.945C18.14 1.575 19.41 2.43 20.49 3.51C21.57 4.59 22.425 5.86 23.055 7.32C23.685 8.78 24 10.34 24 12C24 13.64 23.685 15.19 23.055 16.65C22.425 18.11 21.57 19.385 20.49 20.475C19.41 21.565 18.14 22.425 16.68 23.055C15.22 23.685 13.66 24 12 24Z"
        fill="#363C3A"
    />
</svg>