<svg width="22" height="21" viewBox="0 0 22 21" fill="none" xmlns="http://www.w3.org/2000/svg">
<path d="M9.65512 21C9.27407 21 8.95466 20.8742 8.69689 20.6227C8.43912 20.3711 8.31024 20.0594 8.31024 19.6875V11.8125L0.27458 1.80469C-0.0392256 1.43281 -0.0840551 1.03906 0.140092 0.623437C0.364238 0.207812 0.711666 0 1.18237 0H20.8176C21.2883 0 21.6358 0.207812 21.8599 0.623437C22.0841 1.03906 22.0392 1.43281 21.7254 1.80469L13.6898 11.8125V19.6875C13.6898 20.0594 13.5609 20.3711 13.3031 20.6227C13.0453 20.8742 12.7259 21 12.3449 21H9.65512Z" fill="#6A726D"/>
</svg>
