<svg width="24" height="24" viewBox="0 0 24 24" fill="none" xmlns="http://www.w3.org/2000/svg">
<path d="M10.32 15.21L18.12 10.2L10.32 5.19V15.21ZM5.4 20.4C4.92 20.4 4.5 20.22 4.14 19.86C3.78 19.5 3.6 19.08 3.6 18.6V1.8C3.6 1.32 3.78 0.9 4.14 0.54C4.5 0.18 4.92 0 5.4 0H22.2C22.68 0 23.1 0.18 23.46 0.54C23.82 0.9 24 1.32 24 1.8V18.6C24 19.08 23.82 19.5 23.46 19.86C23.1 20.22 22.68 20.4 22.2 20.4H5.4ZM1.8 24C1.32 24 0.9 23.82 0.54 23.46C0.18 23.1 0 22.68 0 22.2V3.6H1.8V22.2H20.4V24H1.8Z" fill="#6A726D"/>
</svg>
