<svg width="24" height="25" viewBox="0 0 24 25" fill="none" xmlns="http://www.w3.org/2000/svg">
<g clip-path="url(#clip0_137_8329)">
<path d="M23.7662 10.6477H22.7996V10.5979H11.9998V15.3978H18.7815C17.7921 18.192 15.1335 20.1977 11.9998 20.1977C8.02366 20.1977 4.79992 16.974 4.79992 12.9978C4.79992 9.02171 8.02366 5.79796 11.9998 5.79796C13.8352 5.79796 15.5049 6.49035 16.7763 7.62133L20.1705 4.22719C18.0273 2.22983 15.1605 0.998047 11.9998 0.998047C5.37291 0.998047 0 6.37095 0 12.9978C0 19.6247 5.37291 24.9976 11.9998 24.9976C18.6267 24.9976 23.9996 19.6247 23.9996 12.9978C23.9996 12.1933 23.9168 11.4079 23.7662 10.6477Z" fill="#FFC107"/>
<path d="M1.38281 7.41254L5.32534 10.3039C6.39213 7.66273 8.97568 5.79796 11.999 5.79796C13.8344 5.79796 15.5042 6.49035 16.7755 7.62133L20.1697 4.22719C18.0265 2.22983 15.1598 0.998047 11.999 0.998047C7.38991 0.998047 3.39278 3.6002 1.38281 7.41254Z" fill="#FF3D00"/>
<path d="M12.0002 24.9981C15.0997 24.9981 17.9161 23.8119 20.0455 21.883L16.3315 18.7402C15.0863 19.6872 13.5646 20.1994 12.0002 20.1982C8.87905 20.1982 6.2289 18.208 5.23051 15.4307L1.31738 18.4456C3.30335 22.3317 7.33648 24.9981 12.0002 24.9981Z" fill="#4CAF50"/>
<path d="M23.7664 10.6477H22.7998V10.5979H12V15.3978H18.7817C18.3084 16.7276 17.4559 17.8897 16.3295 18.7404L16.3313 18.7392L20.0453 21.8819C19.7825 22.1207 23.9998 18.9978 23.9998 12.9979C23.9998 12.1933 23.917 11.4079 23.7664 10.6477Z" fill="#1976D2"/>
</g>
<defs>
<clipPath id="clip0_137_8329">
<rect y="0.998047" width="24" height="24" rx="3" fill="white"/>
</clipPath>
</defs>
</svg>
