<svg width="24" height="24" viewBox="0 0 24 24" fill="none" xmlns="http://www.w3.org/2000/svg">
<path d="M16.41 17.79L17.76 16.44L12.99 11.64V5.61H11.19V12.36L16.41 17.79ZM12 24C10.36 24 8.81 23.685 7.35 23.055C5.89 22.425 4.615 21.565 3.525 20.475C2.435 19.385 1.575 18.11 0.945 16.65C0.315 15.19 0 13.64 0 12C0 10.36 0.315 8.81 0.945 7.35C1.575 5.89 2.435 4.615 3.525 3.525C4.615 2.435 5.89 1.575 7.35 0.945C8.81 0.315 10.36 0 12 0C13.64 0 15.19 0.315 16.65 0.945C18.11 1.575 19.385 2.435 20.475 3.525C21.565 4.615 22.425 5.89 23.055 7.35C23.685 8.81 24 10.36 24 12C24 13.64 23.685 15.19 23.055 16.65C22.425 18.11 21.565 19.385 20.475 20.475C19.385 21.565 18.11 22.425 16.65 23.055C15.19 23.685 13.64 24 12 24Z" fill="#6A726D"/>
</svg>
