<svg width="96" height="97" viewBox="0 0 96 97" fill="none" xmlns="http://www.w3.org/2000/svg">
<path d="M6.47734 49.2475L42.2522 85.0224C43.747 86.5171 45.74 87.3143 47.733 87.3143C49.726 87.3143 51.8187 86.5171 53.2138 85.0224C56.303 81.9332 56.303 77.0502 53.2138 73.9611L29.4968 50.1444C19.432 40.0796 19.432 23.6371 29.4968 13.5723C34.3797 8.58974 40.8571 5.89916 47.733 5.89916C54.609 5.89916 61.1859 8.58974 66.0689 13.4727L95.5657 42.9695V15.1667C95.5657 7.19462 89.0883 0.717285 81.1162 0.717285H14.4494C6.47734 0.717285 0 7.19462 0 15.1667V46.6566C2.39163 46.5569 4.68361 47.4538 6.47734 49.2475Z" fill="#03D8FF"/>
<path d="M89.0876 62.0034L53.3127 26.2285C51.818 24.7337 49.8249 23.9365 47.8319 23.9365C45.8389 23.9365 43.7462 24.7337 42.3511 26.2285C39.2619 29.3177 39.2619 34.2006 42.3511 37.2898L66.1678 61.1065C75.7343 70.673 76.2325 86.119 67.4632 96.1838H81.2151C89.1872 96.1838 95.6646 89.7065 95.6646 81.7343V64.6939C93.1733 64.6939 90.8813 63.7971 89.0876 62.0034Z" fill="#06C149"/>
<path d="M0 68.2817V81.8343C0 89.8064 6.47734 96.2838 14.4495 96.2838H28.002L0 68.2817Z" fill="#06C149"/>
</svg>
