<svg width="641" height="97" viewBox="0 0 641 97" fill="none" xmlns="http://www.w3.org/2000/svg">
<path d="M156.096 35.2127C155.85 32.7365 154.796 30.8129 152.934 29.4417C151.072 28.0706 148.544 27.3851 145.352 27.3851C143.183 27.3851 141.351 27.692 139.857 28.306C138.363 28.8994 137.217 29.7283 136.419 30.7924C135.642 31.8565 135.253 33.0639 135.253 34.4146C135.212 35.5401 135.447 36.5224 135.959 37.3615C136.491 38.2005 137.217 38.927 138.138 39.5409C139.059 40.1344 140.123 40.6562 141.331 41.1064C142.538 41.5362 143.827 41.9045 145.198 42.2115L150.847 43.5621C153.589 44.1761 156.106 44.9946 158.398 46.0179C160.69 47.0411 162.675 48.2996 164.353 49.7935C166.031 51.2874 167.331 53.0474 168.251 55.0733C169.193 57.0993 169.674 59.422 169.694 62.0414C169.674 65.8887 168.691 69.2244 166.747 72.0485C164.824 74.8521 162.04 77.0316 158.398 78.5869C154.776 80.1217 150.407 80.8891 145.29 80.8891C140.215 80.8891 135.795 80.1115 132.03 78.5562C128.285 77.0009 125.358 74.6986 123.25 71.6494C121.163 68.5798 120.068 64.7837 119.966 60.261H132.828C132.971 62.3689 133.575 64.1288 134.639 65.5408C135.723 66.9324 137.166 67.9863 138.967 68.7026C140.788 69.3984 142.845 69.7463 145.137 69.7463C147.388 69.7463 149.342 69.4188 151 68.764C152.678 68.1091 153.978 67.1985 154.898 66.032C155.819 64.8655 156.28 63.5251 156.28 62.0107C156.28 60.5987 155.86 59.4118 155.021 58.4499C154.203 57.4881 152.995 56.6695 151.399 55.9942C149.823 55.3189 147.889 54.705 145.597 54.1524L138.752 52.4334C133.452 51.1442 129.267 49.1284 126.197 46.3862C123.128 43.644 121.603 39.9502 121.623 35.3048C121.603 31.4984 122.616 28.173 124.662 25.3284C126.729 22.4839 129.564 20.2635 133.165 18.6673C136.767 17.0711 140.86 16.2729 145.444 16.2729C150.11 16.2729 154.182 17.0711 157.661 18.6673C161.161 20.2635 163.882 22.4839 165.826 25.3284C167.771 28.173 168.773 31.4677 168.835 35.2127H156.096Z" fill="white"/>
<path d="M176.24 28.0911V17.1325H227.872V28.0911H208.625V79.9989H195.487V28.0911H176.24Z" fill="white"/>
<path d="M236.375 79.9989V17.1325H261.177C265.925 17.1325 269.977 17.9817 273.333 19.6803C276.71 21.3583 279.278 23.7424 281.038 26.8325C282.818 29.9022 283.709 33.5142 283.709 37.6684C283.709 41.8431 282.808 45.4346 281.007 48.4429C279.206 51.4307 276.597 53.7227 273.18 55.3189C269.783 56.9151 265.669 57.7132 260.84 57.7132H244.233V47.0308H258.691C261.229 47.0308 263.336 46.683 265.014 45.9872C266.693 45.2914 267.941 44.2477 268.759 42.8561C269.598 41.4645 270.018 39.7353 270.018 37.6684C270.018 35.5811 269.598 33.8211 268.759 32.3886C267.941 30.9561 266.682 29.8715 264.984 29.1348C263.306 28.3776 261.188 27.999 258.63 27.999H249.666V79.9989H236.375ZM270.325 51.3898L285.949 79.9989H271.277L255.99 51.3898H270.325Z" fill="white"/>
<path d="M293.102 79.9989V17.1325H335.463V28.0911H306.393V43.071H333.283V54.0297H306.393V69.0402H335.586V79.9989H293.102Z" fill="white"/>
<path d="M356.866 79.9989H342.623L364.325 17.1325H381.454L403.126 79.9989H388.883L373.135 31.4984H372.644L356.866 79.9989ZM355.976 55.2882H389.619V65.6636H355.976V55.2882Z" fill="white"/>
<path d="M410.692 17.1325H427.084L444.397 59.3708H445.134L462.447 17.1325H478.839V79.9989H465.946V39.0805H465.424L449.155 79.6919H440.376L424.107 38.927H423.585V79.9989H410.692V17.1325Z" fill="white"/>
<path d="M489.79 79.9989V17.1325H503.081V69.0402H530.033V79.9989H489.79Z" fill="white"/>
<path d="M538.835 79.9989V17.1325H581.196V28.0911H552.127V43.071H579.017V54.0297H552.127V69.0402H581.319V79.9989H538.835Z" fill="white"/>
<path d="M589.369 28.0911V17.1325H641.001V28.0911H621.754V79.9989H608.616V28.0911H589.369Z" fill="white"/>
<path d="M6.47734 49.2475L42.2522 85.0224C43.747 86.5171 45.74 87.3143 47.733 87.3143C49.726 87.3143 51.8187 86.5171 53.2138 85.0224C56.303 81.9332 56.303 77.0502 53.2138 73.9611L29.4968 50.1444C19.432 40.0796 19.432 23.6371 29.4968 13.5723C34.3797 8.58974 40.8571 5.89916 47.733 5.89916C54.609 5.89916 61.1859 8.58974 66.0689 13.4727L95.5657 42.9695V15.1667C95.5657 7.19463 89.0883 0.717285 81.1162 0.717285H14.4494C6.47734 0.717285 0 7.19463 0 15.1667V46.6566C2.39163 46.5569 4.68361 47.4538 6.47734 49.2475Z" fill="#03D8FF"/>
<path d="M89.0876 62.0034L53.3127 26.2285C51.818 24.7337 49.8249 23.9365 47.8319 23.9365C45.8389 23.9365 43.7462 24.7337 42.3511 26.2285C39.2619 29.3177 39.2619 34.2006 42.3511 37.2898L66.1678 61.1065C75.7343 70.673 76.2325 86.119 67.4632 96.1838H81.2151C89.1872 96.1838 95.6646 89.7064 95.6646 81.7343V64.6939C93.1733 64.6939 90.8813 63.7971 89.0876 62.0034Z" fill="#06C149"/>
<path d="M0 68.2817V81.8343C0 89.8064 6.47734 96.2838 14.4495 96.2838H28.002L0 68.2817Z" fill="#06C149"/>
</svg>
