<?xml version='1.0' encoding='utf-8'?>
<!DOCTYPE svg PUBLIC '-//W3C//DTD SVG 1.1//EN' 'http://www.w3.org/Graphics/SVG/1.1/DTD/svg11.dtd'>
<svg version="1.1" xmlns="http://www.w3.org/2000/svg" viewBox="0 0 512 512" xmlns:xlink="http://www.w3.org/1999/xlink"
  enable-background="new 0 0 512 512" fill="currentcolor">
  <g>
    <path
      d="m495,466.1l-119.2-119.2c29.1-35.5 46.5-80.8 46.5-130.3 0-113.5-92.1-205.6-205.6-205.6-113.6,0-205.7,92.1-205.7,205.7s92.1,205.7 205.7,205.7c49.4,0 94.8-17.4 130.3-46.5l119.1,119.1c8,8 20.9,8 28.9,0 8-8 8-20.9 0-28.9zm-443.2-249.4c-1.42109e-14-91 73.8-164.8 164.8-164.8 91,0 164.8,73.8 164.8,164.8s-73.8,164.8-164.8,164.8c-91,0-164.8-73.8-164.8-164.8z" />
  </g>
</svg>
