<svg
    width="23"
    height="23"
    viewBox="0 0 23 23"
    fill="none"
    xmlns="http://www.w3.org/2000/svg"
>
    <path
        d="M1.62603 11.6303L10.1995 20.2038C10.5578 20.5621 11.0354 20.7531 11.513 20.7531C11.9906 20.7531 12.4922 20.5621 12.8265 20.2038C13.5668 19.4635 13.5668 18.2933 12.8265 17.553L7.14268 11.8453C4.73064 9.43323 4.73064 5.49277 7.14268 3.08073C8.31288 1.88665 9.86518 1.24184 11.513 1.24184C13.1608 1.24184 14.737 1.88665 15.9072 3.05684L22.9762 10.1258V3.46283C22.9762 1.5523 21.4239 0 19.5133 0H3.53656C1.62603 0 0.0737305 1.5523 0.0737305 3.46283V11.0094C0.646889 10.9855 1.19617 11.2005 1.62603 11.6303Z"
        fill="#03D8FF"
    />
    <path
        d="M21.4237 14.6872L12.8502 6.11373C12.492 5.75551 12.0143 5.56445 11.5367 5.56445C11.0591 5.56445 10.5576 5.75551 10.2232 6.11373C9.48289 6.85406 9.48289 8.02426 10.2232 8.76459L15.9309 14.4723C18.2235 16.7649 18.343 20.4666 16.2414 22.8786H19.537C21.4476 22.8786 22.9999 21.3263 22.9999 19.4158V15.332C22.4028 15.332 21.8536 15.1171 21.4237 14.6872Z"
        fill="#06C149"
    />
    <path
        d="M0.0737305 16.1918V19.4397C0.0737305 21.3502 1.62603 22.9025 3.53656 22.9025H6.78446L0.0737305 16.1918Z"
        fill="#06C149"
    />
</svg>