<svg width="16" height="17" viewBox="0 0 16 17" fill="currentcolor" xmlns="http://www.w3.org/2000/svg">
  <path
    d="M11.1958 10.0648C11.3234 9.72369 11.3882 9.36229 11.3869 8.99811C11.3869 8.18949 11.0657 7.41399 10.4939 6.84222C9.92211 6.27044 9.14662 5.94922 8.338 5.94922C7.97831 5.94964 7.62158 6.01436 7.28467 6.14033L8.00022 6.87811C8.109 6.86071 8.21896 6.85179 8.32911 6.85144C8.90086 6.85025 9.44986 7.07533 9.85622 7.47753C10.2626 7.87973 10.4933 8.42638 10.498 8.99811C10.4976 9.10826 10.4887 9.21822 10.4713 9.327L11.1958 10.0648Z" />
  <path
    d="M15.2399 8.78917C13.7421 6.02028 11.1154 4.34473 8.20877 4.34473C7.41737 4.34658 6.63129 4.4741 5.87988 4.7225L6.59544 5.4425C7.12248 5.3063 7.66442 5.23613 8.20877 5.23362C10.711 5.23362 12.9865 6.62917 14.3421 8.98028C13.8448 9.85255 13.1856 10.6219 12.3999 11.247L13.031 11.8781C13.9404 11.1444 14.6956 10.2381 15.2532 9.21139L15.3688 8.99806L15.2399 8.78917Z" />
  <path
    d="M2.16428 3.56701L4.14651 5.54923C2.89358 6.35595 1.86957 7.47179 1.17317 8.78923L1.05762 8.99812L1.17317 9.21145C2.67095 11.9803 5.29762 13.6559 8.20428 13.6559C9.3388 13.6557 10.4586 13.3989 11.4798 12.9048L13.7021 15.127L14.4798 14.4603L2.92428 2.90479L2.16428 3.56701ZM6.49762 7.90034L9.45317 10.8559C9.11923 11.0626 8.73479 11.1733 8.34206 11.1759C8.0567 11.1759 7.77415 11.1195 7.51067 11.0099C7.2472 10.9003 7.008 10.7396 6.80683 10.5372C6.60567 10.3348 6.44652 10.0947 6.33853 9.83051C6.23055 9.56637 6.17586 9.28348 6.17762 8.99812C6.18262 8.60992 6.29325 8.23042 6.49762 7.90034ZM5.85317 7.2559C5.43737 7.8423 5.24247 8.55692 5.303 9.27322C5.36353 9.98953 5.67557 10.6613 6.18389 11.1696C6.6922 11.6779 7.36398 11.99 8.08029 12.0505C8.7966 12.111 9.51122 11.9161 10.0976 11.5003L10.8087 12.2114C9.98552 12.5633 9.09954 12.7448 8.20428 12.7448C5.70206 12.7448 3.42651 11.3492 2.07095 8.99812C2.72149 7.84621 3.65838 6.88176 4.79095 6.19812L5.85317 7.2559Z" />
</svg>
