<?xml version="1.0" encoding="iso-8859-1"?>
<!-- Generator: Adobe Illustrator 19.0.0, SVG Export Plug-In . SVG Version: 6.00 Build 0)  -->
<svg version="1.1" id="Capa_1" xmlns="http://www.w3.org/2000/svg" xmlns:xlink="http://www.w3.org/1999/xlink" x="0px"
  y="0px" viewBox="0 0 384.97 384.97" style="enable-background:new 0 0 384.97 384.97;" fill="currentcolor" xml:space="preserve">
  <g id="Settings">
    <path d="M12.03,84.212h360.909c6.641,0,12.03-5.39,12.03-12.03c0-6.641-5.39-12.03-12.03-12.03H12.03
			C5.39,60.152,0,65.541,0,72.182C0,78.823,5.39,84.212,12.03,84.212z" />
    <path d="M372.939,300.758H12.03c-6.641,0-12.03,5.39-12.03,12.03c0,6.641,5.39,12.03,12.03,12.03h360.909
			c6.641,0,12.03-5.39,12.03-12.03C384.97,306.147,379.58,300.758,372.939,300.758z" />
    <path d="M336.848,144.364c-22.4,0-41.059,15.375-46.425,36.091H12.03c-6.641,0-12.03,5.39-12.03,12.03s5.39,12.03,12.03,12.03
			h278.393c5.366,20.716,24.025,36.091,46.425,36.091c26.575,0,48.121-21.546,48.121-48.121S363.423,144.364,336.848,144.364z
			 M336.848,216.545c-13.293,0-24.061-10.779-24.061-24.061c0-13.281,10.767-24.061,24.061-24.061s24.061,10.767,24.061,24.061
			C360.909,205.766,350.142,216.545,336.848,216.545z" />
  </g>
</svg>
