<svg width="18" height="14" viewBox="0 0 18 14" fill="none" xmlns="http://www.w3.org/2000/svg">
<path d="M12.125 11.7823V7.71985H6.46094C6.29518 7.71985 6.13621 7.654 6.019 7.53679C5.90179 7.41958 5.83594 7.26061 5.83594 7.09485C5.83594 6.92909 5.90179 6.77012 6.019 6.65291C6.13621 6.5357 6.29518 6.46985 6.46094 6.46985H12.125V2.40735C12.1244 1.82738 11.8937 1.27134 11.4836 0.861238C11.0735 0.451136 10.5175 0.220469 9.9375 0.219849H2.4375C1.85753 0.220469 1.30149 0.451136 0.891389 0.861238C0.481288 1.27134 0.25062 1.82738 0.25 2.40735V11.7823C0.25062 12.3623 0.481288 12.9184 0.891389 13.3285C1.30149 13.7386 1.85753 13.9692 2.4375 13.9698H9.9375C10.5175 13.9692 11.0735 13.7386 11.4836 13.3285C11.8937 12.9184 12.1244 12.3623 12.125 11.7823V11.7823ZM15.616 7.71985L13.5582 9.77805C13.4459 9.89622 13.3843 10.0536 13.3864 10.2165C13.3885 10.3795 13.4541 10.5352 13.5694 10.6505C13.6846 10.7657 13.8403 10.8314 14.0033 10.8335C14.1663 10.8356 14.3236 10.7739 14.4418 10.6616L17.5668 7.53665C17.6839 7.41945 17.7497 7.26054 17.7497 7.09485C17.7497 6.92916 17.6839 6.77025 17.5668 6.65305L14.4418 3.52805C14.3236 3.41579 14.1663 3.35413 14.0033 3.35621C13.8403 3.3583 13.6846 3.42397 13.5694 3.53922C13.4541 3.65447 13.3885 3.81019 13.3864 3.97316C13.3843 4.13614 13.4459 4.29348 13.5582 4.41165L15.616 6.46985H12.125V7.71985H15.616Z" fill="#06C149"/>
</svg>
