<svg xmlns="http://www.w3.org/2000/svg" xmlns:xlink="http://www.w3.org/1999/xlink" version="1.1" width="256" height="256" viewBox="0 0 256 256" xml:space="preserve">

<defs>
</defs>
<g style="stroke: none; stroke-width: 0; stroke-dasharray: none; stroke-linecap: butt; stroke-linejoin: miter; stroke-miterlimit: 10; fill: none; fill-rule: nonzero; opacity: 1;" transform="translate(1.4065934065934016 1.4065934065934016) scale(2.81 2.81)" >
	<path d="M 45 68 c -12.682 0 -23 -10.317 -23 -23 c 0 -12.682 10.318 -23 23 -23 c 12.683 0 23 10.318 23 23 C 68 57.683 57.683 68 45 68 z M 45 28 c -9.374 0 -17 7.626 -17 17 s 7.626 17 17 17 s 17 -7.626 17 -17 S 54.374 28 45 28 z" style="stroke: none; stroke-width: 1; stroke-dasharray: none; stroke-linecap: butt; stroke-linejoin: miter; stroke-miterlimit: 10; fill: rgb(0,0,0); fill-rule: nonzero; opacity: 1;" transform=" matrix(1 0 0 1 0 0) " stroke-linecap="round" />
	<path d="M 45 17.556 c -1.657 0 -3 -1.343 -3 -3 V 3 c 0 -1.657 1.343 -3 3 -3 c 1.657 0 3 1.343 3 3 v 11.556 C 48 16.212 46.657 17.556 45 17.556 z" style="stroke: none; stroke-width: 1; stroke-dasharray: none; stroke-linecap: butt; stroke-linejoin: miter; stroke-miterlimit: 10; fill: rgb(0,0,0); fill-rule: nonzero; opacity: 1;" transform=" matrix(1 0 0 1 0 0) " stroke-linecap="round" />
	<path d="M 45 90 c -1.657 0 -3 -1.343 -3 -3 V 75.444 c 0 -1.657 1.343 -3 3 -3 c 1.657 0 3 1.343 3 3 V 87 C 48 88.657 46.657 90 45 90 z" style="stroke: none; stroke-width: 1; stroke-dasharray: none; stroke-linecap: butt; stroke-linejoin: miter; stroke-miterlimit: 10; fill: rgb(0,0,0); fill-rule: nonzero; opacity: 1;" transform=" matrix(1 0 0 1 0 0) " stroke-linecap="round" />
	<path d="M 14.556 48 H 3 c -1.657 0 -3 -1.343 -3 -3 c 0 -1.657 1.343 -3 3 -3 h 11.556 c 1.657 0 3 1.343 3 3 C 17.556 46.657 16.212 48 14.556 48 z" style="stroke: none; stroke-width: 1; stroke-dasharray: none; stroke-linecap: butt; stroke-linejoin: miter; stroke-miterlimit: 10; fill: rgb(0,0,0); fill-rule: nonzero; opacity: 1;" transform=" matrix(1 0 0 1 0 0) " stroke-linecap="round" />
	<path d="M 87 48 H 75.444 c -1.657 0 -3 -1.343 -3 -3 c 0 -1.657 1.343 -3 3 -3 H 87 c 1.657 0 3 1.343 3 3 C 90 46.657 88.657 48 87 48 z" style="stroke: none; stroke-width: 1; stroke-dasharray: none; stroke-linecap: butt; stroke-linejoin: miter; stroke-miterlimit: 10; fill: rgb(0,0,0); fill-rule: nonzero; opacity: 1;" transform=" matrix(1 0 0 1 0 0) " stroke-linecap="round" />
	<path d="M 66.527 26.473 c -0.768 0 -1.535 -0.293 -2.121 -0.878 c -1.172 -1.172 -1.172 -3.071 0 -4.243 l 8.171 -8.171 c 1.172 -1.172 3.07 -1.171 4.242 0 c 1.172 1.172 1.172 3.071 0 4.243 l -8.171 8.171 C 68.063 26.18 67.295 26.473 66.527 26.473 z" style="stroke: none; stroke-width: 1; stroke-dasharray: none; stroke-linecap: butt; stroke-linejoin: miter; stroke-miterlimit: 10; fill: rgb(0,0,0); fill-rule: nonzero; opacity: 1;" transform=" matrix(1 0 0 1 0 0) " stroke-linecap="round" />
	<path d="M 15.302 77.698 c -0.768 0 -1.536 -0.293 -2.121 -0.879 c -1.172 -1.171 -1.172 -3.071 0 -4.242 l 8.171 -8.171 c 1.171 -1.172 3.071 -1.172 4.242 0 c 1.172 1.171 1.172 3.071 0 4.242 l -8.171 8.171 C 16.837 77.405 16.069 77.698 15.302 77.698 z" style="stroke: none; stroke-width: 1; stroke-dasharray: none; stroke-linecap: butt; stroke-linejoin: miter; stroke-miterlimit: 10; fill: rgb(0,0,0); fill-rule: nonzero; opacity: 1;" transform=" matrix(1 0 0 1 0 0) " stroke-linecap="round" />
	<path d="M 23.473 26.473 c -0.768 0 -1.536 -0.293 -2.121 -0.878 l -8.171 -8.171 c -1.172 -1.172 -1.172 -3.071 0 -4.243 c 1.172 -1.172 3.072 -1.171 4.243 0 l 8.171 8.171 c 1.172 1.172 1.172 3.071 0 4.243 C 25.008 26.18 24.24 26.473 23.473 26.473 z" style="stroke: none; stroke-width: 1; stroke-dasharray: none; stroke-linecap: butt; stroke-linejoin: miter; stroke-miterlimit: 10; fill: rgb(0,0,0); fill-rule: nonzero; opacity: 1;" transform=" matrix(1 0 0 1 0 0) " stroke-linecap="round" />
	<path d="M 74.698 77.698 c -0.768 0 -1.535 -0.293 -2.121 -0.879 l -8.171 -8.171 c -1.172 -1.171 -1.172 -3.071 0 -4.242 c 1.172 -1.172 3.07 -1.172 4.242 0 l 8.171 8.171 c 1.172 1.171 1.172 3.071 0 4.242 C 76.233 77.405 75.466 77.698 74.698 77.698 z" style="stroke: none; stroke-width: 1; stroke-dasharray: none; stroke-linecap: butt; stroke-linejoin: miter; stroke-miterlimit: 10; fill: rgb(0,0,0); fill-rule: nonzero; opacity: 1;" transform=" matrix(1 0 0 1 0 0) " stroke-linecap="round" />
</g>
</svg>