<svg version="1.1" xmlns="http://www.w3.org/2000/svg" width="768" height="768" viewBox="0 0 768 768">
<title></title>
<g id="icomoon-ignore">
</g>
<path d="M384 624c26.51 0 48 21.49 48 48v48c0 26.51-21.49 48-48 48s-48-21.49-48-48v-48c0-26.51 21.49-48 48-48zM384 144c-26.51 0-48-21.49-48-48v-48c0-26.509 21.49-48 48-48s48 21.491 48 48v48c0 26.51-21.49 48-48 48zM720 336c26.51 0 48 21.49 48 48s-21.49 48-48 48h-48c-26.511 0-48-21.49-48-48s21.489-48 48-48h48zM144 384c0 26.51-21.49 48-48 48h-48c-26.509 0-48-21.49-48-48s21.491-48 48-48h48c26.51 0 48 21.49 48 48zM621.588 553.706l33.942 33.943c18.744 18.743 18.744 49.137 0 67.881-18.745 18.744-49.139 18.744-67.882 0l-33.942-33.942c-18.744-18.742-18.744-49.137 0-67.883 18.745-18.744 49.139-18.744 67.882 0zM146.412 214.294l-33.942-33.942c-18.745-18.745-18.745-49.137 0-67.883s49.137-18.746 67.883 0l33.942 33.942c18.746 18.745 18.746 49.137 0 67.883s-49.137 18.746-67.882 0zM621.588 214.294c-18.744 18.744-49.137 18.744-67.882 0-18.744-18.746-18.744-49.137 0-67.882l33.942-33.94c18.744-18.746 49.137-18.746 67.882 0 18.744 18.745 18.744 49.137 0 67.883l-33.942 33.94zM146.412 553.706c18.744-18.744 49.139-18.744 67.881 0 18.745 18.745 18.745 49.14 0 67.882l-33.941 33.942c-18.745 18.744-49.137 18.744-67.883 0s-18.746-49.139 0-67.881l33.942-33.943z"></path>
<path d="M384 192c-106.038 0-192 85.962-192 192 0 106.037 85.962 192 192 192 106.037 0 192-85.963 192-192 0-106.038-85.962-192-192-192zM384 504c-66.274 0-120-53.726-120-120s53.726-120 120-120 120 53.726 120 120-53.726 120-120 120z"></path>
</svg>