<svg width="26" height="24" viewBox="0 0 26 24" fill="currentcolor" xmlns="http://www.w3.org/2000/svg">
  <path
    d="M23.4002 8.64C23.8602 8.64 24.2752 8.825 24.6452 9.195C25.0152 9.565 25.2002 9.98 25.2002 10.44V12.9C25.2002 13.12 25.1752 13.375 25.1252 13.665C25.0752 13.955 25.0002 14.21 24.9002 14.43L21.4202 22.47C21.2402 22.89 20.9452 23.25 20.5352 23.55C20.1252 23.85 19.6902 24 19.2302 24H5.2202V8.64L13.5602 0L14.5502 0.779999C14.7702 0.939999 14.9152 1.12 14.9852 1.32C15.0552 1.52 15.0902 1.75 15.0902 2.01V2.31L13.7402 8.64H23.4002ZM3.42019 8.64V24H0.00019455V8.64H3.42019Z" />
</svg>
