<svg width="26" height="24" viewBox="0 0 26 24" fill="currentcolor" xmlns="http://www.w3.org/2000/svg">
  <path
    d="M1.8 15.36C1.34 15.36 0.925 15.175 0.555 14.805C0.185 14.435 0 14.02 0 13.56V11.1C0 10.88 0.025 10.625 0.075 10.335C0.125 10.045 0.2 9.79 0.3 9.57L3.78 1.53C3.96 1.11 4.255 0.75 4.665 0.45C5.075 0.15 5.51 0 5.97 0H19.98V15.36L11.64 24L10.65 23.22C10.43 23.06 10.285 22.88 10.215 22.68C10.145 22.48 10.11 22.25 10.11 21.99V21.69L11.46 15.36H1.8ZM21.78 15.36V0H25.2V15.36H21.78Z" />
</svg>
