<svg width="12" height="12" viewBox="0 0 12 12" fill="none" xmlns="http://www.w3.org/2000/svg" style="transform: rotate(-45deg);">
<path d="M8.205 3.105L8.88 3.78L6.495 6.18V9.195H5.595V5.82L8.205 3.105ZM6 0C5.18 0 4.405 0.157499 3.675 0.4725C2.945 0.787499 2.3075 1.2175 1.7625 1.7625C1.2175 2.3075 0.7875 2.945 0.4725 3.675C0.1575 4.405 0 5.18 0 6C0 6.82 0.1575 7.595 0.4725 8.325C0.7875 9.055 1.2175 9.6925 1.7625 10.2375C2.3075 10.7825 2.945 11.2125 3.675 11.5275C4.405 11.8425 5.18 12 6 12C6.82 12 7.595 11.8425 8.325 11.5275C9.055 11.2125 9.6925 10.7825 10.2375 10.2375C10.7825 9.6925 11.2125 9.055 11.5275 8.325C11.8425 7.595 12 6.82 12 6C12 5.18 11.8425 4.405 11.5275 3.675C11.2125 2.945 10.7825 2.3075 10.2375 1.7625C9.6925 1.2175 9.055 0.787499 8.325 0.4725C7.595 0.157499 6.82 0 6 0Z"/>
</svg>
