<svg id="Layer_1" data-name="Layer 1" xmlns="http://www.w3.org/2000/svg" viewBox="0 0 512 512">
<title>television-tv-glyph</title>
<path d="M123.37,512c10.14,1.14,31.56-40.58,31.56-40.58h-41.7C113.23,494,113.23,510.86,123.37,512Z" fill="#5b5b5f"/><path d="M393.86,512C404,510.86,404,494,404,471.39H362.33S383.7,513.12,393.86,512Z" fill="#5b5b5f"/><path d="M226.19,115.26,251,114.12,210.42,24S201.42-3.09,189,.29s-1.14,20.3-1.14,20.3Z" fill="#5b5b5f"/><path d="M337.59,20.6S348.85,3.67,336.43.29,315,24,315,24l-40.51,90.15,24.71,1.13Z" fill="#5b5b5f"/><path d="M411.34,125.38h-323s-41.16,0-41.16,41.19V416.72s-9.51,44.34,60.14,44.34H427.2s38,0,38-53.83v-247S468.32,125.38,411.34,125.38Zm2,245.7a27.65,27.65,0,0,1-27.57,27.57H126.21a27.65,27.65,0,0,1-27.57-27.57V215.36a27.65,27.65,0,0,1,27.57-27.57H385.79a27.65,27.65,0,0,1,27.57,27.57Z" fill="#5b5b5f"/>
</svg>