<svg width="18" height="12" viewBox="0 0 18 12" fill="currentcolor" xmlns="http://www.w3.org/2000/svg">
<path d="M8.76923 9.4C9.71259 9.4 10.5131 9.07 11.1708 8.41C11.8285 7.75 12.1573 6.94667 12.1573 6C12.1573 5.05333 11.8285 4.25 11.1708 3.59C10.5131 2.93 9.71259 2.6 8.76923 2.6C7.82587 2.6 7.02535 2.93 6.36766 3.59C5.70997 4.25 5.38112 5.05333 5.38112 6C5.38112 6.94667 5.70997 7.75 6.36766 8.41C7.02535 9.07 7.82587 9.4 8.76923 9.4ZM8.76923 8.24C8.14476 8.24 7.61661 8.02333 7.18479 7.59C6.75297 7.15667 6.53706 6.62667 6.53706 6C6.53706 5.37333 6.75297 4.84333 7.18479 4.41C7.61661 3.97667 8.14476 3.76 8.76923 3.76C9.39371 3.76 9.92185 3.97667 10.3537 4.41C10.7855 4.84333 11.0014 5.37333 11.0014 6C11.0014 6.62667 10.7855 7.15667 10.3537 7.59C9.92185 8.02333 9.39371 8.24 8.76923 8.24ZM8.76923 12C6.82937 12 5.07552 11.4467 3.50769 10.34C1.93986 9.23333 0.770629 7.78667 0 6C0.770629 4.21333 1.93986 2.76667 3.50769 1.66C5.07552 0.553333 6.82937 0 8.76923 0C10.7091 0 12.4629 0.553333 14.0308 1.66C15.5986 2.76667 16.7678 4.21333 17.5385 6C16.7678 7.78667 15.5986 9.23333 14.0308 10.34C12.4629 11.4467 10.7091 12 8.76923 12Z"/>
</svg>
